G04 #@! TF.FileFunction,Copper,L4,Bot,Signal*
%FSLAX46Y46*%
G04 Gerber Fmt 4.6, Leading zero omitted, Abs format (unit mm)*
G04 Created by KiCad (PCBNEW 4.0.5) date Tuesday, June 20, 2017 'PMt' 07:53:22 PM*
%MOMM*%
%LPD*%
G01*
G04 APERTURE LIST*
%ADD10C,0.100000*%
%ADD11C,0.457200*%
%ADD12R,1.250000X1.000000*%
%ADD13R,1.000000X1.250000*%
%ADD14R,1.727200X2.032000*%
%ADD15O,1.727200X2.032000*%
%ADD16R,2.032000X1.727200*%
%ADD17O,2.032000X1.727200*%
%ADD18C,1.600000*%
%ADD19R,2.032000X2.032000*%
%ADD20O,2.032000X2.032000*%
%ADD21R,1.300000X0.700000*%
%ADD22R,0.700000X1.300000*%
%ADD23C,1.016000*%
%ADD24C,0.127000*%
%ADD25C,0.254000*%
%ADD26C,0.508000*%
G04 APERTURE END LIST*
D10*
D11*
X122936000Y-78867000D03*
X123952000Y-78867000D03*
X124968000Y-78867000D03*
X124968000Y-77978000D03*
X123952000Y-77978000D03*
X122936000Y-77978000D03*
X124968000Y-76962000D03*
X123952000Y-76962000D03*
D10*
G36*
X131215359Y-103592438D02*
X132099242Y-104476321D01*
X131392135Y-105183428D01*
X130508252Y-104299545D01*
X131215359Y-103592438D01*
X131215359Y-103592438D01*
G37*
G36*
X129801145Y-105006652D02*
X130685028Y-105890535D01*
X129977921Y-106597642D01*
X129094038Y-105713759D01*
X129801145Y-105006652D01*
X129801145Y-105006652D01*
G37*
G36*
X124369601Y-112104362D02*
X123485718Y-111220479D01*
X124192825Y-110513372D01*
X125076708Y-111397255D01*
X124369601Y-112104362D01*
X124369601Y-112104362D01*
G37*
G36*
X125783815Y-110690148D02*
X124899932Y-109806265D01*
X125607039Y-109099158D01*
X126490922Y-109983041D01*
X125783815Y-110690148D01*
X125783815Y-110690148D01*
G37*
G36*
X120618442Y-94862879D02*
X119734559Y-95746762D01*
X119027452Y-95039655D01*
X119911335Y-94155772D01*
X120618442Y-94862879D01*
X120618442Y-94862879D01*
G37*
G36*
X119204228Y-93448665D02*
X118320345Y-94332548D01*
X117613238Y-93625441D01*
X118497121Y-92741558D01*
X119204228Y-93448665D01*
X119204228Y-93448665D01*
G37*
G36*
X122660639Y-107798678D02*
X123544522Y-108682561D01*
X122837415Y-109389668D01*
X121953532Y-108505785D01*
X122660639Y-107798678D01*
X122660639Y-107798678D01*
G37*
G36*
X121246425Y-109212892D02*
X122130308Y-110096775D01*
X121423201Y-110803882D01*
X120539318Y-109919999D01*
X121246425Y-109212892D01*
X121246425Y-109212892D01*
G37*
G36*
X119490682Y-110407679D02*
X118606799Y-111291562D01*
X117899692Y-110584455D01*
X118783575Y-109700572D01*
X119490682Y-110407679D01*
X119490682Y-110407679D01*
G37*
G36*
X118076468Y-108993465D02*
X117192585Y-109877348D01*
X116485478Y-109170241D01*
X117369361Y-108286358D01*
X118076468Y-108993465D01*
X118076468Y-108993465D01*
G37*
G36*
X120742518Y-97059521D02*
X121626401Y-96175638D01*
X122333508Y-96882745D01*
X121449625Y-97766628D01*
X120742518Y-97059521D01*
X120742518Y-97059521D01*
G37*
G36*
X122156732Y-98473735D02*
X123040615Y-97589852D01*
X123747722Y-98296959D01*
X122863839Y-99180842D01*
X122156732Y-98473735D01*
X122156732Y-98473735D01*
G37*
G36*
X122396479Y-100767958D02*
X123280362Y-101651841D01*
X122573255Y-102358948D01*
X121689372Y-101475065D01*
X122396479Y-100767958D01*
X122396479Y-100767958D01*
G37*
G36*
X120982265Y-102182172D02*
X121866148Y-103066055D01*
X121159041Y-103773162D01*
X120275158Y-102889279D01*
X120982265Y-102182172D01*
X120982265Y-102182172D01*
G37*
D12*
X138303000Y-71603360D03*
X138303000Y-73603360D03*
D13*
X137575800Y-86995000D03*
X135575800Y-86995000D03*
D10*
G36*
X120994399Y-99345558D02*
X121878282Y-100229441D01*
X121171175Y-100936548D01*
X120287292Y-100052665D01*
X120994399Y-99345558D01*
X120994399Y-99345558D01*
G37*
G36*
X119580185Y-100759772D02*
X120464068Y-101643655D01*
X119756961Y-102350762D01*
X118873078Y-101466879D01*
X119580185Y-100759772D01*
X119580185Y-100759772D01*
G37*
D14*
X108585000Y-118414800D03*
D15*
X111125000Y-118414800D03*
X113665000Y-118414800D03*
X116205000Y-118414800D03*
D16*
X150368000Y-98425000D03*
D17*
X150368000Y-95885000D03*
X150368000Y-93345000D03*
X150368000Y-90805000D03*
X150368000Y-88265000D03*
X150368000Y-85725000D03*
X150368000Y-83185000D03*
X150368000Y-80645000D03*
X150368000Y-78105000D03*
X150368000Y-75565000D03*
X150368000Y-73025000D03*
X150368000Y-70485000D03*
D16*
X108077000Y-70231000D03*
D17*
X108077000Y-72771000D03*
X108077000Y-75311000D03*
X108077000Y-77851000D03*
X108077000Y-80391000D03*
X108077000Y-82931000D03*
X108077000Y-85471000D03*
X108077000Y-88011000D03*
X108077000Y-90551000D03*
X108077000Y-93091000D03*
X108077000Y-95631000D03*
X108077000Y-98171000D03*
D16*
X108127800Y-110820200D03*
D17*
X108127800Y-108280200D03*
X108127800Y-105740200D03*
X108127800Y-103200200D03*
D14*
X132816600Y-118414800D03*
D15*
X130276600Y-118414800D03*
X127736600Y-118414800D03*
X125196600Y-118414800D03*
X122656600Y-118414800D03*
X120116600Y-118414800D03*
D16*
X150368000Y-109702600D03*
D17*
X150368000Y-107162600D03*
X150368000Y-104622600D03*
X150368000Y-102082600D03*
D18*
X127429800Y-67782440D03*
X120829800Y-67782440D03*
D19*
X139115800Y-68173600D03*
D20*
X141655800Y-68173600D03*
D14*
X136575800Y-118414800D03*
D15*
X139115800Y-118414800D03*
X141655800Y-118414800D03*
X144195800Y-118414800D03*
X146735800Y-118414800D03*
X149275800Y-118414800D03*
D14*
X117094000Y-68072000D03*
D15*
X114554000Y-68072000D03*
X112014000Y-68072000D03*
D21*
X119476520Y-78877120D03*
X119476520Y-80777120D03*
X117210840Y-78892360D03*
X117210840Y-80792360D03*
D22*
X132298400Y-67843400D03*
X134198400Y-67843400D03*
X142549840Y-106563160D03*
X144449840Y-106563160D03*
X142549840Y-108686600D03*
X144449840Y-108686600D03*
X142580320Y-110840520D03*
X144480320Y-110840520D03*
X142580320Y-112989360D03*
X144480320Y-112989360D03*
X143301760Y-101635560D03*
X141401760Y-101635560D03*
X143286520Y-99512120D03*
X141386520Y-99512120D03*
D10*
G36*
X119023359Y-98268598D02*
X119907242Y-99152481D01*
X119200135Y-99859588D01*
X118316252Y-98975705D01*
X119023359Y-98268598D01*
X119023359Y-98268598D01*
G37*
G36*
X117609145Y-99682812D02*
X118493028Y-100566695D01*
X117785921Y-101273802D01*
X116902038Y-100389919D01*
X117609145Y-99682812D01*
X117609145Y-99682812D01*
G37*
D21*
X143281400Y-78737500D03*
X143281400Y-76837500D03*
D11*
X122936000Y-76962000D03*
X132831840Y-107167680D03*
X122890280Y-103251000D03*
X117165120Y-92374720D03*
X123134120Y-100243640D03*
X120406160Y-111109760D03*
X117861080Y-107193080D03*
X119771160Y-103581200D03*
X117170200Y-101798120D03*
X127487680Y-111333280D03*
X131307840Y-107553760D03*
X137744200Y-100528120D03*
X122682000Y-95961200D03*
X139496800Y-86893400D03*
X133426200Y-69138800D03*
D23*
X126644400Y-83413600D03*
X118262400Y-70866000D03*
X139954000Y-72847200D03*
X129844800Y-70307200D03*
X123169680Y-72069960D03*
D11*
X124739400Y-85923120D03*
X129905760Y-74472800D03*
X116326920Y-75270360D03*
D23*
X138684000Y-80954880D03*
D11*
X126918720Y-112938560D03*
X121787920Y-107706160D03*
X118424960Y-107589320D03*
X118303040Y-102118160D03*
X145618200Y-100868480D03*
X138109960Y-101422200D03*
X134950200Y-113858040D03*
X120853200Y-95745300D03*
X135585200Y-67868800D03*
D23*
X140665200Y-76454000D03*
D11*
X123428760Y-102702360D03*
D23*
X140106400Y-71374000D03*
X133771640Y-71688960D03*
X121315480Y-73370440D03*
D11*
X121386600Y-74955400D03*
X125780800Y-81508600D03*
X122189240Y-103992680D03*
X129753360Y-89799160D03*
X126959360Y-90357960D03*
X125227080Y-93543120D03*
X125374400Y-106108500D03*
X133553200Y-84124800D03*
X121640600Y-74269600D03*
X118313200Y-79806800D03*
X115798600Y-80111600D03*
X126121160Y-102428040D03*
X126568200Y-92481400D03*
X127254000Y-98450400D03*
X124129800Y-94640400D03*
X135900160Y-96616520D03*
X128076960Y-94081600D03*
X136210040Y-95890080D03*
X127939800Y-93431360D03*
X112928400Y-111442500D03*
X117119400Y-115785900D03*
X128864360Y-97871280D03*
X133771640Y-98298000D03*
X138750040Y-102179120D03*
X133421120Y-98902520D03*
X128635760Y-98602800D03*
X139364720Y-102930960D03*
X113258600Y-83921600D03*
X118755160Y-104124760D03*
X145740120Y-106588560D03*
X145775680Y-108691680D03*
X145775680Y-110845600D03*
X145613120Y-112989360D03*
X128930400Y-102184200D03*
X123310650Y-107537250D03*
X128905000Y-101473000D03*
X123329700Y-106870500D03*
X123380500Y-106210100D03*
X128689100Y-100901500D03*
X141084300Y-81724500D03*
X115849400Y-98094800D03*
X112483900Y-97701100D03*
X111709200Y-98196400D03*
X114782600Y-98183700D03*
X117259100Y-106324400D03*
X116789200Y-107569000D03*
X130810000Y-67843400D03*
X143941800Y-75044300D03*
D24*
X131303747Y-105639587D02*
X131303747Y-104387933D01*
X132831840Y-107167680D02*
X131303747Y-105639587D01*
X118408733Y-93537053D02*
X118327453Y-93537053D01*
D25*
X118327453Y-93537053D02*
X117165120Y-92374720D01*
D24*
X122952227Y-98385347D02*
X122731813Y-98385347D01*
D25*
X122731813Y-98385347D02*
X122234960Y-98882200D01*
X122234960Y-98882200D02*
X122234960Y-99344480D01*
X122234960Y-99344480D02*
X123134120Y-100243640D01*
D24*
X121334813Y-110008387D02*
X121334813Y-110181107D01*
D25*
X121334813Y-110181107D02*
X120406160Y-111109760D01*
X117861080Y-107193080D02*
X117280973Y-107773187D01*
X117280973Y-107773187D02*
X117280973Y-109081853D01*
X121070653Y-102977667D02*
X120374693Y-102977667D01*
X120374693Y-102977667D02*
X119771160Y-103581200D01*
X117697533Y-100478307D02*
X117697533Y-101270787D01*
X117697533Y-101270787D02*
X117170200Y-101798120D01*
D24*
X125695427Y-109894653D02*
X126049053Y-109894653D01*
D25*
X126049053Y-109894653D02*
X127487680Y-111333280D01*
D24*
X129889533Y-105802147D02*
X129889533Y-106135453D01*
X129889533Y-106135453D02*
X131307840Y-107553760D01*
X142580320Y-112989360D02*
X142158720Y-112989360D01*
X137495280Y-100777040D02*
X137744200Y-100528120D01*
X137495280Y-108325920D02*
X137495280Y-100777040D01*
X142158720Y-112989360D02*
X137495280Y-108325920D01*
X137575800Y-86995000D02*
X139395200Y-86995000D01*
X139395200Y-86995000D02*
X139496800Y-86893400D01*
D26*
X138303000Y-73603360D02*
X139197840Y-73603360D01*
X139197840Y-73603360D02*
X139954000Y-72847200D01*
D24*
X125289027Y-111308867D02*
X124281213Y-111308867D01*
X126918720Y-112938560D02*
X125289027Y-111308867D01*
X121538013Y-96971133D02*
X121497373Y-96971133D01*
D25*
X121497373Y-96971133D02*
X120853200Y-96326960D01*
X120853200Y-96326960D02*
X120853200Y-95745300D01*
D24*
X119822947Y-94951267D02*
X120059167Y-94951267D01*
D25*
X120059167Y-94951267D02*
X120853200Y-95745300D01*
X121787920Y-107706160D02*
X122675933Y-108594173D01*
D24*
X122675933Y-108594173D02*
X122749027Y-108594173D01*
X118695187Y-110496067D02*
X118695187Y-110326453D01*
X118695187Y-110326453D02*
X118790720Y-110230920D01*
D25*
X118790720Y-110230920D02*
X118790720Y-108412280D01*
X118790720Y-108412280D02*
X118333520Y-107955080D01*
X118333520Y-107955080D02*
X118333520Y-107680760D01*
X118333520Y-107680760D02*
X118424960Y-107589320D01*
X119668573Y-101555267D02*
X118865933Y-101555267D01*
X118865933Y-101555267D02*
X118303040Y-102118160D01*
D24*
X143301760Y-101635560D02*
X145069560Y-101635560D01*
X144602200Y-99512120D02*
X145618200Y-100528120D01*
X145618200Y-100528120D02*
X145618200Y-100868480D01*
X144602200Y-99512120D02*
X143286520Y-99512120D01*
X145618200Y-101086920D02*
X145618200Y-100868480D01*
X145069560Y-101635560D02*
X145618200Y-101086920D01*
X142580320Y-110840520D02*
X141071600Y-110840520D01*
X138109960Y-107878880D02*
X138109960Y-101422200D01*
X141071600Y-110840520D02*
X138109960Y-107878880D01*
X134198400Y-67843400D02*
X135559800Y-67843400D01*
X135559800Y-67843400D02*
X135585200Y-67868800D01*
X121082787Y-100141053D02*
X121082787Y-100161373D01*
X121082787Y-100161373D02*
X122484867Y-101563453D01*
X119111747Y-99064093D02*
X120005827Y-99064093D01*
X120005827Y-99064093D02*
X121082787Y-100141053D01*
X122484867Y-101563453D02*
X122484867Y-101758467D01*
X122484867Y-101758467D02*
X123428760Y-102702360D01*
X122484867Y-101543133D02*
X122484867Y-101563453D01*
D26*
X140085320Y-71395080D02*
X138303000Y-71603360D01*
X140106400Y-71374000D02*
X140085320Y-71395080D01*
X132394960Y-73065640D02*
X133771640Y-71688960D01*
X121620280Y-73065640D02*
X132394960Y-73065640D01*
X121315480Y-73370440D02*
X121620280Y-73065640D01*
D25*
X125780800Y-81508600D02*
X125780800Y-81407000D01*
X126720600Y-74955400D02*
X121386600Y-74955400D01*
X126974600Y-75209400D02*
X126720600Y-74955400D01*
X126974600Y-80213200D02*
X126974600Y-75209400D01*
X125780800Y-81407000D02*
X126974600Y-80213200D01*
X119476520Y-80777120D02*
X120172520Y-80777120D01*
X125755400Y-81534000D02*
X125780800Y-81508600D01*
X120929400Y-81534000D02*
X125755400Y-81534000D01*
X120172520Y-80777120D02*
X120929400Y-81534000D01*
D24*
X117210840Y-80792360D02*
X119461280Y-80792360D01*
X119461280Y-80792360D02*
X119476520Y-80777120D01*
X123068107Y-104439736D02*
X122636296Y-104439736D01*
X122636296Y-104439736D02*
X122189240Y-103992680D01*
X129753360Y-89799160D02*
X129194560Y-90357960D01*
X129194560Y-90357960D02*
X126959360Y-90357960D01*
X125227080Y-93543120D02*
X126039880Y-94355920D01*
X126039880Y-94355920D02*
X126039880Y-95392240D01*
X126039880Y-95392240D02*
X127828040Y-97180400D01*
X127828040Y-97180400D02*
X127828040Y-99689920D01*
X127828040Y-99689920D02*
X123068107Y-104439736D01*
X123068107Y-104439736D02*
X123047760Y-104460040D01*
X146735800Y-118414800D02*
X146532600Y-118414800D01*
X146532600Y-118414800D02*
X143446500Y-115328700D01*
X143446500Y-115328700D02*
X134645400Y-115328700D01*
X134645400Y-115328700D02*
X125374400Y-106108500D01*
X132435600Y-83854800D02*
X133283200Y-83854800D01*
X133283200Y-83854800D02*
X133553200Y-84124800D01*
X132435600Y-83854800D02*
X135575800Y-86995000D01*
X132435600Y-79400400D02*
X132435600Y-83854800D01*
X131089400Y-78054200D02*
X132435600Y-79400400D01*
X128600200Y-78054200D02*
X131089400Y-78054200D01*
X127609600Y-77063600D02*
X128600200Y-78054200D01*
X127609600Y-75057000D02*
X127609600Y-77063600D01*
X126949200Y-74396600D02*
X127609600Y-75057000D01*
X121767600Y-74396600D02*
X126949200Y-74396600D01*
X121640600Y-74269600D02*
X121767600Y-74396600D01*
X118313200Y-79806800D02*
X118287800Y-79781400D01*
X118287800Y-79781400D02*
X118572240Y-79781400D01*
X118572240Y-79781400D02*
X119476520Y-78877120D01*
X115798600Y-80111600D02*
X115773200Y-80086200D01*
X115773200Y-80086200D02*
X115773200Y-79273400D01*
X115773200Y-79273400D02*
X116154240Y-78892360D01*
X116154240Y-78892360D02*
X117210840Y-78892360D01*
X128132840Y-100416360D02*
X126121160Y-102428040D01*
X128132840Y-96250760D02*
X128132840Y-100416360D01*
X126847600Y-94965520D02*
X128132840Y-96250760D01*
X126847600Y-92760800D02*
X126847600Y-94965520D01*
X126568200Y-92481400D02*
X126847600Y-92760800D01*
X127406400Y-98298000D02*
X127254000Y-98450400D01*
X127520700Y-98031300D02*
X127406400Y-98298000D01*
X124129800Y-94640400D02*
X127520700Y-98031300D01*
X135900160Y-96616520D02*
X133365240Y-94081600D01*
X133365240Y-94081600D02*
X128076960Y-94081600D01*
X136210040Y-95890080D02*
X133751320Y-93431360D01*
X133751320Y-93431360D02*
X127939800Y-93431360D01*
X144195800Y-118414800D02*
X144195800Y-118173500D01*
X144195800Y-118173500D02*
X141706600Y-115684300D01*
X141706600Y-115684300D02*
X118922800Y-115684300D01*
X118922800Y-115684300D02*
X114681000Y-111442500D01*
X114681000Y-111442500D02*
X112928400Y-111442500D01*
X136931400Y-116230400D02*
X139115800Y-118414800D01*
X117563900Y-116230400D02*
X136931400Y-116230400D01*
X117119400Y-115785900D02*
X117563900Y-116230400D01*
X128864360Y-97871280D02*
X129291080Y-98298000D01*
X129291080Y-98298000D02*
X133771640Y-98298000D01*
X138750040Y-102179120D02*
X138750040Y-100812600D01*
X140050520Y-99512120D02*
X141386520Y-99512120D01*
X138750040Y-100812600D02*
X140050520Y-99512120D01*
X142549840Y-108686600D02*
X139867640Y-108686600D01*
X138750040Y-107569000D02*
X138750040Y-102179120D01*
X139867640Y-108686600D02*
X138750040Y-107569000D01*
X128935480Y-98902520D02*
X133421120Y-98902520D01*
X128635760Y-98602800D02*
X128935480Y-98902520D01*
X139364720Y-102930960D02*
X139364720Y-102133400D01*
X139862560Y-101635560D02*
X141401760Y-101635560D01*
X139364720Y-102133400D02*
X139862560Y-101635560D01*
X142549840Y-106563160D02*
X139893040Y-106563160D01*
X139364720Y-106034840D02*
X139364720Y-102930960D01*
X139893040Y-106563160D02*
X139364720Y-106034840D01*
X112207040Y-93543120D02*
X112318800Y-93543120D01*
X113258600Y-83921600D02*
X112207040Y-84973160D01*
X112207040Y-84973160D02*
X112207040Y-93543120D01*
X115956080Y-101325680D02*
X118755160Y-104124760D01*
X115956080Y-100157280D02*
X115956080Y-101325680D01*
X116723160Y-99390200D02*
X115956080Y-100157280D01*
X116723160Y-97947480D02*
X116723160Y-99390200D01*
X112318800Y-93543120D02*
X116723160Y-97947480D01*
X144449840Y-106563160D02*
X145714720Y-106563160D01*
X145714720Y-106563160D02*
X145740120Y-106588560D01*
X144449840Y-108686600D02*
X145770600Y-108686600D01*
X145770600Y-108686600D02*
X145775680Y-108691680D01*
X144480320Y-110840520D02*
X145770600Y-110840520D01*
X145770600Y-110840520D02*
X145775680Y-110845600D01*
X144480320Y-112989360D02*
X145613120Y-112989360D01*
X125539500Y-105575100D02*
X125101350Y-105746550D01*
X128930400Y-102184200D02*
X125539500Y-105575100D01*
X125101350Y-105746550D02*
X123310650Y-107537250D01*
X128905000Y-101473000D02*
X125260100Y-105117900D01*
X125260100Y-105117900D02*
X124891800Y-105308400D01*
X124891800Y-105308400D02*
X123329700Y-106870500D01*
X123380500Y-106210100D02*
X128689100Y-100901500D01*
X143281400Y-78737500D02*
X143281400Y-79527400D01*
X143281400Y-79527400D02*
X141084300Y-81724500D01*
X144957800Y-77061100D02*
X143281400Y-78737500D01*
X144957800Y-74231500D02*
X144957800Y-77061100D01*
X148704300Y-70485000D02*
X144957800Y-74231500D01*
X150368000Y-70485000D02*
X148704300Y-70485000D01*
X112496600Y-97713800D02*
X115468400Y-97713800D01*
X115468400Y-97713800D02*
X115849400Y-98094800D01*
X112483900Y-97701100D02*
X112496600Y-97713800D01*
X111721900Y-98183700D02*
X114782600Y-98183700D01*
X111709200Y-98196400D02*
X111721900Y-98183700D01*
X114769900Y-98171000D02*
X114782600Y-98183700D01*
X108077000Y-88011000D02*
X108635800Y-88011000D01*
X108635800Y-88011000D02*
X111086900Y-90462100D01*
X111086900Y-90462100D02*
X111086900Y-105549700D01*
X111086900Y-105549700D02*
X111861600Y-106324400D01*
X111861600Y-106324400D02*
X117259100Y-106324400D01*
X108077000Y-90551000D02*
X108305600Y-90551000D01*
X108305600Y-90551000D02*
X110388400Y-92633800D01*
X110388400Y-92633800D02*
X110388400Y-106426000D01*
X110388400Y-106426000D02*
X111531400Y-107569000D01*
X111531400Y-107569000D02*
X116789200Y-107569000D01*
X130810000Y-67843400D02*
X132298400Y-67843400D01*
X143281400Y-76837500D02*
X143281400Y-75704700D01*
X143281400Y-75704700D02*
X143941800Y-75044300D01*
M02*
