G04 #@! TF.FileFunction,Paste,Bot*
%FSLAX46Y46*%
G04 Gerber Fmt 4.6, Leading zero omitted, Abs format (unit mm)*
G04 Created by KiCad (PCBNEW 4.0.5) date Tuesday, June 20, 2017 'PMt' 07:53:22 PM*
%MOMM*%
%LPD*%
G01*
G04 APERTURE LIST*
%ADD10C,0.100000*%
%ADD11R,1.250000X1.000000*%
%ADD12R,1.000000X1.250000*%
%ADD13R,1.300000X0.700000*%
%ADD14R,0.700000X1.300000*%
G04 APERTURE END LIST*
D10*
G36*
X131215359Y-103592438D02*
X132099242Y-104476321D01*
X131392135Y-105183428D01*
X130508252Y-104299545D01*
X131215359Y-103592438D01*
X131215359Y-103592438D01*
G37*
G36*
X129801145Y-105006652D02*
X130685028Y-105890535D01*
X129977921Y-106597642D01*
X129094038Y-105713759D01*
X129801145Y-105006652D01*
X129801145Y-105006652D01*
G37*
G36*
X124369601Y-112104362D02*
X123485718Y-111220479D01*
X124192825Y-110513372D01*
X125076708Y-111397255D01*
X124369601Y-112104362D01*
X124369601Y-112104362D01*
G37*
G36*
X125783815Y-110690148D02*
X124899932Y-109806265D01*
X125607039Y-109099158D01*
X126490922Y-109983041D01*
X125783815Y-110690148D01*
X125783815Y-110690148D01*
G37*
G36*
X120618442Y-94862879D02*
X119734559Y-95746762D01*
X119027452Y-95039655D01*
X119911335Y-94155772D01*
X120618442Y-94862879D01*
X120618442Y-94862879D01*
G37*
G36*
X119204228Y-93448665D02*
X118320345Y-94332548D01*
X117613238Y-93625441D01*
X118497121Y-92741558D01*
X119204228Y-93448665D01*
X119204228Y-93448665D01*
G37*
G36*
X122660639Y-107798678D02*
X123544522Y-108682561D01*
X122837415Y-109389668D01*
X121953532Y-108505785D01*
X122660639Y-107798678D01*
X122660639Y-107798678D01*
G37*
G36*
X121246425Y-109212892D02*
X122130308Y-110096775D01*
X121423201Y-110803882D01*
X120539318Y-109919999D01*
X121246425Y-109212892D01*
X121246425Y-109212892D01*
G37*
G36*
X119490682Y-110407679D02*
X118606799Y-111291562D01*
X117899692Y-110584455D01*
X118783575Y-109700572D01*
X119490682Y-110407679D01*
X119490682Y-110407679D01*
G37*
G36*
X118076468Y-108993465D02*
X117192585Y-109877348D01*
X116485478Y-109170241D01*
X117369361Y-108286358D01*
X118076468Y-108993465D01*
X118076468Y-108993465D01*
G37*
G36*
X120742518Y-97059521D02*
X121626401Y-96175638D01*
X122333508Y-96882745D01*
X121449625Y-97766628D01*
X120742518Y-97059521D01*
X120742518Y-97059521D01*
G37*
G36*
X122156732Y-98473735D02*
X123040615Y-97589852D01*
X123747722Y-98296959D01*
X122863839Y-99180842D01*
X122156732Y-98473735D01*
X122156732Y-98473735D01*
G37*
G36*
X122396479Y-100767958D02*
X123280362Y-101651841D01*
X122573255Y-102358948D01*
X121689372Y-101475065D01*
X122396479Y-100767958D01*
X122396479Y-100767958D01*
G37*
G36*
X120982265Y-102182172D02*
X121866148Y-103066055D01*
X121159041Y-103773162D01*
X120275158Y-102889279D01*
X120982265Y-102182172D01*
X120982265Y-102182172D01*
G37*
D11*
X138303000Y-71603360D03*
X138303000Y-73603360D03*
D12*
X137575800Y-86995000D03*
X135575800Y-86995000D03*
D10*
G36*
X120994399Y-99345558D02*
X121878282Y-100229441D01*
X121171175Y-100936548D01*
X120287292Y-100052665D01*
X120994399Y-99345558D01*
X120994399Y-99345558D01*
G37*
G36*
X119580185Y-100759772D02*
X120464068Y-101643655D01*
X119756961Y-102350762D01*
X118873078Y-101466879D01*
X119580185Y-100759772D01*
X119580185Y-100759772D01*
G37*
D13*
X119476520Y-78877120D03*
X119476520Y-80777120D03*
X117210840Y-78892360D03*
X117210840Y-80792360D03*
D14*
X132298400Y-67843400D03*
X134198400Y-67843400D03*
X142549840Y-106563160D03*
X144449840Y-106563160D03*
X142549840Y-108686600D03*
X144449840Y-108686600D03*
X142580320Y-110840520D03*
X144480320Y-110840520D03*
X142580320Y-112989360D03*
X144480320Y-112989360D03*
X143301760Y-101635560D03*
X141401760Y-101635560D03*
X143286520Y-99512120D03*
X141386520Y-99512120D03*
D10*
G36*
X119023359Y-98268598D02*
X119907242Y-99152481D01*
X119200135Y-99859588D01*
X118316252Y-98975705D01*
X119023359Y-98268598D01*
X119023359Y-98268598D01*
G37*
G36*
X117609145Y-99682812D02*
X118493028Y-100566695D01*
X117785921Y-101273802D01*
X116902038Y-100389919D01*
X117609145Y-99682812D01*
X117609145Y-99682812D01*
G37*
D13*
X143281400Y-78737500D03*
X143281400Y-76837500D03*
M02*
