G04 #@! TF.FileFunction,Legend,Top*
%FSLAX46Y46*%
G04 Gerber Fmt 4.6, Leading zero omitted, Abs format (unit mm)*
G04 Created by KiCad (PCBNEW 4.0.5) date Tuesday, June 20, 2017 'PMt' 07:53:22 PM*
%MOMM*%
%LPD*%
G01*
G04 APERTURE LIST*
%ADD10C,0.100000*%
%ADD11C,0.150000*%
%ADD12C,0.120000*%
%ADD13C,3.327000*%
%ADD14R,1.127000X1.377000*%
%ADD15R,1.377000X1.127000*%
%ADD16R,1.027000X0.927000*%
%ADD17R,1.325880X1.325880*%
%ADD18R,1.854200X2.159000*%
%ADD19O,1.854200X2.159000*%
%ADD20R,2.159000X1.854200*%
%ADD21O,2.159000X1.854200*%
%ADD22R,0.527000X1.477000*%
%ADD23R,1.727000X1.527000*%
%ADD24R,2.027000X2.027000*%
%ADD25C,1.727000*%
%ADD26R,2.159000X2.159000*%
%ADD27O,2.159000X2.159000*%
%ADD28R,1.677000X0.727000*%
%ADD29R,1.927000X1.327000*%
%ADD30R,1.427000X0.827000*%
%ADD31R,1.227000X0.327000*%
%ADD32R,0.827000X0.827000*%
%ADD33C,1.627000*%
%ADD34R,0.827000X0.377000*%
%ADD35R,0.377000X0.827000*%
%ADD36R,1.852000X1.852000*%
G04 APERTURE END LIST*
D10*
D11*
X147867667Y-106648095D02*
X147867667Y-106171904D01*
X148153381Y-106743333D02*
X147153381Y-106410000D01*
X148153381Y-106076666D01*
X148153381Y-105743333D02*
X147153381Y-105743333D01*
X147153381Y-105505238D01*
X147201000Y-105362380D01*
X147296238Y-105267142D01*
X147391476Y-105219523D01*
X147581952Y-105171904D01*
X147724810Y-105171904D01*
X147915286Y-105219523D01*
X148010524Y-105267142D01*
X148105762Y-105362380D01*
X148153381Y-105505238D01*
X148153381Y-105743333D01*
X148058143Y-104171904D02*
X148105762Y-104219523D01*
X148153381Y-104362380D01*
X148153381Y-104457618D01*
X148105762Y-104600476D01*
X148010524Y-104695714D01*
X147915286Y-104743333D01*
X147724810Y-104790952D01*
X147581952Y-104790952D01*
X147391476Y-104743333D01*
X147296238Y-104695714D01*
X147201000Y-104600476D01*
X147153381Y-104457618D01*
X147153381Y-104362380D01*
X147201000Y-104219523D01*
X147248619Y-104171904D01*
X140224286Y-116276381D02*
X140224286Y-115276381D01*
X140605239Y-115276381D01*
X140700477Y-115324000D01*
X140748096Y-115371619D01*
X140795715Y-115466857D01*
X140795715Y-115609714D01*
X140748096Y-115704952D01*
X140700477Y-115752571D01*
X140605239Y-115800190D01*
X140224286Y-115800190D01*
X141795715Y-116276381D02*
X141462381Y-115800190D01*
X141224286Y-116276381D02*
X141224286Y-115276381D01*
X141605239Y-115276381D01*
X141700477Y-115324000D01*
X141748096Y-115371619D01*
X141795715Y-115466857D01*
X141795715Y-115609714D01*
X141748096Y-115704952D01*
X141700477Y-115752571D01*
X141605239Y-115800190D01*
X141224286Y-115800190D01*
X142414762Y-115276381D02*
X142605239Y-115276381D01*
X142700477Y-115324000D01*
X142795715Y-115419238D01*
X142843334Y-115609714D01*
X142843334Y-115943048D01*
X142795715Y-116133524D01*
X142700477Y-116228762D01*
X142605239Y-116276381D01*
X142414762Y-116276381D01*
X142319524Y-116228762D01*
X142224286Y-116133524D01*
X142176667Y-115943048D01*
X142176667Y-115609714D01*
X142224286Y-115419238D01*
X142319524Y-115324000D01*
X142414762Y-115276381D01*
X143795715Y-115324000D02*
X143700477Y-115276381D01*
X143557620Y-115276381D01*
X143414762Y-115324000D01*
X143319524Y-115419238D01*
X143271905Y-115514476D01*
X143224286Y-115704952D01*
X143224286Y-115847810D01*
X143271905Y-116038286D01*
X143319524Y-116133524D01*
X143414762Y-116228762D01*
X143557620Y-116276381D01*
X143652858Y-116276381D01*
X143795715Y-116228762D01*
X143843334Y-116181143D01*
X143843334Y-115847810D01*
X143652858Y-115847810D01*
X144843334Y-116276381D02*
X144510000Y-115800190D01*
X144271905Y-116276381D02*
X144271905Y-115276381D01*
X144652858Y-115276381D01*
X144748096Y-115324000D01*
X144795715Y-115371619D01*
X144843334Y-115466857D01*
X144843334Y-115609714D01*
X144795715Y-115704952D01*
X144748096Y-115752571D01*
X144652858Y-115800190D01*
X144271905Y-115800190D01*
X145224286Y-115990667D02*
X145700477Y-115990667D01*
X145129048Y-116276381D02*
X145462381Y-115276381D01*
X145795715Y-116276381D01*
X146129048Y-116276381D02*
X146129048Y-115276381D01*
X146462382Y-115990667D01*
X146795715Y-115276381D01*
X146795715Y-116276381D01*
X124738000Y-116228762D02*
X124880857Y-116276381D01*
X125118953Y-116276381D01*
X125214191Y-116228762D01*
X125261810Y-116181143D01*
X125309429Y-116085905D01*
X125309429Y-115990667D01*
X125261810Y-115895429D01*
X125214191Y-115847810D01*
X125118953Y-115800190D01*
X124928476Y-115752571D01*
X124833238Y-115704952D01*
X124785619Y-115657333D01*
X124738000Y-115562095D01*
X124738000Y-115466857D01*
X124785619Y-115371619D01*
X124833238Y-115324000D01*
X124928476Y-115276381D01*
X125166572Y-115276381D01*
X125309429Y-115324000D01*
X125738000Y-116276381D02*
X125738000Y-115276381D01*
X126118953Y-115276381D01*
X126214191Y-115324000D01*
X126261810Y-115371619D01*
X126309429Y-115466857D01*
X126309429Y-115609714D01*
X126261810Y-115704952D01*
X126214191Y-115752571D01*
X126118953Y-115800190D01*
X125738000Y-115800190D01*
X126738000Y-116276381D02*
X126738000Y-115276381D01*
X127738000Y-116276381D02*
X127166571Y-116276381D01*
X127452285Y-116276381D02*
X127452285Y-115276381D01*
X127357047Y-115419238D01*
X127261809Y-115514476D01*
X127166571Y-115562095D01*
X111831619Y-116276381D02*
X111831619Y-115276381D01*
X112260190Y-115371619D02*
X112307809Y-115324000D01*
X112403047Y-115276381D01*
X112641143Y-115276381D01*
X112736381Y-115324000D01*
X112784000Y-115371619D01*
X112831619Y-115466857D01*
X112831619Y-115562095D01*
X112784000Y-115704952D01*
X112212571Y-116276381D01*
X112831619Y-116276381D01*
X113831619Y-116181143D02*
X113784000Y-116228762D01*
X113641143Y-116276381D01*
X113545905Y-116276381D01*
X113403047Y-116228762D01*
X113307809Y-116133524D01*
X113260190Y-116038286D01*
X113212571Y-115847810D01*
X113212571Y-115704952D01*
X113260190Y-115514476D01*
X113307809Y-115419238D01*
X113403047Y-115324000D01*
X113545905Y-115276381D01*
X113641143Y-115276381D01*
X113784000Y-115324000D01*
X113831619Y-115371619D01*
X114212571Y-115371619D02*
X114260190Y-115324000D01*
X114355428Y-115276381D01*
X114593524Y-115276381D01*
X114688762Y-115324000D01*
X114736381Y-115371619D01*
X114784000Y-115466857D01*
X114784000Y-115562095D01*
X114736381Y-115704952D01*
X114164952Y-116276381D01*
X114784000Y-116276381D01*
X110998096Y-109990000D02*
X110902858Y-109942381D01*
X110760001Y-109942381D01*
X110617143Y-109990000D01*
X110521905Y-110085238D01*
X110474286Y-110180476D01*
X110426667Y-110370952D01*
X110426667Y-110513810D01*
X110474286Y-110704286D01*
X110521905Y-110799524D01*
X110617143Y-110894762D01*
X110760001Y-110942381D01*
X110855239Y-110942381D01*
X110998096Y-110894762D01*
X111045715Y-110847143D01*
X111045715Y-110513810D01*
X110855239Y-110513810D01*
X111474286Y-110942381D02*
X111474286Y-109942381D01*
X112045715Y-110942381D01*
X112045715Y-109942381D01*
X112521905Y-110942381D02*
X112521905Y-109942381D01*
X112760000Y-109942381D01*
X112902858Y-109990000D01*
X112998096Y-110085238D01*
X113045715Y-110180476D01*
X113093334Y-110370952D01*
X113093334Y-110513810D01*
X113045715Y-110704286D01*
X112998096Y-110799524D01*
X112902858Y-110894762D01*
X112760000Y-110942381D01*
X112521905Y-110942381D01*
X110426667Y-108910381D02*
X110426667Y-107910381D01*
X110807620Y-107910381D01*
X110902858Y-107958000D01*
X110950477Y-108005619D01*
X110998096Y-108100857D01*
X110998096Y-108243714D01*
X110950477Y-108338952D01*
X110902858Y-108386571D01*
X110807620Y-108434190D01*
X110426667Y-108434190D01*
X111331429Y-107910381D02*
X111569524Y-108910381D01*
X111760001Y-108196095D01*
X111950477Y-108910381D01*
X112188572Y-107910381D01*
X113140953Y-108910381D02*
X112807619Y-108434190D01*
X112569524Y-108910381D02*
X112569524Y-107910381D01*
X112950477Y-107910381D01*
X113045715Y-107958000D01*
X113093334Y-108005619D01*
X113140953Y-108100857D01*
X113140953Y-108243714D01*
X113093334Y-108338952D01*
X113045715Y-108386571D01*
X112950477Y-108434190D01*
X112569524Y-108434190D01*
X111085334Y-106116381D02*
X110752000Y-105640190D01*
X110513905Y-106116381D02*
X110513905Y-105116381D01*
X110894858Y-105116381D01*
X110990096Y-105164000D01*
X111037715Y-105211619D01*
X111085334Y-105306857D01*
X111085334Y-105449714D01*
X111037715Y-105544952D01*
X110990096Y-105592571D01*
X110894858Y-105640190D01*
X110513905Y-105640190D01*
X111418667Y-105116381D02*
X112085334Y-106116381D01*
X112085334Y-105116381D02*
X111418667Y-106116381D01*
X110236095Y-102576381D02*
X110807524Y-102576381D01*
X110521809Y-103576381D02*
X110521809Y-102576381D01*
X111045619Y-102576381D02*
X111712286Y-103576381D01*
X111712286Y-102576381D02*
X111045619Y-103576381D01*
X110117143Y-99512381D02*
X110117143Y-98512381D01*
X110498096Y-98512381D01*
X110593334Y-98560000D01*
X110640953Y-98607619D01*
X110688572Y-98702857D01*
X110688572Y-98845714D01*
X110640953Y-98940952D01*
X110593334Y-98988571D01*
X110498096Y-99036190D01*
X110117143Y-99036190D01*
X111069524Y-99226667D02*
X111545715Y-99226667D01*
X110974286Y-99512381D02*
X111307619Y-98512381D01*
X111640953Y-99512381D01*
X112498096Y-99512381D02*
X111926667Y-99512381D01*
X112212381Y-99512381D02*
X112212381Y-98512381D01*
X112117143Y-98655238D01*
X112021905Y-98750476D01*
X111926667Y-98798095D01*
X112879048Y-98607619D02*
X112926667Y-98560000D01*
X113021905Y-98512381D01*
X113260001Y-98512381D01*
X113355239Y-98560000D01*
X113402858Y-98607619D01*
X113450477Y-98702857D01*
X113450477Y-98798095D01*
X113402858Y-98940952D01*
X112831429Y-99512381D01*
X113450477Y-99512381D01*
X110117143Y-95956381D02*
X110117143Y-94956381D01*
X110498096Y-94956381D01*
X110593334Y-95004000D01*
X110640953Y-95051619D01*
X110688572Y-95146857D01*
X110688572Y-95289714D01*
X110640953Y-95384952D01*
X110593334Y-95432571D01*
X110498096Y-95480190D01*
X110117143Y-95480190D01*
X111069524Y-95670667D02*
X111545715Y-95670667D01*
X110974286Y-95956381D02*
X111307619Y-94956381D01*
X111640953Y-95956381D01*
X112498096Y-95956381D02*
X111926667Y-95956381D01*
X112212381Y-95956381D02*
X112212381Y-94956381D01*
X112117143Y-95099238D01*
X112021905Y-95194476D01*
X111926667Y-95242095D01*
X113450477Y-95956381D02*
X112879048Y-95956381D01*
X113164762Y-95956381D02*
X113164762Y-94956381D01*
X113069524Y-95099238D01*
X112974286Y-95194476D01*
X112879048Y-95242095D01*
X110148857Y-93670381D02*
X110148857Y-92670381D01*
X110482191Y-93384667D01*
X110815524Y-92670381D01*
X110815524Y-93670381D01*
X111863143Y-93575143D02*
X111815524Y-93622762D01*
X111672667Y-93670381D01*
X111577429Y-93670381D01*
X111434571Y-93622762D01*
X111339333Y-93527524D01*
X111291714Y-93432286D01*
X111244095Y-93241810D01*
X111244095Y-93098952D01*
X111291714Y-92908476D01*
X111339333Y-92813238D01*
X111434571Y-92718000D01*
X111577429Y-92670381D01*
X111672667Y-92670381D01*
X111815524Y-92718000D01*
X111863143Y-92765619D01*
X112482190Y-92670381D02*
X112672667Y-92670381D01*
X112767905Y-92718000D01*
X112863143Y-92813238D01*
X112910762Y-93003714D01*
X112910762Y-93337048D01*
X112863143Y-93527524D01*
X112767905Y-93622762D01*
X112672667Y-93670381D01*
X112482190Y-93670381D01*
X112386952Y-93622762D01*
X112291714Y-93527524D01*
X112244095Y-93337048D01*
X112244095Y-93003714D01*
X112291714Y-92813238D01*
X112386952Y-92718000D01*
X112482190Y-92670381D01*
X110013905Y-91130381D02*
X110013905Y-90130381D01*
X110394858Y-90130381D01*
X110490096Y-90178000D01*
X110537715Y-90225619D01*
X110585334Y-90320857D01*
X110585334Y-90463714D01*
X110537715Y-90558952D01*
X110490096Y-90606571D01*
X110394858Y-90654190D01*
X110013905Y-90654190D01*
X111347239Y-90606571D02*
X111490096Y-90654190D01*
X111537715Y-90701810D01*
X111585334Y-90797048D01*
X111585334Y-90939905D01*
X111537715Y-91035143D01*
X111490096Y-91082762D01*
X111394858Y-91130381D01*
X111013905Y-91130381D01*
X111013905Y-90130381D01*
X111347239Y-90130381D01*
X111442477Y-90178000D01*
X111490096Y-90225619D01*
X111537715Y-90320857D01*
X111537715Y-90416095D01*
X111490096Y-90511333D01*
X111442477Y-90558952D01*
X111347239Y-90606571D01*
X111013905Y-90606571D01*
X112061524Y-91130381D02*
X112252000Y-91130381D01*
X112347239Y-91082762D01*
X112394858Y-91035143D01*
X112490096Y-90892286D01*
X112537715Y-90701810D01*
X112537715Y-90320857D01*
X112490096Y-90225619D01*
X112442477Y-90178000D01*
X112347239Y-90130381D01*
X112156762Y-90130381D01*
X112061524Y-90178000D01*
X112013905Y-90225619D01*
X111966286Y-90320857D01*
X111966286Y-90558952D01*
X112013905Y-90654190D01*
X112061524Y-90701810D01*
X112156762Y-90749429D01*
X112347239Y-90749429D01*
X112442477Y-90701810D01*
X112490096Y-90654190D01*
X112537715Y-90558952D01*
X110013905Y-88590381D02*
X110013905Y-87590381D01*
X110394858Y-87590381D01*
X110490096Y-87638000D01*
X110537715Y-87685619D01*
X110585334Y-87780857D01*
X110585334Y-87923714D01*
X110537715Y-88018952D01*
X110490096Y-88066571D01*
X110394858Y-88114190D01*
X110013905Y-88114190D01*
X111347239Y-88066571D02*
X111490096Y-88114190D01*
X111537715Y-88161810D01*
X111585334Y-88257048D01*
X111585334Y-88399905D01*
X111537715Y-88495143D01*
X111490096Y-88542762D01*
X111394858Y-88590381D01*
X111013905Y-88590381D01*
X111013905Y-87590381D01*
X111347239Y-87590381D01*
X111442477Y-87638000D01*
X111490096Y-87685619D01*
X111537715Y-87780857D01*
X111537715Y-87876095D01*
X111490096Y-87971333D01*
X111442477Y-88018952D01*
X111347239Y-88066571D01*
X111013905Y-88066571D01*
X112156762Y-88018952D02*
X112061524Y-87971333D01*
X112013905Y-87923714D01*
X111966286Y-87828476D01*
X111966286Y-87780857D01*
X112013905Y-87685619D01*
X112061524Y-87638000D01*
X112156762Y-87590381D01*
X112347239Y-87590381D01*
X112442477Y-87638000D01*
X112490096Y-87685619D01*
X112537715Y-87780857D01*
X112537715Y-87828476D01*
X112490096Y-87923714D01*
X112442477Y-87971333D01*
X112347239Y-88018952D01*
X112156762Y-88018952D01*
X112061524Y-88066571D01*
X112013905Y-88114190D01*
X111966286Y-88209429D01*
X111966286Y-88399905D01*
X112013905Y-88495143D01*
X112061524Y-88542762D01*
X112156762Y-88590381D01*
X112347239Y-88590381D01*
X112442477Y-88542762D01*
X112490096Y-88495143D01*
X112537715Y-88399905D01*
X112537715Y-88209429D01*
X112490096Y-88114190D01*
X112442477Y-88066571D01*
X112347239Y-88018952D01*
X110045714Y-86050381D02*
X110045714Y-85050381D01*
X110426667Y-85050381D01*
X110521905Y-85098000D01*
X110569524Y-85145619D01*
X110617143Y-85240857D01*
X110617143Y-85383714D01*
X110569524Y-85478952D01*
X110521905Y-85526571D01*
X110426667Y-85574190D01*
X110045714Y-85574190D01*
X111379048Y-85526571D02*
X111521905Y-85574190D01*
X111569524Y-85621810D01*
X111617143Y-85717048D01*
X111617143Y-85859905D01*
X111569524Y-85955143D01*
X111521905Y-86002762D01*
X111426667Y-86050381D01*
X111045714Y-86050381D01*
X111045714Y-85050381D01*
X111379048Y-85050381D01*
X111474286Y-85098000D01*
X111521905Y-85145619D01*
X111569524Y-85240857D01*
X111569524Y-85336095D01*
X111521905Y-85431333D01*
X111474286Y-85478952D01*
X111379048Y-85526571D01*
X111045714Y-85526571D01*
X112569524Y-86050381D02*
X111998095Y-86050381D01*
X112283809Y-86050381D02*
X112283809Y-85050381D01*
X112188571Y-85193238D01*
X112093333Y-85288476D01*
X111998095Y-85336095D01*
X113474286Y-85050381D02*
X112998095Y-85050381D01*
X112950476Y-85526571D01*
X112998095Y-85478952D01*
X113093333Y-85431333D01*
X113331429Y-85431333D01*
X113426667Y-85478952D01*
X113474286Y-85526571D01*
X113521905Y-85621810D01*
X113521905Y-85859905D01*
X113474286Y-85955143D01*
X113426667Y-86002762D01*
X113331429Y-86050381D01*
X113093333Y-86050381D01*
X112998095Y-86002762D01*
X112950476Y-85955143D01*
X110045714Y-83510381D02*
X110045714Y-82510381D01*
X110426667Y-82510381D01*
X110521905Y-82558000D01*
X110569524Y-82605619D01*
X110617143Y-82700857D01*
X110617143Y-82843714D01*
X110569524Y-82938952D01*
X110521905Y-82986571D01*
X110426667Y-83034190D01*
X110045714Y-83034190D01*
X111379048Y-82986571D02*
X111521905Y-83034190D01*
X111569524Y-83081810D01*
X111617143Y-83177048D01*
X111617143Y-83319905D01*
X111569524Y-83415143D01*
X111521905Y-83462762D01*
X111426667Y-83510381D01*
X111045714Y-83510381D01*
X111045714Y-82510381D01*
X111379048Y-82510381D01*
X111474286Y-82558000D01*
X111521905Y-82605619D01*
X111569524Y-82700857D01*
X111569524Y-82796095D01*
X111521905Y-82891333D01*
X111474286Y-82938952D01*
X111379048Y-82986571D01*
X111045714Y-82986571D01*
X112569524Y-83510381D02*
X111998095Y-83510381D01*
X112283809Y-83510381D02*
X112283809Y-82510381D01*
X112188571Y-82653238D01*
X112093333Y-82748476D01*
X111998095Y-82796095D01*
X113426667Y-82843714D02*
X113426667Y-83510381D01*
X113188571Y-82462762D02*
X112950476Y-83177048D01*
X113569524Y-83177048D01*
X110045714Y-80970381D02*
X110045714Y-79970381D01*
X110426667Y-79970381D01*
X110521905Y-80018000D01*
X110569524Y-80065619D01*
X110617143Y-80160857D01*
X110617143Y-80303714D01*
X110569524Y-80398952D01*
X110521905Y-80446571D01*
X110426667Y-80494190D01*
X110045714Y-80494190D01*
X111379048Y-80446571D02*
X111521905Y-80494190D01*
X111569524Y-80541810D01*
X111617143Y-80637048D01*
X111617143Y-80779905D01*
X111569524Y-80875143D01*
X111521905Y-80922762D01*
X111426667Y-80970381D01*
X111045714Y-80970381D01*
X111045714Y-79970381D01*
X111379048Y-79970381D01*
X111474286Y-80018000D01*
X111521905Y-80065619D01*
X111569524Y-80160857D01*
X111569524Y-80256095D01*
X111521905Y-80351333D01*
X111474286Y-80398952D01*
X111379048Y-80446571D01*
X111045714Y-80446571D01*
X112569524Y-80970381D02*
X111998095Y-80970381D01*
X112283809Y-80970381D02*
X112283809Y-79970381D01*
X112188571Y-80113238D01*
X112093333Y-80208476D01*
X111998095Y-80256095D01*
X112902857Y-79970381D02*
X113521905Y-79970381D01*
X113188571Y-80351333D01*
X113331429Y-80351333D01*
X113426667Y-80398952D01*
X113474286Y-80446571D01*
X113521905Y-80541810D01*
X113521905Y-80779905D01*
X113474286Y-80875143D01*
X113426667Y-80922762D01*
X113331429Y-80970381D01*
X113045714Y-80970381D01*
X112950476Y-80922762D01*
X112902857Y-80875143D01*
X110045714Y-78430381D02*
X110045714Y-77430381D01*
X110426667Y-77430381D01*
X110521905Y-77478000D01*
X110569524Y-77525619D01*
X110617143Y-77620857D01*
X110617143Y-77763714D01*
X110569524Y-77858952D01*
X110521905Y-77906571D01*
X110426667Y-77954190D01*
X110045714Y-77954190D01*
X111379048Y-77906571D02*
X111521905Y-77954190D01*
X111569524Y-78001810D01*
X111617143Y-78097048D01*
X111617143Y-78239905D01*
X111569524Y-78335143D01*
X111521905Y-78382762D01*
X111426667Y-78430381D01*
X111045714Y-78430381D01*
X111045714Y-77430381D01*
X111379048Y-77430381D01*
X111474286Y-77478000D01*
X111521905Y-77525619D01*
X111569524Y-77620857D01*
X111569524Y-77716095D01*
X111521905Y-77811333D01*
X111474286Y-77858952D01*
X111379048Y-77906571D01*
X111045714Y-77906571D01*
X112569524Y-78430381D02*
X111998095Y-78430381D01*
X112283809Y-78430381D02*
X112283809Y-77430381D01*
X112188571Y-77573238D01*
X112093333Y-77668476D01*
X111998095Y-77716095D01*
X112950476Y-77525619D02*
X112998095Y-77478000D01*
X113093333Y-77430381D01*
X113331429Y-77430381D01*
X113426667Y-77478000D01*
X113474286Y-77525619D01*
X113521905Y-77620857D01*
X113521905Y-77716095D01*
X113474286Y-77858952D01*
X112902857Y-78430381D01*
X113521905Y-78430381D01*
X110045714Y-75890381D02*
X110045714Y-74890381D01*
X110426667Y-74890381D01*
X110521905Y-74938000D01*
X110569524Y-74985619D01*
X110617143Y-75080857D01*
X110617143Y-75223714D01*
X110569524Y-75318952D01*
X110521905Y-75366571D01*
X110426667Y-75414190D01*
X110045714Y-75414190D01*
X111379048Y-75366571D02*
X111521905Y-75414190D01*
X111569524Y-75461810D01*
X111617143Y-75557048D01*
X111617143Y-75699905D01*
X111569524Y-75795143D01*
X111521905Y-75842762D01*
X111426667Y-75890381D01*
X111045714Y-75890381D01*
X111045714Y-74890381D01*
X111379048Y-74890381D01*
X111474286Y-74938000D01*
X111521905Y-74985619D01*
X111569524Y-75080857D01*
X111569524Y-75176095D01*
X111521905Y-75271333D01*
X111474286Y-75318952D01*
X111379048Y-75366571D01*
X111045714Y-75366571D01*
X112569524Y-75890381D02*
X111998095Y-75890381D01*
X112283809Y-75890381D02*
X112283809Y-74890381D01*
X112188571Y-75033238D01*
X112093333Y-75128476D01*
X111998095Y-75176095D01*
X113521905Y-75890381D02*
X112950476Y-75890381D01*
X113236190Y-75890381D02*
X113236190Y-74890381D01*
X113140952Y-75033238D01*
X113045714Y-75128476D01*
X112950476Y-75176095D01*
X110744096Y-72398000D02*
X110648858Y-72350381D01*
X110506001Y-72350381D01*
X110363143Y-72398000D01*
X110267905Y-72493238D01*
X110220286Y-72588476D01*
X110172667Y-72778952D01*
X110172667Y-72921810D01*
X110220286Y-73112286D01*
X110267905Y-73207524D01*
X110363143Y-73302762D01*
X110506001Y-73350381D01*
X110601239Y-73350381D01*
X110744096Y-73302762D01*
X110791715Y-73255143D01*
X110791715Y-72921810D01*
X110601239Y-72921810D01*
X111220286Y-73350381D02*
X111220286Y-72350381D01*
X111791715Y-73350381D01*
X111791715Y-72350381D01*
X112267905Y-73350381D02*
X112267905Y-72350381D01*
X112506000Y-72350381D01*
X112648858Y-72398000D01*
X112744096Y-72493238D01*
X112791715Y-72588476D01*
X112839334Y-72778952D01*
X112839334Y-72921810D01*
X112791715Y-73112286D01*
X112744096Y-73207524D01*
X112648858Y-73302762D01*
X112506000Y-73350381D01*
X112267905Y-73350381D01*
X110172667Y-71826381D02*
X110172667Y-70826381D01*
X110553620Y-70826381D01*
X110648858Y-70874000D01*
X110696477Y-70921619D01*
X110744096Y-71016857D01*
X110744096Y-71159714D01*
X110696477Y-71254952D01*
X110648858Y-71302571D01*
X110553620Y-71350190D01*
X110172667Y-71350190D01*
X111077429Y-70826381D02*
X111315524Y-71826381D01*
X111506001Y-71112095D01*
X111696477Y-71826381D01*
X111934572Y-70826381D01*
X112886953Y-71826381D02*
X112553619Y-71350190D01*
X112315524Y-71826381D02*
X112315524Y-70826381D01*
X112696477Y-70826381D01*
X112791715Y-70874000D01*
X112839334Y-70921619D01*
X112886953Y-71016857D01*
X112886953Y-71159714D01*
X112839334Y-71254952D01*
X112791715Y-71302571D01*
X112696477Y-71350190D01*
X112315524Y-71350190D01*
X145732667Y-99004381D02*
X145732667Y-98004381D01*
X146113620Y-98004381D01*
X146208858Y-98052000D01*
X146256477Y-98099619D01*
X146304096Y-98194857D01*
X146304096Y-98337714D01*
X146256477Y-98432952D01*
X146208858Y-98480571D01*
X146113620Y-98528190D01*
X145732667Y-98528190D01*
X146637429Y-98004381D02*
X146875524Y-99004381D01*
X147066001Y-98290095D01*
X147256477Y-99004381D01*
X147494572Y-98004381D01*
X148446953Y-99004381D02*
X148113619Y-98528190D01*
X147875524Y-99004381D02*
X147875524Y-98004381D01*
X148256477Y-98004381D01*
X148351715Y-98052000D01*
X148399334Y-98099619D01*
X148446953Y-98194857D01*
X148446953Y-98337714D01*
X148399334Y-98432952D01*
X148351715Y-98480571D01*
X148256477Y-98528190D01*
X147875524Y-98528190D01*
X146304096Y-95512000D02*
X146208858Y-95464381D01*
X146066001Y-95464381D01*
X145923143Y-95512000D01*
X145827905Y-95607238D01*
X145780286Y-95702476D01*
X145732667Y-95892952D01*
X145732667Y-96035810D01*
X145780286Y-96226286D01*
X145827905Y-96321524D01*
X145923143Y-96416762D01*
X146066001Y-96464381D01*
X146161239Y-96464381D01*
X146304096Y-96416762D01*
X146351715Y-96369143D01*
X146351715Y-96035810D01*
X146161239Y-96035810D01*
X146780286Y-96464381D02*
X146780286Y-95464381D01*
X147351715Y-96464381D01*
X147351715Y-95464381D01*
X147827905Y-96464381D02*
X147827905Y-95464381D01*
X148066000Y-95464381D01*
X148208858Y-95512000D01*
X148304096Y-95607238D01*
X148351715Y-95702476D01*
X148399334Y-95892952D01*
X148399334Y-96035810D01*
X148351715Y-96226286D01*
X148304096Y-96321524D01*
X148208858Y-96416762D01*
X148066000Y-96464381D01*
X147827905Y-96464381D01*
X144843714Y-93924381D02*
X144843714Y-92924381D01*
X145224667Y-92924381D01*
X145319905Y-92972000D01*
X145367524Y-93019619D01*
X145415143Y-93114857D01*
X145415143Y-93257714D01*
X145367524Y-93352952D01*
X145319905Y-93400571D01*
X145224667Y-93448190D01*
X144843714Y-93448190D01*
X146415143Y-93829143D02*
X146367524Y-93876762D01*
X146224667Y-93924381D01*
X146129429Y-93924381D01*
X145986571Y-93876762D01*
X145891333Y-93781524D01*
X145843714Y-93686286D01*
X145796095Y-93495810D01*
X145796095Y-93352952D01*
X145843714Y-93162476D01*
X145891333Y-93067238D01*
X145986571Y-92972000D01*
X146129429Y-92924381D01*
X146224667Y-92924381D01*
X146367524Y-92972000D01*
X146415143Y-93019619D01*
X147367524Y-93924381D02*
X146796095Y-93924381D01*
X147081809Y-93924381D02*
X147081809Y-92924381D01*
X146986571Y-93067238D01*
X146891333Y-93162476D01*
X146796095Y-93210095D01*
X147700857Y-92924381D02*
X148319905Y-92924381D01*
X147986571Y-93305333D01*
X148129429Y-93305333D01*
X148224667Y-93352952D01*
X148272286Y-93400571D01*
X148319905Y-93495810D01*
X148319905Y-93733905D01*
X148272286Y-93829143D01*
X148224667Y-93876762D01*
X148129429Y-93924381D01*
X147843714Y-93924381D01*
X147748476Y-93876762D01*
X147700857Y-93829143D01*
X144843714Y-91384381D02*
X144843714Y-90384381D01*
X145224667Y-90384381D01*
X145319905Y-90432000D01*
X145367524Y-90479619D01*
X145415143Y-90574857D01*
X145415143Y-90717714D01*
X145367524Y-90812952D01*
X145319905Y-90860571D01*
X145224667Y-90908190D01*
X144843714Y-90908190D01*
X146415143Y-91289143D02*
X146367524Y-91336762D01*
X146224667Y-91384381D01*
X146129429Y-91384381D01*
X145986571Y-91336762D01*
X145891333Y-91241524D01*
X145843714Y-91146286D01*
X145796095Y-90955810D01*
X145796095Y-90812952D01*
X145843714Y-90622476D01*
X145891333Y-90527238D01*
X145986571Y-90432000D01*
X146129429Y-90384381D01*
X146224667Y-90384381D01*
X146367524Y-90432000D01*
X146415143Y-90479619D01*
X147367524Y-91384381D02*
X146796095Y-91384381D01*
X147081809Y-91384381D02*
X147081809Y-90384381D01*
X146986571Y-90527238D01*
X146891333Y-90622476D01*
X146796095Y-90670095D01*
X148224667Y-90717714D02*
X148224667Y-91384381D01*
X147986571Y-90336762D02*
X147748476Y-91051048D01*
X148367524Y-91051048D01*
X144843714Y-88590381D02*
X144843714Y-87590381D01*
X145224667Y-87590381D01*
X145319905Y-87638000D01*
X145367524Y-87685619D01*
X145415143Y-87780857D01*
X145415143Y-87923714D01*
X145367524Y-88018952D01*
X145319905Y-88066571D01*
X145224667Y-88114190D01*
X144843714Y-88114190D01*
X146415143Y-88495143D02*
X146367524Y-88542762D01*
X146224667Y-88590381D01*
X146129429Y-88590381D01*
X145986571Y-88542762D01*
X145891333Y-88447524D01*
X145843714Y-88352286D01*
X145796095Y-88161810D01*
X145796095Y-88018952D01*
X145843714Y-87828476D01*
X145891333Y-87733238D01*
X145986571Y-87638000D01*
X146129429Y-87590381D01*
X146224667Y-87590381D01*
X146367524Y-87638000D01*
X146415143Y-87685619D01*
X147367524Y-88590381D02*
X146796095Y-88590381D01*
X147081809Y-88590381D02*
X147081809Y-87590381D01*
X146986571Y-87733238D01*
X146891333Y-87828476D01*
X146796095Y-87876095D01*
X148272286Y-87590381D02*
X147796095Y-87590381D01*
X147748476Y-88066571D01*
X147796095Y-88018952D01*
X147891333Y-87971333D01*
X148129429Y-87971333D01*
X148224667Y-88018952D01*
X148272286Y-88066571D01*
X148319905Y-88161810D01*
X148319905Y-88399905D01*
X148272286Y-88495143D01*
X148224667Y-88542762D01*
X148129429Y-88590381D01*
X147891333Y-88590381D01*
X147796095Y-88542762D01*
X147748476Y-88495143D01*
X145899333Y-86304381D02*
X145899333Y-85304381D01*
X146280286Y-85304381D01*
X146375524Y-85352000D01*
X146423143Y-85399619D01*
X146470762Y-85494857D01*
X146470762Y-85637714D01*
X146423143Y-85732952D01*
X146375524Y-85780571D01*
X146280286Y-85828190D01*
X145899333Y-85828190D01*
X146851714Y-86018667D02*
X147327905Y-86018667D01*
X146756476Y-86304381D02*
X147089809Y-85304381D01*
X147423143Y-86304381D01*
X147946952Y-85304381D02*
X148042191Y-85304381D01*
X148137429Y-85352000D01*
X148185048Y-85399619D01*
X148232667Y-85494857D01*
X148280286Y-85685333D01*
X148280286Y-85923429D01*
X148232667Y-86113905D01*
X148185048Y-86209143D01*
X148137429Y-86256762D01*
X148042191Y-86304381D01*
X147946952Y-86304381D01*
X147851714Y-86256762D01*
X147804095Y-86209143D01*
X147756476Y-86113905D01*
X147708857Y-85923429D01*
X147708857Y-85685333D01*
X147756476Y-85494857D01*
X147804095Y-85399619D01*
X147851714Y-85352000D01*
X147946952Y-85304381D01*
X145899333Y-83510381D02*
X145899333Y-82510381D01*
X146280286Y-82510381D01*
X146375524Y-82558000D01*
X146423143Y-82605619D01*
X146470762Y-82700857D01*
X146470762Y-82843714D01*
X146423143Y-82938952D01*
X146375524Y-82986571D01*
X146280286Y-83034190D01*
X145899333Y-83034190D01*
X146851714Y-83224667D02*
X147327905Y-83224667D01*
X146756476Y-83510381D02*
X147089809Y-82510381D01*
X147423143Y-83510381D01*
X148185048Y-82843714D02*
X148185048Y-83510381D01*
X147946952Y-82462762D02*
X147708857Y-83177048D01*
X148327905Y-83177048D01*
X145899333Y-80970381D02*
X145899333Y-79970381D01*
X146280286Y-79970381D01*
X146375524Y-80018000D01*
X146423143Y-80065619D01*
X146470762Y-80160857D01*
X146470762Y-80303714D01*
X146423143Y-80398952D01*
X146375524Y-80446571D01*
X146280286Y-80494190D01*
X145899333Y-80494190D01*
X146851714Y-80684667D02*
X147327905Y-80684667D01*
X146756476Y-80970381D02*
X147089809Y-79970381D01*
X147423143Y-80970381D01*
X148232667Y-79970381D02*
X147756476Y-79970381D01*
X147708857Y-80446571D01*
X147756476Y-80398952D01*
X147851714Y-80351333D01*
X148089810Y-80351333D01*
X148185048Y-80398952D01*
X148232667Y-80446571D01*
X148280286Y-80541810D01*
X148280286Y-80779905D01*
X148232667Y-80875143D01*
X148185048Y-80922762D01*
X148089810Y-80970381D01*
X147851714Y-80970381D01*
X147756476Y-80922762D01*
X147708857Y-80875143D01*
X144843714Y-70556381D02*
X144843714Y-69556381D01*
X145224667Y-69556381D01*
X145319905Y-69604000D01*
X145367524Y-69651619D01*
X145415143Y-69746857D01*
X145415143Y-69889714D01*
X145367524Y-69984952D01*
X145319905Y-70032571D01*
X145224667Y-70080190D01*
X144843714Y-70080190D01*
X146177048Y-70032571D02*
X146319905Y-70080190D01*
X146367524Y-70127810D01*
X146415143Y-70223048D01*
X146415143Y-70365905D01*
X146367524Y-70461143D01*
X146319905Y-70508762D01*
X146224667Y-70556381D01*
X145843714Y-70556381D01*
X145843714Y-69556381D01*
X146177048Y-69556381D01*
X146272286Y-69604000D01*
X146319905Y-69651619D01*
X146367524Y-69746857D01*
X146367524Y-69842095D01*
X146319905Y-69937333D01*
X146272286Y-69984952D01*
X146177048Y-70032571D01*
X145843714Y-70032571D01*
X147367524Y-70556381D02*
X146796095Y-70556381D01*
X147081809Y-70556381D02*
X147081809Y-69556381D01*
X146986571Y-69699238D01*
X146891333Y-69794476D01*
X146796095Y-69842095D01*
X147986571Y-69556381D02*
X148081810Y-69556381D01*
X148177048Y-69604000D01*
X148224667Y-69651619D01*
X148272286Y-69746857D01*
X148319905Y-69937333D01*
X148319905Y-70175429D01*
X148272286Y-70365905D01*
X148224667Y-70461143D01*
X148177048Y-70508762D01*
X148081810Y-70556381D01*
X147986571Y-70556381D01*
X147891333Y-70508762D01*
X147843714Y-70461143D01*
X147796095Y-70365905D01*
X147748476Y-70175429D01*
X147748476Y-69937333D01*
X147796095Y-69746857D01*
X147843714Y-69651619D01*
X147891333Y-69604000D01*
X147986571Y-69556381D01*
X145827905Y-73604381D02*
X145827905Y-72604381D01*
X146208858Y-72604381D01*
X146304096Y-72652000D01*
X146351715Y-72699619D01*
X146399334Y-72794857D01*
X146399334Y-72937714D01*
X146351715Y-73032952D01*
X146304096Y-73080571D01*
X146208858Y-73128190D01*
X145827905Y-73128190D01*
X147161239Y-73080571D02*
X147304096Y-73128190D01*
X147351715Y-73175810D01*
X147399334Y-73271048D01*
X147399334Y-73413905D01*
X147351715Y-73509143D01*
X147304096Y-73556762D01*
X147208858Y-73604381D01*
X146827905Y-73604381D01*
X146827905Y-72604381D01*
X147161239Y-72604381D01*
X147256477Y-72652000D01*
X147304096Y-72699619D01*
X147351715Y-72794857D01*
X147351715Y-72890095D01*
X147304096Y-72985333D01*
X147256477Y-73032952D01*
X147161239Y-73080571D01*
X146827905Y-73080571D01*
X147780286Y-72699619D02*
X147827905Y-72652000D01*
X147923143Y-72604381D01*
X148161239Y-72604381D01*
X148256477Y-72652000D01*
X148304096Y-72699619D01*
X148351715Y-72794857D01*
X148351715Y-72890095D01*
X148304096Y-73032952D01*
X147732667Y-73604381D01*
X148351715Y-73604381D01*
X145899333Y-76144381D02*
X145899333Y-75144381D01*
X146280286Y-75144381D01*
X146375524Y-75192000D01*
X146423143Y-75239619D01*
X146470762Y-75334857D01*
X146470762Y-75477714D01*
X146423143Y-75572952D01*
X146375524Y-75620571D01*
X146280286Y-75668190D01*
X145899333Y-75668190D01*
X146851714Y-75858667D02*
X147327905Y-75858667D01*
X146756476Y-76144381D02*
X147089809Y-75144381D01*
X147423143Y-76144381D01*
X147661238Y-75144381D02*
X148327905Y-75144381D01*
X147899333Y-76144381D01*
X145899333Y-78684381D02*
X145899333Y-77684381D01*
X146280286Y-77684381D01*
X146375524Y-77732000D01*
X146423143Y-77779619D01*
X146470762Y-77874857D01*
X146470762Y-78017714D01*
X146423143Y-78112952D01*
X146375524Y-78160571D01*
X146280286Y-78208190D01*
X145899333Y-78208190D01*
X146851714Y-78398667D02*
X147327905Y-78398667D01*
X146756476Y-78684381D02*
X147089809Y-77684381D01*
X147423143Y-78684381D01*
X148185048Y-77684381D02*
X147994571Y-77684381D01*
X147899333Y-77732000D01*
X147851714Y-77779619D01*
X147756476Y-77922476D01*
X147708857Y-78112952D01*
X147708857Y-78493905D01*
X147756476Y-78589143D01*
X147804095Y-78636762D01*
X147899333Y-78684381D01*
X148089810Y-78684381D01*
X148185048Y-78636762D01*
X148232667Y-78589143D01*
X148280286Y-78493905D01*
X148280286Y-78255810D01*
X148232667Y-78160571D01*
X148185048Y-78112952D01*
X148089810Y-78065333D01*
X147899333Y-78065333D01*
X147804095Y-78112952D01*
X147756476Y-78160571D01*
X147708857Y-78255810D01*
X129826192Y-102224180D02*
X121553580Y-110496792D01*
X125088208Y-114031420D02*
X133360820Y-105758808D01*
X121553580Y-110496792D02*
X122153461Y-111096673D01*
X125088208Y-114031420D02*
X124488327Y-113431539D01*
X129826192Y-102224180D02*
X130426073Y-102824061D01*
X133360820Y-105758808D02*
X132760939Y-105158927D01*
X118016400Y-77319240D02*
X119016400Y-77319240D01*
X119016400Y-75619240D02*
X118016400Y-75619240D01*
X117996080Y-75155160D02*
X118996080Y-75155160D01*
X118996080Y-73455160D02*
X117996080Y-73455160D01*
X128886320Y-81414240D02*
X128886320Y-80414240D01*
X127186320Y-80414240D02*
X127186320Y-81414240D01*
X136364600Y-80333480D02*
X135364600Y-80333480D01*
X135364600Y-82033480D02*
X136364600Y-82033480D01*
X139838800Y-78569440D02*
X139838800Y-77569440D01*
X138138800Y-77569440D02*
X138138800Y-78569440D01*
X142411680Y-73967520D02*
X142411680Y-72167520D01*
X141011680Y-73967520D02*
X141011680Y-72167520D01*
X136336000Y-73794800D02*
X136336000Y-71994800D01*
X134936000Y-73794800D02*
X134936000Y-71994800D01*
X118680800Y-78201720D02*
X118680800Y-80901720D01*
X120180800Y-78201720D02*
X120180800Y-80901720D01*
X119280800Y-79701720D02*
X119530800Y-79701720D01*
X119530800Y-79701720D02*
X119380800Y-79551720D01*
X119780800Y-79451720D02*
X119080800Y-79451720D01*
X119430800Y-79801720D02*
X119430800Y-80151720D01*
X119430800Y-79451720D02*
X119780800Y-79801720D01*
X119780800Y-79801720D02*
X119080800Y-79801720D01*
X119080800Y-79801720D02*
X119430800Y-79451720D01*
X116374480Y-78196640D02*
X116374480Y-80896640D01*
X117874480Y-78196640D02*
X117874480Y-80896640D01*
X116974480Y-79696640D02*
X117224480Y-79696640D01*
X117224480Y-79696640D02*
X117074480Y-79546640D01*
X117474480Y-79446640D02*
X116774480Y-79446640D01*
X117124480Y-79796640D02*
X117124480Y-80146640D01*
X117124480Y-79446640D02*
X117474480Y-79796640D01*
X117474480Y-79796640D02*
X116774480Y-79796640D01*
X116774480Y-79796640D02*
X117124480Y-79446640D01*
X134848400Y-67093400D02*
X132148400Y-67093400D01*
X134848400Y-68593400D02*
X132148400Y-68593400D01*
X133348400Y-67693400D02*
X133348400Y-67943400D01*
X133348400Y-67943400D02*
X133498400Y-67793400D01*
X133598400Y-68193400D02*
X133598400Y-67493400D01*
X133248400Y-67843400D02*
X132898400Y-67843400D01*
X133598400Y-67843400D02*
X133248400Y-68193400D01*
X133248400Y-68193400D02*
X133248400Y-67493400D01*
X133248400Y-67493400D02*
X133598400Y-67843400D01*
X120370600Y-106574124D02*
X120688798Y-106255926D01*
X115244076Y-101447600D02*
X115615307Y-101076369D01*
X120370600Y-96321076D02*
X119999369Y-96692307D01*
X125497124Y-101447600D02*
X125125893Y-101818831D01*
X120370600Y-106574124D02*
X119999369Y-106202893D01*
X125497124Y-101447600D02*
X125125893Y-101076369D01*
X120370600Y-96321076D02*
X120741831Y-96692307D01*
X115244076Y-101447600D02*
X115615307Y-101818831D01*
X120688798Y-106255926D02*
X121661070Y-107228198D01*
X137447920Y-72083040D02*
X137447920Y-73083040D01*
X139147920Y-73083040D02*
X139147920Y-72083040D01*
X109855000Y-119684800D02*
X117475000Y-119684800D01*
X109855000Y-117144800D02*
X117475000Y-117144800D01*
X107035000Y-116864800D02*
X108585000Y-116864800D01*
X117475000Y-119684800D02*
X117475000Y-117144800D01*
X109855000Y-117144800D02*
X109855000Y-119684800D01*
X108585000Y-119964800D02*
X107035000Y-119964800D01*
X107035000Y-119964800D02*
X107035000Y-116864800D01*
X149098000Y-97155000D02*
X149098000Y-69215000D01*
X149098000Y-69215000D02*
X151638000Y-69215000D01*
X151638000Y-69215000D02*
X151638000Y-97155000D01*
X148818000Y-99975000D02*
X148818000Y-98425000D01*
X149098000Y-97155000D02*
X151638000Y-97155000D01*
X151918000Y-98425000D02*
X151918000Y-99975000D01*
X151918000Y-99975000D02*
X148818000Y-99975000D01*
X109347000Y-71501000D02*
X109347000Y-99441000D01*
X109347000Y-99441000D02*
X106807000Y-99441000D01*
X106807000Y-99441000D02*
X106807000Y-71501000D01*
X109627000Y-68681000D02*
X109627000Y-70231000D01*
X109347000Y-71501000D02*
X106807000Y-71501000D01*
X106527000Y-70231000D02*
X106527000Y-68681000D01*
X106527000Y-68681000D02*
X109627000Y-68681000D01*
X109397800Y-109550200D02*
X109397800Y-101930200D01*
X106857800Y-109550200D02*
X106857800Y-101930200D01*
X106577800Y-112370200D02*
X106577800Y-110820200D01*
X109397800Y-101930200D02*
X106857800Y-101930200D01*
X106857800Y-109550200D02*
X109397800Y-109550200D01*
X109677800Y-110820200D02*
X109677800Y-112370200D01*
X109677800Y-112370200D02*
X106577800Y-112370200D01*
X131546600Y-119684800D02*
X118846600Y-119684800D01*
X118846600Y-119684800D02*
X118846600Y-117144800D01*
X118846600Y-117144800D02*
X131546600Y-117144800D01*
X134366600Y-119964800D02*
X132816600Y-119964800D01*
X131546600Y-119684800D02*
X131546600Y-117144800D01*
X132816600Y-116864800D02*
X134366600Y-116864800D01*
X134366600Y-116864800D02*
X134366600Y-119964800D01*
X151638000Y-108432600D02*
X151638000Y-100812600D01*
X149098000Y-108432600D02*
X149098000Y-100812600D01*
X148818000Y-111252600D02*
X148818000Y-109702600D01*
X151638000Y-100812600D02*
X149098000Y-100812600D01*
X149098000Y-108432600D02*
X151638000Y-108432600D01*
X151918000Y-109702600D02*
X151918000Y-111252600D01*
X151918000Y-111252600D02*
X148818000Y-111252600D01*
X140385800Y-66903600D02*
X142925800Y-66903600D01*
X137565800Y-66623600D02*
X139115800Y-66623600D01*
X140385800Y-66903600D02*
X140385800Y-69443600D01*
X139115800Y-69723600D02*
X137565800Y-69723600D01*
X137565800Y-69723600D02*
X137565800Y-66623600D01*
X140385800Y-69443600D02*
X142925800Y-69443600D01*
X142925800Y-69443600D02*
X142925800Y-66903600D01*
X137845800Y-117144800D02*
X150545800Y-117144800D01*
X150545800Y-117144800D02*
X150545800Y-119684800D01*
X150545800Y-119684800D02*
X137845800Y-119684800D01*
X135025800Y-116864800D02*
X136575800Y-116864800D01*
X137845800Y-117144800D02*
X137845800Y-119684800D01*
X136575800Y-119964800D02*
X135025800Y-119964800D01*
X135025800Y-119964800D02*
X135025800Y-116864800D01*
X141156500Y-98419280D02*
G75*
G03X141156500Y-98419280I-250000J0D01*
G01*
X144456500Y-99019280D02*
X144456500Y-102819280D01*
X142556500Y-97919280D02*
X141556500Y-97919280D01*
X141556500Y-97919280D02*
X141556500Y-98819280D01*
X141556500Y-98419280D02*
X142556500Y-98419280D01*
X142556500Y-98419280D02*
X142556500Y-98419280D01*
X142556500Y-98419280D02*
X141556500Y-98419280D01*
X141556500Y-98419280D02*
X141556500Y-98419280D01*
X142156500Y-98419280D02*
X142156500Y-98419280D01*
X142156500Y-98419280D02*
X142156500Y-97919280D01*
X142156500Y-97919280D02*
X142156500Y-97919280D01*
X142156500Y-97919280D02*
X142156500Y-98419280D01*
X142556500Y-103919280D02*
X141556500Y-103919280D01*
X141556500Y-103919280D02*
X141556500Y-103019280D01*
X141556500Y-103419280D02*
X142556500Y-103419280D01*
X142556500Y-103419280D02*
X142556500Y-103419280D01*
X142556500Y-103419280D02*
X141556500Y-103419280D01*
X141556500Y-103419280D02*
X141556500Y-103419280D01*
X142156500Y-103419280D02*
X142156500Y-103419280D01*
X142156500Y-103419280D02*
X142156500Y-103919280D01*
X142156500Y-103919280D02*
X142156500Y-103919280D01*
X142156500Y-103919280D02*
X142156500Y-103419280D01*
X143556500Y-99019280D02*
X144056500Y-99019280D01*
X144056500Y-99019280D02*
X144056500Y-102819280D01*
X144056500Y-102819280D02*
X143556500Y-102819280D01*
X142956500Y-99019280D02*
X142306500Y-99019280D01*
X142306500Y-99019280D02*
X142306500Y-102819280D01*
X142306500Y-102819280D02*
X142956500Y-102819280D01*
X143556500Y-99419280D02*
X143356500Y-99419280D01*
X143556500Y-100419280D02*
X143356500Y-100419280D01*
X143556500Y-101419280D02*
X143356500Y-101419280D01*
X143556500Y-102419280D02*
X143356500Y-102419280D01*
X144499140Y-111857160D02*
G75*
G03X144499140Y-111857160I-250000J0D01*
G01*
X140699140Y-111257160D02*
X140699140Y-107457160D01*
X142599140Y-112357160D02*
X143599140Y-112357160D01*
X143599140Y-112357160D02*
X143599140Y-111457160D01*
X143599140Y-111857160D02*
X142599140Y-111857160D01*
X142599140Y-111857160D02*
X142599140Y-111857160D01*
X142599140Y-111857160D02*
X143599140Y-111857160D01*
X143599140Y-111857160D02*
X143599140Y-111857160D01*
X142999140Y-111857160D02*
X142999140Y-111857160D01*
X142999140Y-111857160D02*
X142999140Y-112357160D01*
X142999140Y-112357160D02*
X142999140Y-112357160D01*
X142999140Y-112357160D02*
X142999140Y-111857160D01*
X142599140Y-106357160D02*
X143599140Y-106357160D01*
X143599140Y-106357160D02*
X143599140Y-107257160D01*
X143599140Y-106857160D02*
X142599140Y-106857160D01*
X142599140Y-106857160D02*
X142599140Y-106857160D01*
X142599140Y-106857160D02*
X143599140Y-106857160D01*
X143599140Y-106857160D02*
X143599140Y-106857160D01*
X142999140Y-106857160D02*
X142999140Y-106857160D01*
X142999140Y-106857160D02*
X142999140Y-106357160D01*
X142999140Y-106357160D02*
X142999140Y-106357160D01*
X142999140Y-106357160D02*
X142999140Y-106857160D01*
X141599140Y-111257160D02*
X141099140Y-111257160D01*
X141099140Y-111257160D02*
X141099140Y-107457160D01*
X141099140Y-107457160D02*
X141599140Y-107457160D01*
X142199140Y-111257160D02*
X142849140Y-111257160D01*
X142849140Y-111257160D02*
X142849140Y-107457160D01*
X142849140Y-107457160D02*
X142199140Y-107457160D01*
X141599140Y-110857160D02*
X141799140Y-110857160D01*
X141599140Y-109857160D02*
X141799140Y-109857160D01*
X141599140Y-108857160D02*
X141799140Y-108857160D01*
X141599140Y-107857160D02*
X141799140Y-107857160D01*
X115824000Y-66802000D02*
X110744000Y-66802000D01*
X110744000Y-66802000D02*
X110744000Y-69342000D01*
X110744000Y-69342000D02*
X115824000Y-69342000D01*
X118644000Y-69622000D02*
X117094000Y-69622000D01*
X115824000Y-69342000D02*
X115824000Y-66802000D01*
X117094000Y-66522000D02*
X118644000Y-66522000D01*
X118644000Y-66522000D02*
X118644000Y-69622000D01*
X123394440Y-83123480D02*
X123394440Y-84323480D01*
X121644440Y-84323480D02*
X121644440Y-83123480D01*
X131121120Y-80131360D02*
X131121120Y-81331360D01*
X129371120Y-81331360D02*
X129371120Y-80131360D01*
X125599160Y-83128560D02*
X125599160Y-84328560D01*
X123849160Y-84328560D02*
X123849160Y-83128560D01*
X127506760Y-75880520D02*
X127506760Y-74680520D01*
X129256760Y-74680520D02*
X129256760Y-75880520D01*
X137420320Y-114208000D02*
X137420320Y-115408000D01*
X135670320Y-115408000D02*
X135670320Y-114208000D01*
X134275000Y-88543400D02*
X134275000Y-85243400D01*
X135425000Y-89143400D02*
X137575000Y-89143400D01*
X138775000Y-88643400D02*
X138775000Y-85293400D01*
X135475000Y-84643400D02*
X137525000Y-84643400D01*
D12*
X135079200Y-76385300D02*
X135079200Y-77315300D01*
X135079200Y-79545300D02*
X135079200Y-78615300D01*
X135079200Y-79545300D02*
X137239200Y-79545300D01*
X135079200Y-76385300D02*
X136539200Y-76385300D01*
D11*
X143967900Y-79324000D02*
X143967900Y-76624000D01*
X142467900Y-79324000D02*
X142467900Y-76624000D01*
X143367900Y-77824000D02*
X143117900Y-77824000D01*
X143117900Y-77824000D02*
X143267900Y-77974000D01*
X142867900Y-78074000D02*
X143567900Y-78074000D01*
X143217900Y-77724000D02*
X143217900Y-77374000D01*
X143217900Y-78074000D02*
X142867900Y-77724000D01*
X142867900Y-77724000D02*
X143567900Y-77724000D01*
X143567900Y-77724000D02*
X143217900Y-78074000D01*
X121314300Y-80691900D02*
X121314300Y-80166900D01*
X126564300Y-75441900D02*
X126564300Y-75966900D01*
X121314300Y-75441900D02*
X121314300Y-75966900D01*
X126564300Y-80691900D02*
X126039300Y-80691900D01*
X126564300Y-75441900D02*
X126039300Y-75441900D01*
X121314300Y-75441900D02*
X121839300Y-75441900D01*
X121314300Y-80691900D02*
X121839300Y-80691900D01*
X129452810Y-111523957D02*
X129789528Y-111860675D01*
X128846719Y-111389270D02*
X129452810Y-111523957D01*
X129318124Y-110917865D01*
X130631322Y-111018880D02*
X130227261Y-111422942D01*
X130429291Y-111220911D02*
X129722184Y-110513804D01*
X129755856Y-110682163D01*
X129755856Y-110816850D01*
X129722184Y-110917865D01*
X130361948Y-109874041D02*
X130429292Y-109806697D01*
X130530307Y-109773025D01*
X130597650Y-109773025D01*
X130698666Y-109806697D01*
X130867024Y-109907712D01*
X131035383Y-110076071D01*
X131136399Y-110244430D01*
X131170070Y-110345445D01*
X131170070Y-110412789D01*
X131136399Y-110513804D01*
X131069054Y-110581148D01*
X130968039Y-110614820D01*
X130900696Y-110614820D01*
X130799681Y-110581148D01*
X130631322Y-110480133D01*
X130462963Y-110311773D01*
X130361948Y-110143415D01*
X130328276Y-110042400D01*
X130328276Y-109975056D01*
X130361948Y-109874041D01*
X131978192Y-109672010D02*
X131574131Y-110076071D01*
X131776161Y-109874041D02*
X131069054Y-109166934D01*
X131102726Y-109335293D01*
X131102726Y-109469980D01*
X131069054Y-109570995D01*
X113434953Y-77065143D02*
X113387334Y-77112762D01*
X113244477Y-77160381D01*
X113149239Y-77160381D01*
X113006381Y-77112762D01*
X112911143Y-77017524D01*
X112863524Y-76922286D01*
X112815905Y-76731810D01*
X112815905Y-76588952D01*
X112863524Y-76398476D01*
X112911143Y-76303238D01*
X113006381Y-76208000D01*
X113149239Y-76160381D01*
X113244477Y-76160381D01*
X113387334Y-76208000D01*
X113434953Y-76255619D01*
X113815905Y-76255619D02*
X113863524Y-76208000D01*
X113958762Y-76160381D01*
X114196858Y-76160381D01*
X114292096Y-76208000D01*
X114339715Y-76255619D01*
X114387334Y-76350857D01*
X114387334Y-76446095D01*
X114339715Y-76588952D01*
X113768286Y-77160381D01*
X114387334Y-77160381D01*
X115006381Y-76160381D02*
X115101620Y-76160381D01*
X115196858Y-76208000D01*
X115244477Y-76255619D01*
X115292096Y-76350857D01*
X115339715Y-76541333D01*
X115339715Y-76779429D01*
X115292096Y-76969905D01*
X115244477Y-77065143D01*
X115196858Y-77112762D01*
X115101620Y-77160381D01*
X115006381Y-77160381D01*
X114911143Y-77112762D01*
X114863524Y-77065143D01*
X114815905Y-76969905D01*
X114768286Y-76779429D01*
X114768286Y-76541333D01*
X114815905Y-76350857D01*
X114863524Y-76255619D01*
X114911143Y-76208000D01*
X115006381Y-76160381D01*
X115720667Y-76255619D02*
X115768286Y-76208000D01*
X115863524Y-76160381D01*
X116101620Y-76160381D01*
X116196858Y-76208000D01*
X116244477Y-76255619D01*
X116292096Y-76350857D01*
X116292096Y-76446095D01*
X116244477Y-76588952D01*
X115673048Y-77160381D01*
X116292096Y-77160381D01*
X113434953Y-74398143D02*
X113387334Y-74445762D01*
X113244477Y-74493381D01*
X113149239Y-74493381D01*
X113006381Y-74445762D01*
X112911143Y-74350524D01*
X112863524Y-74255286D01*
X112815905Y-74064810D01*
X112815905Y-73921952D01*
X112863524Y-73731476D01*
X112911143Y-73636238D01*
X113006381Y-73541000D01*
X113149239Y-73493381D01*
X113244477Y-73493381D01*
X113387334Y-73541000D01*
X113434953Y-73588619D01*
X113815905Y-73588619D02*
X113863524Y-73541000D01*
X113958762Y-73493381D01*
X114196858Y-73493381D01*
X114292096Y-73541000D01*
X114339715Y-73588619D01*
X114387334Y-73683857D01*
X114387334Y-73779095D01*
X114339715Y-73921952D01*
X113768286Y-74493381D01*
X114387334Y-74493381D01*
X115006381Y-73493381D02*
X115101620Y-73493381D01*
X115196858Y-73541000D01*
X115244477Y-73588619D01*
X115292096Y-73683857D01*
X115339715Y-73874333D01*
X115339715Y-74112429D01*
X115292096Y-74302905D01*
X115244477Y-74398143D01*
X115196858Y-74445762D01*
X115101620Y-74493381D01*
X115006381Y-74493381D01*
X114911143Y-74445762D01*
X114863524Y-74398143D01*
X114815905Y-74302905D01*
X114768286Y-74112429D01*
X114768286Y-73874333D01*
X114815905Y-73683857D01*
X114863524Y-73588619D01*
X114911143Y-73541000D01*
X115006381Y-73493381D01*
X115673048Y-73493381D02*
X116292096Y-73493381D01*
X115958762Y-73874333D01*
X116101620Y-73874333D01*
X116196858Y-73921952D01*
X116244477Y-73969571D01*
X116292096Y-74064810D01*
X116292096Y-74302905D01*
X116244477Y-74398143D01*
X116196858Y-74445762D01*
X116101620Y-74493381D01*
X115815905Y-74493381D01*
X115720667Y-74445762D01*
X115673048Y-74398143D01*
X128525543Y-85716287D02*
X128573162Y-85763906D01*
X128620781Y-85906763D01*
X128620781Y-86002001D01*
X128573162Y-86144859D01*
X128477924Y-86240097D01*
X128382686Y-86287716D01*
X128192210Y-86335335D01*
X128049352Y-86335335D01*
X127858876Y-86287716D01*
X127763638Y-86240097D01*
X127668400Y-86144859D01*
X127620781Y-86002001D01*
X127620781Y-85906763D01*
X127668400Y-85763906D01*
X127716019Y-85716287D01*
X127716019Y-85335335D02*
X127668400Y-85287716D01*
X127620781Y-85192478D01*
X127620781Y-84954382D01*
X127668400Y-84859144D01*
X127716019Y-84811525D01*
X127811257Y-84763906D01*
X127906495Y-84763906D01*
X128049352Y-84811525D01*
X128620781Y-85382954D01*
X128620781Y-84763906D01*
X127620781Y-84144859D02*
X127620781Y-84049620D01*
X127668400Y-83954382D01*
X127716019Y-83906763D01*
X127811257Y-83859144D01*
X128001733Y-83811525D01*
X128239829Y-83811525D01*
X128430305Y-83859144D01*
X128525543Y-83906763D01*
X128573162Y-83954382D01*
X128620781Y-84049620D01*
X128620781Y-84144859D01*
X128573162Y-84240097D01*
X128525543Y-84287716D01*
X128430305Y-84335335D01*
X128239829Y-84382954D01*
X128001733Y-84382954D01*
X127811257Y-84335335D01*
X127716019Y-84287716D01*
X127668400Y-84240097D01*
X127620781Y-84144859D01*
X127954114Y-82954382D02*
X128620781Y-82954382D01*
X127573162Y-83192478D02*
X128287448Y-83430573D01*
X128287448Y-82811525D01*
X134699833Y-83450703D02*
X134652214Y-83498322D01*
X134509357Y-83545941D01*
X134414119Y-83545941D01*
X134271261Y-83498322D01*
X134176023Y-83403084D01*
X134128404Y-83307846D01*
X134080785Y-83117370D01*
X134080785Y-82974512D01*
X134128404Y-82784036D01*
X134176023Y-82688798D01*
X134271261Y-82593560D01*
X134414119Y-82545941D01*
X134509357Y-82545941D01*
X134652214Y-82593560D01*
X134699833Y-82641179D01*
X135080785Y-82641179D02*
X135128404Y-82593560D01*
X135223642Y-82545941D01*
X135461738Y-82545941D01*
X135556976Y-82593560D01*
X135604595Y-82641179D01*
X135652214Y-82736417D01*
X135652214Y-82831655D01*
X135604595Y-82974512D01*
X135033166Y-83545941D01*
X135652214Y-83545941D01*
X136271261Y-82545941D02*
X136366500Y-82545941D01*
X136461738Y-82593560D01*
X136509357Y-82641179D01*
X136556976Y-82736417D01*
X136604595Y-82926893D01*
X136604595Y-83164989D01*
X136556976Y-83355465D01*
X136509357Y-83450703D01*
X136461738Y-83498322D01*
X136366500Y-83545941D01*
X136271261Y-83545941D01*
X136176023Y-83498322D01*
X136128404Y-83450703D01*
X136080785Y-83355465D01*
X136033166Y-83164989D01*
X136033166Y-82926893D01*
X136080785Y-82736417D01*
X136128404Y-82641179D01*
X136176023Y-82593560D01*
X136271261Y-82545941D01*
X137509357Y-82545941D02*
X137033166Y-82545941D01*
X136985547Y-83022131D01*
X137033166Y-82974512D01*
X137128404Y-82926893D01*
X137366500Y-82926893D01*
X137461738Y-82974512D01*
X137509357Y-83022131D01*
X137556976Y-83117370D01*
X137556976Y-83355465D01*
X137509357Y-83450703D01*
X137461738Y-83498322D01*
X137366500Y-83545941D01*
X137128404Y-83545941D01*
X137033166Y-83498322D01*
X136985547Y-83450703D01*
X141205223Y-80331487D02*
X141252842Y-80379106D01*
X141300461Y-80521963D01*
X141300461Y-80617201D01*
X141252842Y-80760059D01*
X141157604Y-80855297D01*
X141062366Y-80902916D01*
X140871890Y-80950535D01*
X140729032Y-80950535D01*
X140538556Y-80902916D01*
X140443318Y-80855297D01*
X140348080Y-80760059D01*
X140300461Y-80617201D01*
X140300461Y-80521963D01*
X140348080Y-80379106D01*
X140395699Y-80331487D01*
X140395699Y-79950535D02*
X140348080Y-79902916D01*
X140300461Y-79807678D01*
X140300461Y-79569582D01*
X140348080Y-79474344D01*
X140395699Y-79426725D01*
X140490937Y-79379106D01*
X140586175Y-79379106D01*
X140729032Y-79426725D01*
X141300461Y-79998154D01*
X141300461Y-79379106D01*
X140300461Y-78760059D02*
X140300461Y-78664820D01*
X140348080Y-78569582D01*
X140395699Y-78521963D01*
X140490937Y-78474344D01*
X140681413Y-78426725D01*
X140919509Y-78426725D01*
X141109985Y-78474344D01*
X141205223Y-78521963D01*
X141252842Y-78569582D01*
X141300461Y-78664820D01*
X141300461Y-78760059D01*
X141252842Y-78855297D01*
X141205223Y-78902916D01*
X141109985Y-78950535D01*
X140919509Y-78998154D01*
X140681413Y-78998154D01*
X140490937Y-78950535D01*
X140395699Y-78902916D01*
X140348080Y-78855297D01*
X140300461Y-78760059D01*
X140300461Y-77569582D02*
X140300461Y-77760059D01*
X140348080Y-77855297D01*
X140395699Y-77902916D01*
X140538556Y-77998154D01*
X140729032Y-78045773D01*
X141109985Y-78045773D01*
X141205223Y-77998154D01*
X141252842Y-77950535D01*
X141300461Y-77855297D01*
X141300461Y-77664820D01*
X141252842Y-77569582D01*
X141205223Y-77521963D01*
X141109985Y-77474344D01*
X140871890Y-77474344D01*
X140776651Y-77521963D01*
X140729032Y-77569582D01*
X140681413Y-77664820D01*
X140681413Y-77855297D01*
X140729032Y-77950535D01*
X140776651Y-77998154D01*
X140871890Y-78045773D01*
X140056764Y-75707501D02*
X140056764Y-74707501D01*
X140294859Y-74707501D01*
X140437717Y-74755120D01*
X140532955Y-74850358D01*
X140580574Y-74945596D01*
X140628193Y-75136072D01*
X140628193Y-75278930D01*
X140580574Y-75469406D01*
X140532955Y-75564644D01*
X140437717Y-75659882D01*
X140294859Y-75707501D01*
X140056764Y-75707501D01*
X141009145Y-74802739D02*
X141056764Y-74755120D01*
X141152002Y-74707501D01*
X141390098Y-74707501D01*
X141485336Y-74755120D01*
X141532955Y-74802739D01*
X141580574Y-74897977D01*
X141580574Y-74993215D01*
X141532955Y-75136072D01*
X140961526Y-75707501D01*
X141580574Y-75707501D01*
X142199621Y-74707501D02*
X142294860Y-74707501D01*
X142390098Y-74755120D01*
X142437717Y-74802739D01*
X142485336Y-74897977D01*
X142532955Y-75088453D01*
X142532955Y-75326549D01*
X142485336Y-75517025D01*
X142437717Y-75612263D01*
X142390098Y-75659882D01*
X142294860Y-75707501D01*
X142199621Y-75707501D01*
X142104383Y-75659882D01*
X142056764Y-75612263D01*
X142009145Y-75517025D01*
X141961526Y-75326549D01*
X141961526Y-75088453D01*
X142009145Y-74897977D01*
X142056764Y-74802739D01*
X142104383Y-74755120D01*
X142199621Y-74707501D01*
X143485336Y-75707501D02*
X142913907Y-75707501D01*
X143199621Y-75707501D02*
X143199621Y-74707501D01*
X143104383Y-74850358D01*
X143009145Y-74945596D01*
X142913907Y-74993215D01*
X134503421Y-76107396D02*
X133503421Y-76107396D01*
X133503421Y-75869301D01*
X133551040Y-75726443D01*
X133646278Y-75631205D01*
X133741516Y-75583586D01*
X133931992Y-75535967D01*
X134074850Y-75535967D01*
X134265326Y-75583586D01*
X134360564Y-75631205D01*
X134455802Y-75726443D01*
X134503421Y-75869301D01*
X134503421Y-76107396D01*
X133598659Y-75155015D02*
X133551040Y-75107396D01*
X133503421Y-75012158D01*
X133503421Y-74774062D01*
X133551040Y-74678824D01*
X133598659Y-74631205D01*
X133693897Y-74583586D01*
X133789135Y-74583586D01*
X133931992Y-74631205D01*
X134503421Y-75202634D01*
X134503421Y-74583586D01*
X133503421Y-73964539D02*
X133503421Y-73869300D01*
X133551040Y-73774062D01*
X133598659Y-73726443D01*
X133693897Y-73678824D01*
X133884373Y-73631205D01*
X134122469Y-73631205D01*
X134312945Y-73678824D01*
X134408183Y-73726443D01*
X134455802Y-73774062D01*
X134503421Y-73869300D01*
X134503421Y-73964539D01*
X134455802Y-74059777D01*
X134408183Y-74107396D01*
X134312945Y-74155015D01*
X134122469Y-74202634D01*
X133884373Y-74202634D01*
X133693897Y-74155015D01*
X133598659Y-74107396D01*
X133551040Y-74059777D01*
X133503421Y-73964539D01*
X133598659Y-73250253D02*
X133551040Y-73202634D01*
X133503421Y-73107396D01*
X133503421Y-72869300D01*
X133551040Y-72774062D01*
X133598659Y-72726443D01*
X133693897Y-72678824D01*
X133789135Y-72678824D01*
X133931992Y-72726443D01*
X134503421Y-73297872D01*
X134503421Y-72678824D01*
X120060981Y-85449516D02*
X119060981Y-85449516D01*
X119060981Y-85211421D01*
X119108600Y-85068563D01*
X119203838Y-84973325D01*
X119299076Y-84925706D01*
X119489552Y-84878087D01*
X119632410Y-84878087D01*
X119822886Y-84925706D01*
X119918124Y-84973325D01*
X120013362Y-85068563D01*
X120060981Y-85211421D01*
X120060981Y-85449516D01*
X119156219Y-84497135D02*
X119108600Y-84449516D01*
X119060981Y-84354278D01*
X119060981Y-84116182D01*
X119108600Y-84020944D01*
X119156219Y-83973325D01*
X119251457Y-83925706D01*
X119346695Y-83925706D01*
X119489552Y-83973325D01*
X120060981Y-84544754D01*
X120060981Y-83925706D01*
X119060981Y-83306659D02*
X119060981Y-83211420D01*
X119108600Y-83116182D01*
X119156219Y-83068563D01*
X119251457Y-83020944D01*
X119441933Y-82973325D01*
X119680029Y-82973325D01*
X119870505Y-83020944D01*
X119965743Y-83068563D01*
X120013362Y-83116182D01*
X120060981Y-83211420D01*
X120060981Y-83306659D01*
X120013362Y-83401897D01*
X119965743Y-83449516D01*
X119870505Y-83497135D01*
X119680029Y-83544754D01*
X119441933Y-83544754D01*
X119251457Y-83497135D01*
X119156219Y-83449516D01*
X119108600Y-83401897D01*
X119060981Y-83306659D01*
X119060981Y-82639992D02*
X119060981Y-82020944D01*
X119441933Y-82354278D01*
X119441933Y-82211420D01*
X119489552Y-82116182D01*
X119537171Y-82068563D01*
X119632410Y-82020944D01*
X119870505Y-82020944D01*
X119965743Y-82068563D01*
X120013362Y-82116182D01*
X120060981Y-82211420D01*
X120060981Y-82497135D01*
X120013362Y-82592373D01*
X119965743Y-82639992D01*
X117576861Y-85454596D02*
X116576861Y-85454596D01*
X116576861Y-85216501D01*
X116624480Y-85073643D01*
X116719718Y-84978405D01*
X116814956Y-84930786D01*
X117005432Y-84883167D01*
X117148290Y-84883167D01*
X117338766Y-84930786D01*
X117434004Y-84978405D01*
X117529242Y-85073643D01*
X117576861Y-85216501D01*
X117576861Y-85454596D01*
X116672099Y-84502215D02*
X116624480Y-84454596D01*
X116576861Y-84359358D01*
X116576861Y-84121262D01*
X116624480Y-84026024D01*
X116672099Y-83978405D01*
X116767337Y-83930786D01*
X116862575Y-83930786D01*
X117005432Y-83978405D01*
X117576861Y-84549834D01*
X117576861Y-83930786D01*
X116576861Y-83311739D02*
X116576861Y-83216500D01*
X116624480Y-83121262D01*
X116672099Y-83073643D01*
X116767337Y-83026024D01*
X116957813Y-82978405D01*
X117195909Y-82978405D01*
X117386385Y-83026024D01*
X117481623Y-83073643D01*
X117529242Y-83121262D01*
X117576861Y-83216500D01*
X117576861Y-83311739D01*
X117529242Y-83406977D01*
X117481623Y-83454596D01*
X117386385Y-83502215D01*
X117195909Y-83549834D01*
X116957813Y-83549834D01*
X116767337Y-83502215D01*
X116672099Y-83454596D01*
X116624480Y-83406977D01*
X116576861Y-83311739D01*
X116910194Y-82121262D02*
X117576861Y-82121262D01*
X116529242Y-82359358D02*
X117243528Y-82597453D01*
X117243528Y-81978405D01*
X131690004Y-70297301D02*
X131690004Y-69297301D01*
X131928099Y-69297301D01*
X132070957Y-69344920D01*
X132166195Y-69440158D01*
X132213814Y-69535396D01*
X132261433Y-69725872D01*
X132261433Y-69868730D01*
X132213814Y-70059206D01*
X132166195Y-70154444D01*
X132070957Y-70249682D01*
X131928099Y-70297301D01*
X131690004Y-70297301D01*
X132642385Y-69392539D02*
X132690004Y-69344920D01*
X132785242Y-69297301D01*
X133023338Y-69297301D01*
X133118576Y-69344920D01*
X133166195Y-69392539D01*
X133213814Y-69487777D01*
X133213814Y-69583015D01*
X133166195Y-69725872D01*
X132594766Y-70297301D01*
X133213814Y-70297301D01*
X133832861Y-69297301D02*
X133928100Y-69297301D01*
X134023338Y-69344920D01*
X134070957Y-69392539D01*
X134118576Y-69487777D01*
X134166195Y-69678253D01*
X134166195Y-69916349D01*
X134118576Y-70106825D01*
X134070957Y-70202063D01*
X134023338Y-70249682D01*
X133928100Y-70297301D01*
X133832861Y-70297301D01*
X133737623Y-70249682D01*
X133690004Y-70202063D01*
X133642385Y-70106825D01*
X133594766Y-69916349D01*
X133594766Y-69678253D01*
X133642385Y-69487777D01*
X133690004Y-69392539D01*
X133737623Y-69344920D01*
X133832861Y-69297301D01*
X135070957Y-69297301D02*
X134594766Y-69297301D01*
X134547147Y-69773491D01*
X134594766Y-69725872D01*
X134690004Y-69678253D01*
X134928100Y-69678253D01*
X135023338Y-69725872D01*
X135070957Y-69773491D01*
X135118576Y-69868730D01*
X135118576Y-70106825D01*
X135070957Y-70202063D01*
X135023338Y-70249682D01*
X134928100Y-70297301D01*
X134690004Y-70297301D01*
X134594766Y-70249682D01*
X134547147Y-70202063D01*
X114444372Y-104646417D02*
X115151478Y-103939310D01*
X115252494Y-105319852D02*
X115185150Y-105319852D01*
X115050463Y-105252509D01*
X114983120Y-105185165D01*
X114915776Y-105050478D01*
X114915776Y-104915791D01*
X114949447Y-104814776D01*
X115050463Y-104646417D01*
X115151478Y-104545401D01*
X115319837Y-104444386D01*
X115420852Y-104410714D01*
X115555539Y-104410714D01*
X115690227Y-104478058D01*
X115757570Y-104545402D01*
X115824914Y-104680089D01*
X115824914Y-104747432D01*
X115858585Y-106060631D02*
X115454524Y-105656569D01*
X115656554Y-105858600D02*
X116363661Y-105151493D01*
X116195302Y-105185165D01*
X116060616Y-105185165D01*
X115959600Y-105151493D01*
X117003424Y-105791256D02*
X117070769Y-105858600D01*
X117104440Y-105959615D01*
X117104440Y-106026959D01*
X117070769Y-106127974D01*
X116969753Y-106296333D01*
X116801394Y-106464692D01*
X116633035Y-106565707D01*
X116532020Y-106599379D01*
X116464677Y-106599379D01*
X116363662Y-106565707D01*
X116296318Y-106498363D01*
X116262646Y-106397348D01*
X116262646Y-106330004D01*
X116296318Y-106228989D01*
X116397333Y-106060631D01*
X116565692Y-105892271D01*
X116734051Y-105791256D01*
X116835066Y-105757584D01*
X116902409Y-105757584D01*
X117003424Y-105791256D01*
X117205455Y-107407501D02*
X116801394Y-107003439D01*
X117003424Y-107205470D02*
X117710531Y-106498363D01*
X117542173Y-106532035D01*
X117407486Y-106532035D01*
X117306471Y-106498363D01*
X136589593Y-75677021D02*
X136113402Y-75677021D01*
X136113402Y-74677021D01*
X136875307Y-74772259D02*
X136922926Y-74724640D01*
X137018164Y-74677021D01*
X137256260Y-74677021D01*
X137351498Y-74724640D01*
X137399117Y-74772259D01*
X137446736Y-74867497D01*
X137446736Y-74962735D01*
X137399117Y-75105592D01*
X136827688Y-75677021D01*
X137446736Y-75677021D01*
X138065783Y-74677021D02*
X138161022Y-74677021D01*
X138256260Y-74724640D01*
X138303879Y-74772259D01*
X138351498Y-74867497D01*
X138399117Y-75057973D01*
X138399117Y-75296069D01*
X138351498Y-75486545D01*
X138303879Y-75581783D01*
X138256260Y-75629402D01*
X138161022Y-75677021D01*
X138065783Y-75677021D01*
X137970545Y-75629402D01*
X137922926Y-75581783D01*
X137875307Y-75486545D01*
X137827688Y-75296069D01*
X137827688Y-75057973D01*
X137875307Y-74867497D01*
X137922926Y-74772259D01*
X137970545Y-74724640D01*
X138065783Y-74677021D01*
X139351498Y-75677021D02*
X138780069Y-75677021D01*
X139065783Y-75677021D02*
X139065783Y-74677021D01*
X138970545Y-74819878D01*
X138875307Y-74915116D01*
X138780069Y-74962735D01*
X144064884Y-68483741D02*
X144064884Y-67483741D01*
X144445837Y-67483741D01*
X144541075Y-67531360D01*
X144588694Y-67578979D01*
X144636313Y-67674217D01*
X144636313Y-67817074D01*
X144588694Y-67912312D01*
X144541075Y-67959931D01*
X144445837Y-68007550D01*
X144064884Y-68007550D01*
X145017265Y-67578979D02*
X145064884Y-67531360D01*
X145160122Y-67483741D01*
X145398218Y-67483741D01*
X145493456Y-67531360D01*
X145541075Y-67578979D01*
X145588694Y-67674217D01*
X145588694Y-67769455D01*
X145541075Y-67912312D01*
X144969646Y-68483741D01*
X145588694Y-68483741D01*
X146207741Y-67483741D02*
X146302980Y-67483741D01*
X146398218Y-67531360D01*
X146445837Y-67578979D01*
X146493456Y-67674217D01*
X146541075Y-67864693D01*
X146541075Y-68102789D01*
X146493456Y-68293265D01*
X146445837Y-68388503D01*
X146398218Y-68436122D01*
X146302980Y-68483741D01*
X146207741Y-68483741D01*
X146112503Y-68436122D01*
X146064884Y-68388503D01*
X146017265Y-68293265D01*
X145969646Y-68102789D01*
X145969646Y-67864693D01*
X146017265Y-67674217D01*
X146064884Y-67578979D01*
X146112503Y-67531360D01*
X146207741Y-67483741D01*
X146922027Y-67578979D02*
X146969646Y-67531360D01*
X147064884Y-67483741D01*
X147302980Y-67483741D01*
X147398218Y-67531360D01*
X147445837Y-67578979D01*
X147493456Y-67674217D01*
X147493456Y-67769455D01*
X147445837Y-67912312D01*
X146874408Y-68483741D01*
X147493456Y-68483741D01*
X139644381Y-100750476D02*
X138644381Y-100750476D01*
X138644381Y-100369523D01*
X138692000Y-100274285D01*
X138739619Y-100226666D01*
X138834857Y-100179047D01*
X138977714Y-100179047D01*
X139072952Y-100226666D01*
X139120571Y-100274285D01*
X139168190Y-100369523D01*
X139168190Y-100750476D01*
X138644381Y-99845714D02*
X138644381Y-99226666D01*
X139025333Y-99560000D01*
X139025333Y-99417142D01*
X139072952Y-99321904D01*
X139120571Y-99274285D01*
X139215810Y-99226666D01*
X139453905Y-99226666D01*
X139549143Y-99274285D01*
X139596762Y-99321904D01*
X139644381Y-99417142D01*
X139644381Y-99702857D01*
X139596762Y-99798095D01*
X139549143Y-99845714D01*
X138644381Y-98607619D02*
X138644381Y-98512380D01*
X138692000Y-98417142D01*
X138739619Y-98369523D01*
X138834857Y-98321904D01*
X139025333Y-98274285D01*
X139263429Y-98274285D01*
X139453905Y-98321904D01*
X139549143Y-98369523D01*
X139596762Y-98417142D01*
X139644381Y-98512380D01*
X139644381Y-98607619D01*
X139596762Y-98702857D01*
X139549143Y-98750476D01*
X139453905Y-98798095D01*
X139263429Y-98845714D01*
X139025333Y-98845714D01*
X138834857Y-98798095D01*
X138739619Y-98750476D01*
X138692000Y-98702857D01*
X138644381Y-98607619D01*
X138739619Y-97893333D02*
X138692000Y-97845714D01*
X138644381Y-97750476D01*
X138644381Y-97512380D01*
X138692000Y-97417142D01*
X138739619Y-97369523D01*
X138834857Y-97321904D01*
X138930095Y-97321904D01*
X139072952Y-97369523D01*
X139644381Y-97940952D01*
X139644381Y-97321904D01*
X139649461Y-110935876D02*
X138649461Y-110935876D01*
X138649461Y-110554923D01*
X138697080Y-110459685D01*
X138744699Y-110412066D01*
X138839937Y-110364447D01*
X138982794Y-110364447D01*
X139078032Y-110412066D01*
X139125651Y-110459685D01*
X139173270Y-110554923D01*
X139173270Y-110935876D01*
X138649461Y-110031114D02*
X138649461Y-109412066D01*
X139030413Y-109745400D01*
X139030413Y-109602542D01*
X139078032Y-109507304D01*
X139125651Y-109459685D01*
X139220890Y-109412066D01*
X139458985Y-109412066D01*
X139554223Y-109459685D01*
X139601842Y-109507304D01*
X139649461Y-109602542D01*
X139649461Y-109888257D01*
X139601842Y-109983495D01*
X139554223Y-110031114D01*
X138649461Y-108793019D02*
X138649461Y-108697780D01*
X138697080Y-108602542D01*
X138744699Y-108554923D01*
X138839937Y-108507304D01*
X139030413Y-108459685D01*
X139268509Y-108459685D01*
X139458985Y-108507304D01*
X139554223Y-108554923D01*
X139601842Y-108602542D01*
X139649461Y-108697780D01*
X139649461Y-108793019D01*
X139601842Y-108888257D01*
X139554223Y-108935876D01*
X139458985Y-108983495D01*
X139268509Y-109031114D01*
X139030413Y-109031114D01*
X138839937Y-108983495D01*
X138744699Y-108935876D01*
X138697080Y-108888257D01*
X138649461Y-108793019D01*
X138649461Y-108126352D02*
X138649461Y-107507304D01*
X139030413Y-107840638D01*
X139030413Y-107697780D01*
X139078032Y-107602542D01*
X139125651Y-107554923D01*
X139220890Y-107507304D01*
X139458985Y-107507304D01*
X139554223Y-107554923D01*
X139601842Y-107602542D01*
X139649461Y-107697780D01*
X139649461Y-107983495D01*
X139601842Y-108078733D01*
X139554223Y-108126352D01*
X123022621Y-88804927D02*
X122546430Y-89138261D01*
X123022621Y-89376356D02*
X122022621Y-89376356D01*
X122022621Y-88995403D01*
X122070240Y-88900165D01*
X122117859Y-88852546D01*
X122213097Y-88804927D01*
X122355954Y-88804927D01*
X122451192Y-88852546D01*
X122498811Y-88900165D01*
X122546430Y-88995403D01*
X122546430Y-89376356D01*
X122117859Y-88423975D02*
X122070240Y-88376356D01*
X122022621Y-88281118D01*
X122022621Y-88043022D01*
X122070240Y-87947784D01*
X122117859Y-87900165D01*
X122213097Y-87852546D01*
X122308335Y-87852546D01*
X122451192Y-87900165D01*
X123022621Y-88471594D01*
X123022621Y-87852546D01*
X122022621Y-87233499D02*
X122022621Y-87138260D01*
X122070240Y-87043022D01*
X122117859Y-86995403D01*
X122213097Y-86947784D01*
X122403573Y-86900165D01*
X122641669Y-86900165D01*
X122832145Y-86947784D01*
X122927383Y-86995403D01*
X122975002Y-87043022D01*
X123022621Y-87138260D01*
X123022621Y-87233499D01*
X122975002Y-87328737D01*
X122927383Y-87376356D01*
X122832145Y-87423975D01*
X122641669Y-87471594D01*
X122403573Y-87471594D01*
X122213097Y-87423975D01*
X122117859Y-87376356D01*
X122070240Y-87328737D01*
X122022621Y-87233499D01*
X123022621Y-85947784D02*
X123022621Y-86519213D01*
X123022621Y-86233499D02*
X122022621Y-86233499D01*
X122165478Y-86328737D01*
X122260716Y-86423975D01*
X122308335Y-86519213D01*
X130584201Y-85647707D02*
X130108010Y-85981041D01*
X130584201Y-86219136D02*
X129584201Y-86219136D01*
X129584201Y-85838183D01*
X129631820Y-85742945D01*
X129679439Y-85695326D01*
X129774677Y-85647707D01*
X129917534Y-85647707D01*
X130012772Y-85695326D01*
X130060391Y-85742945D01*
X130108010Y-85838183D01*
X130108010Y-86219136D01*
X129679439Y-85266755D02*
X129631820Y-85219136D01*
X129584201Y-85123898D01*
X129584201Y-84885802D01*
X129631820Y-84790564D01*
X129679439Y-84742945D01*
X129774677Y-84695326D01*
X129869915Y-84695326D01*
X130012772Y-84742945D01*
X130584201Y-85314374D01*
X130584201Y-84695326D01*
X129584201Y-84076279D02*
X129584201Y-83981040D01*
X129631820Y-83885802D01*
X129679439Y-83838183D01*
X129774677Y-83790564D01*
X129965153Y-83742945D01*
X130203249Y-83742945D01*
X130393725Y-83790564D01*
X130488963Y-83838183D01*
X130536582Y-83885802D01*
X130584201Y-83981040D01*
X130584201Y-84076279D01*
X130536582Y-84171517D01*
X130488963Y-84219136D01*
X130393725Y-84266755D01*
X130203249Y-84314374D01*
X129965153Y-84314374D01*
X129774677Y-84266755D01*
X129679439Y-84219136D01*
X129631820Y-84171517D01*
X129584201Y-84076279D01*
X129679439Y-83361993D02*
X129631820Y-83314374D01*
X129584201Y-83219136D01*
X129584201Y-82981040D01*
X129631820Y-82885802D01*
X129679439Y-82838183D01*
X129774677Y-82790564D01*
X129869915Y-82790564D01*
X130012772Y-82838183D01*
X130584201Y-83409612D01*
X130584201Y-82790564D01*
X125062241Y-88822707D02*
X124586050Y-89156041D01*
X125062241Y-89394136D02*
X124062241Y-89394136D01*
X124062241Y-89013183D01*
X124109860Y-88917945D01*
X124157479Y-88870326D01*
X124252717Y-88822707D01*
X124395574Y-88822707D01*
X124490812Y-88870326D01*
X124538431Y-88917945D01*
X124586050Y-89013183D01*
X124586050Y-89394136D01*
X124157479Y-88441755D02*
X124109860Y-88394136D01*
X124062241Y-88298898D01*
X124062241Y-88060802D01*
X124109860Y-87965564D01*
X124157479Y-87917945D01*
X124252717Y-87870326D01*
X124347955Y-87870326D01*
X124490812Y-87917945D01*
X125062241Y-88489374D01*
X125062241Y-87870326D01*
X124062241Y-87251279D02*
X124062241Y-87156040D01*
X124109860Y-87060802D01*
X124157479Y-87013183D01*
X124252717Y-86965564D01*
X124443193Y-86917945D01*
X124681289Y-86917945D01*
X124871765Y-86965564D01*
X124967003Y-87013183D01*
X125014622Y-87060802D01*
X125062241Y-87156040D01*
X125062241Y-87251279D01*
X125014622Y-87346517D01*
X124967003Y-87394136D01*
X124871765Y-87441755D01*
X124681289Y-87489374D01*
X124443193Y-87489374D01*
X124252717Y-87441755D01*
X124157479Y-87394136D01*
X124109860Y-87346517D01*
X124062241Y-87251279D01*
X124062241Y-86584612D02*
X124062241Y-85965564D01*
X124443193Y-86298898D01*
X124443193Y-86156040D01*
X124490812Y-86060802D01*
X124538431Y-86013183D01*
X124633670Y-85965564D01*
X124871765Y-85965564D01*
X124967003Y-86013183D01*
X125014622Y-86060802D01*
X125062241Y-86156040D01*
X125062241Y-86441755D01*
X125014622Y-86536993D01*
X124967003Y-86584612D01*
X130744221Y-76216687D02*
X130268030Y-76550021D01*
X130744221Y-76788116D02*
X129744221Y-76788116D01*
X129744221Y-76407163D01*
X129791840Y-76311925D01*
X129839459Y-76264306D01*
X129934697Y-76216687D01*
X130077554Y-76216687D01*
X130172792Y-76264306D01*
X130220411Y-76311925D01*
X130268030Y-76407163D01*
X130268030Y-76788116D01*
X129839459Y-75835735D02*
X129791840Y-75788116D01*
X129744221Y-75692878D01*
X129744221Y-75454782D01*
X129791840Y-75359544D01*
X129839459Y-75311925D01*
X129934697Y-75264306D01*
X130029935Y-75264306D01*
X130172792Y-75311925D01*
X130744221Y-75883354D01*
X130744221Y-75264306D01*
X129744221Y-74645259D02*
X129744221Y-74550020D01*
X129791840Y-74454782D01*
X129839459Y-74407163D01*
X129934697Y-74359544D01*
X130125173Y-74311925D01*
X130363269Y-74311925D01*
X130553745Y-74359544D01*
X130648983Y-74407163D01*
X130696602Y-74454782D01*
X130744221Y-74550020D01*
X130744221Y-74645259D01*
X130696602Y-74740497D01*
X130648983Y-74788116D01*
X130553745Y-74835735D01*
X130363269Y-74883354D01*
X130125173Y-74883354D01*
X129934697Y-74835735D01*
X129839459Y-74788116D01*
X129791840Y-74740497D01*
X129744221Y-74645259D01*
X130077554Y-73454782D02*
X130744221Y-73454782D01*
X129696602Y-73692878D02*
X130410888Y-73930973D01*
X130410888Y-73311925D01*
X135507553Y-112715301D02*
X135174219Y-112239110D01*
X134936124Y-112715301D02*
X134936124Y-111715301D01*
X135317077Y-111715301D01*
X135412315Y-111762920D01*
X135459934Y-111810539D01*
X135507553Y-111905777D01*
X135507553Y-112048634D01*
X135459934Y-112143872D01*
X135412315Y-112191491D01*
X135317077Y-112239110D01*
X134936124Y-112239110D01*
X135840886Y-111715301D02*
X136459934Y-111715301D01*
X136126600Y-112096253D01*
X136269458Y-112096253D01*
X136364696Y-112143872D01*
X136412315Y-112191491D01*
X136459934Y-112286730D01*
X136459934Y-112524825D01*
X136412315Y-112620063D01*
X136364696Y-112667682D01*
X136269458Y-112715301D01*
X135983743Y-112715301D01*
X135888505Y-112667682D01*
X135840886Y-112620063D01*
X137078981Y-111715301D02*
X137174220Y-111715301D01*
X137269458Y-111762920D01*
X137317077Y-111810539D01*
X137364696Y-111905777D01*
X137412315Y-112096253D01*
X137412315Y-112334349D01*
X137364696Y-112524825D01*
X137317077Y-112620063D01*
X137269458Y-112667682D01*
X137174220Y-112715301D01*
X137078981Y-112715301D01*
X136983743Y-112667682D01*
X136936124Y-112620063D01*
X136888505Y-112524825D01*
X136840886Y-112334349D01*
X136840886Y-112096253D01*
X136888505Y-111905777D01*
X136936124Y-111810539D01*
X136983743Y-111762920D01*
X137078981Y-111715301D01*
X138364696Y-112715301D02*
X137793267Y-112715301D01*
X138078981Y-112715301D02*
X138078981Y-111715301D01*
X137983743Y-111858158D01*
X137888505Y-111953396D01*
X137793267Y-112001015D01*
X140429762Y-89179114D02*
X140477381Y-89036257D01*
X140477381Y-88798161D01*
X140429762Y-88702923D01*
X140382143Y-88655304D01*
X140286905Y-88607685D01*
X140191667Y-88607685D01*
X140096429Y-88655304D01*
X140048810Y-88702923D01*
X140001190Y-88798161D01*
X139953571Y-88988638D01*
X139905952Y-89083876D01*
X139858333Y-89131495D01*
X139763095Y-89179114D01*
X139667857Y-89179114D01*
X139572619Y-89131495D01*
X139525000Y-89083876D01*
X139477381Y-88988638D01*
X139477381Y-88750542D01*
X139525000Y-88607685D01*
X139477381Y-88274352D02*
X140477381Y-88036257D01*
X139763095Y-87845780D01*
X140477381Y-87655304D01*
X139477381Y-87417209D01*
X139477381Y-87131495D02*
X139477381Y-86512447D01*
X139858333Y-86845781D01*
X139858333Y-86702923D01*
X139905952Y-86607685D01*
X139953571Y-86560066D01*
X140048810Y-86512447D01*
X140286905Y-86512447D01*
X140382143Y-86560066D01*
X140429762Y-86607685D01*
X140477381Y-86702923D01*
X140477381Y-86988638D01*
X140429762Y-87083876D01*
X140382143Y-87131495D01*
X139477381Y-85893400D02*
X139477381Y-85798161D01*
X139525000Y-85702923D01*
X139572619Y-85655304D01*
X139667857Y-85607685D01*
X139858333Y-85560066D01*
X140096429Y-85560066D01*
X140286905Y-85607685D01*
X140382143Y-85655304D01*
X140429762Y-85702923D01*
X140477381Y-85798161D01*
X140477381Y-85893400D01*
X140429762Y-85988638D01*
X140382143Y-86036257D01*
X140286905Y-86083876D01*
X140096429Y-86131495D01*
X139858333Y-86131495D01*
X139667857Y-86083876D01*
X139572619Y-86036257D01*
X139525000Y-85988638D01*
X139477381Y-85893400D01*
X140477381Y-84607685D02*
X140477381Y-85179114D01*
X140477381Y-84893400D02*
X139477381Y-84893400D01*
X139620238Y-84988638D01*
X139715476Y-85083876D01*
X139763095Y-85179114D01*
X144343714Y-70826381D02*
X144915143Y-70826381D01*
X144629428Y-71826381D02*
X144629428Y-70826381D01*
X145248476Y-71826381D02*
X145248476Y-70826381D01*
X145629429Y-70826381D01*
X145724667Y-70874000D01*
X145772286Y-70921619D01*
X145819905Y-71016857D01*
X145819905Y-71159714D01*
X145772286Y-71254952D01*
X145724667Y-71302571D01*
X145629429Y-71350190D01*
X145248476Y-71350190D01*
X146200857Y-70921619D02*
X146248476Y-70874000D01*
X146343714Y-70826381D01*
X146581810Y-70826381D01*
X146677048Y-70874000D01*
X146724667Y-70921619D01*
X146772286Y-71016857D01*
X146772286Y-71112095D01*
X146724667Y-71254952D01*
X146153238Y-71826381D01*
X146772286Y-71826381D01*
X147391333Y-70826381D02*
X147486572Y-70826381D01*
X147581810Y-70874000D01*
X147629429Y-70921619D01*
X147677048Y-71016857D01*
X147724667Y-71207333D01*
X147724667Y-71445429D01*
X147677048Y-71635905D01*
X147629429Y-71731143D01*
X147581810Y-71778762D01*
X147486572Y-71826381D01*
X147391333Y-71826381D01*
X147296095Y-71778762D01*
X147248476Y-71731143D01*
X147200857Y-71635905D01*
X147153238Y-71445429D01*
X147153238Y-71207333D01*
X147200857Y-71016857D01*
X147248476Y-70921619D01*
X147296095Y-70874000D01*
X147391333Y-70826381D01*
X148677048Y-71826381D02*
X148105619Y-71826381D01*
X148391333Y-71826381D02*
X148391333Y-70826381D01*
X148296095Y-70969238D01*
X148200857Y-71064476D01*
X148105619Y-71112095D01*
X132670301Y-79753246D02*
X133479825Y-79753246D01*
X133575063Y-79705627D01*
X133622682Y-79658008D01*
X133670301Y-79562770D01*
X133670301Y-79372293D01*
X133622682Y-79277055D01*
X133575063Y-79229436D01*
X133479825Y-79181817D01*
X132670301Y-79181817D01*
X132765539Y-78753246D02*
X132717920Y-78705627D01*
X132670301Y-78610389D01*
X132670301Y-78372293D01*
X132717920Y-78277055D01*
X132765539Y-78229436D01*
X132860777Y-78181817D01*
X132956015Y-78181817D01*
X133098872Y-78229436D01*
X133670301Y-78800865D01*
X133670301Y-78181817D01*
X132670301Y-77562770D02*
X132670301Y-77467531D01*
X132717920Y-77372293D01*
X132765539Y-77324674D01*
X132860777Y-77277055D01*
X133051253Y-77229436D01*
X133289349Y-77229436D01*
X133479825Y-77277055D01*
X133575063Y-77324674D01*
X133622682Y-77372293D01*
X133670301Y-77467531D01*
X133670301Y-77562770D01*
X133622682Y-77658008D01*
X133575063Y-77705627D01*
X133479825Y-77753246D01*
X133289349Y-77800865D01*
X133051253Y-77800865D01*
X132860777Y-77753246D01*
X132765539Y-77705627D01*
X132717920Y-77658008D01*
X132670301Y-77562770D01*
X133670301Y-76277055D02*
X133670301Y-76848484D01*
X133670301Y-76562770D02*
X132670301Y-76562770D01*
X132813158Y-76658008D01*
X132908396Y-76753246D01*
X132956015Y-76848484D01*
X143825221Y-83224476D02*
X142825221Y-83224476D01*
X142825221Y-82986381D01*
X142872840Y-82843523D01*
X142968078Y-82748285D01*
X143063316Y-82700666D01*
X143253792Y-82653047D01*
X143396650Y-82653047D01*
X143587126Y-82700666D01*
X143682364Y-82748285D01*
X143777602Y-82843523D01*
X143825221Y-82986381D01*
X143825221Y-83224476D01*
X143825221Y-81700666D02*
X143825221Y-82272095D01*
X143825221Y-81986381D02*
X142825221Y-81986381D01*
X142968078Y-82081619D01*
X143063316Y-82176857D01*
X143110935Y-82272095D01*
X142825221Y-81081619D02*
X142825221Y-80986380D01*
X142872840Y-80891142D01*
X142920459Y-80843523D01*
X143015697Y-80795904D01*
X143206173Y-80748285D01*
X143444269Y-80748285D01*
X143634745Y-80795904D01*
X143729983Y-80843523D01*
X143777602Y-80891142D01*
X143825221Y-80986380D01*
X143825221Y-81081619D01*
X143777602Y-81176857D01*
X143729983Y-81224476D01*
X143634745Y-81272095D01*
X143444269Y-81319714D01*
X143206173Y-81319714D01*
X143015697Y-81272095D01*
X142920459Y-81224476D01*
X142872840Y-81176857D01*
X142825221Y-81081619D01*
X143825221Y-79795904D02*
X143825221Y-80367333D01*
X143825221Y-80081619D02*
X142825221Y-80081619D01*
X142968078Y-80176857D01*
X143063316Y-80272095D01*
X143110935Y-80367333D01*
X122099629Y-74691501D02*
X122099629Y-73691501D01*
X123147248Y-74596263D02*
X123099629Y-74643882D01*
X122956772Y-74691501D01*
X122861534Y-74691501D01*
X122718676Y-74643882D01*
X122623438Y-74548644D01*
X122575819Y-74453406D01*
X122528200Y-74262930D01*
X122528200Y-74120072D01*
X122575819Y-73929596D01*
X122623438Y-73834358D01*
X122718676Y-73739120D01*
X122861534Y-73691501D01*
X122956772Y-73691501D01*
X123099629Y-73739120D01*
X123147248Y-73786739D01*
X123528200Y-73786739D02*
X123575819Y-73739120D01*
X123671057Y-73691501D01*
X123909153Y-73691501D01*
X124004391Y-73739120D01*
X124052010Y-73786739D01*
X124099629Y-73881977D01*
X124099629Y-73977215D01*
X124052010Y-74120072D01*
X123480581Y-74691501D01*
X124099629Y-74691501D01*
X124718676Y-73691501D02*
X124813915Y-73691501D01*
X124909153Y-73739120D01*
X124956772Y-73786739D01*
X125004391Y-73881977D01*
X125052010Y-74072453D01*
X125052010Y-74310549D01*
X125004391Y-74501025D01*
X124956772Y-74596263D01*
X124909153Y-74643882D01*
X124813915Y-74691501D01*
X124718676Y-74691501D01*
X124623438Y-74643882D01*
X124575819Y-74596263D01*
X124528200Y-74501025D01*
X124480581Y-74310549D01*
X124480581Y-74072453D01*
X124528200Y-73881977D01*
X124575819Y-73786739D01*
X124623438Y-73739120D01*
X124718676Y-73691501D01*
X126004391Y-74691501D02*
X125432962Y-74691501D01*
X125718676Y-74691501D02*
X125718676Y-73691501D01*
X125623438Y-73834358D01*
X125528200Y-73929596D01*
X125432962Y-73977215D01*
%LPC*%
D13*
X156210000Y-71120000D03*
D10*
G36*
X132123341Y-101886522D02*
X133698478Y-103461659D01*
X129648383Y-107511754D01*
X128073246Y-105936617D01*
X132123341Y-101886522D01*
X132123341Y-101886522D01*
G37*
G36*
X125266017Y-108743846D02*
X126841154Y-110318983D01*
X122791059Y-114369078D01*
X121215922Y-112793941D01*
X125266017Y-108743846D01*
X125266017Y-108743846D01*
G37*
D14*
X119516400Y-76469240D03*
X117516400Y-76469240D03*
X119496080Y-74305160D03*
X117496080Y-74305160D03*
D15*
X128036320Y-79914240D03*
X128036320Y-81914240D03*
D14*
X134864600Y-81183480D03*
X136864600Y-81183480D03*
D15*
X138988800Y-77069440D03*
X138988800Y-79069440D03*
D16*
X141711680Y-73917520D03*
X141711680Y-71817520D03*
X135636000Y-73744800D03*
X135636000Y-71644800D03*
D17*
X119430800Y-80850740D03*
X119430800Y-78752700D03*
X117124480Y-80845660D03*
X117124480Y-78747620D03*
X132199380Y-67843400D03*
X134297420Y-67843400D03*
D10*
G36*
X122139781Y-106839289D02*
X121873202Y-107105868D01*
X120864161Y-106096827D01*
X121130740Y-105830248D01*
X122139781Y-106839289D01*
X122139781Y-106839289D01*
G37*
G36*
X122493334Y-106485736D02*
X122226755Y-106752315D01*
X121217714Y-105743274D01*
X121484293Y-105476695D01*
X122493334Y-106485736D01*
X122493334Y-106485736D01*
G37*
G36*
X122846888Y-106132182D02*
X122580309Y-106398761D01*
X121571268Y-105389720D01*
X121837847Y-105123141D01*
X122846888Y-106132182D01*
X122846888Y-106132182D01*
G37*
G36*
X123200441Y-105778629D02*
X122933862Y-106045208D01*
X121924821Y-105036167D01*
X122191400Y-104769588D01*
X123200441Y-105778629D01*
X123200441Y-105778629D01*
G37*
G36*
X123553994Y-105425076D02*
X123287415Y-105691655D01*
X122278374Y-104682614D01*
X122544953Y-104416035D01*
X123553994Y-105425076D01*
X123553994Y-105425076D01*
G37*
G36*
X123907548Y-105071522D02*
X123640969Y-105338101D01*
X122631928Y-104329060D01*
X122898507Y-104062481D01*
X123907548Y-105071522D01*
X123907548Y-105071522D01*
G37*
G36*
X124261101Y-104717969D02*
X123994522Y-104984548D01*
X122985481Y-103975507D01*
X123252060Y-103708928D01*
X124261101Y-104717969D01*
X124261101Y-104717969D01*
G37*
G36*
X124614655Y-104364415D02*
X124348076Y-104630994D01*
X123339035Y-103621953D01*
X123605614Y-103355374D01*
X124614655Y-104364415D01*
X124614655Y-104364415D01*
G37*
G36*
X124968208Y-104010862D02*
X124701629Y-104277441D01*
X123692588Y-103268400D01*
X123959167Y-103001821D01*
X124968208Y-104010862D01*
X124968208Y-104010862D01*
G37*
G36*
X125321761Y-103657309D02*
X125055182Y-103923888D01*
X124046141Y-102914847D01*
X124312720Y-102648268D01*
X125321761Y-103657309D01*
X125321761Y-103657309D01*
G37*
G36*
X125675315Y-103303755D02*
X125408736Y-103570334D01*
X124399695Y-102561293D01*
X124666274Y-102294714D01*
X125675315Y-103303755D01*
X125675315Y-103303755D01*
G37*
G36*
X126028868Y-102950202D02*
X125762289Y-103216781D01*
X124753248Y-102207740D01*
X125019827Y-101941161D01*
X126028868Y-102950202D01*
X126028868Y-102950202D01*
G37*
G36*
X125762289Y-99678419D02*
X126028868Y-99944998D01*
X125019827Y-100954039D01*
X124753248Y-100687460D01*
X125762289Y-99678419D01*
X125762289Y-99678419D01*
G37*
G36*
X125408736Y-99324866D02*
X125675315Y-99591445D01*
X124666274Y-100600486D01*
X124399695Y-100333907D01*
X125408736Y-99324866D01*
X125408736Y-99324866D01*
G37*
G36*
X125055182Y-98971312D02*
X125321761Y-99237891D01*
X124312720Y-100246932D01*
X124046141Y-99980353D01*
X125055182Y-98971312D01*
X125055182Y-98971312D01*
G37*
G36*
X124701629Y-98617759D02*
X124968208Y-98884338D01*
X123959167Y-99893379D01*
X123692588Y-99626800D01*
X124701629Y-98617759D01*
X124701629Y-98617759D01*
G37*
G36*
X124348076Y-98264206D02*
X124614655Y-98530785D01*
X123605614Y-99539826D01*
X123339035Y-99273247D01*
X124348076Y-98264206D01*
X124348076Y-98264206D01*
G37*
G36*
X123994522Y-97910652D02*
X124261101Y-98177231D01*
X123252060Y-99186272D01*
X122985481Y-98919693D01*
X123994522Y-97910652D01*
X123994522Y-97910652D01*
G37*
G36*
X123640969Y-97557099D02*
X123907548Y-97823678D01*
X122898507Y-98832719D01*
X122631928Y-98566140D01*
X123640969Y-97557099D01*
X123640969Y-97557099D01*
G37*
G36*
X123287415Y-97203545D02*
X123553994Y-97470124D01*
X122544953Y-98479165D01*
X122278374Y-98212586D01*
X123287415Y-97203545D01*
X123287415Y-97203545D01*
G37*
G36*
X122933862Y-96849992D02*
X123200441Y-97116571D01*
X122191400Y-98125612D01*
X121924821Y-97859033D01*
X122933862Y-96849992D01*
X122933862Y-96849992D01*
G37*
G36*
X122580309Y-96496439D02*
X122846888Y-96763018D01*
X121837847Y-97772059D01*
X121571268Y-97505480D01*
X122580309Y-96496439D01*
X122580309Y-96496439D01*
G37*
G36*
X122226755Y-96142885D02*
X122493334Y-96409464D01*
X121484293Y-97418505D01*
X121217714Y-97151926D01*
X122226755Y-96142885D01*
X122226755Y-96142885D01*
G37*
G36*
X121873202Y-95789332D02*
X122139781Y-96055911D01*
X121130740Y-97064952D01*
X120864161Y-96798373D01*
X121873202Y-95789332D01*
X121873202Y-95789332D01*
G37*
G36*
X119877039Y-96798373D02*
X119610460Y-97064952D01*
X118601419Y-96055911D01*
X118867998Y-95789332D01*
X119877039Y-96798373D01*
X119877039Y-96798373D01*
G37*
G36*
X119523486Y-97151926D02*
X119256907Y-97418505D01*
X118247866Y-96409464D01*
X118514445Y-96142885D01*
X119523486Y-97151926D01*
X119523486Y-97151926D01*
G37*
G36*
X119169932Y-97505480D02*
X118903353Y-97772059D01*
X117894312Y-96763018D01*
X118160891Y-96496439D01*
X119169932Y-97505480D01*
X119169932Y-97505480D01*
G37*
G36*
X118816379Y-97859033D02*
X118549800Y-98125612D01*
X117540759Y-97116571D01*
X117807338Y-96849992D01*
X118816379Y-97859033D01*
X118816379Y-97859033D01*
G37*
G36*
X118462826Y-98212586D02*
X118196247Y-98479165D01*
X117187206Y-97470124D01*
X117453785Y-97203545D01*
X118462826Y-98212586D01*
X118462826Y-98212586D01*
G37*
G36*
X118109272Y-98566140D02*
X117842693Y-98832719D01*
X116833652Y-97823678D01*
X117100231Y-97557099D01*
X118109272Y-98566140D01*
X118109272Y-98566140D01*
G37*
G36*
X117755719Y-98919693D02*
X117489140Y-99186272D01*
X116480099Y-98177231D01*
X116746678Y-97910652D01*
X117755719Y-98919693D01*
X117755719Y-98919693D01*
G37*
G36*
X117402165Y-99273247D02*
X117135586Y-99539826D01*
X116126545Y-98530785D01*
X116393124Y-98264206D01*
X117402165Y-99273247D01*
X117402165Y-99273247D01*
G37*
G36*
X117048612Y-99626800D02*
X116782033Y-99893379D01*
X115772992Y-98884338D01*
X116039571Y-98617759D01*
X117048612Y-99626800D01*
X117048612Y-99626800D01*
G37*
G36*
X116695059Y-99980353D02*
X116428480Y-100246932D01*
X115419439Y-99237891D01*
X115686018Y-98971312D01*
X116695059Y-99980353D01*
X116695059Y-99980353D01*
G37*
G36*
X116341505Y-100333907D02*
X116074926Y-100600486D01*
X115065885Y-99591445D01*
X115332464Y-99324866D01*
X116341505Y-100333907D01*
X116341505Y-100333907D01*
G37*
G36*
X115987952Y-100687460D02*
X115721373Y-100954039D01*
X114712332Y-99944998D01*
X114978911Y-99678419D01*
X115987952Y-100687460D01*
X115987952Y-100687460D01*
G37*
G36*
X115721373Y-101941161D02*
X115987952Y-102207740D01*
X114978911Y-103216781D01*
X114712332Y-102950202D01*
X115721373Y-101941161D01*
X115721373Y-101941161D01*
G37*
G36*
X116074926Y-102294714D02*
X116341505Y-102561293D01*
X115332464Y-103570334D01*
X115065885Y-103303755D01*
X116074926Y-102294714D01*
X116074926Y-102294714D01*
G37*
G36*
X116428480Y-102648268D02*
X116695059Y-102914847D01*
X115686018Y-103923888D01*
X115419439Y-103657309D01*
X116428480Y-102648268D01*
X116428480Y-102648268D01*
G37*
G36*
X116782033Y-103001821D02*
X117048612Y-103268400D01*
X116039571Y-104277441D01*
X115772992Y-104010862D01*
X116782033Y-103001821D01*
X116782033Y-103001821D01*
G37*
G36*
X117135586Y-103355374D02*
X117402165Y-103621953D01*
X116393124Y-104630994D01*
X116126545Y-104364415D01*
X117135586Y-103355374D01*
X117135586Y-103355374D01*
G37*
G36*
X117489140Y-103708928D02*
X117755719Y-103975507D01*
X116746678Y-104984548D01*
X116480099Y-104717969D01*
X117489140Y-103708928D01*
X117489140Y-103708928D01*
G37*
G36*
X117842693Y-104062481D02*
X118109272Y-104329060D01*
X117100231Y-105338101D01*
X116833652Y-105071522D01*
X117842693Y-104062481D01*
X117842693Y-104062481D01*
G37*
G36*
X118196247Y-104416035D02*
X118462826Y-104682614D01*
X117453785Y-105691655D01*
X117187206Y-105425076D01*
X118196247Y-104416035D01*
X118196247Y-104416035D01*
G37*
G36*
X118549800Y-104769588D02*
X118816379Y-105036167D01*
X117807338Y-106045208D01*
X117540759Y-105778629D01*
X118549800Y-104769588D01*
X118549800Y-104769588D01*
G37*
G36*
X118903353Y-105123141D02*
X119169932Y-105389720D01*
X118160891Y-106398761D01*
X117894312Y-106132182D01*
X118903353Y-105123141D01*
X118903353Y-105123141D01*
G37*
G36*
X119256907Y-105476695D02*
X119523486Y-105743274D01*
X118514445Y-106752315D01*
X118247866Y-106485736D01*
X119256907Y-105476695D01*
X119256907Y-105476695D01*
G37*
G36*
X119610460Y-105830248D02*
X119877039Y-106096827D01*
X118867998Y-107105868D01*
X118601419Y-106839289D01*
X119610460Y-105830248D01*
X119610460Y-105830248D01*
G37*
D15*
X138297920Y-73583040D03*
X138297920Y-71583040D03*
D18*
X108585000Y-118414800D03*
D19*
X111125000Y-118414800D03*
X113665000Y-118414800D03*
X116205000Y-118414800D03*
D20*
X150368000Y-98425000D03*
D21*
X150368000Y-95885000D03*
X150368000Y-93345000D03*
X150368000Y-90805000D03*
X150368000Y-88265000D03*
X150368000Y-85725000D03*
X150368000Y-83185000D03*
X150368000Y-80645000D03*
X150368000Y-78105000D03*
X150368000Y-75565000D03*
X150368000Y-73025000D03*
X150368000Y-70485000D03*
D20*
X108077000Y-70231000D03*
D21*
X108077000Y-72771000D03*
X108077000Y-75311000D03*
X108077000Y-77851000D03*
X108077000Y-80391000D03*
X108077000Y-82931000D03*
X108077000Y-85471000D03*
X108077000Y-88011000D03*
X108077000Y-90551000D03*
X108077000Y-93091000D03*
X108077000Y-95631000D03*
X108077000Y-98171000D03*
D20*
X108127800Y-110820200D03*
D21*
X108127800Y-108280200D03*
X108127800Y-105740200D03*
X108127800Y-103200200D03*
D18*
X132816600Y-118414800D03*
D19*
X130276600Y-118414800D03*
X127736600Y-118414800D03*
X125196600Y-118414800D03*
X122656600Y-118414800D03*
X120116600Y-118414800D03*
D20*
X150368000Y-109702600D03*
D21*
X150368000Y-107162600D03*
X150368000Y-104622600D03*
X150368000Y-102082600D03*
D22*
X124129800Y-70457440D03*
X123479800Y-70457440D03*
X122829800Y-70457440D03*
X124779800Y-70457440D03*
X125429800Y-70457440D03*
D23*
X127329800Y-70232440D03*
X120929800Y-70232440D03*
D24*
X125329800Y-67782440D03*
X122929800Y-67782440D03*
D25*
X127429800Y-67782440D03*
X120829800Y-67782440D03*
D26*
X139115800Y-68173600D03*
D27*
X141655800Y-68173600D03*
D18*
X136575800Y-118414800D03*
D19*
X139115800Y-118414800D03*
X141655800Y-118414800D03*
X144195800Y-118414800D03*
X146735800Y-118414800D03*
X149275800Y-118414800D03*
D28*
X141231500Y-99419280D03*
X141231500Y-100419280D03*
X141231500Y-101419280D03*
X141231500Y-102419280D03*
D29*
X143756500Y-98119280D03*
X143756500Y-103719280D03*
D28*
X143924140Y-110857160D03*
X143924140Y-109857160D03*
X143924140Y-108857160D03*
X143924140Y-107857160D03*
D29*
X141399140Y-112157160D03*
X141399140Y-106557160D03*
D18*
X117094000Y-68072000D03*
D19*
X114554000Y-68072000D03*
X112014000Y-68072000D03*
D30*
X122519440Y-84673480D03*
X122519440Y-82773480D03*
X130246120Y-81681360D03*
X130246120Y-79781360D03*
X124724160Y-84678560D03*
X124724160Y-82778560D03*
X128381760Y-74330520D03*
X128381760Y-76230520D03*
X136545320Y-115758000D03*
X136545320Y-113858000D03*
D31*
X138275000Y-89368400D03*
X138275000Y-84418400D03*
X134775000Y-89368400D03*
X134775000Y-84418400D03*
D32*
X134775000Y-84668400D03*
X138275000Y-89118400D03*
X134775000Y-89118400D03*
X138275000Y-84668400D03*
D33*
X143982440Y-72659240D03*
D16*
X136839200Y-78915300D03*
X136839200Y-77015300D03*
X134839200Y-77965300D03*
D17*
X143217900Y-76674980D03*
X143217900Y-78773020D03*
D34*
X126339300Y-79816900D03*
X126339300Y-79316900D03*
X126339300Y-78816900D03*
X126339300Y-78316900D03*
X126339300Y-77816900D03*
X126339300Y-77316900D03*
X126339300Y-76816900D03*
X126339300Y-76316900D03*
D35*
X125689300Y-75666900D03*
X125189300Y-75666900D03*
X124689300Y-75666900D03*
X124189300Y-75666900D03*
X123689300Y-75666900D03*
X123189300Y-75666900D03*
X122689300Y-75666900D03*
X122189300Y-75666900D03*
D34*
X121539300Y-76316900D03*
X121539300Y-76816900D03*
X121539300Y-77316900D03*
X121539300Y-77816900D03*
X121539300Y-78316900D03*
X121539300Y-78816900D03*
X121539300Y-79316900D03*
X121539300Y-79816900D03*
D35*
X122189300Y-80466900D03*
X122689300Y-80466900D03*
X123189300Y-80466900D03*
X123689300Y-80466900D03*
X124189300Y-80466900D03*
X124689300Y-80466900D03*
X125189300Y-80466900D03*
X125689300Y-80466900D03*
D36*
X123076800Y-77204400D03*
X123076800Y-78929400D03*
X124801800Y-77204400D03*
X124801800Y-78929400D03*
D13*
X156210000Y-115570000D03*
X102235000Y-115570000D03*
X102235000Y-71120000D03*
M02*
