G04 #@! TF.FileFunction,Copper,L3,Inr,Signal*
%FSLAX46Y46*%
G04 Gerber Fmt 4.6, Leading zero omitted, Abs format (unit mm)*
G04 Created by KiCad (PCBNEW 4.0.5) date Tuesday, June 20, 2017 'PMt' 07:53:22 PM*
%MOMM*%
%LPD*%
G01*
G04 APERTURE LIST*
%ADD10C,0.100000*%
%ADD11C,0.457200*%
%ADD12R,1.727200X2.032000*%
%ADD13O,1.727200X2.032000*%
%ADD14R,2.032000X1.727200*%
%ADD15O,2.032000X1.727200*%
%ADD16C,1.600000*%
%ADD17R,2.032000X2.032000*%
%ADD18O,2.032000X2.032000*%
%ADD19C,1.016000*%
%ADD20C,0.152400*%
G04 APERTURE END LIST*
D10*
D11*
X122936000Y-78867000D03*
X123952000Y-78867000D03*
X124968000Y-78867000D03*
X124968000Y-77978000D03*
X123952000Y-77978000D03*
X122936000Y-77978000D03*
X124968000Y-76962000D03*
X123952000Y-76962000D03*
D12*
X108585000Y-118414800D03*
D13*
X111125000Y-118414800D03*
X113665000Y-118414800D03*
X116205000Y-118414800D03*
D14*
X150368000Y-98425000D03*
D15*
X150368000Y-95885000D03*
X150368000Y-93345000D03*
X150368000Y-90805000D03*
X150368000Y-88265000D03*
X150368000Y-85725000D03*
X150368000Y-83185000D03*
X150368000Y-80645000D03*
X150368000Y-78105000D03*
X150368000Y-75565000D03*
X150368000Y-73025000D03*
X150368000Y-70485000D03*
D14*
X108077000Y-70231000D03*
D15*
X108077000Y-72771000D03*
X108077000Y-75311000D03*
X108077000Y-77851000D03*
X108077000Y-80391000D03*
X108077000Y-82931000D03*
X108077000Y-85471000D03*
X108077000Y-88011000D03*
X108077000Y-90551000D03*
X108077000Y-93091000D03*
X108077000Y-95631000D03*
X108077000Y-98171000D03*
D14*
X108127800Y-110820200D03*
D15*
X108127800Y-108280200D03*
X108127800Y-105740200D03*
X108127800Y-103200200D03*
D12*
X132816600Y-118414800D03*
D13*
X130276600Y-118414800D03*
X127736600Y-118414800D03*
X125196600Y-118414800D03*
X122656600Y-118414800D03*
X120116600Y-118414800D03*
D14*
X150368000Y-109702600D03*
D15*
X150368000Y-107162600D03*
X150368000Y-104622600D03*
X150368000Y-102082600D03*
D16*
X127429800Y-67782440D03*
X120829800Y-67782440D03*
D17*
X139115800Y-68173600D03*
D18*
X141655800Y-68173600D03*
D12*
X136575800Y-118414800D03*
D13*
X139115800Y-118414800D03*
X141655800Y-118414800D03*
X144195800Y-118414800D03*
X146735800Y-118414800D03*
X149275800Y-118414800D03*
D12*
X117094000Y-68072000D03*
D13*
X114554000Y-68072000D03*
X112014000Y-68072000D03*
D11*
X122936000Y-76962000D03*
X132831840Y-107167680D03*
X122890280Y-103251000D03*
X117165120Y-92374720D03*
X123134120Y-100243640D03*
X120406160Y-111109760D03*
X117861080Y-107193080D03*
X119771160Y-103581200D03*
X117170200Y-101798120D03*
X127487680Y-111333280D03*
X131307840Y-107553760D03*
X137744200Y-100528120D03*
X122682000Y-95961200D03*
X139496800Y-86893400D03*
X133426200Y-69138800D03*
D19*
X126644400Y-83413600D03*
X118262400Y-70866000D03*
X139954000Y-72847200D03*
X129844800Y-70307200D03*
X123169680Y-72069960D03*
D11*
X124739400Y-85923120D03*
X129905760Y-74472800D03*
X116326920Y-75270360D03*
D19*
X138684000Y-80954880D03*
D11*
X126918720Y-112938560D03*
X121787920Y-107706160D03*
X118424960Y-107589320D03*
X118303040Y-102118160D03*
X145618200Y-100868480D03*
X138109960Y-101422200D03*
X134950200Y-113858040D03*
X120853200Y-95745300D03*
X135585200Y-67868800D03*
D19*
X140665200Y-76454000D03*
D11*
X123428760Y-102702360D03*
D19*
X140106400Y-71374000D03*
X133771640Y-71688960D03*
X121315480Y-73370440D03*
D11*
X121386600Y-74955400D03*
X125780800Y-81508600D03*
X122189240Y-103992680D03*
X129753360Y-89799160D03*
X126959360Y-90357960D03*
X125227080Y-93543120D03*
X125374400Y-106108500D03*
X133553200Y-84124800D03*
X121640600Y-74269600D03*
X118313200Y-79806800D03*
X115798600Y-80111600D03*
X126121160Y-102428040D03*
X126568200Y-92481400D03*
X127254000Y-98450400D03*
X124129800Y-94640400D03*
X135900160Y-96616520D03*
X128076960Y-94081600D03*
X136210040Y-95890080D03*
X127939800Y-93431360D03*
X112928400Y-111442500D03*
X117119400Y-115785900D03*
X128864360Y-97871280D03*
X133771640Y-98298000D03*
X138750040Y-102179120D03*
X133421120Y-98902520D03*
X128635760Y-98602800D03*
X139364720Y-102930960D03*
X113258600Y-83921600D03*
X118755160Y-104124760D03*
X145740120Y-106588560D03*
X145775680Y-108691680D03*
X145775680Y-110845600D03*
X145613120Y-112989360D03*
X128930400Y-102184200D03*
X123310650Y-107537250D03*
X128905000Y-101473000D03*
X123329700Y-106870500D03*
X123380500Y-106210100D03*
X128689100Y-100901500D03*
X141084300Y-81724500D03*
X115849400Y-98094800D03*
X112483900Y-97701100D03*
X111709200Y-98196400D03*
X114782600Y-98183700D03*
X117259100Y-106324400D03*
X116789200Y-107569000D03*
X130810000Y-67843400D03*
X143941800Y-75044300D03*
D20*
G36*
X159716400Y-120219400D02*
X99109600Y-120219400D01*
X99109600Y-115932135D01*
X100406084Y-115932135D01*
X100683885Y-116604465D01*
X101197829Y-117119307D01*
X101869673Y-117398282D01*
X102597135Y-117398916D01*
X102597415Y-117398800D01*
X107488322Y-117398800D01*
X107488322Y-119430800D01*
X107504262Y-119515514D01*
X107554328Y-119593318D01*
X107630720Y-119645515D01*
X107721400Y-119663878D01*
X109448600Y-119663878D01*
X109533314Y-119647938D01*
X109611118Y-119597872D01*
X109663315Y-119521480D01*
X109681678Y-119430800D01*
X109681678Y-118592602D01*
X109824808Y-118592602D01*
X109700538Y-118818529D01*
X109905148Y-119344516D01*
X110295470Y-119752163D01*
X110724618Y-119958537D01*
X110947200Y-119856750D01*
X110947200Y-118592600D01*
X111302800Y-118592600D01*
X111302800Y-119856750D01*
X111525382Y-119958537D01*
X111954530Y-119752163D01*
X112344852Y-119344516D01*
X112549462Y-118818529D01*
X112425191Y-118592600D01*
X111302800Y-118592600D01*
X110947200Y-118592600D01*
X110927200Y-118592600D01*
X110927200Y-118238017D01*
X112572800Y-118238017D01*
X112572800Y-118591583D01*
X112655939Y-119009550D01*
X112892698Y-119363885D01*
X113247033Y-119600644D01*
X113665000Y-119683783D01*
X114082967Y-119600644D01*
X114437302Y-119363885D01*
X114674061Y-119009550D01*
X114757200Y-118591583D01*
X114757200Y-118238017D01*
X115112800Y-118238017D01*
X115112800Y-118591583D01*
X115195939Y-119009550D01*
X115432698Y-119363885D01*
X115787033Y-119600644D01*
X116205000Y-119683783D01*
X116622967Y-119600644D01*
X116977302Y-119363885D01*
X117214061Y-119009550D01*
X117297200Y-118591583D01*
X117297200Y-118238017D01*
X119024400Y-118238017D01*
X119024400Y-118591583D01*
X119107539Y-119009550D01*
X119344298Y-119363885D01*
X119698633Y-119600644D01*
X120116600Y-119683783D01*
X120534567Y-119600644D01*
X120888902Y-119363885D01*
X121125661Y-119009550D01*
X121208800Y-118591583D01*
X121208800Y-118238017D01*
X121564400Y-118238017D01*
X121564400Y-118591583D01*
X121647539Y-119009550D01*
X121884298Y-119363885D01*
X122238633Y-119600644D01*
X122656600Y-119683783D01*
X123074567Y-119600644D01*
X123428902Y-119363885D01*
X123665661Y-119009550D01*
X123748800Y-118591583D01*
X123748800Y-118238017D01*
X124104400Y-118238017D01*
X124104400Y-118591583D01*
X124187539Y-119009550D01*
X124424298Y-119363885D01*
X124778633Y-119600644D01*
X125196600Y-119683783D01*
X125614567Y-119600644D01*
X125968902Y-119363885D01*
X126205661Y-119009550D01*
X126288800Y-118591583D01*
X126288800Y-118238017D01*
X126644400Y-118238017D01*
X126644400Y-118591583D01*
X126727539Y-119009550D01*
X126964298Y-119363885D01*
X127318633Y-119600644D01*
X127736600Y-119683783D01*
X128154567Y-119600644D01*
X128508902Y-119363885D01*
X128745661Y-119009550D01*
X128783657Y-118818529D01*
X128852138Y-118818529D01*
X129056748Y-119344516D01*
X129447070Y-119752163D01*
X129876218Y-119958537D01*
X130098800Y-119856750D01*
X130098800Y-118592600D01*
X128976409Y-118592600D01*
X128852138Y-118818529D01*
X128783657Y-118818529D01*
X128828800Y-118591583D01*
X128828800Y-118238017D01*
X128783658Y-118011071D01*
X128852138Y-118011071D01*
X128976409Y-118237000D01*
X130098800Y-118237000D01*
X130098800Y-116972850D01*
X130454400Y-116972850D01*
X130454400Y-118237000D01*
X130474400Y-118237000D01*
X130474400Y-118592600D01*
X130454400Y-118592600D01*
X130454400Y-119856750D01*
X130676982Y-119958537D01*
X131106130Y-119752163D01*
X131496452Y-119344516D01*
X131701062Y-118818529D01*
X131576792Y-118592602D01*
X131719922Y-118592602D01*
X131719922Y-119430800D01*
X131735862Y-119515514D01*
X131785928Y-119593318D01*
X131862320Y-119645515D01*
X131953000Y-119663878D01*
X133680200Y-119663878D01*
X133764914Y-119647938D01*
X133842718Y-119597872D01*
X133894915Y-119521480D01*
X133913278Y-119430800D01*
X133913278Y-117398800D01*
X135479122Y-117398800D01*
X135479122Y-119430800D01*
X135495062Y-119515514D01*
X135545128Y-119593318D01*
X135621520Y-119645515D01*
X135712200Y-119663878D01*
X137439400Y-119663878D01*
X137524114Y-119647938D01*
X137601918Y-119597872D01*
X137654115Y-119521480D01*
X137672478Y-119430800D01*
X137672478Y-118238017D01*
X138023600Y-118238017D01*
X138023600Y-118591583D01*
X138106739Y-119009550D01*
X138343498Y-119363885D01*
X138697833Y-119600644D01*
X139115800Y-119683783D01*
X139533767Y-119600644D01*
X139888102Y-119363885D01*
X140124861Y-119009550D01*
X140208000Y-118591583D01*
X140208000Y-118238017D01*
X140563600Y-118238017D01*
X140563600Y-118591583D01*
X140646739Y-119009550D01*
X140883498Y-119363885D01*
X141237833Y-119600644D01*
X141655800Y-119683783D01*
X142073767Y-119600644D01*
X142428102Y-119363885D01*
X142664861Y-119009550D01*
X142748000Y-118591583D01*
X142748000Y-118238017D01*
X143103600Y-118238017D01*
X143103600Y-118591583D01*
X143186739Y-119009550D01*
X143423498Y-119363885D01*
X143777833Y-119600644D01*
X144195800Y-119683783D01*
X144613767Y-119600644D01*
X144968102Y-119363885D01*
X145204861Y-119009550D01*
X145288000Y-118591583D01*
X145288000Y-118238017D01*
X145643600Y-118238017D01*
X145643600Y-118591583D01*
X145726739Y-119009550D01*
X145963498Y-119363885D01*
X146317833Y-119600644D01*
X146735800Y-119683783D01*
X147153767Y-119600644D01*
X147508102Y-119363885D01*
X147744861Y-119009550D01*
X147828000Y-118591583D01*
X147828000Y-118238017D01*
X148183600Y-118238017D01*
X148183600Y-118591583D01*
X148266739Y-119009550D01*
X148503498Y-119363885D01*
X148857833Y-119600644D01*
X149275800Y-119683783D01*
X149693767Y-119600644D01*
X150048102Y-119363885D01*
X150284861Y-119009550D01*
X150368000Y-118591583D01*
X150368000Y-118238017D01*
X150284861Y-117820050D01*
X150048102Y-117465715D01*
X149693767Y-117228956D01*
X149275800Y-117145817D01*
X148857833Y-117228956D01*
X148503498Y-117465715D01*
X148266739Y-117820050D01*
X148183600Y-118238017D01*
X147828000Y-118238017D01*
X147744861Y-117820050D01*
X147508102Y-117465715D01*
X147153767Y-117228956D01*
X146735800Y-117145817D01*
X146317833Y-117228956D01*
X145963498Y-117465715D01*
X145726739Y-117820050D01*
X145643600Y-118238017D01*
X145288000Y-118238017D01*
X145204861Y-117820050D01*
X144968102Y-117465715D01*
X144613767Y-117228956D01*
X144195800Y-117145817D01*
X143777833Y-117228956D01*
X143423498Y-117465715D01*
X143186739Y-117820050D01*
X143103600Y-118238017D01*
X142748000Y-118238017D01*
X142664861Y-117820050D01*
X142428102Y-117465715D01*
X142073767Y-117228956D01*
X141655800Y-117145817D01*
X141237833Y-117228956D01*
X140883498Y-117465715D01*
X140646739Y-117820050D01*
X140563600Y-118238017D01*
X140208000Y-118238017D01*
X140124861Y-117820050D01*
X139888102Y-117465715D01*
X139533767Y-117228956D01*
X139115800Y-117145817D01*
X138697833Y-117228956D01*
X138343498Y-117465715D01*
X138106739Y-117820050D01*
X138023600Y-118238017D01*
X137672478Y-118238017D01*
X137672478Y-117398800D01*
X137656538Y-117314086D01*
X137606472Y-117236282D01*
X137530080Y-117184085D01*
X137439400Y-117165722D01*
X135712200Y-117165722D01*
X135627486Y-117181662D01*
X135549682Y-117231728D01*
X135497485Y-117308120D01*
X135479122Y-117398800D01*
X133913278Y-117398800D01*
X133897338Y-117314086D01*
X133847272Y-117236282D01*
X133770880Y-117184085D01*
X133680200Y-117165722D01*
X131953000Y-117165722D01*
X131868286Y-117181662D01*
X131790482Y-117231728D01*
X131738285Y-117308120D01*
X131719922Y-117398800D01*
X131719922Y-118236998D01*
X131576792Y-118236998D01*
X131701062Y-118011071D01*
X131496452Y-117485084D01*
X131106130Y-117077437D01*
X130676982Y-116871063D01*
X130454400Y-116972850D01*
X130098800Y-116972850D01*
X129876218Y-116871063D01*
X129447070Y-117077437D01*
X129056748Y-117485084D01*
X128852138Y-118011071D01*
X128783658Y-118011071D01*
X128745661Y-117820050D01*
X128508902Y-117465715D01*
X128154567Y-117228956D01*
X127736600Y-117145817D01*
X127318633Y-117228956D01*
X126964298Y-117465715D01*
X126727539Y-117820050D01*
X126644400Y-118238017D01*
X126288800Y-118238017D01*
X126205661Y-117820050D01*
X125968902Y-117465715D01*
X125614567Y-117228956D01*
X125196600Y-117145817D01*
X124778633Y-117228956D01*
X124424298Y-117465715D01*
X124187539Y-117820050D01*
X124104400Y-118238017D01*
X123748800Y-118238017D01*
X123665661Y-117820050D01*
X123428902Y-117465715D01*
X123074567Y-117228956D01*
X122656600Y-117145817D01*
X122238633Y-117228956D01*
X121884298Y-117465715D01*
X121647539Y-117820050D01*
X121564400Y-118238017D01*
X121208800Y-118238017D01*
X121125661Y-117820050D01*
X120888902Y-117465715D01*
X120534567Y-117228956D01*
X120116600Y-117145817D01*
X119698633Y-117228956D01*
X119344298Y-117465715D01*
X119107539Y-117820050D01*
X119024400Y-118238017D01*
X117297200Y-118238017D01*
X117214061Y-117820050D01*
X116977302Y-117465715D01*
X116622967Y-117228956D01*
X116205000Y-117145817D01*
X115787033Y-117228956D01*
X115432698Y-117465715D01*
X115195939Y-117820050D01*
X115112800Y-118238017D01*
X114757200Y-118238017D01*
X114674061Y-117820050D01*
X114437302Y-117465715D01*
X114082967Y-117228956D01*
X113665000Y-117145817D01*
X113247033Y-117228956D01*
X112892698Y-117465715D01*
X112655939Y-117820050D01*
X112572800Y-118238017D01*
X110927200Y-118238017D01*
X110927200Y-118237000D01*
X110947200Y-118237000D01*
X110947200Y-116972850D01*
X111302800Y-116972850D01*
X111302800Y-118237000D01*
X112425191Y-118237000D01*
X112549462Y-118011071D01*
X112344852Y-117485084D01*
X111954530Y-117077437D01*
X111525382Y-116871063D01*
X111302800Y-116972850D01*
X110947200Y-116972850D01*
X110724618Y-116871063D01*
X110295470Y-117077437D01*
X109905148Y-117485084D01*
X109700538Y-118011071D01*
X109824808Y-118236998D01*
X109681678Y-118236998D01*
X109681678Y-117398800D01*
X109665738Y-117314086D01*
X109615672Y-117236282D01*
X109539280Y-117184085D01*
X109448600Y-117165722D01*
X107721400Y-117165722D01*
X107636686Y-117181662D01*
X107558882Y-117231728D01*
X107506685Y-117308120D01*
X107488322Y-117398800D01*
X102597415Y-117398800D01*
X103269465Y-117121115D01*
X103784307Y-116607171D01*
X104063282Y-115935327D01*
X104063333Y-115876444D01*
X116662121Y-115876444D01*
X116731579Y-116044545D01*
X116860079Y-116173269D01*
X117028058Y-116243020D01*
X117209944Y-116243179D01*
X117378045Y-116173721D01*
X117506769Y-116045221D01*
X117553726Y-115932135D01*
X154381084Y-115932135D01*
X154658885Y-116604465D01*
X155172829Y-117119307D01*
X155844673Y-117398282D01*
X156572135Y-117398916D01*
X157244465Y-117121115D01*
X157759307Y-116607171D01*
X158038282Y-115935327D01*
X158038916Y-115207865D01*
X157761115Y-114535535D01*
X157247171Y-114020693D01*
X156575327Y-113741718D01*
X155847865Y-113741084D01*
X155175535Y-114018885D01*
X154660693Y-114532829D01*
X154381718Y-115204673D01*
X154381084Y-115932135D01*
X117553726Y-115932135D01*
X117576520Y-115877242D01*
X117576679Y-115695356D01*
X117507221Y-115527255D01*
X117378721Y-115398531D01*
X117210742Y-115328780D01*
X117028856Y-115328621D01*
X116860755Y-115398079D01*
X116732031Y-115526579D01*
X116662280Y-115694558D01*
X116662121Y-115876444D01*
X104063333Y-115876444D01*
X104063916Y-115207865D01*
X103786115Y-114535535D01*
X103272171Y-114020693D01*
X102600327Y-113741718D01*
X101872865Y-113741084D01*
X101200535Y-114018885D01*
X100685693Y-114532829D01*
X100406718Y-115204673D01*
X100406084Y-115932135D01*
X99109600Y-115932135D01*
X99109600Y-113029104D01*
X126461441Y-113029104D01*
X126530899Y-113197205D01*
X126659399Y-113325929D01*
X126827378Y-113395680D01*
X127009264Y-113395839D01*
X127177365Y-113326381D01*
X127306089Y-113197881D01*
X127355077Y-113079904D01*
X145155841Y-113079904D01*
X145225299Y-113248005D01*
X145353799Y-113376729D01*
X145521778Y-113446480D01*
X145703664Y-113446639D01*
X145871765Y-113377181D01*
X146000489Y-113248681D01*
X146070240Y-113080702D01*
X146070399Y-112898816D01*
X146000941Y-112730715D01*
X145872441Y-112601991D01*
X145704462Y-112532240D01*
X145522576Y-112532081D01*
X145354475Y-112601539D01*
X145225751Y-112730039D01*
X145156000Y-112898018D01*
X145155841Y-113079904D01*
X127355077Y-113079904D01*
X127375840Y-113029902D01*
X127375999Y-112848016D01*
X127306541Y-112679915D01*
X127178041Y-112551191D01*
X127010062Y-112481440D01*
X126828176Y-112481281D01*
X126660075Y-112550739D01*
X126531351Y-112679239D01*
X126461600Y-112847218D01*
X126461441Y-113029104D01*
X99109600Y-113029104D01*
X99109600Y-108680582D01*
X106584063Y-108680582D01*
X106790437Y-109109730D01*
X107198084Y-109500052D01*
X107724071Y-109704662D01*
X107949998Y-109580392D01*
X107949998Y-109723522D01*
X107111800Y-109723522D01*
X107027086Y-109739462D01*
X106949282Y-109789528D01*
X106897085Y-109865920D01*
X106878722Y-109956600D01*
X106878722Y-111683800D01*
X106894662Y-111768514D01*
X106944728Y-111846318D01*
X107021120Y-111898515D01*
X107111800Y-111916878D01*
X109143800Y-111916878D01*
X109228514Y-111900938D01*
X109306318Y-111850872D01*
X109358515Y-111774480D01*
X109376878Y-111683800D01*
X109376878Y-111533044D01*
X112471121Y-111533044D01*
X112540579Y-111701145D01*
X112669079Y-111829869D01*
X112837058Y-111899620D01*
X113018944Y-111899779D01*
X113187045Y-111830321D01*
X113315769Y-111701821D01*
X113385520Y-111533842D01*
X113385679Y-111351956D01*
X113323018Y-111200304D01*
X119948881Y-111200304D01*
X120018339Y-111368405D01*
X120146839Y-111497129D01*
X120314818Y-111566880D01*
X120496704Y-111567039D01*
X120664805Y-111497581D01*
X120738690Y-111423824D01*
X127030401Y-111423824D01*
X127099859Y-111591925D01*
X127228359Y-111720649D01*
X127396338Y-111790400D01*
X127578224Y-111790559D01*
X127746325Y-111721101D01*
X127875049Y-111592601D01*
X127944800Y-111424622D01*
X127944959Y-111242736D01*
X127875501Y-111074635D01*
X127747001Y-110945911D01*
X127723480Y-110936144D01*
X145318401Y-110936144D01*
X145387859Y-111104245D01*
X145516359Y-111232969D01*
X145684338Y-111302720D01*
X145866224Y-111302879D01*
X146034325Y-111233421D01*
X146163049Y-111104921D01*
X146232800Y-110936942D01*
X146232959Y-110755056D01*
X146163501Y-110586955D01*
X146035001Y-110458231D01*
X145867022Y-110388480D01*
X145685136Y-110388321D01*
X145517035Y-110457779D01*
X145388311Y-110586279D01*
X145318560Y-110754258D01*
X145318401Y-110936144D01*
X127723480Y-110936144D01*
X127579022Y-110876160D01*
X127397136Y-110876001D01*
X127229035Y-110945459D01*
X127100311Y-111073959D01*
X127030560Y-111241938D01*
X127030401Y-111423824D01*
X120738690Y-111423824D01*
X120793529Y-111369081D01*
X120863280Y-111201102D01*
X120863439Y-111019216D01*
X120793981Y-110851115D01*
X120665481Y-110722391D01*
X120497502Y-110652640D01*
X120315616Y-110652481D01*
X120147515Y-110721939D01*
X120018791Y-110850439D01*
X119949040Y-111018418D01*
X119948881Y-111200304D01*
X113323018Y-111200304D01*
X113316221Y-111183855D01*
X113187721Y-111055131D01*
X113019742Y-110985380D01*
X112837856Y-110985221D01*
X112669755Y-111054679D01*
X112541031Y-111183179D01*
X112471280Y-111351158D01*
X112471121Y-111533044D01*
X109376878Y-111533044D01*
X109376878Y-109956600D01*
X109360938Y-109871886D01*
X109310872Y-109794082D01*
X109234480Y-109741885D01*
X109143800Y-109723522D01*
X108305602Y-109723522D01*
X108305602Y-109580392D01*
X108531529Y-109704662D01*
X109057516Y-109500052D01*
X109465163Y-109109730D01*
X109622658Y-108782224D01*
X145318401Y-108782224D01*
X145387859Y-108950325D01*
X145516359Y-109079049D01*
X145684338Y-109148800D01*
X145866224Y-109148959D01*
X146034325Y-109079501D01*
X146163049Y-108951001D01*
X146209555Y-108839000D01*
X149118922Y-108839000D01*
X149118922Y-110566200D01*
X149134862Y-110650914D01*
X149184928Y-110728718D01*
X149261320Y-110780915D01*
X149352000Y-110799278D01*
X151384000Y-110799278D01*
X151468714Y-110783338D01*
X151546518Y-110733272D01*
X151598715Y-110656880D01*
X151617078Y-110566200D01*
X151617078Y-108839000D01*
X151601138Y-108754286D01*
X151551072Y-108676482D01*
X151474680Y-108624285D01*
X151384000Y-108605922D01*
X149352000Y-108605922D01*
X149267286Y-108621862D01*
X149189482Y-108671928D01*
X149137285Y-108748320D01*
X149118922Y-108839000D01*
X146209555Y-108839000D01*
X146232800Y-108783022D01*
X146232959Y-108601136D01*
X146163501Y-108433035D01*
X146035001Y-108304311D01*
X145867022Y-108234560D01*
X145685136Y-108234401D01*
X145517035Y-108303859D01*
X145388311Y-108432359D01*
X145318560Y-108600338D01*
X145318401Y-108782224D01*
X109622658Y-108782224D01*
X109671537Y-108680582D01*
X109569750Y-108458000D01*
X108305600Y-108458000D01*
X108305600Y-108478000D01*
X107950000Y-108478000D01*
X107950000Y-108458000D01*
X106685850Y-108458000D01*
X106584063Y-108680582D01*
X99109600Y-108680582D01*
X99109600Y-107879818D01*
X106584063Y-107879818D01*
X106685850Y-108102400D01*
X107950000Y-108102400D01*
X107950000Y-106980009D01*
X108305600Y-106980009D01*
X108305600Y-108102400D01*
X109569750Y-108102400D01*
X109671537Y-107879818D01*
X109565609Y-107659544D01*
X116331921Y-107659544D01*
X116401379Y-107827645D01*
X116529879Y-107956369D01*
X116697858Y-108026120D01*
X116879744Y-108026279D01*
X117047845Y-107956821D01*
X117176569Y-107828321D01*
X117246320Y-107660342D01*
X117246479Y-107478456D01*
X117177021Y-107310355D01*
X117150337Y-107283624D01*
X117403801Y-107283624D01*
X117473259Y-107451725D01*
X117601759Y-107580449D01*
X117769738Y-107650200D01*
X117951624Y-107650359D01*
X118006235Y-107627794D01*
X122853371Y-107627794D01*
X122922829Y-107795895D01*
X123051329Y-107924619D01*
X123219308Y-107994370D01*
X123401194Y-107994529D01*
X123569295Y-107925071D01*
X123698019Y-107796571D01*
X123761245Y-107644304D01*
X130850561Y-107644304D01*
X130920019Y-107812405D01*
X131048519Y-107941129D01*
X131216498Y-108010880D01*
X131398384Y-108011039D01*
X131566485Y-107941581D01*
X131695209Y-107813081D01*
X131764960Y-107645102D01*
X131765119Y-107463216D01*
X131695661Y-107295115D01*
X131658835Y-107258224D01*
X132374561Y-107258224D01*
X132444019Y-107426325D01*
X132572519Y-107555049D01*
X132740498Y-107624800D01*
X132922384Y-107624959D01*
X133090485Y-107555501D01*
X133219209Y-107427001D01*
X133288960Y-107259022D01*
X133289044Y-107162600D01*
X149099017Y-107162600D01*
X149182156Y-107580567D01*
X149418915Y-107934902D01*
X149773250Y-108171661D01*
X150191217Y-108254800D01*
X150544783Y-108254800D01*
X150962750Y-108171661D01*
X151317085Y-107934902D01*
X151553844Y-107580567D01*
X151636983Y-107162600D01*
X151553844Y-106744633D01*
X151317085Y-106390298D01*
X150962750Y-106153539D01*
X150544783Y-106070400D01*
X150191217Y-106070400D01*
X149773250Y-106153539D01*
X149418915Y-106390298D01*
X149182156Y-106744633D01*
X149099017Y-107162600D01*
X133289044Y-107162600D01*
X133289119Y-107077136D01*
X133219661Y-106909035D01*
X133091161Y-106780311D01*
X132923182Y-106710560D01*
X132741296Y-106710401D01*
X132573195Y-106779859D01*
X132444471Y-106908359D01*
X132374720Y-107076338D01*
X132374561Y-107258224D01*
X131658835Y-107258224D01*
X131567161Y-107166391D01*
X131399182Y-107096640D01*
X131217296Y-107096481D01*
X131049195Y-107165939D01*
X130920471Y-107294439D01*
X130850720Y-107462418D01*
X130850561Y-107644304D01*
X123761245Y-107644304D01*
X123767770Y-107628592D01*
X123767929Y-107446706D01*
X123698471Y-107278605D01*
X123633362Y-107213382D01*
X123717069Y-107129821D01*
X123786820Y-106961842D01*
X123786979Y-106779956D01*
X123745308Y-106679104D01*
X145282841Y-106679104D01*
X145352299Y-106847205D01*
X145480799Y-106975929D01*
X145648778Y-107045680D01*
X145830664Y-107045839D01*
X145998765Y-106976381D01*
X146127489Y-106847881D01*
X146197240Y-106679902D01*
X146197399Y-106498016D01*
X146127941Y-106329915D01*
X145999441Y-106201191D01*
X145831462Y-106131440D01*
X145649576Y-106131281D01*
X145481475Y-106200739D01*
X145352751Y-106329239D01*
X145283000Y-106497218D01*
X145282841Y-106679104D01*
X123745308Y-106679104D01*
X123717521Y-106611855D01*
X123671434Y-106565688D01*
X123767869Y-106469421D01*
X123837620Y-106301442D01*
X123837709Y-106199044D01*
X124917121Y-106199044D01*
X124986579Y-106367145D01*
X125115079Y-106495869D01*
X125283058Y-106565620D01*
X125464944Y-106565779D01*
X125633045Y-106496321D01*
X125761769Y-106367821D01*
X125831520Y-106199842D01*
X125831679Y-106017956D01*
X125762221Y-105849855D01*
X125633721Y-105721131D01*
X125465742Y-105651380D01*
X125283856Y-105651221D01*
X125115755Y-105720679D01*
X124987031Y-105849179D01*
X124917280Y-106017158D01*
X124917121Y-106199044D01*
X123837709Y-106199044D01*
X123837779Y-106119556D01*
X123768321Y-105951455D01*
X123639821Y-105822731D01*
X123471842Y-105752980D01*
X123289956Y-105752821D01*
X123121855Y-105822279D01*
X122993131Y-105950779D01*
X122923380Y-106118758D01*
X122923221Y-106300644D01*
X122992679Y-106468745D01*
X123038766Y-106514912D01*
X122942331Y-106611179D01*
X122872580Y-106779158D01*
X122872421Y-106961044D01*
X122941879Y-107129145D01*
X123006988Y-107194368D01*
X122923281Y-107277929D01*
X122853530Y-107445908D01*
X122853371Y-107627794D01*
X118006235Y-107627794D01*
X118119725Y-107580901D01*
X118248449Y-107452401D01*
X118318200Y-107284422D01*
X118318359Y-107102536D01*
X118248901Y-106934435D01*
X118120401Y-106805711D01*
X117952422Y-106735960D01*
X117770536Y-106735801D01*
X117602435Y-106805259D01*
X117473711Y-106933759D01*
X117403960Y-107101738D01*
X117403801Y-107283624D01*
X117150337Y-107283624D01*
X117048521Y-107181631D01*
X116880542Y-107111880D01*
X116698656Y-107111721D01*
X116530555Y-107181179D01*
X116401831Y-107309679D01*
X116332080Y-107477658D01*
X116331921Y-107659544D01*
X109565609Y-107659544D01*
X109465163Y-107450670D01*
X109057516Y-107060348D01*
X108531529Y-106855738D01*
X108305600Y-106980009D01*
X107950000Y-106980009D01*
X107724071Y-106855738D01*
X107198084Y-107060348D01*
X106790437Y-107450670D01*
X106584063Y-107879818D01*
X99109600Y-107879818D01*
X99109600Y-105740200D01*
X106858817Y-105740200D01*
X106941956Y-106158167D01*
X107178715Y-106512502D01*
X107533050Y-106749261D01*
X107951017Y-106832400D01*
X108304583Y-106832400D01*
X108722550Y-106749261D01*
X109076885Y-106512502D01*
X109142071Y-106414944D01*
X116801821Y-106414944D01*
X116871279Y-106583045D01*
X116999779Y-106711769D01*
X117167758Y-106781520D01*
X117349644Y-106781679D01*
X117517745Y-106712221D01*
X117646469Y-106583721D01*
X117716220Y-106415742D01*
X117716379Y-106233856D01*
X117646921Y-106065755D01*
X117518421Y-105937031D01*
X117350442Y-105867280D01*
X117168556Y-105867121D01*
X117000455Y-105936579D01*
X116871731Y-106065079D01*
X116801980Y-106233058D01*
X116801821Y-106414944D01*
X109142071Y-106414944D01*
X109313644Y-106158167D01*
X109396783Y-105740200D01*
X109313644Y-105322233D01*
X109076885Y-104967898D01*
X108722550Y-104731139D01*
X108304583Y-104648000D01*
X107951017Y-104648000D01*
X107533050Y-104731139D01*
X107178715Y-104967898D01*
X106941956Y-105322233D01*
X106858817Y-105740200D01*
X99109600Y-105740200D01*
X99109600Y-104622600D01*
X149099017Y-104622600D01*
X149182156Y-105040567D01*
X149418915Y-105394902D01*
X149773250Y-105631661D01*
X150191217Y-105714800D01*
X150544783Y-105714800D01*
X150962750Y-105631661D01*
X151317085Y-105394902D01*
X151553844Y-105040567D01*
X151636983Y-104622600D01*
X151553844Y-104204633D01*
X151317085Y-103850298D01*
X150962750Y-103613539D01*
X150544783Y-103530400D01*
X150191217Y-103530400D01*
X149773250Y-103613539D01*
X149418915Y-103850298D01*
X149182156Y-104204633D01*
X149099017Y-104622600D01*
X99109600Y-104622600D01*
X99109600Y-103200200D01*
X106858817Y-103200200D01*
X106941956Y-103618167D01*
X107178715Y-103972502D01*
X107533050Y-104209261D01*
X107951017Y-104292400D01*
X108304583Y-104292400D01*
X108692169Y-104215304D01*
X118297881Y-104215304D01*
X118367339Y-104383405D01*
X118495839Y-104512129D01*
X118663818Y-104581880D01*
X118845704Y-104582039D01*
X119013805Y-104512581D01*
X119142529Y-104384081D01*
X119212280Y-104216102D01*
X119212396Y-104083224D01*
X121731961Y-104083224D01*
X121801419Y-104251325D01*
X121929919Y-104380049D01*
X122097898Y-104449800D01*
X122279784Y-104449959D01*
X122447885Y-104380501D01*
X122576609Y-104252001D01*
X122646360Y-104084022D01*
X122646519Y-103902136D01*
X122577061Y-103734035D01*
X122448561Y-103605311D01*
X122280582Y-103535560D01*
X122098696Y-103535401D01*
X121930595Y-103604859D01*
X121801871Y-103733359D01*
X121732120Y-103901338D01*
X121731961Y-104083224D01*
X119212396Y-104083224D01*
X119212439Y-104034216D01*
X119142981Y-103866115D01*
X119014481Y-103737391D01*
X118856386Y-103671744D01*
X119313881Y-103671744D01*
X119383339Y-103839845D01*
X119511839Y-103968569D01*
X119679818Y-104038320D01*
X119861704Y-104038479D01*
X120029805Y-103969021D01*
X120158529Y-103840521D01*
X120228280Y-103672542D01*
X120228439Y-103490656D01*
X120166828Y-103341544D01*
X122433001Y-103341544D01*
X122502459Y-103509645D01*
X122630959Y-103638369D01*
X122798938Y-103708120D01*
X122980824Y-103708279D01*
X123148925Y-103638821D01*
X123277649Y-103510321D01*
X123347400Y-103342342D01*
X123347559Y-103160456D01*
X123347159Y-103159489D01*
X123519304Y-103159639D01*
X123687405Y-103090181D01*
X123756201Y-103021504D01*
X138907441Y-103021504D01*
X138976899Y-103189605D01*
X139105399Y-103318329D01*
X139273378Y-103388080D01*
X139455264Y-103388239D01*
X139623365Y-103318781D01*
X139752089Y-103190281D01*
X139821840Y-103022302D01*
X139821999Y-102840416D01*
X139752541Y-102672315D01*
X139624041Y-102543591D01*
X139456062Y-102473840D01*
X139274176Y-102473681D01*
X139106075Y-102543139D01*
X138977351Y-102671639D01*
X138907600Y-102839618D01*
X138907441Y-103021504D01*
X123756201Y-103021504D01*
X123816129Y-102961681D01*
X123885880Y-102793702D01*
X123886039Y-102611816D01*
X123847517Y-102518584D01*
X125663881Y-102518584D01*
X125733339Y-102686685D01*
X125861839Y-102815409D01*
X126029818Y-102885160D01*
X126211704Y-102885319D01*
X126379805Y-102815861D01*
X126508529Y-102687361D01*
X126578280Y-102519382D01*
X126578439Y-102337496D01*
X126508981Y-102169395D01*
X126380481Y-102040671D01*
X126212502Y-101970920D01*
X126030616Y-101970761D01*
X125862515Y-102040219D01*
X125733791Y-102168719D01*
X125664040Y-102336698D01*
X125663881Y-102518584D01*
X123847517Y-102518584D01*
X123816581Y-102443715D01*
X123688081Y-102314991D01*
X123520102Y-102245240D01*
X123338216Y-102245081D01*
X123170115Y-102314539D01*
X123041391Y-102443039D01*
X122971640Y-102611018D01*
X122971481Y-102792904D01*
X122971881Y-102793871D01*
X122799736Y-102793721D01*
X122631635Y-102863179D01*
X122502911Y-102991679D01*
X122433160Y-103159658D01*
X122433001Y-103341544D01*
X120166828Y-103341544D01*
X120158981Y-103322555D01*
X120030481Y-103193831D01*
X119862502Y-103124080D01*
X119680616Y-103123921D01*
X119512515Y-103193379D01*
X119383791Y-103321879D01*
X119314040Y-103489858D01*
X119313881Y-103671744D01*
X118856386Y-103671744D01*
X118846502Y-103667640D01*
X118664616Y-103667481D01*
X118496515Y-103736939D01*
X118367791Y-103865439D01*
X118298040Y-104033418D01*
X118297881Y-104215304D01*
X108692169Y-104215304D01*
X108722550Y-104209261D01*
X109076885Y-103972502D01*
X109313644Y-103618167D01*
X109396783Y-103200200D01*
X109313644Y-102782233D01*
X109076885Y-102427898D01*
X108722550Y-102191139D01*
X108304583Y-102108000D01*
X107951017Y-102108000D01*
X107533050Y-102191139D01*
X107178715Y-102427898D01*
X106941956Y-102782233D01*
X106858817Y-103200200D01*
X99109600Y-103200200D01*
X99109600Y-101888664D01*
X116712921Y-101888664D01*
X116782379Y-102056765D01*
X116910879Y-102185489D01*
X117078858Y-102255240D01*
X117260744Y-102255399D01*
X117428845Y-102185941D01*
X117557569Y-102057441D01*
X117627320Y-101889462D01*
X117627479Y-101707576D01*
X117558021Y-101539475D01*
X117429521Y-101410751D01*
X117261542Y-101341000D01*
X117079656Y-101340841D01*
X116911555Y-101410299D01*
X116782831Y-101538799D01*
X116713080Y-101706778D01*
X116712921Y-101888664D01*
X99109600Y-101888664D01*
X99109600Y-100992044D01*
X128231821Y-100992044D01*
X128301279Y-101160145D01*
X128429779Y-101288869D01*
X128478081Y-101308926D01*
X128447880Y-101381658D01*
X128447721Y-101563544D01*
X128517179Y-101731645D01*
X128626699Y-101841356D01*
X128543031Y-101924879D01*
X128473280Y-102092858D01*
X128473121Y-102274744D01*
X128542579Y-102442845D01*
X128671079Y-102571569D01*
X128839058Y-102641320D01*
X129020944Y-102641479D01*
X129189045Y-102572021D01*
X129317769Y-102443521D01*
X129387520Y-102275542D01*
X129387525Y-102269664D01*
X138292761Y-102269664D01*
X138362219Y-102437765D01*
X138490719Y-102566489D01*
X138658698Y-102636240D01*
X138840584Y-102636399D01*
X139008685Y-102566941D01*
X139137409Y-102438441D01*
X139207160Y-102270462D01*
X139207319Y-102088576D01*
X139204850Y-102082600D01*
X149099017Y-102082600D01*
X149182156Y-102500567D01*
X149418915Y-102854902D01*
X149773250Y-103091661D01*
X150191217Y-103174800D01*
X150544783Y-103174800D01*
X150962750Y-103091661D01*
X151317085Y-102854902D01*
X151553844Y-102500567D01*
X151636983Y-102082600D01*
X151553844Y-101664633D01*
X151317085Y-101310298D01*
X150962750Y-101073539D01*
X150544783Y-100990400D01*
X150191217Y-100990400D01*
X149773250Y-101073539D01*
X149418915Y-101310298D01*
X149182156Y-101664633D01*
X149099017Y-102082600D01*
X139204850Y-102082600D01*
X139137861Y-101920475D01*
X139009361Y-101791751D01*
X138841382Y-101722000D01*
X138659496Y-101721841D01*
X138491395Y-101791299D01*
X138362671Y-101919799D01*
X138292920Y-102087778D01*
X138292761Y-102269664D01*
X129387525Y-102269664D01*
X129387679Y-102093656D01*
X129318221Y-101925555D01*
X129208701Y-101815844D01*
X129292369Y-101732321D01*
X129362120Y-101564342D01*
X129362279Y-101382456D01*
X129292821Y-101214355D01*
X129164321Y-101085631D01*
X129116019Y-101065574D01*
X129146220Y-100992842D01*
X129146379Y-100810956D01*
X129076921Y-100642855D01*
X129052773Y-100618664D01*
X137286921Y-100618664D01*
X137356379Y-100786765D01*
X137484879Y-100915489D01*
X137652858Y-100985240D01*
X137834744Y-100985399D01*
X138002845Y-100915941D01*
X138131569Y-100787441D01*
X138201320Y-100619462D01*
X138201479Y-100437576D01*
X138132021Y-100269475D01*
X138003521Y-100140751D01*
X137835542Y-100071000D01*
X137653656Y-100070841D01*
X137485555Y-100140299D01*
X137356831Y-100268799D01*
X137287080Y-100436778D01*
X137286921Y-100618664D01*
X129052773Y-100618664D01*
X128948421Y-100514131D01*
X128780442Y-100444380D01*
X128598556Y-100444221D01*
X128430455Y-100513679D01*
X128301731Y-100642179D01*
X128231980Y-100810158D01*
X128231821Y-100992044D01*
X99109600Y-100992044D01*
X99109600Y-100334184D01*
X122676841Y-100334184D01*
X122746299Y-100502285D01*
X122874799Y-100631009D01*
X123042778Y-100700760D01*
X123224664Y-100700919D01*
X123392765Y-100631461D01*
X123521489Y-100502961D01*
X123591240Y-100334982D01*
X123591399Y-100153096D01*
X123521941Y-99984995D01*
X123393441Y-99856271D01*
X123225462Y-99786520D01*
X123043576Y-99786361D01*
X122875475Y-99855819D01*
X122746751Y-99984319D01*
X122677000Y-100152298D01*
X122676841Y-100334184D01*
X99109600Y-100334184D01*
X99109600Y-98171000D01*
X106808017Y-98171000D01*
X106891156Y-98588967D01*
X107127915Y-98943302D01*
X107482250Y-99180061D01*
X107900217Y-99263200D01*
X108253783Y-99263200D01*
X108671750Y-99180061D01*
X109026085Y-98943302D01*
X109262844Y-98588967D01*
X109322920Y-98286944D01*
X111251921Y-98286944D01*
X111321379Y-98455045D01*
X111449879Y-98583769D01*
X111617858Y-98653520D01*
X111799744Y-98653679D01*
X111967845Y-98584221D01*
X112096569Y-98455721D01*
X112166320Y-98287742D01*
X112166331Y-98274244D01*
X114325321Y-98274244D01*
X114394779Y-98442345D01*
X114523279Y-98571069D01*
X114691258Y-98640820D01*
X114873144Y-98640979D01*
X115041245Y-98571521D01*
X115169969Y-98443021D01*
X115239720Y-98275042D01*
X115239798Y-98185344D01*
X115392121Y-98185344D01*
X115461579Y-98353445D01*
X115590079Y-98482169D01*
X115758058Y-98551920D01*
X115939944Y-98552079D01*
X115966892Y-98540944D01*
X126796721Y-98540944D01*
X126866179Y-98709045D01*
X126994679Y-98837769D01*
X127162658Y-98907520D01*
X127344544Y-98907679D01*
X127512645Y-98838221D01*
X127641369Y-98709721D01*
X127648169Y-98693344D01*
X128178481Y-98693344D01*
X128247939Y-98861445D01*
X128376439Y-98990169D01*
X128544418Y-99059920D01*
X128726304Y-99060079D01*
X128888492Y-98993064D01*
X132963841Y-98993064D01*
X133033299Y-99161165D01*
X133161799Y-99289889D01*
X133329778Y-99359640D01*
X133511664Y-99359799D01*
X133679765Y-99290341D01*
X133808489Y-99161841D01*
X133878240Y-98993862D01*
X133878399Y-98811976D01*
X133854970Y-98755273D01*
X133862184Y-98755279D01*
X133877743Y-98748850D01*
X148767800Y-98748850D01*
X148767800Y-99404804D01*
X148856739Y-99619522D01*
X149021077Y-99783861D01*
X149235795Y-99872800D01*
X150044150Y-99872800D01*
X150190200Y-99726750D01*
X150190200Y-98602800D01*
X150545800Y-98602800D01*
X150545800Y-99726750D01*
X150691850Y-99872800D01*
X151500205Y-99872800D01*
X151714923Y-99783861D01*
X151879261Y-99619522D01*
X151968200Y-99404804D01*
X151968200Y-98748850D01*
X151822150Y-98602800D01*
X150545800Y-98602800D01*
X150190200Y-98602800D01*
X148913850Y-98602800D01*
X148767800Y-98748850D01*
X133877743Y-98748850D01*
X134030285Y-98685821D01*
X134159009Y-98557321D01*
X134228760Y-98389342D01*
X134228919Y-98207456D01*
X134159461Y-98039355D01*
X134030961Y-97910631D01*
X133862982Y-97840880D01*
X133681096Y-97840721D01*
X133512995Y-97910179D01*
X133384271Y-98038679D01*
X133314520Y-98206658D01*
X133314361Y-98388544D01*
X133337790Y-98445247D01*
X133330576Y-98445241D01*
X133162475Y-98514699D01*
X133033751Y-98643199D01*
X132964000Y-98811178D01*
X132963841Y-98993064D01*
X128888492Y-98993064D01*
X128894405Y-98990621D01*
X129023129Y-98862121D01*
X129092880Y-98694142D01*
X129093039Y-98512256D01*
X129023581Y-98344155D01*
X128992503Y-98313023D01*
X129123005Y-98259101D01*
X129251729Y-98130601D01*
X129321480Y-97962622D01*
X129321639Y-97780736D01*
X129252181Y-97612635D01*
X129123681Y-97483911D01*
X129030445Y-97445196D01*
X148767800Y-97445196D01*
X148767800Y-98101150D01*
X148913850Y-98247200D01*
X150190200Y-98247200D01*
X150190200Y-97123250D01*
X150545800Y-97123250D01*
X150545800Y-98247200D01*
X151822150Y-98247200D01*
X151968200Y-98101150D01*
X151968200Y-97445196D01*
X151879261Y-97230478D01*
X151714923Y-97066139D01*
X151500205Y-96977200D01*
X150691850Y-96977200D01*
X150545800Y-97123250D01*
X150190200Y-97123250D01*
X150044150Y-96977200D01*
X149235795Y-96977200D01*
X149021077Y-97066139D01*
X148856739Y-97230478D01*
X148767800Y-97445196D01*
X129030445Y-97445196D01*
X128955702Y-97414160D01*
X128773816Y-97414001D01*
X128605715Y-97483459D01*
X128476991Y-97611959D01*
X128407240Y-97779938D01*
X128407081Y-97961824D01*
X128476539Y-98129925D01*
X128507617Y-98161057D01*
X128377115Y-98214979D01*
X128248391Y-98343479D01*
X128178640Y-98511458D01*
X128178481Y-98693344D01*
X127648169Y-98693344D01*
X127711120Y-98541742D01*
X127711279Y-98359856D01*
X127641821Y-98191755D01*
X127513321Y-98063031D01*
X127345342Y-97993280D01*
X127163456Y-97993121D01*
X126995355Y-98062579D01*
X126866631Y-98191079D01*
X126796880Y-98359058D01*
X126796721Y-98540944D01*
X115966892Y-98540944D01*
X116108045Y-98482621D01*
X116236769Y-98354121D01*
X116306520Y-98186142D01*
X116306679Y-98004256D01*
X116237221Y-97836155D01*
X116108721Y-97707431D01*
X115940742Y-97637680D01*
X115758856Y-97637521D01*
X115590755Y-97706979D01*
X115462031Y-97835479D01*
X115392280Y-98003458D01*
X115392121Y-98185344D01*
X115239798Y-98185344D01*
X115239879Y-98093156D01*
X115170421Y-97925055D01*
X115041921Y-97796331D01*
X114873942Y-97726580D01*
X114692056Y-97726421D01*
X114523955Y-97795879D01*
X114395231Y-97924379D01*
X114325480Y-98092358D01*
X114325321Y-98274244D01*
X112166331Y-98274244D01*
X112166479Y-98105856D01*
X112113189Y-97976885D01*
X112224579Y-98088469D01*
X112392558Y-98158220D01*
X112574444Y-98158379D01*
X112742545Y-98088921D01*
X112871269Y-97960421D01*
X112941020Y-97792442D01*
X112941179Y-97610556D01*
X112871721Y-97442455D01*
X112743221Y-97313731D01*
X112575242Y-97243980D01*
X112393356Y-97243821D01*
X112225255Y-97313279D01*
X112096531Y-97441779D01*
X112026780Y-97609758D01*
X112026621Y-97791644D01*
X112079911Y-97920615D01*
X111968521Y-97809031D01*
X111800542Y-97739280D01*
X111618656Y-97739121D01*
X111450555Y-97808579D01*
X111321831Y-97937079D01*
X111252080Y-98105058D01*
X111251921Y-98286944D01*
X109322920Y-98286944D01*
X109345983Y-98171000D01*
X109262844Y-97753033D01*
X109026085Y-97398698D01*
X108671750Y-97161939D01*
X108253783Y-97078800D01*
X107900217Y-97078800D01*
X107482250Y-97161939D01*
X107127915Y-97398698D01*
X106891156Y-97753033D01*
X106808017Y-98171000D01*
X99109600Y-98171000D01*
X99109600Y-95631000D01*
X106808017Y-95631000D01*
X106891156Y-96048967D01*
X107127915Y-96403302D01*
X107482250Y-96640061D01*
X107900217Y-96723200D01*
X108253783Y-96723200D01*
X108334903Y-96707064D01*
X135442881Y-96707064D01*
X135512339Y-96875165D01*
X135640839Y-97003889D01*
X135808818Y-97073640D01*
X135990704Y-97073799D01*
X136158805Y-97004341D01*
X136287529Y-96875841D01*
X136357280Y-96707862D01*
X136357439Y-96525976D01*
X136287981Y-96357875D01*
X136277463Y-96347339D01*
X136300584Y-96347359D01*
X136468685Y-96277901D01*
X136597409Y-96149401D01*
X136667160Y-95981422D01*
X136667244Y-95885000D01*
X149099017Y-95885000D01*
X149182156Y-96302967D01*
X149418915Y-96657302D01*
X149773250Y-96894061D01*
X150191217Y-96977200D01*
X150544783Y-96977200D01*
X150962750Y-96894061D01*
X151317085Y-96657302D01*
X151553844Y-96302967D01*
X151636983Y-95885000D01*
X151553844Y-95467033D01*
X151317085Y-95112698D01*
X150962750Y-94875939D01*
X150544783Y-94792800D01*
X150191217Y-94792800D01*
X149773250Y-94875939D01*
X149418915Y-95112698D01*
X149182156Y-95467033D01*
X149099017Y-95885000D01*
X136667244Y-95885000D01*
X136667319Y-95799536D01*
X136597861Y-95631435D01*
X136469361Y-95502711D01*
X136301382Y-95432960D01*
X136119496Y-95432801D01*
X135951395Y-95502259D01*
X135822671Y-95630759D01*
X135752920Y-95798738D01*
X135752761Y-95980624D01*
X135822219Y-96148725D01*
X135832737Y-96159261D01*
X135809616Y-96159241D01*
X135641515Y-96228699D01*
X135512791Y-96357199D01*
X135443040Y-96525178D01*
X135442881Y-96707064D01*
X108334903Y-96707064D01*
X108671750Y-96640061D01*
X109026085Y-96403302D01*
X109260988Y-96051744D01*
X122224721Y-96051744D01*
X122294179Y-96219845D01*
X122422679Y-96348569D01*
X122590658Y-96418320D01*
X122772544Y-96418479D01*
X122940645Y-96349021D01*
X123069369Y-96220521D01*
X123139120Y-96052542D01*
X123139279Y-95870656D01*
X123069821Y-95702555D01*
X122941321Y-95573831D01*
X122773342Y-95504080D01*
X122591456Y-95503921D01*
X122423355Y-95573379D01*
X122294631Y-95701879D01*
X122224880Y-95869858D01*
X122224721Y-96051744D01*
X109260988Y-96051744D01*
X109262844Y-96048967D01*
X109345983Y-95631000D01*
X109262844Y-95213033D01*
X109026085Y-94858698D01*
X108834888Y-94730944D01*
X123672521Y-94730944D01*
X123741979Y-94899045D01*
X123870479Y-95027769D01*
X124038458Y-95097520D01*
X124220344Y-95097679D01*
X124388445Y-95028221D01*
X124517169Y-94899721D01*
X124586920Y-94731742D01*
X124587079Y-94549856D01*
X124517621Y-94381755D01*
X124389121Y-94253031D01*
X124221142Y-94183280D01*
X124039256Y-94183121D01*
X123871155Y-94252579D01*
X123742431Y-94381079D01*
X123672680Y-94549058D01*
X123672521Y-94730944D01*
X108834888Y-94730944D01*
X108671750Y-94621939D01*
X108253783Y-94538800D01*
X107900217Y-94538800D01*
X107482250Y-94621939D01*
X107127915Y-94858698D01*
X106891156Y-95213033D01*
X106808017Y-95631000D01*
X99109600Y-95631000D01*
X99109600Y-93091000D01*
X106808017Y-93091000D01*
X106891156Y-93508967D01*
X107127915Y-93863302D01*
X107482250Y-94100061D01*
X107900217Y-94183200D01*
X108253783Y-94183200D01*
X108671750Y-94100061D01*
X109026085Y-93863302D01*
X109179524Y-93633664D01*
X124769801Y-93633664D01*
X124839259Y-93801765D01*
X124967759Y-93930489D01*
X125135738Y-94000240D01*
X125317624Y-94000399D01*
X125485725Y-93930941D01*
X125614449Y-93802441D01*
X125684200Y-93634462D01*
X125684298Y-93521904D01*
X127482521Y-93521904D01*
X127551979Y-93690005D01*
X127680479Y-93818729D01*
X127689508Y-93822478D01*
X127619840Y-93990258D01*
X127619681Y-94172144D01*
X127689139Y-94340245D01*
X127817639Y-94468969D01*
X127985618Y-94538720D01*
X128167504Y-94538879D01*
X128335605Y-94469421D01*
X128464329Y-94340921D01*
X128534080Y-94172942D01*
X128534239Y-93991056D01*
X128464781Y-93822955D01*
X128336281Y-93694231D01*
X128327252Y-93690482D01*
X128396920Y-93522702D01*
X128397075Y-93345000D01*
X149099017Y-93345000D01*
X149182156Y-93762967D01*
X149418915Y-94117302D01*
X149773250Y-94354061D01*
X150191217Y-94437200D01*
X150544783Y-94437200D01*
X150962750Y-94354061D01*
X151317085Y-94117302D01*
X151553844Y-93762967D01*
X151636983Y-93345000D01*
X151553844Y-92927033D01*
X151317085Y-92572698D01*
X150962750Y-92335939D01*
X150544783Y-92252800D01*
X150191217Y-92252800D01*
X149773250Y-92335939D01*
X149418915Y-92572698D01*
X149182156Y-92927033D01*
X149099017Y-93345000D01*
X128397075Y-93345000D01*
X128397079Y-93340816D01*
X128327621Y-93172715D01*
X128199121Y-93043991D01*
X128031142Y-92974240D01*
X127849256Y-92974081D01*
X127681155Y-93043539D01*
X127552431Y-93172039D01*
X127482680Y-93340018D01*
X127482521Y-93521904D01*
X125684298Y-93521904D01*
X125684359Y-93452576D01*
X125614901Y-93284475D01*
X125486401Y-93155751D01*
X125318422Y-93086000D01*
X125136536Y-93085841D01*
X124968435Y-93155299D01*
X124839711Y-93283799D01*
X124769960Y-93451778D01*
X124769801Y-93633664D01*
X109179524Y-93633664D01*
X109262844Y-93508967D01*
X109345983Y-93091000D01*
X109262844Y-92673033D01*
X109124018Y-92465264D01*
X116707841Y-92465264D01*
X116777299Y-92633365D01*
X116905799Y-92762089D01*
X117073778Y-92831840D01*
X117255664Y-92831999D01*
X117423765Y-92762541D01*
X117552489Y-92634041D01*
X117578273Y-92571944D01*
X126110921Y-92571944D01*
X126180379Y-92740045D01*
X126308879Y-92868769D01*
X126476858Y-92938520D01*
X126658744Y-92938679D01*
X126826845Y-92869221D01*
X126955569Y-92740721D01*
X127025320Y-92572742D01*
X127025479Y-92390856D01*
X126956021Y-92222755D01*
X126827521Y-92094031D01*
X126659542Y-92024280D01*
X126477656Y-92024121D01*
X126309555Y-92093579D01*
X126180831Y-92222079D01*
X126111080Y-92390058D01*
X126110921Y-92571944D01*
X117578273Y-92571944D01*
X117622240Y-92466062D01*
X117622399Y-92284176D01*
X117552941Y-92116075D01*
X117424441Y-91987351D01*
X117256462Y-91917600D01*
X117074576Y-91917441D01*
X116906475Y-91986899D01*
X116777751Y-92115399D01*
X116708000Y-92283378D01*
X116707841Y-92465264D01*
X109124018Y-92465264D01*
X109026085Y-92318698D01*
X108671750Y-92081939D01*
X108253783Y-91998800D01*
X107900217Y-91998800D01*
X107482250Y-92081939D01*
X107127915Y-92318698D01*
X106891156Y-92673033D01*
X106808017Y-93091000D01*
X99109600Y-93091000D01*
X99109600Y-90551000D01*
X106808017Y-90551000D01*
X106891156Y-90968967D01*
X107127915Y-91323302D01*
X107482250Y-91560061D01*
X107900217Y-91643200D01*
X108253783Y-91643200D01*
X108671750Y-91560061D01*
X109026085Y-91323302D01*
X109262844Y-90968967D01*
X109345983Y-90551000D01*
X109325596Y-90448504D01*
X126502081Y-90448504D01*
X126571539Y-90616605D01*
X126700039Y-90745329D01*
X126868018Y-90815080D01*
X127049904Y-90815239D01*
X127074684Y-90805000D01*
X149099017Y-90805000D01*
X149182156Y-91222967D01*
X149418915Y-91577302D01*
X149773250Y-91814061D01*
X150191217Y-91897200D01*
X150544783Y-91897200D01*
X150962750Y-91814061D01*
X151317085Y-91577302D01*
X151553844Y-91222967D01*
X151636983Y-90805000D01*
X151553844Y-90387033D01*
X151317085Y-90032698D01*
X150962750Y-89795939D01*
X150544783Y-89712800D01*
X150191217Y-89712800D01*
X149773250Y-89795939D01*
X149418915Y-90032698D01*
X149182156Y-90387033D01*
X149099017Y-90805000D01*
X127074684Y-90805000D01*
X127218005Y-90745781D01*
X127346729Y-90617281D01*
X127416480Y-90449302D01*
X127416639Y-90267416D01*
X127347181Y-90099315D01*
X127218681Y-89970591D01*
X127050702Y-89900840D01*
X126868816Y-89900681D01*
X126700715Y-89970139D01*
X126571991Y-90098639D01*
X126502240Y-90266618D01*
X126502081Y-90448504D01*
X109325596Y-90448504D01*
X109262844Y-90133033D01*
X109100257Y-89889704D01*
X129296081Y-89889704D01*
X129365539Y-90057805D01*
X129494039Y-90186529D01*
X129662018Y-90256280D01*
X129843904Y-90256439D01*
X130012005Y-90186981D01*
X130140729Y-90058481D01*
X130210480Y-89890502D01*
X130210639Y-89708616D01*
X130141181Y-89540515D01*
X130012681Y-89411791D01*
X129844702Y-89342040D01*
X129662816Y-89341881D01*
X129494715Y-89411339D01*
X129365991Y-89539839D01*
X129296240Y-89707818D01*
X129296081Y-89889704D01*
X109100257Y-89889704D01*
X109026085Y-89778698D01*
X108671750Y-89541939D01*
X108253783Y-89458800D01*
X107900217Y-89458800D01*
X107482250Y-89541939D01*
X107127915Y-89778698D01*
X106891156Y-90133033D01*
X106808017Y-90551000D01*
X99109600Y-90551000D01*
X99109600Y-88011000D01*
X106808017Y-88011000D01*
X106891156Y-88428967D01*
X107127915Y-88783302D01*
X107482250Y-89020061D01*
X107900217Y-89103200D01*
X108253783Y-89103200D01*
X108671750Y-89020061D01*
X109026085Y-88783302D01*
X109262844Y-88428967D01*
X109295459Y-88265000D01*
X149099017Y-88265000D01*
X149182156Y-88682967D01*
X149418915Y-89037302D01*
X149773250Y-89274061D01*
X150191217Y-89357200D01*
X150544783Y-89357200D01*
X150962750Y-89274061D01*
X151317085Y-89037302D01*
X151553844Y-88682967D01*
X151636983Y-88265000D01*
X151553844Y-87847033D01*
X151317085Y-87492698D01*
X150962750Y-87255939D01*
X150544783Y-87172800D01*
X150191217Y-87172800D01*
X149773250Y-87255939D01*
X149418915Y-87492698D01*
X149182156Y-87847033D01*
X149099017Y-88265000D01*
X109295459Y-88265000D01*
X109345983Y-88011000D01*
X109262844Y-87593033D01*
X109026085Y-87238698D01*
X108671750Y-87001939D01*
X108581284Y-86983944D01*
X139039521Y-86983944D01*
X139108979Y-87152045D01*
X139237479Y-87280769D01*
X139405458Y-87350520D01*
X139587344Y-87350679D01*
X139755445Y-87281221D01*
X139884169Y-87152721D01*
X139953920Y-86984742D01*
X139954079Y-86802856D01*
X139884621Y-86634755D01*
X139756121Y-86506031D01*
X139588142Y-86436280D01*
X139406256Y-86436121D01*
X139238155Y-86505579D01*
X139109431Y-86634079D01*
X139039680Y-86802058D01*
X139039521Y-86983944D01*
X108581284Y-86983944D01*
X108253783Y-86918800D01*
X107900217Y-86918800D01*
X107482250Y-87001939D01*
X107127915Y-87238698D01*
X106891156Y-87593033D01*
X106808017Y-88011000D01*
X99109600Y-88011000D01*
X99109600Y-85471000D01*
X106808017Y-85471000D01*
X106891156Y-85888967D01*
X107127915Y-86243302D01*
X107482250Y-86480061D01*
X107900217Y-86563200D01*
X108253783Y-86563200D01*
X108671750Y-86480061D01*
X109026085Y-86243302D01*
X109179524Y-86013664D01*
X124282121Y-86013664D01*
X124351579Y-86181765D01*
X124480079Y-86310489D01*
X124648058Y-86380240D01*
X124829944Y-86380399D01*
X124998045Y-86310941D01*
X125126769Y-86182441D01*
X125196520Y-86014462D01*
X125196679Y-85832576D01*
X125152230Y-85725000D01*
X149099017Y-85725000D01*
X149182156Y-86142967D01*
X149418915Y-86497302D01*
X149773250Y-86734061D01*
X150191217Y-86817200D01*
X150544783Y-86817200D01*
X150962750Y-86734061D01*
X151317085Y-86497302D01*
X151553844Y-86142967D01*
X151636983Y-85725000D01*
X151553844Y-85307033D01*
X151317085Y-84952698D01*
X150962750Y-84715939D01*
X150544783Y-84632800D01*
X150191217Y-84632800D01*
X149773250Y-84715939D01*
X149418915Y-84952698D01*
X149182156Y-85307033D01*
X149099017Y-85725000D01*
X125152230Y-85725000D01*
X125127221Y-85664475D01*
X124998721Y-85535751D01*
X124830742Y-85466000D01*
X124648856Y-85465841D01*
X124480755Y-85535299D01*
X124352031Y-85663799D01*
X124282280Y-85831778D01*
X124282121Y-86013664D01*
X109179524Y-86013664D01*
X109262844Y-85888967D01*
X109345983Y-85471000D01*
X109262844Y-85053033D01*
X109026085Y-84698698D01*
X108671750Y-84461939D01*
X108253783Y-84378800D01*
X107900217Y-84378800D01*
X107482250Y-84461939D01*
X107127915Y-84698698D01*
X106891156Y-85053033D01*
X106808017Y-85471000D01*
X99109600Y-85471000D01*
X99109600Y-82931000D01*
X106808017Y-82931000D01*
X106891156Y-83348967D01*
X107127915Y-83703302D01*
X107482250Y-83940061D01*
X107900217Y-84023200D01*
X108253783Y-84023200D01*
X108309365Y-84012144D01*
X112801321Y-84012144D01*
X112870779Y-84180245D01*
X112999279Y-84308969D01*
X113167258Y-84378720D01*
X113349144Y-84378879D01*
X113517245Y-84309421D01*
X113611485Y-84215344D01*
X133095921Y-84215344D01*
X133165379Y-84383445D01*
X133293879Y-84512169D01*
X133461858Y-84581920D01*
X133643744Y-84582079D01*
X133811845Y-84512621D01*
X133940569Y-84384121D01*
X134010320Y-84216142D01*
X134010479Y-84034256D01*
X133941021Y-83866155D01*
X133812521Y-83737431D01*
X133644542Y-83667680D01*
X133462656Y-83667521D01*
X133294555Y-83736979D01*
X133165831Y-83865479D01*
X133096080Y-84033458D01*
X133095921Y-84215344D01*
X113611485Y-84215344D01*
X113645969Y-84180921D01*
X113715720Y-84012942D01*
X113715879Y-83831056D01*
X113646421Y-83662955D01*
X113543123Y-83559476D01*
X125907672Y-83559476D01*
X126019577Y-83830305D01*
X126226605Y-84037695D01*
X126497238Y-84150072D01*
X126790276Y-84150328D01*
X127061105Y-84038423D01*
X127268495Y-83831395D01*
X127380872Y-83560762D01*
X127381128Y-83267724D01*
X127346947Y-83185000D01*
X149099017Y-83185000D01*
X149182156Y-83602967D01*
X149418915Y-83957302D01*
X149773250Y-84194061D01*
X150191217Y-84277200D01*
X150544783Y-84277200D01*
X150962750Y-84194061D01*
X151317085Y-83957302D01*
X151553844Y-83602967D01*
X151636983Y-83185000D01*
X151553844Y-82767033D01*
X151317085Y-82412698D01*
X150962750Y-82175939D01*
X150544783Y-82092800D01*
X150191217Y-82092800D01*
X149773250Y-82175939D01*
X149418915Y-82412698D01*
X149182156Y-82767033D01*
X149099017Y-83185000D01*
X127346947Y-83185000D01*
X127269223Y-82996895D01*
X127062195Y-82789505D01*
X126791562Y-82677128D01*
X126498524Y-82676872D01*
X126227695Y-82788777D01*
X126020305Y-82995805D01*
X125907928Y-83266438D01*
X125907672Y-83559476D01*
X113543123Y-83559476D01*
X113517921Y-83534231D01*
X113349942Y-83464480D01*
X113168056Y-83464321D01*
X112999955Y-83533779D01*
X112871231Y-83662279D01*
X112801480Y-83830258D01*
X112801321Y-84012144D01*
X108309365Y-84012144D01*
X108671750Y-83940061D01*
X109026085Y-83703302D01*
X109262844Y-83348967D01*
X109345983Y-82931000D01*
X109262844Y-82513033D01*
X109026085Y-82158698D01*
X108671750Y-81921939D01*
X108253783Y-81838800D01*
X107900217Y-81838800D01*
X107482250Y-81921939D01*
X107127915Y-82158698D01*
X106891156Y-82513033D01*
X106808017Y-82931000D01*
X99109600Y-82931000D01*
X99109600Y-81599144D01*
X125323521Y-81599144D01*
X125392979Y-81767245D01*
X125521479Y-81895969D01*
X125689458Y-81965720D01*
X125871344Y-81965879D01*
X126039445Y-81896421D01*
X126120963Y-81815044D01*
X140627021Y-81815044D01*
X140696479Y-81983145D01*
X140824979Y-82111869D01*
X140992958Y-82181620D01*
X141174844Y-82181779D01*
X141342945Y-82112321D01*
X141471669Y-81983821D01*
X141541420Y-81815842D01*
X141541579Y-81633956D01*
X141472121Y-81465855D01*
X141343621Y-81337131D01*
X141175642Y-81267380D01*
X140993756Y-81267221D01*
X140825655Y-81336679D01*
X140696931Y-81465179D01*
X140627180Y-81633158D01*
X140627021Y-81815044D01*
X126120963Y-81815044D01*
X126168169Y-81767921D01*
X126237920Y-81599942D01*
X126238079Y-81418056D01*
X126168621Y-81249955D01*
X126040121Y-81121231D01*
X125990812Y-81100756D01*
X137947272Y-81100756D01*
X138059177Y-81371585D01*
X138266205Y-81578975D01*
X138536838Y-81691352D01*
X138829876Y-81691608D01*
X139100705Y-81579703D01*
X139308095Y-81372675D01*
X139420472Y-81102042D01*
X139420728Y-80809004D01*
X139352963Y-80645000D01*
X149099017Y-80645000D01*
X149182156Y-81062967D01*
X149418915Y-81417302D01*
X149773250Y-81654061D01*
X150191217Y-81737200D01*
X150544783Y-81737200D01*
X150962750Y-81654061D01*
X151317085Y-81417302D01*
X151553844Y-81062967D01*
X151636983Y-80645000D01*
X151553844Y-80227033D01*
X151317085Y-79872698D01*
X150962750Y-79635939D01*
X150544783Y-79552800D01*
X150191217Y-79552800D01*
X149773250Y-79635939D01*
X149418915Y-79872698D01*
X149182156Y-80227033D01*
X149099017Y-80645000D01*
X139352963Y-80645000D01*
X139308823Y-80538175D01*
X139101795Y-80330785D01*
X138831162Y-80218408D01*
X138538124Y-80218152D01*
X138267295Y-80330057D01*
X138059905Y-80537085D01*
X137947528Y-80807718D01*
X137947272Y-81100756D01*
X125990812Y-81100756D01*
X125872142Y-81051480D01*
X125690256Y-81051321D01*
X125522155Y-81120779D01*
X125393431Y-81249279D01*
X125323680Y-81417258D01*
X125323521Y-81599144D01*
X99109600Y-81599144D01*
X99109600Y-80391000D01*
X106808017Y-80391000D01*
X106891156Y-80808967D01*
X107127915Y-81163302D01*
X107482250Y-81400061D01*
X107900217Y-81483200D01*
X108253783Y-81483200D01*
X108671750Y-81400061D01*
X109026085Y-81163302D01*
X109262844Y-80808967D01*
X109345983Y-80391000D01*
X109308418Y-80202144D01*
X115341321Y-80202144D01*
X115410779Y-80370245D01*
X115539279Y-80498969D01*
X115707258Y-80568720D01*
X115889144Y-80568879D01*
X116057245Y-80499421D01*
X116185969Y-80370921D01*
X116255720Y-80202942D01*
X116255879Y-80021056D01*
X116204763Y-79897344D01*
X117855921Y-79897344D01*
X117925379Y-80065445D01*
X118053879Y-80194169D01*
X118221858Y-80263920D01*
X118403744Y-80264079D01*
X118571845Y-80194621D01*
X118700569Y-80066121D01*
X118770320Y-79898142D01*
X118770479Y-79716256D01*
X118701021Y-79548155D01*
X118572521Y-79419431D01*
X118404542Y-79349680D01*
X118222656Y-79349521D01*
X118054555Y-79418979D01*
X117925831Y-79547479D01*
X117856080Y-79715458D01*
X117855921Y-79897344D01*
X116204763Y-79897344D01*
X116186421Y-79852955D01*
X116057921Y-79724231D01*
X115889942Y-79654480D01*
X115708056Y-79654321D01*
X115539955Y-79723779D01*
X115411231Y-79852279D01*
X115341480Y-80020258D01*
X115341321Y-80202144D01*
X109308418Y-80202144D01*
X109262844Y-79973033D01*
X109026085Y-79618698D01*
X108671750Y-79381939D01*
X108253783Y-79298800D01*
X107900217Y-79298800D01*
X107482250Y-79381939D01*
X107127915Y-79618698D01*
X106891156Y-79973033D01*
X106808017Y-80391000D01*
X99109600Y-80391000D01*
X99109600Y-77851000D01*
X106808017Y-77851000D01*
X106891156Y-78268967D01*
X107127915Y-78623302D01*
X107482250Y-78860061D01*
X107900217Y-78943200D01*
X108253783Y-78943200D01*
X108671750Y-78860061D01*
X109026085Y-78623302D01*
X109262844Y-78268967D01*
X109302710Y-78068544D01*
X122478721Y-78068544D01*
X122548179Y-78236645D01*
X122676679Y-78365369D01*
X122814397Y-78422554D01*
X122677355Y-78479179D01*
X122548631Y-78607679D01*
X122478880Y-78775658D01*
X122478721Y-78957544D01*
X122548179Y-79125645D01*
X122676679Y-79254369D01*
X122844658Y-79324120D01*
X123026544Y-79324279D01*
X123194645Y-79254821D01*
X123323369Y-79126321D01*
X123393120Y-78958342D01*
X123393279Y-78776456D01*
X123323821Y-78608355D01*
X123195321Y-78479631D01*
X123057603Y-78422446D01*
X123194645Y-78365821D01*
X123323369Y-78237321D01*
X123393120Y-78069342D01*
X123393120Y-78068544D01*
X123494721Y-78068544D01*
X123564179Y-78236645D01*
X123692679Y-78365369D01*
X123830397Y-78422554D01*
X123693355Y-78479179D01*
X123564631Y-78607679D01*
X123494880Y-78775658D01*
X123494721Y-78957544D01*
X123564179Y-79125645D01*
X123692679Y-79254369D01*
X123860658Y-79324120D01*
X124042544Y-79324279D01*
X124210645Y-79254821D01*
X124339369Y-79126321D01*
X124409120Y-78958342D01*
X124409279Y-78776456D01*
X124339821Y-78608355D01*
X124211321Y-78479631D01*
X124073603Y-78422446D01*
X124210645Y-78365821D01*
X124339369Y-78237321D01*
X124409120Y-78069342D01*
X124409120Y-78068544D01*
X124510721Y-78068544D01*
X124580179Y-78236645D01*
X124708679Y-78365369D01*
X124846397Y-78422554D01*
X124709355Y-78479179D01*
X124580631Y-78607679D01*
X124510880Y-78775658D01*
X124510721Y-78957544D01*
X124580179Y-79125645D01*
X124708679Y-79254369D01*
X124876658Y-79324120D01*
X125058544Y-79324279D01*
X125226645Y-79254821D01*
X125355369Y-79126321D01*
X125425120Y-78958342D01*
X125425279Y-78776456D01*
X125355821Y-78608355D01*
X125227321Y-78479631D01*
X125089603Y-78422446D01*
X125226645Y-78365821D01*
X125355369Y-78237321D01*
X125410313Y-78105000D01*
X149099017Y-78105000D01*
X149182156Y-78522967D01*
X149418915Y-78877302D01*
X149773250Y-79114061D01*
X150191217Y-79197200D01*
X150544783Y-79197200D01*
X150962750Y-79114061D01*
X151317085Y-78877302D01*
X151553844Y-78522967D01*
X151636983Y-78105000D01*
X151553844Y-77687033D01*
X151317085Y-77332698D01*
X150962750Y-77095939D01*
X150544783Y-77012800D01*
X150191217Y-77012800D01*
X149773250Y-77095939D01*
X149418915Y-77332698D01*
X149182156Y-77687033D01*
X149099017Y-78105000D01*
X125410313Y-78105000D01*
X125425120Y-78069342D01*
X125425279Y-77887456D01*
X125355821Y-77719355D01*
X125227321Y-77590631D01*
X125059342Y-77520880D01*
X124877456Y-77520721D01*
X124709355Y-77590179D01*
X124580631Y-77718679D01*
X124510880Y-77886658D01*
X124510721Y-78068544D01*
X124409120Y-78068544D01*
X124409279Y-77887456D01*
X124339821Y-77719355D01*
X124211321Y-77590631D01*
X124043342Y-77520880D01*
X123861456Y-77520721D01*
X123693355Y-77590179D01*
X123564631Y-77718679D01*
X123494880Y-77886658D01*
X123494721Y-78068544D01*
X123393120Y-78068544D01*
X123393279Y-77887456D01*
X123323821Y-77719355D01*
X123195321Y-77590631D01*
X123027342Y-77520880D01*
X122845456Y-77520721D01*
X122677355Y-77590179D01*
X122548631Y-77718679D01*
X122478880Y-77886658D01*
X122478721Y-78068544D01*
X109302710Y-78068544D01*
X109345983Y-77851000D01*
X109262844Y-77433033D01*
X109026085Y-77078698D01*
X108986943Y-77052544D01*
X122478721Y-77052544D01*
X122548179Y-77220645D01*
X122676679Y-77349369D01*
X122844658Y-77419120D01*
X123026544Y-77419279D01*
X123194645Y-77349821D01*
X123323369Y-77221321D01*
X123393120Y-77053342D01*
X123393120Y-77052544D01*
X123494721Y-77052544D01*
X123564179Y-77220645D01*
X123692679Y-77349369D01*
X123860658Y-77419120D01*
X124042544Y-77419279D01*
X124210645Y-77349821D01*
X124339369Y-77221321D01*
X124409120Y-77053342D01*
X124409120Y-77052544D01*
X124510721Y-77052544D01*
X124580179Y-77220645D01*
X124708679Y-77349369D01*
X124876658Y-77419120D01*
X125058544Y-77419279D01*
X125226645Y-77349821D01*
X125355369Y-77221321D01*
X125425120Y-77053342D01*
X125425279Y-76871456D01*
X125355821Y-76703355D01*
X125227321Y-76574631D01*
X125059342Y-76504880D01*
X124877456Y-76504721D01*
X124709355Y-76574179D01*
X124580631Y-76702679D01*
X124510880Y-76870658D01*
X124510721Y-77052544D01*
X124409120Y-77052544D01*
X124409279Y-76871456D01*
X124339821Y-76703355D01*
X124211321Y-76574631D01*
X124043342Y-76504880D01*
X123861456Y-76504721D01*
X123693355Y-76574179D01*
X123564631Y-76702679D01*
X123494880Y-76870658D01*
X123494721Y-77052544D01*
X123393120Y-77052544D01*
X123393279Y-76871456D01*
X123323821Y-76703355D01*
X123195321Y-76574631D01*
X123027342Y-76504880D01*
X122845456Y-76504721D01*
X122677355Y-76574179D01*
X122548631Y-76702679D01*
X122478880Y-76870658D01*
X122478721Y-77052544D01*
X108986943Y-77052544D01*
X108671750Y-76841939D01*
X108253783Y-76758800D01*
X107900217Y-76758800D01*
X107482250Y-76841939D01*
X107127915Y-77078698D01*
X106891156Y-77433033D01*
X106808017Y-77851000D01*
X99109600Y-77851000D01*
X99109600Y-75311000D01*
X106808017Y-75311000D01*
X106891156Y-75728967D01*
X107127915Y-76083302D01*
X107482250Y-76320061D01*
X107900217Y-76403200D01*
X108253783Y-76403200D01*
X108671750Y-76320061D01*
X109026085Y-76083302D01*
X109262844Y-75728967D01*
X109336056Y-75360904D01*
X115869641Y-75360904D01*
X115939099Y-75529005D01*
X116067599Y-75657729D01*
X116235578Y-75727480D01*
X116417464Y-75727639D01*
X116585565Y-75658181D01*
X116678908Y-75565000D01*
X149099017Y-75565000D01*
X149182156Y-75982967D01*
X149418915Y-76337302D01*
X149773250Y-76574061D01*
X150191217Y-76657200D01*
X150544783Y-76657200D01*
X150962750Y-76574061D01*
X151317085Y-76337302D01*
X151553844Y-75982967D01*
X151636983Y-75565000D01*
X151553844Y-75147033D01*
X151317085Y-74792698D01*
X150962750Y-74555939D01*
X150544783Y-74472800D01*
X150191217Y-74472800D01*
X149773250Y-74555939D01*
X149418915Y-74792698D01*
X149182156Y-75147033D01*
X149099017Y-75565000D01*
X116678908Y-75565000D01*
X116714289Y-75529681D01*
X116784040Y-75361702D01*
X116784199Y-75179816D01*
X116714741Y-75011715D01*
X116586241Y-74882991D01*
X116418262Y-74813240D01*
X116236376Y-74813081D01*
X116068275Y-74882539D01*
X115939551Y-75011039D01*
X115869800Y-75179018D01*
X115869641Y-75360904D01*
X109336056Y-75360904D01*
X109345983Y-75311000D01*
X109262844Y-74893033D01*
X109026085Y-74538698D01*
X108671750Y-74301939D01*
X108253783Y-74218800D01*
X107900217Y-74218800D01*
X107482250Y-74301939D01*
X107127915Y-74538698D01*
X106891156Y-74893033D01*
X106808017Y-75311000D01*
X99109600Y-75311000D01*
X99109600Y-71482135D01*
X100406084Y-71482135D01*
X100683885Y-72154465D01*
X101197829Y-72669307D01*
X101869673Y-72948282D01*
X102597135Y-72948916D01*
X103027724Y-72771000D01*
X106808017Y-72771000D01*
X106891156Y-73188967D01*
X107127915Y-73543302D01*
X107482250Y-73780061D01*
X107900217Y-73863200D01*
X108253783Y-73863200D01*
X108671750Y-73780061D01*
X109026085Y-73543302D01*
X109044116Y-73516316D01*
X120578752Y-73516316D01*
X120690657Y-73787145D01*
X120897685Y-73994535D01*
X121168318Y-74106912D01*
X121213089Y-74106951D01*
X121183480Y-74178258D01*
X121183321Y-74360144D01*
X121248458Y-74517788D01*
X121127955Y-74567579D01*
X120999231Y-74696079D01*
X120929480Y-74864058D01*
X120929321Y-75045944D01*
X120998779Y-75214045D01*
X121127279Y-75342769D01*
X121295258Y-75412520D01*
X121477144Y-75412679D01*
X121645245Y-75343221D01*
X121773969Y-75214721D01*
X121807136Y-75134844D01*
X143484521Y-75134844D01*
X143553979Y-75302945D01*
X143682479Y-75431669D01*
X143850458Y-75501420D01*
X144032344Y-75501579D01*
X144200445Y-75432121D01*
X144329169Y-75303621D01*
X144398920Y-75135642D01*
X144399079Y-74953756D01*
X144329621Y-74785655D01*
X144201121Y-74656931D01*
X144033142Y-74587180D01*
X143851256Y-74587021D01*
X143683155Y-74656479D01*
X143554431Y-74784979D01*
X143484680Y-74952958D01*
X143484521Y-75134844D01*
X121807136Y-75134844D01*
X121843720Y-75046742D01*
X121843879Y-74864856D01*
X121778742Y-74707212D01*
X121899245Y-74657421D01*
X121993485Y-74563344D01*
X129448481Y-74563344D01*
X129517939Y-74731445D01*
X129646439Y-74860169D01*
X129814418Y-74929920D01*
X129996304Y-74930079D01*
X130164405Y-74860621D01*
X130293129Y-74732121D01*
X130362880Y-74564142D01*
X130363039Y-74382256D01*
X130293581Y-74214155D01*
X130165081Y-74085431D01*
X129997102Y-74015680D01*
X129815216Y-74015521D01*
X129647115Y-74084979D01*
X129518391Y-74213479D01*
X129448640Y-74381458D01*
X129448481Y-74563344D01*
X121993485Y-74563344D01*
X122027969Y-74528921D01*
X122097720Y-74360942D01*
X122097879Y-74179056D01*
X122028421Y-74010955D01*
X121899921Y-73882231D01*
X121861427Y-73866247D01*
X121939575Y-73788235D01*
X122051952Y-73517602D01*
X122052208Y-73224564D01*
X121956559Y-72993076D01*
X139217272Y-72993076D01*
X139329177Y-73263905D01*
X139536205Y-73471295D01*
X139806838Y-73583672D01*
X140099876Y-73583928D01*
X140370705Y-73472023D01*
X140578095Y-73264995D01*
X140677749Y-73025000D01*
X149099017Y-73025000D01*
X149182156Y-73442967D01*
X149418915Y-73797302D01*
X149773250Y-74034061D01*
X150191217Y-74117200D01*
X150544783Y-74117200D01*
X150962750Y-74034061D01*
X151317085Y-73797302D01*
X151553844Y-73442967D01*
X151636983Y-73025000D01*
X151553844Y-72607033D01*
X151317085Y-72252698D01*
X150962750Y-72015939D01*
X150544783Y-71932800D01*
X150191217Y-71932800D01*
X149773250Y-72015939D01*
X149418915Y-72252698D01*
X149182156Y-72607033D01*
X149099017Y-73025000D01*
X140677749Y-73025000D01*
X140690472Y-72994362D01*
X140690728Y-72701324D01*
X140578823Y-72430495D01*
X140371795Y-72223105D01*
X140101162Y-72110728D01*
X139808124Y-72110472D01*
X139537295Y-72222377D01*
X139329905Y-72429405D01*
X139217528Y-72700038D01*
X139217272Y-72993076D01*
X121956559Y-72993076D01*
X121940303Y-72953735D01*
X121733275Y-72746345D01*
X121462642Y-72633968D01*
X121169604Y-72633712D01*
X120898775Y-72745617D01*
X120691385Y-72952645D01*
X120579008Y-73223278D01*
X120578752Y-73516316D01*
X109044116Y-73516316D01*
X109262844Y-73188967D01*
X109345983Y-72771000D01*
X109262844Y-72353033D01*
X109171172Y-72215836D01*
X122432952Y-72215836D01*
X122544857Y-72486665D01*
X122751885Y-72694055D01*
X123022518Y-72806432D01*
X123315556Y-72806688D01*
X123586385Y-72694783D01*
X123793775Y-72487755D01*
X123906152Y-72217122D01*
X123906408Y-71924084D01*
X123869532Y-71834836D01*
X133034912Y-71834836D01*
X133146817Y-72105665D01*
X133353845Y-72313055D01*
X133624478Y-72425432D01*
X133917516Y-72425688D01*
X134188345Y-72313783D01*
X134395735Y-72106755D01*
X134508112Y-71836122D01*
X134508368Y-71543084D01*
X134498779Y-71519876D01*
X139369672Y-71519876D01*
X139481577Y-71790705D01*
X139688605Y-71998095D01*
X139959238Y-72110472D01*
X140252276Y-72110728D01*
X140523105Y-71998823D01*
X140730495Y-71791795D01*
X140842872Y-71521162D01*
X140843128Y-71228124D01*
X140731223Y-70957295D01*
X140524195Y-70749905D01*
X140253562Y-70637528D01*
X139960524Y-70637272D01*
X139689695Y-70749177D01*
X139482305Y-70956205D01*
X139369928Y-71226838D01*
X139369672Y-71519876D01*
X134498779Y-71519876D01*
X134396463Y-71272255D01*
X134189435Y-71064865D01*
X133918802Y-70952488D01*
X133625764Y-70952232D01*
X133354935Y-71064137D01*
X133147545Y-71271165D01*
X133035168Y-71541798D01*
X133034912Y-71834836D01*
X123869532Y-71834836D01*
X123794503Y-71653255D01*
X123587475Y-71445865D01*
X123316842Y-71333488D01*
X123023804Y-71333232D01*
X122752975Y-71445137D01*
X122545585Y-71652165D01*
X122433208Y-71922798D01*
X122432952Y-72215836D01*
X109171172Y-72215836D01*
X109026085Y-71998698D01*
X108671750Y-71761939D01*
X108253783Y-71678800D01*
X107900217Y-71678800D01*
X107482250Y-71761939D01*
X107127915Y-71998698D01*
X106891156Y-72353033D01*
X106808017Y-72771000D01*
X103027724Y-72771000D01*
X103269465Y-72671115D01*
X103784307Y-72157171D01*
X104063282Y-71485327D01*
X104063916Y-70757865D01*
X103980032Y-70554850D01*
X106476800Y-70554850D01*
X106476800Y-71210804D01*
X106565739Y-71425522D01*
X106730077Y-71589861D01*
X106944795Y-71678800D01*
X107753150Y-71678800D01*
X107899200Y-71532750D01*
X107899200Y-70408800D01*
X108254800Y-70408800D01*
X108254800Y-71532750D01*
X108400850Y-71678800D01*
X109209205Y-71678800D01*
X109423923Y-71589861D01*
X109588261Y-71425522D01*
X109677200Y-71210804D01*
X109677200Y-71011876D01*
X117525672Y-71011876D01*
X117637577Y-71282705D01*
X117844605Y-71490095D01*
X118115238Y-71602472D01*
X118408276Y-71602728D01*
X118679105Y-71490823D01*
X118886495Y-71283795D01*
X118998872Y-71013162D01*
X118999128Y-70720124D01*
X118888786Y-70453076D01*
X129108072Y-70453076D01*
X129219977Y-70723905D01*
X129427005Y-70931295D01*
X129697638Y-71043672D01*
X129990676Y-71043928D01*
X130261505Y-70932023D01*
X130468895Y-70724995D01*
X130568549Y-70485000D01*
X149099017Y-70485000D01*
X149182156Y-70902967D01*
X149418915Y-71257302D01*
X149773250Y-71494061D01*
X150191217Y-71577200D01*
X150544783Y-71577200D01*
X150962750Y-71494061D01*
X150980598Y-71482135D01*
X154381084Y-71482135D01*
X154658885Y-72154465D01*
X155172829Y-72669307D01*
X155844673Y-72948282D01*
X156572135Y-72948916D01*
X157244465Y-72671115D01*
X157759307Y-72157171D01*
X158038282Y-71485327D01*
X158038916Y-70757865D01*
X157761115Y-70085535D01*
X157247171Y-69570693D01*
X156575327Y-69291718D01*
X155847865Y-69291084D01*
X155175535Y-69568885D01*
X154660693Y-70082829D01*
X154381718Y-70754673D01*
X154381084Y-71482135D01*
X150980598Y-71482135D01*
X151317085Y-71257302D01*
X151553844Y-70902967D01*
X151636983Y-70485000D01*
X151553844Y-70067033D01*
X151317085Y-69712698D01*
X150962750Y-69475939D01*
X150544783Y-69392800D01*
X150191217Y-69392800D01*
X149773250Y-69475939D01*
X149418915Y-69712698D01*
X149182156Y-70067033D01*
X149099017Y-70485000D01*
X130568549Y-70485000D01*
X130581272Y-70454362D01*
X130581528Y-70161324D01*
X130469623Y-69890495D01*
X130262595Y-69683105D01*
X129991962Y-69570728D01*
X129698924Y-69570472D01*
X129428095Y-69682377D01*
X129220705Y-69889405D01*
X129108328Y-70160038D01*
X129108072Y-70453076D01*
X118888786Y-70453076D01*
X118887223Y-70449295D01*
X118680195Y-70241905D01*
X118409562Y-70129528D01*
X118116524Y-70129272D01*
X117845695Y-70241177D01*
X117638305Y-70448205D01*
X117525928Y-70718838D01*
X117525672Y-71011876D01*
X109677200Y-71011876D01*
X109677200Y-70554850D01*
X109531150Y-70408800D01*
X108254800Y-70408800D01*
X107899200Y-70408800D01*
X106622850Y-70408800D01*
X106476800Y-70554850D01*
X103980032Y-70554850D01*
X103786115Y-70085535D01*
X103272171Y-69570693D01*
X102600327Y-69291718D01*
X101872865Y-69291084D01*
X101200535Y-69568885D01*
X100685693Y-70082829D01*
X100406718Y-70754673D01*
X100406084Y-71482135D01*
X99109600Y-71482135D01*
X99109600Y-69251196D01*
X106476800Y-69251196D01*
X106476800Y-69907150D01*
X106622850Y-70053200D01*
X107899200Y-70053200D01*
X107899200Y-68929250D01*
X108254800Y-68929250D01*
X108254800Y-70053200D01*
X109531150Y-70053200D01*
X109677200Y-69907150D01*
X109677200Y-69251196D01*
X109588261Y-69036478D01*
X109423923Y-68872139D01*
X109209205Y-68783200D01*
X108400850Y-68783200D01*
X108254800Y-68929250D01*
X107899200Y-68929250D01*
X107753150Y-68783200D01*
X106944795Y-68783200D01*
X106730077Y-68872139D01*
X106565739Y-69036478D01*
X106476800Y-69251196D01*
X99109600Y-69251196D01*
X99109600Y-67895217D01*
X110921800Y-67895217D01*
X110921800Y-68248783D01*
X111004939Y-68666750D01*
X111241698Y-69021085D01*
X111596033Y-69257844D01*
X112014000Y-69340983D01*
X112431967Y-69257844D01*
X112786302Y-69021085D01*
X113023061Y-68666750D01*
X113106200Y-68248783D01*
X113106200Y-67895217D01*
X113461800Y-67895217D01*
X113461800Y-68248783D01*
X113544939Y-68666750D01*
X113781698Y-69021085D01*
X114136033Y-69257844D01*
X114554000Y-69340983D01*
X114971967Y-69257844D01*
X115326302Y-69021085D01*
X115563061Y-68666750D01*
X115616946Y-68395850D01*
X115646200Y-68395850D01*
X115646200Y-69204205D01*
X115735139Y-69418923D01*
X115899478Y-69583261D01*
X116114196Y-69672200D01*
X116770150Y-69672200D01*
X116916200Y-69526150D01*
X116916200Y-68249800D01*
X117271800Y-68249800D01*
X117271800Y-69526150D01*
X117417850Y-69672200D01*
X118073804Y-69672200D01*
X118288522Y-69583261D01*
X118452861Y-69418923D01*
X118531387Y-69229344D01*
X132968921Y-69229344D01*
X133038379Y-69397445D01*
X133166879Y-69526169D01*
X133334858Y-69595920D01*
X133516744Y-69596079D01*
X133684845Y-69526621D01*
X133813569Y-69398121D01*
X133883320Y-69230142D01*
X133883479Y-69048256D01*
X133814021Y-68880155D01*
X133685521Y-68751431D01*
X133517542Y-68681680D01*
X133335656Y-68681521D01*
X133167555Y-68750979D01*
X133038831Y-68879479D01*
X132969080Y-69047458D01*
X132968921Y-69229344D01*
X118531387Y-69229344D01*
X118541800Y-69204205D01*
X118541800Y-68395850D01*
X118395750Y-68249800D01*
X117271800Y-68249800D01*
X116916200Y-68249800D01*
X115792250Y-68249800D01*
X115646200Y-68395850D01*
X115616946Y-68395850D01*
X115646200Y-68248783D01*
X115646200Y-67986143D01*
X119801022Y-67986143D01*
X119957287Y-68364334D01*
X120246384Y-68653936D01*
X120624301Y-68810861D01*
X121033503Y-68811218D01*
X121411694Y-68654953D01*
X121701296Y-68365856D01*
X121858221Y-67987939D01*
X121858222Y-67986143D01*
X126401022Y-67986143D01*
X126557287Y-68364334D01*
X126846384Y-68653936D01*
X127224301Y-68810861D01*
X127633503Y-68811218D01*
X128011694Y-68654953D01*
X128301296Y-68365856D01*
X128458221Y-67987939D01*
X128458268Y-67933944D01*
X130352721Y-67933944D01*
X130422179Y-68102045D01*
X130550679Y-68230769D01*
X130718658Y-68300520D01*
X130900544Y-68300679D01*
X131068645Y-68231221D01*
X131197369Y-68102721D01*
X131267120Y-67934742D01*
X131267279Y-67752856D01*
X131197821Y-67584755D01*
X131069321Y-67456031D01*
X130901342Y-67386280D01*
X130719456Y-67386121D01*
X130551355Y-67455579D01*
X130422631Y-67584079D01*
X130352880Y-67752058D01*
X130352721Y-67933944D01*
X128458268Y-67933944D01*
X128458578Y-67578737D01*
X128302313Y-67200546D01*
X128259442Y-67157600D01*
X137866722Y-67157600D01*
X137866722Y-69189600D01*
X137882662Y-69274314D01*
X137932728Y-69352118D01*
X138009120Y-69404315D01*
X138099800Y-69422678D01*
X140131800Y-69422678D01*
X140216514Y-69406738D01*
X140294318Y-69356672D01*
X140346515Y-69280280D01*
X140364878Y-69189600D01*
X140364878Y-68149217D01*
X140411200Y-68149217D01*
X140411200Y-68197983D01*
X140505940Y-68674271D01*
X140775735Y-69078048D01*
X141179512Y-69347843D01*
X141655800Y-69442583D01*
X142132088Y-69347843D01*
X142535865Y-69078048D01*
X142805660Y-68674271D01*
X142900400Y-68197983D01*
X142900400Y-68149217D01*
X142805660Y-67672929D01*
X142535865Y-67269152D01*
X142132088Y-66999357D01*
X141655800Y-66904617D01*
X141179512Y-66999357D01*
X140775735Y-67269152D01*
X140505940Y-67672929D01*
X140411200Y-68149217D01*
X140364878Y-68149217D01*
X140364878Y-67157600D01*
X140348938Y-67072886D01*
X140298872Y-66995082D01*
X140222480Y-66942885D01*
X140131800Y-66924522D01*
X138099800Y-66924522D01*
X138015086Y-66940462D01*
X137937282Y-66990528D01*
X137885085Y-67066920D01*
X137866722Y-67157600D01*
X128259442Y-67157600D01*
X128013216Y-66910944D01*
X127635299Y-66754019D01*
X127226097Y-66753662D01*
X126847906Y-66909927D01*
X126558304Y-67199024D01*
X126401379Y-67576941D01*
X126401022Y-67986143D01*
X121858222Y-67986143D01*
X121858578Y-67578737D01*
X121702313Y-67200546D01*
X121413216Y-66910944D01*
X121035299Y-66754019D01*
X120626097Y-66753662D01*
X120247906Y-66909927D01*
X119958304Y-67199024D01*
X119801379Y-67576941D01*
X119801022Y-67986143D01*
X115646200Y-67986143D01*
X115646200Y-67895217D01*
X115563061Y-67477250D01*
X115326302Y-67122915D01*
X115052244Y-66939795D01*
X115646200Y-66939795D01*
X115646200Y-67748150D01*
X115792250Y-67894200D01*
X116916200Y-67894200D01*
X116916200Y-66617850D01*
X117271800Y-66617850D01*
X117271800Y-67894200D01*
X118395750Y-67894200D01*
X118541800Y-67748150D01*
X118541800Y-66939795D01*
X118452861Y-66725077D01*
X118288522Y-66560739D01*
X118073804Y-66471800D01*
X117417850Y-66471800D01*
X117271800Y-66617850D01*
X116916200Y-66617850D01*
X116770150Y-66471800D01*
X116114196Y-66471800D01*
X115899478Y-66560739D01*
X115735139Y-66725077D01*
X115646200Y-66939795D01*
X115052244Y-66939795D01*
X114971967Y-66886156D01*
X114554000Y-66803017D01*
X114136033Y-66886156D01*
X113781698Y-67122915D01*
X113544939Y-67477250D01*
X113461800Y-67895217D01*
X113106200Y-67895217D01*
X113023061Y-67477250D01*
X112786302Y-67122915D01*
X112431967Y-66886156D01*
X112014000Y-66803017D01*
X111596033Y-66886156D01*
X111241698Y-67122915D01*
X111004939Y-67477250D01*
X110921800Y-67895217D01*
X99109600Y-67895217D01*
X99109600Y-66343600D01*
X159716400Y-66343600D01*
X159716400Y-120219400D01*
X159716400Y-120219400D01*
G37*
X159716400Y-120219400D02*
X99109600Y-120219400D01*
X99109600Y-115932135D01*
X100406084Y-115932135D01*
X100683885Y-116604465D01*
X101197829Y-117119307D01*
X101869673Y-117398282D01*
X102597135Y-117398916D01*
X102597415Y-117398800D01*
X107488322Y-117398800D01*
X107488322Y-119430800D01*
X107504262Y-119515514D01*
X107554328Y-119593318D01*
X107630720Y-119645515D01*
X107721400Y-119663878D01*
X109448600Y-119663878D01*
X109533314Y-119647938D01*
X109611118Y-119597872D01*
X109663315Y-119521480D01*
X109681678Y-119430800D01*
X109681678Y-118592602D01*
X109824808Y-118592602D01*
X109700538Y-118818529D01*
X109905148Y-119344516D01*
X110295470Y-119752163D01*
X110724618Y-119958537D01*
X110947200Y-119856750D01*
X110947200Y-118592600D01*
X111302800Y-118592600D01*
X111302800Y-119856750D01*
X111525382Y-119958537D01*
X111954530Y-119752163D01*
X112344852Y-119344516D01*
X112549462Y-118818529D01*
X112425191Y-118592600D01*
X111302800Y-118592600D01*
X110947200Y-118592600D01*
X110927200Y-118592600D01*
X110927200Y-118238017D01*
X112572800Y-118238017D01*
X112572800Y-118591583D01*
X112655939Y-119009550D01*
X112892698Y-119363885D01*
X113247033Y-119600644D01*
X113665000Y-119683783D01*
X114082967Y-119600644D01*
X114437302Y-119363885D01*
X114674061Y-119009550D01*
X114757200Y-118591583D01*
X114757200Y-118238017D01*
X115112800Y-118238017D01*
X115112800Y-118591583D01*
X115195939Y-119009550D01*
X115432698Y-119363885D01*
X115787033Y-119600644D01*
X116205000Y-119683783D01*
X116622967Y-119600644D01*
X116977302Y-119363885D01*
X117214061Y-119009550D01*
X117297200Y-118591583D01*
X117297200Y-118238017D01*
X119024400Y-118238017D01*
X119024400Y-118591583D01*
X119107539Y-119009550D01*
X119344298Y-119363885D01*
X119698633Y-119600644D01*
X120116600Y-119683783D01*
X120534567Y-119600644D01*
X120888902Y-119363885D01*
X121125661Y-119009550D01*
X121208800Y-118591583D01*
X121208800Y-118238017D01*
X121564400Y-118238017D01*
X121564400Y-118591583D01*
X121647539Y-119009550D01*
X121884298Y-119363885D01*
X122238633Y-119600644D01*
X122656600Y-119683783D01*
X123074567Y-119600644D01*
X123428902Y-119363885D01*
X123665661Y-119009550D01*
X123748800Y-118591583D01*
X123748800Y-118238017D01*
X124104400Y-118238017D01*
X124104400Y-118591583D01*
X124187539Y-119009550D01*
X124424298Y-119363885D01*
X124778633Y-119600644D01*
X125196600Y-119683783D01*
X125614567Y-119600644D01*
X125968902Y-119363885D01*
X126205661Y-119009550D01*
X126288800Y-118591583D01*
X126288800Y-118238017D01*
X126644400Y-118238017D01*
X126644400Y-118591583D01*
X126727539Y-119009550D01*
X126964298Y-119363885D01*
X127318633Y-119600644D01*
X127736600Y-119683783D01*
X128154567Y-119600644D01*
X128508902Y-119363885D01*
X128745661Y-119009550D01*
X128783657Y-118818529D01*
X128852138Y-118818529D01*
X129056748Y-119344516D01*
X129447070Y-119752163D01*
X129876218Y-119958537D01*
X130098800Y-119856750D01*
X130098800Y-118592600D01*
X128976409Y-118592600D01*
X128852138Y-118818529D01*
X128783657Y-118818529D01*
X128828800Y-118591583D01*
X128828800Y-118238017D01*
X128783658Y-118011071D01*
X128852138Y-118011071D01*
X128976409Y-118237000D01*
X130098800Y-118237000D01*
X130098800Y-116972850D01*
X130454400Y-116972850D01*
X130454400Y-118237000D01*
X130474400Y-118237000D01*
X130474400Y-118592600D01*
X130454400Y-118592600D01*
X130454400Y-119856750D01*
X130676982Y-119958537D01*
X131106130Y-119752163D01*
X131496452Y-119344516D01*
X131701062Y-118818529D01*
X131576792Y-118592602D01*
X131719922Y-118592602D01*
X131719922Y-119430800D01*
X131735862Y-119515514D01*
X131785928Y-119593318D01*
X131862320Y-119645515D01*
X131953000Y-119663878D01*
X133680200Y-119663878D01*
X133764914Y-119647938D01*
X133842718Y-119597872D01*
X133894915Y-119521480D01*
X133913278Y-119430800D01*
X133913278Y-117398800D01*
X135479122Y-117398800D01*
X135479122Y-119430800D01*
X135495062Y-119515514D01*
X135545128Y-119593318D01*
X135621520Y-119645515D01*
X135712200Y-119663878D01*
X137439400Y-119663878D01*
X137524114Y-119647938D01*
X137601918Y-119597872D01*
X137654115Y-119521480D01*
X137672478Y-119430800D01*
X137672478Y-118238017D01*
X138023600Y-118238017D01*
X138023600Y-118591583D01*
X138106739Y-119009550D01*
X138343498Y-119363885D01*
X138697833Y-119600644D01*
X139115800Y-119683783D01*
X139533767Y-119600644D01*
X139888102Y-119363885D01*
X140124861Y-119009550D01*
X140208000Y-118591583D01*
X140208000Y-118238017D01*
X140563600Y-118238017D01*
X140563600Y-118591583D01*
X140646739Y-119009550D01*
X140883498Y-119363885D01*
X141237833Y-119600644D01*
X141655800Y-119683783D01*
X142073767Y-119600644D01*
X142428102Y-119363885D01*
X142664861Y-119009550D01*
X142748000Y-118591583D01*
X142748000Y-118238017D01*
X143103600Y-118238017D01*
X143103600Y-118591583D01*
X143186739Y-119009550D01*
X143423498Y-119363885D01*
X143777833Y-119600644D01*
X144195800Y-119683783D01*
X144613767Y-119600644D01*
X144968102Y-119363885D01*
X145204861Y-119009550D01*
X145288000Y-118591583D01*
X145288000Y-118238017D01*
X145643600Y-118238017D01*
X145643600Y-118591583D01*
X145726739Y-119009550D01*
X145963498Y-119363885D01*
X146317833Y-119600644D01*
X146735800Y-119683783D01*
X147153767Y-119600644D01*
X147508102Y-119363885D01*
X147744861Y-119009550D01*
X147828000Y-118591583D01*
X147828000Y-118238017D01*
X148183600Y-118238017D01*
X148183600Y-118591583D01*
X148266739Y-119009550D01*
X148503498Y-119363885D01*
X148857833Y-119600644D01*
X149275800Y-119683783D01*
X149693767Y-119600644D01*
X150048102Y-119363885D01*
X150284861Y-119009550D01*
X150368000Y-118591583D01*
X150368000Y-118238017D01*
X150284861Y-117820050D01*
X150048102Y-117465715D01*
X149693767Y-117228956D01*
X149275800Y-117145817D01*
X148857833Y-117228956D01*
X148503498Y-117465715D01*
X148266739Y-117820050D01*
X148183600Y-118238017D01*
X147828000Y-118238017D01*
X147744861Y-117820050D01*
X147508102Y-117465715D01*
X147153767Y-117228956D01*
X146735800Y-117145817D01*
X146317833Y-117228956D01*
X145963498Y-117465715D01*
X145726739Y-117820050D01*
X145643600Y-118238017D01*
X145288000Y-118238017D01*
X145204861Y-117820050D01*
X144968102Y-117465715D01*
X144613767Y-117228956D01*
X144195800Y-117145817D01*
X143777833Y-117228956D01*
X143423498Y-117465715D01*
X143186739Y-117820050D01*
X143103600Y-118238017D01*
X142748000Y-118238017D01*
X142664861Y-117820050D01*
X142428102Y-117465715D01*
X142073767Y-117228956D01*
X141655800Y-117145817D01*
X141237833Y-117228956D01*
X140883498Y-117465715D01*
X140646739Y-117820050D01*
X140563600Y-118238017D01*
X140208000Y-118238017D01*
X140124861Y-117820050D01*
X139888102Y-117465715D01*
X139533767Y-117228956D01*
X139115800Y-117145817D01*
X138697833Y-117228956D01*
X138343498Y-117465715D01*
X138106739Y-117820050D01*
X138023600Y-118238017D01*
X137672478Y-118238017D01*
X137672478Y-117398800D01*
X137656538Y-117314086D01*
X137606472Y-117236282D01*
X137530080Y-117184085D01*
X137439400Y-117165722D01*
X135712200Y-117165722D01*
X135627486Y-117181662D01*
X135549682Y-117231728D01*
X135497485Y-117308120D01*
X135479122Y-117398800D01*
X133913278Y-117398800D01*
X133897338Y-117314086D01*
X133847272Y-117236282D01*
X133770880Y-117184085D01*
X133680200Y-117165722D01*
X131953000Y-117165722D01*
X131868286Y-117181662D01*
X131790482Y-117231728D01*
X131738285Y-117308120D01*
X131719922Y-117398800D01*
X131719922Y-118236998D01*
X131576792Y-118236998D01*
X131701062Y-118011071D01*
X131496452Y-117485084D01*
X131106130Y-117077437D01*
X130676982Y-116871063D01*
X130454400Y-116972850D01*
X130098800Y-116972850D01*
X129876218Y-116871063D01*
X129447070Y-117077437D01*
X129056748Y-117485084D01*
X128852138Y-118011071D01*
X128783658Y-118011071D01*
X128745661Y-117820050D01*
X128508902Y-117465715D01*
X128154567Y-117228956D01*
X127736600Y-117145817D01*
X127318633Y-117228956D01*
X126964298Y-117465715D01*
X126727539Y-117820050D01*
X126644400Y-118238017D01*
X126288800Y-118238017D01*
X126205661Y-117820050D01*
X125968902Y-117465715D01*
X125614567Y-117228956D01*
X125196600Y-117145817D01*
X124778633Y-117228956D01*
X124424298Y-117465715D01*
X124187539Y-117820050D01*
X124104400Y-118238017D01*
X123748800Y-118238017D01*
X123665661Y-117820050D01*
X123428902Y-117465715D01*
X123074567Y-117228956D01*
X122656600Y-117145817D01*
X122238633Y-117228956D01*
X121884298Y-117465715D01*
X121647539Y-117820050D01*
X121564400Y-118238017D01*
X121208800Y-118238017D01*
X121125661Y-117820050D01*
X120888902Y-117465715D01*
X120534567Y-117228956D01*
X120116600Y-117145817D01*
X119698633Y-117228956D01*
X119344298Y-117465715D01*
X119107539Y-117820050D01*
X119024400Y-118238017D01*
X117297200Y-118238017D01*
X117214061Y-117820050D01*
X116977302Y-117465715D01*
X116622967Y-117228956D01*
X116205000Y-117145817D01*
X115787033Y-117228956D01*
X115432698Y-117465715D01*
X115195939Y-117820050D01*
X115112800Y-118238017D01*
X114757200Y-118238017D01*
X114674061Y-117820050D01*
X114437302Y-117465715D01*
X114082967Y-117228956D01*
X113665000Y-117145817D01*
X113247033Y-117228956D01*
X112892698Y-117465715D01*
X112655939Y-117820050D01*
X112572800Y-118238017D01*
X110927200Y-118238017D01*
X110927200Y-118237000D01*
X110947200Y-118237000D01*
X110947200Y-116972850D01*
X111302800Y-116972850D01*
X111302800Y-118237000D01*
X112425191Y-118237000D01*
X112549462Y-118011071D01*
X112344852Y-117485084D01*
X111954530Y-117077437D01*
X111525382Y-116871063D01*
X111302800Y-116972850D01*
X110947200Y-116972850D01*
X110724618Y-116871063D01*
X110295470Y-117077437D01*
X109905148Y-117485084D01*
X109700538Y-118011071D01*
X109824808Y-118236998D01*
X109681678Y-118236998D01*
X109681678Y-117398800D01*
X109665738Y-117314086D01*
X109615672Y-117236282D01*
X109539280Y-117184085D01*
X109448600Y-117165722D01*
X107721400Y-117165722D01*
X107636686Y-117181662D01*
X107558882Y-117231728D01*
X107506685Y-117308120D01*
X107488322Y-117398800D01*
X102597415Y-117398800D01*
X103269465Y-117121115D01*
X103784307Y-116607171D01*
X104063282Y-115935327D01*
X104063333Y-115876444D01*
X116662121Y-115876444D01*
X116731579Y-116044545D01*
X116860079Y-116173269D01*
X117028058Y-116243020D01*
X117209944Y-116243179D01*
X117378045Y-116173721D01*
X117506769Y-116045221D01*
X117553726Y-115932135D01*
X154381084Y-115932135D01*
X154658885Y-116604465D01*
X155172829Y-117119307D01*
X155844673Y-117398282D01*
X156572135Y-117398916D01*
X157244465Y-117121115D01*
X157759307Y-116607171D01*
X158038282Y-115935327D01*
X158038916Y-115207865D01*
X157761115Y-114535535D01*
X157247171Y-114020693D01*
X156575327Y-113741718D01*
X155847865Y-113741084D01*
X155175535Y-114018885D01*
X154660693Y-114532829D01*
X154381718Y-115204673D01*
X154381084Y-115932135D01*
X117553726Y-115932135D01*
X117576520Y-115877242D01*
X117576679Y-115695356D01*
X117507221Y-115527255D01*
X117378721Y-115398531D01*
X117210742Y-115328780D01*
X117028856Y-115328621D01*
X116860755Y-115398079D01*
X116732031Y-115526579D01*
X116662280Y-115694558D01*
X116662121Y-115876444D01*
X104063333Y-115876444D01*
X104063916Y-115207865D01*
X103786115Y-114535535D01*
X103272171Y-114020693D01*
X102600327Y-113741718D01*
X101872865Y-113741084D01*
X101200535Y-114018885D01*
X100685693Y-114532829D01*
X100406718Y-115204673D01*
X100406084Y-115932135D01*
X99109600Y-115932135D01*
X99109600Y-113029104D01*
X126461441Y-113029104D01*
X126530899Y-113197205D01*
X126659399Y-113325929D01*
X126827378Y-113395680D01*
X127009264Y-113395839D01*
X127177365Y-113326381D01*
X127306089Y-113197881D01*
X127355077Y-113079904D01*
X145155841Y-113079904D01*
X145225299Y-113248005D01*
X145353799Y-113376729D01*
X145521778Y-113446480D01*
X145703664Y-113446639D01*
X145871765Y-113377181D01*
X146000489Y-113248681D01*
X146070240Y-113080702D01*
X146070399Y-112898816D01*
X146000941Y-112730715D01*
X145872441Y-112601991D01*
X145704462Y-112532240D01*
X145522576Y-112532081D01*
X145354475Y-112601539D01*
X145225751Y-112730039D01*
X145156000Y-112898018D01*
X145155841Y-113079904D01*
X127355077Y-113079904D01*
X127375840Y-113029902D01*
X127375999Y-112848016D01*
X127306541Y-112679915D01*
X127178041Y-112551191D01*
X127010062Y-112481440D01*
X126828176Y-112481281D01*
X126660075Y-112550739D01*
X126531351Y-112679239D01*
X126461600Y-112847218D01*
X126461441Y-113029104D01*
X99109600Y-113029104D01*
X99109600Y-108680582D01*
X106584063Y-108680582D01*
X106790437Y-109109730D01*
X107198084Y-109500052D01*
X107724071Y-109704662D01*
X107949998Y-109580392D01*
X107949998Y-109723522D01*
X107111800Y-109723522D01*
X107027086Y-109739462D01*
X106949282Y-109789528D01*
X106897085Y-109865920D01*
X106878722Y-109956600D01*
X106878722Y-111683800D01*
X106894662Y-111768514D01*
X106944728Y-111846318D01*
X107021120Y-111898515D01*
X107111800Y-111916878D01*
X109143800Y-111916878D01*
X109228514Y-111900938D01*
X109306318Y-111850872D01*
X109358515Y-111774480D01*
X109376878Y-111683800D01*
X109376878Y-111533044D01*
X112471121Y-111533044D01*
X112540579Y-111701145D01*
X112669079Y-111829869D01*
X112837058Y-111899620D01*
X113018944Y-111899779D01*
X113187045Y-111830321D01*
X113315769Y-111701821D01*
X113385520Y-111533842D01*
X113385679Y-111351956D01*
X113323018Y-111200304D01*
X119948881Y-111200304D01*
X120018339Y-111368405D01*
X120146839Y-111497129D01*
X120314818Y-111566880D01*
X120496704Y-111567039D01*
X120664805Y-111497581D01*
X120738690Y-111423824D01*
X127030401Y-111423824D01*
X127099859Y-111591925D01*
X127228359Y-111720649D01*
X127396338Y-111790400D01*
X127578224Y-111790559D01*
X127746325Y-111721101D01*
X127875049Y-111592601D01*
X127944800Y-111424622D01*
X127944959Y-111242736D01*
X127875501Y-111074635D01*
X127747001Y-110945911D01*
X127723480Y-110936144D01*
X145318401Y-110936144D01*
X145387859Y-111104245D01*
X145516359Y-111232969D01*
X145684338Y-111302720D01*
X145866224Y-111302879D01*
X146034325Y-111233421D01*
X146163049Y-111104921D01*
X146232800Y-110936942D01*
X146232959Y-110755056D01*
X146163501Y-110586955D01*
X146035001Y-110458231D01*
X145867022Y-110388480D01*
X145685136Y-110388321D01*
X145517035Y-110457779D01*
X145388311Y-110586279D01*
X145318560Y-110754258D01*
X145318401Y-110936144D01*
X127723480Y-110936144D01*
X127579022Y-110876160D01*
X127397136Y-110876001D01*
X127229035Y-110945459D01*
X127100311Y-111073959D01*
X127030560Y-111241938D01*
X127030401Y-111423824D01*
X120738690Y-111423824D01*
X120793529Y-111369081D01*
X120863280Y-111201102D01*
X120863439Y-111019216D01*
X120793981Y-110851115D01*
X120665481Y-110722391D01*
X120497502Y-110652640D01*
X120315616Y-110652481D01*
X120147515Y-110721939D01*
X120018791Y-110850439D01*
X119949040Y-111018418D01*
X119948881Y-111200304D01*
X113323018Y-111200304D01*
X113316221Y-111183855D01*
X113187721Y-111055131D01*
X113019742Y-110985380D01*
X112837856Y-110985221D01*
X112669755Y-111054679D01*
X112541031Y-111183179D01*
X112471280Y-111351158D01*
X112471121Y-111533044D01*
X109376878Y-111533044D01*
X109376878Y-109956600D01*
X109360938Y-109871886D01*
X109310872Y-109794082D01*
X109234480Y-109741885D01*
X109143800Y-109723522D01*
X108305602Y-109723522D01*
X108305602Y-109580392D01*
X108531529Y-109704662D01*
X109057516Y-109500052D01*
X109465163Y-109109730D01*
X109622658Y-108782224D01*
X145318401Y-108782224D01*
X145387859Y-108950325D01*
X145516359Y-109079049D01*
X145684338Y-109148800D01*
X145866224Y-109148959D01*
X146034325Y-109079501D01*
X146163049Y-108951001D01*
X146209555Y-108839000D01*
X149118922Y-108839000D01*
X149118922Y-110566200D01*
X149134862Y-110650914D01*
X149184928Y-110728718D01*
X149261320Y-110780915D01*
X149352000Y-110799278D01*
X151384000Y-110799278D01*
X151468714Y-110783338D01*
X151546518Y-110733272D01*
X151598715Y-110656880D01*
X151617078Y-110566200D01*
X151617078Y-108839000D01*
X151601138Y-108754286D01*
X151551072Y-108676482D01*
X151474680Y-108624285D01*
X151384000Y-108605922D01*
X149352000Y-108605922D01*
X149267286Y-108621862D01*
X149189482Y-108671928D01*
X149137285Y-108748320D01*
X149118922Y-108839000D01*
X146209555Y-108839000D01*
X146232800Y-108783022D01*
X146232959Y-108601136D01*
X146163501Y-108433035D01*
X146035001Y-108304311D01*
X145867022Y-108234560D01*
X145685136Y-108234401D01*
X145517035Y-108303859D01*
X145388311Y-108432359D01*
X145318560Y-108600338D01*
X145318401Y-108782224D01*
X109622658Y-108782224D01*
X109671537Y-108680582D01*
X109569750Y-108458000D01*
X108305600Y-108458000D01*
X108305600Y-108478000D01*
X107950000Y-108478000D01*
X107950000Y-108458000D01*
X106685850Y-108458000D01*
X106584063Y-108680582D01*
X99109600Y-108680582D01*
X99109600Y-107879818D01*
X106584063Y-107879818D01*
X106685850Y-108102400D01*
X107950000Y-108102400D01*
X107950000Y-106980009D01*
X108305600Y-106980009D01*
X108305600Y-108102400D01*
X109569750Y-108102400D01*
X109671537Y-107879818D01*
X109565609Y-107659544D01*
X116331921Y-107659544D01*
X116401379Y-107827645D01*
X116529879Y-107956369D01*
X116697858Y-108026120D01*
X116879744Y-108026279D01*
X117047845Y-107956821D01*
X117176569Y-107828321D01*
X117246320Y-107660342D01*
X117246479Y-107478456D01*
X117177021Y-107310355D01*
X117150337Y-107283624D01*
X117403801Y-107283624D01*
X117473259Y-107451725D01*
X117601759Y-107580449D01*
X117769738Y-107650200D01*
X117951624Y-107650359D01*
X118006235Y-107627794D01*
X122853371Y-107627794D01*
X122922829Y-107795895D01*
X123051329Y-107924619D01*
X123219308Y-107994370D01*
X123401194Y-107994529D01*
X123569295Y-107925071D01*
X123698019Y-107796571D01*
X123761245Y-107644304D01*
X130850561Y-107644304D01*
X130920019Y-107812405D01*
X131048519Y-107941129D01*
X131216498Y-108010880D01*
X131398384Y-108011039D01*
X131566485Y-107941581D01*
X131695209Y-107813081D01*
X131764960Y-107645102D01*
X131765119Y-107463216D01*
X131695661Y-107295115D01*
X131658835Y-107258224D01*
X132374561Y-107258224D01*
X132444019Y-107426325D01*
X132572519Y-107555049D01*
X132740498Y-107624800D01*
X132922384Y-107624959D01*
X133090485Y-107555501D01*
X133219209Y-107427001D01*
X133288960Y-107259022D01*
X133289044Y-107162600D01*
X149099017Y-107162600D01*
X149182156Y-107580567D01*
X149418915Y-107934902D01*
X149773250Y-108171661D01*
X150191217Y-108254800D01*
X150544783Y-108254800D01*
X150962750Y-108171661D01*
X151317085Y-107934902D01*
X151553844Y-107580567D01*
X151636983Y-107162600D01*
X151553844Y-106744633D01*
X151317085Y-106390298D01*
X150962750Y-106153539D01*
X150544783Y-106070400D01*
X150191217Y-106070400D01*
X149773250Y-106153539D01*
X149418915Y-106390298D01*
X149182156Y-106744633D01*
X149099017Y-107162600D01*
X133289044Y-107162600D01*
X133289119Y-107077136D01*
X133219661Y-106909035D01*
X133091161Y-106780311D01*
X132923182Y-106710560D01*
X132741296Y-106710401D01*
X132573195Y-106779859D01*
X132444471Y-106908359D01*
X132374720Y-107076338D01*
X132374561Y-107258224D01*
X131658835Y-107258224D01*
X131567161Y-107166391D01*
X131399182Y-107096640D01*
X131217296Y-107096481D01*
X131049195Y-107165939D01*
X130920471Y-107294439D01*
X130850720Y-107462418D01*
X130850561Y-107644304D01*
X123761245Y-107644304D01*
X123767770Y-107628592D01*
X123767929Y-107446706D01*
X123698471Y-107278605D01*
X123633362Y-107213382D01*
X123717069Y-107129821D01*
X123786820Y-106961842D01*
X123786979Y-106779956D01*
X123745308Y-106679104D01*
X145282841Y-106679104D01*
X145352299Y-106847205D01*
X145480799Y-106975929D01*
X145648778Y-107045680D01*
X145830664Y-107045839D01*
X145998765Y-106976381D01*
X146127489Y-106847881D01*
X146197240Y-106679902D01*
X146197399Y-106498016D01*
X146127941Y-106329915D01*
X145999441Y-106201191D01*
X145831462Y-106131440D01*
X145649576Y-106131281D01*
X145481475Y-106200739D01*
X145352751Y-106329239D01*
X145283000Y-106497218D01*
X145282841Y-106679104D01*
X123745308Y-106679104D01*
X123717521Y-106611855D01*
X123671434Y-106565688D01*
X123767869Y-106469421D01*
X123837620Y-106301442D01*
X123837709Y-106199044D01*
X124917121Y-106199044D01*
X124986579Y-106367145D01*
X125115079Y-106495869D01*
X125283058Y-106565620D01*
X125464944Y-106565779D01*
X125633045Y-106496321D01*
X125761769Y-106367821D01*
X125831520Y-106199842D01*
X125831679Y-106017956D01*
X125762221Y-105849855D01*
X125633721Y-105721131D01*
X125465742Y-105651380D01*
X125283856Y-105651221D01*
X125115755Y-105720679D01*
X124987031Y-105849179D01*
X124917280Y-106017158D01*
X124917121Y-106199044D01*
X123837709Y-106199044D01*
X123837779Y-106119556D01*
X123768321Y-105951455D01*
X123639821Y-105822731D01*
X123471842Y-105752980D01*
X123289956Y-105752821D01*
X123121855Y-105822279D01*
X122993131Y-105950779D01*
X122923380Y-106118758D01*
X122923221Y-106300644D01*
X122992679Y-106468745D01*
X123038766Y-106514912D01*
X122942331Y-106611179D01*
X122872580Y-106779158D01*
X122872421Y-106961044D01*
X122941879Y-107129145D01*
X123006988Y-107194368D01*
X122923281Y-107277929D01*
X122853530Y-107445908D01*
X122853371Y-107627794D01*
X118006235Y-107627794D01*
X118119725Y-107580901D01*
X118248449Y-107452401D01*
X118318200Y-107284422D01*
X118318359Y-107102536D01*
X118248901Y-106934435D01*
X118120401Y-106805711D01*
X117952422Y-106735960D01*
X117770536Y-106735801D01*
X117602435Y-106805259D01*
X117473711Y-106933759D01*
X117403960Y-107101738D01*
X117403801Y-107283624D01*
X117150337Y-107283624D01*
X117048521Y-107181631D01*
X116880542Y-107111880D01*
X116698656Y-107111721D01*
X116530555Y-107181179D01*
X116401831Y-107309679D01*
X116332080Y-107477658D01*
X116331921Y-107659544D01*
X109565609Y-107659544D01*
X109465163Y-107450670D01*
X109057516Y-107060348D01*
X108531529Y-106855738D01*
X108305600Y-106980009D01*
X107950000Y-106980009D01*
X107724071Y-106855738D01*
X107198084Y-107060348D01*
X106790437Y-107450670D01*
X106584063Y-107879818D01*
X99109600Y-107879818D01*
X99109600Y-105740200D01*
X106858817Y-105740200D01*
X106941956Y-106158167D01*
X107178715Y-106512502D01*
X107533050Y-106749261D01*
X107951017Y-106832400D01*
X108304583Y-106832400D01*
X108722550Y-106749261D01*
X109076885Y-106512502D01*
X109142071Y-106414944D01*
X116801821Y-106414944D01*
X116871279Y-106583045D01*
X116999779Y-106711769D01*
X117167758Y-106781520D01*
X117349644Y-106781679D01*
X117517745Y-106712221D01*
X117646469Y-106583721D01*
X117716220Y-106415742D01*
X117716379Y-106233856D01*
X117646921Y-106065755D01*
X117518421Y-105937031D01*
X117350442Y-105867280D01*
X117168556Y-105867121D01*
X117000455Y-105936579D01*
X116871731Y-106065079D01*
X116801980Y-106233058D01*
X116801821Y-106414944D01*
X109142071Y-106414944D01*
X109313644Y-106158167D01*
X109396783Y-105740200D01*
X109313644Y-105322233D01*
X109076885Y-104967898D01*
X108722550Y-104731139D01*
X108304583Y-104648000D01*
X107951017Y-104648000D01*
X107533050Y-104731139D01*
X107178715Y-104967898D01*
X106941956Y-105322233D01*
X106858817Y-105740200D01*
X99109600Y-105740200D01*
X99109600Y-104622600D01*
X149099017Y-104622600D01*
X149182156Y-105040567D01*
X149418915Y-105394902D01*
X149773250Y-105631661D01*
X150191217Y-105714800D01*
X150544783Y-105714800D01*
X150962750Y-105631661D01*
X151317085Y-105394902D01*
X151553844Y-105040567D01*
X151636983Y-104622600D01*
X151553844Y-104204633D01*
X151317085Y-103850298D01*
X150962750Y-103613539D01*
X150544783Y-103530400D01*
X150191217Y-103530400D01*
X149773250Y-103613539D01*
X149418915Y-103850298D01*
X149182156Y-104204633D01*
X149099017Y-104622600D01*
X99109600Y-104622600D01*
X99109600Y-103200200D01*
X106858817Y-103200200D01*
X106941956Y-103618167D01*
X107178715Y-103972502D01*
X107533050Y-104209261D01*
X107951017Y-104292400D01*
X108304583Y-104292400D01*
X108692169Y-104215304D01*
X118297881Y-104215304D01*
X118367339Y-104383405D01*
X118495839Y-104512129D01*
X118663818Y-104581880D01*
X118845704Y-104582039D01*
X119013805Y-104512581D01*
X119142529Y-104384081D01*
X119212280Y-104216102D01*
X119212396Y-104083224D01*
X121731961Y-104083224D01*
X121801419Y-104251325D01*
X121929919Y-104380049D01*
X122097898Y-104449800D01*
X122279784Y-104449959D01*
X122447885Y-104380501D01*
X122576609Y-104252001D01*
X122646360Y-104084022D01*
X122646519Y-103902136D01*
X122577061Y-103734035D01*
X122448561Y-103605311D01*
X122280582Y-103535560D01*
X122098696Y-103535401D01*
X121930595Y-103604859D01*
X121801871Y-103733359D01*
X121732120Y-103901338D01*
X121731961Y-104083224D01*
X119212396Y-104083224D01*
X119212439Y-104034216D01*
X119142981Y-103866115D01*
X119014481Y-103737391D01*
X118856386Y-103671744D01*
X119313881Y-103671744D01*
X119383339Y-103839845D01*
X119511839Y-103968569D01*
X119679818Y-104038320D01*
X119861704Y-104038479D01*
X120029805Y-103969021D01*
X120158529Y-103840521D01*
X120228280Y-103672542D01*
X120228439Y-103490656D01*
X120166828Y-103341544D01*
X122433001Y-103341544D01*
X122502459Y-103509645D01*
X122630959Y-103638369D01*
X122798938Y-103708120D01*
X122980824Y-103708279D01*
X123148925Y-103638821D01*
X123277649Y-103510321D01*
X123347400Y-103342342D01*
X123347559Y-103160456D01*
X123347159Y-103159489D01*
X123519304Y-103159639D01*
X123687405Y-103090181D01*
X123756201Y-103021504D01*
X138907441Y-103021504D01*
X138976899Y-103189605D01*
X139105399Y-103318329D01*
X139273378Y-103388080D01*
X139455264Y-103388239D01*
X139623365Y-103318781D01*
X139752089Y-103190281D01*
X139821840Y-103022302D01*
X139821999Y-102840416D01*
X139752541Y-102672315D01*
X139624041Y-102543591D01*
X139456062Y-102473840D01*
X139274176Y-102473681D01*
X139106075Y-102543139D01*
X138977351Y-102671639D01*
X138907600Y-102839618D01*
X138907441Y-103021504D01*
X123756201Y-103021504D01*
X123816129Y-102961681D01*
X123885880Y-102793702D01*
X123886039Y-102611816D01*
X123847517Y-102518584D01*
X125663881Y-102518584D01*
X125733339Y-102686685D01*
X125861839Y-102815409D01*
X126029818Y-102885160D01*
X126211704Y-102885319D01*
X126379805Y-102815861D01*
X126508529Y-102687361D01*
X126578280Y-102519382D01*
X126578439Y-102337496D01*
X126508981Y-102169395D01*
X126380481Y-102040671D01*
X126212502Y-101970920D01*
X126030616Y-101970761D01*
X125862515Y-102040219D01*
X125733791Y-102168719D01*
X125664040Y-102336698D01*
X125663881Y-102518584D01*
X123847517Y-102518584D01*
X123816581Y-102443715D01*
X123688081Y-102314991D01*
X123520102Y-102245240D01*
X123338216Y-102245081D01*
X123170115Y-102314539D01*
X123041391Y-102443039D01*
X122971640Y-102611018D01*
X122971481Y-102792904D01*
X122971881Y-102793871D01*
X122799736Y-102793721D01*
X122631635Y-102863179D01*
X122502911Y-102991679D01*
X122433160Y-103159658D01*
X122433001Y-103341544D01*
X120166828Y-103341544D01*
X120158981Y-103322555D01*
X120030481Y-103193831D01*
X119862502Y-103124080D01*
X119680616Y-103123921D01*
X119512515Y-103193379D01*
X119383791Y-103321879D01*
X119314040Y-103489858D01*
X119313881Y-103671744D01*
X118856386Y-103671744D01*
X118846502Y-103667640D01*
X118664616Y-103667481D01*
X118496515Y-103736939D01*
X118367791Y-103865439D01*
X118298040Y-104033418D01*
X118297881Y-104215304D01*
X108692169Y-104215304D01*
X108722550Y-104209261D01*
X109076885Y-103972502D01*
X109313644Y-103618167D01*
X109396783Y-103200200D01*
X109313644Y-102782233D01*
X109076885Y-102427898D01*
X108722550Y-102191139D01*
X108304583Y-102108000D01*
X107951017Y-102108000D01*
X107533050Y-102191139D01*
X107178715Y-102427898D01*
X106941956Y-102782233D01*
X106858817Y-103200200D01*
X99109600Y-103200200D01*
X99109600Y-101888664D01*
X116712921Y-101888664D01*
X116782379Y-102056765D01*
X116910879Y-102185489D01*
X117078858Y-102255240D01*
X117260744Y-102255399D01*
X117428845Y-102185941D01*
X117557569Y-102057441D01*
X117627320Y-101889462D01*
X117627479Y-101707576D01*
X117558021Y-101539475D01*
X117429521Y-101410751D01*
X117261542Y-101341000D01*
X117079656Y-101340841D01*
X116911555Y-101410299D01*
X116782831Y-101538799D01*
X116713080Y-101706778D01*
X116712921Y-101888664D01*
X99109600Y-101888664D01*
X99109600Y-100992044D01*
X128231821Y-100992044D01*
X128301279Y-101160145D01*
X128429779Y-101288869D01*
X128478081Y-101308926D01*
X128447880Y-101381658D01*
X128447721Y-101563544D01*
X128517179Y-101731645D01*
X128626699Y-101841356D01*
X128543031Y-101924879D01*
X128473280Y-102092858D01*
X128473121Y-102274744D01*
X128542579Y-102442845D01*
X128671079Y-102571569D01*
X128839058Y-102641320D01*
X129020944Y-102641479D01*
X129189045Y-102572021D01*
X129317769Y-102443521D01*
X129387520Y-102275542D01*
X129387525Y-102269664D01*
X138292761Y-102269664D01*
X138362219Y-102437765D01*
X138490719Y-102566489D01*
X138658698Y-102636240D01*
X138840584Y-102636399D01*
X139008685Y-102566941D01*
X139137409Y-102438441D01*
X139207160Y-102270462D01*
X139207319Y-102088576D01*
X139204850Y-102082600D01*
X149099017Y-102082600D01*
X149182156Y-102500567D01*
X149418915Y-102854902D01*
X149773250Y-103091661D01*
X150191217Y-103174800D01*
X150544783Y-103174800D01*
X150962750Y-103091661D01*
X151317085Y-102854902D01*
X151553844Y-102500567D01*
X151636983Y-102082600D01*
X151553844Y-101664633D01*
X151317085Y-101310298D01*
X150962750Y-101073539D01*
X150544783Y-100990400D01*
X150191217Y-100990400D01*
X149773250Y-101073539D01*
X149418915Y-101310298D01*
X149182156Y-101664633D01*
X149099017Y-102082600D01*
X139204850Y-102082600D01*
X139137861Y-101920475D01*
X139009361Y-101791751D01*
X138841382Y-101722000D01*
X138659496Y-101721841D01*
X138491395Y-101791299D01*
X138362671Y-101919799D01*
X138292920Y-102087778D01*
X138292761Y-102269664D01*
X129387525Y-102269664D01*
X129387679Y-102093656D01*
X129318221Y-101925555D01*
X129208701Y-101815844D01*
X129292369Y-101732321D01*
X129362120Y-101564342D01*
X129362279Y-101382456D01*
X129292821Y-101214355D01*
X129164321Y-101085631D01*
X129116019Y-101065574D01*
X129146220Y-100992842D01*
X129146379Y-100810956D01*
X129076921Y-100642855D01*
X129052773Y-100618664D01*
X137286921Y-100618664D01*
X137356379Y-100786765D01*
X137484879Y-100915489D01*
X137652858Y-100985240D01*
X137834744Y-100985399D01*
X138002845Y-100915941D01*
X138131569Y-100787441D01*
X138201320Y-100619462D01*
X138201479Y-100437576D01*
X138132021Y-100269475D01*
X138003521Y-100140751D01*
X137835542Y-100071000D01*
X137653656Y-100070841D01*
X137485555Y-100140299D01*
X137356831Y-100268799D01*
X137287080Y-100436778D01*
X137286921Y-100618664D01*
X129052773Y-100618664D01*
X128948421Y-100514131D01*
X128780442Y-100444380D01*
X128598556Y-100444221D01*
X128430455Y-100513679D01*
X128301731Y-100642179D01*
X128231980Y-100810158D01*
X128231821Y-100992044D01*
X99109600Y-100992044D01*
X99109600Y-100334184D01*
X122676841Y-100334184D01*
X122746299Y-100502285D01*
X122874799Y-100631009D01*
X123042778Y-100700760D01*
X123224664Y-100700919D01*
X123392765Y-100631461D01*
X123521489Y-100502961D01*
X123591240Y-100334982D01*
X123591399Y-100153096D01*
X123521941Y-99984995D01*
X123393441Y-99856271D01*
X123225462Y-99786520D01*
X123043576Y-99786361D01*
X122875475Y-99855819D01*
X122746751Y-99984319D01*
X122677000Y-100152298D01*
X122676841Y-100334184D01*
X99109600Y-100334184D01*
X99109600Y-98171000D01*
X106808017Y-98171000D01*
X106891156Y-98588967D01*
X107127915Y-98943302D01*
X107482250Y-99180061D01*
X107900217Y-99263200D01*
X108253783Y-99263200D01*
X108671750Y-99180061D01*
X109026085Y-98943302D01*
X109262844Y-98588967D01*
X109322920Y-98286944D01*
X111251921Y-98286944D01*
X111321379Y-98455045D01*
X111449879Y-98583769D01*
X111617858Y-98653520D01*
X111799744Y-98653679D01*
X111967845Y-98584221D01*
X112096569Y-98455721D01*
X112166320Y-98287742D01*
X112166331Y-98274244D01*
X114325321Y-98274244D01*
X114394779Y-98442345D01*
X114523279Y-98571069D01*
X114691258Y-98640820D01*
X114873144Y-98640979D01*
X115041245Y-98571521D01*
X115169969Y-98443021D01*
X115239720Y-98275042D01*
X115239798Y-98185344D01*
X115392121Y-98185344D01*
X115461579Y-98353445D01*
X115590079Y-98482169D01*
X115758058Y-98551920D01*
X115939944Y-98552079D01*
X115966892Y-98540944D01*
X126796721Y-98540944D01*
X126866179Y-98709045D01*
X126994679Y-98837769D01*
X127162658Y-98907520D01*
X127344544Y-98907679D01*
X127512645Y-98838221D01*
X127641369Y-98709721D01*
X127648169Y-98693344D01*
X128178481Y-98693344D01*
X128247939Y-98861445D01*
X128376439Y-98990169D01*
X128544418Y-99059920D01*
X128726304Y-99060079D01*
X128888492Y-98993064D01*
X132963841Y-98993064D01*
X133033299Y-99161165D01*
X133161799Y-99289889D01*
X133329778Y-99359640D01*
X133511664Y-99359799D01*
X133679765Y-99290341D01*
X133808489Y-99161841D01*
X133878240Y-98993862D01*
X133878399Y-98811976D01*
X133854970Y-98755273D01*
X133862184Y-98755279D01*
X133877743Y-98748850D01*
X148767800Y-98748850D01*
X148767800Y-99404804D01*
X148856739Y-99619522D01*
X149021077Y-99783861D01*
X149235795Y-99872800D01*
X150044150Y-99872800D01*
X150190200Y-99726750D01*
X150190200Y-98602800D01*
X150545800Y-98602800D01*
X150545800Y-99726750D01*
X150691850Y-99872800D01*
X151500205Y-99872800D01*
X151714923Y-99783861D01*
X151879261Y-99619522D01*
X151968200Y-99404804D01*
X151968200Y-98748850D01*
X151822150Y-98602800D01*
X150545800Y-98602800D01*
X150190200Y-98602800D01*
X148913850Y-98602800D01*
X148767800Y-98748850D01*
X133877743Y-98748850D01*
X134030285Y-98685821D01*
X134159009Y-98557321D01*
X134228760Y-98389342D01*
X134228919Y-98207456D01*
X134159461Y-98039355D01*
X134030961Y-97910631D01*
X133862982Y-97840880D01*
X133681096Y-97840721D01*
X133512995Y-97910179D01*
X133384271Y-98038679D01*
X133314520Y-98206658D01*
X133314361Y-98388544D01*
X133337790Y-98445247D01*
X133330576Y-98445241D01*
X133162475Y-98514699D01*
X133033751Y-98643199D01*
X132964000Y-98811178D01*
X132963841Y-98993064D01*
X128888492Y-98993064D01*
X128894405Y-98990621D01*
X129023129Y-98862121D01*
X129092880Y-98694142D01*
X129093039Y-98512256D01*
X129023581Y-98344155D01*
X128992503Y-98313023D01*
X129123005Y-98259101D01*
X129251729Y-98130601D01*
X129321480Y-97962622D01*
X129321639Y-97780736D01*
X129252181Y-97612635D01*
X129123681Y-97483911D01*
X129030445Y-97445196D01*
X148767800Y-97445196D01*
X148767800Y-98101150D01*
X148913850Y-98247200D01*
X150190200Y-98247200D01*
X150190200Y-97123250D01*
X150545800Y-97123250D01*
X150545800Y-98247200D01*
X151822150Y-98247200D01*
X151968200Y-98101150D01*
X151968200Y-97445196D01*
X151879261Y-97230478D01*
X151714923Y-97066139D01*
X151500205Y-96977200D01*
X150691850Y-96977200D01*
X150545800Y-97123250D01*
X150190200Y-97123250D01*
X150044150Y-96977200D01*
X149235795Y-96977200D01*
X149021077Y-97066139D01*
X148856739Y-97230478D01*
X148767800Y-97445196D01*
X129030445Y-97445196D01*
X128955702Y-97414160D01*
X128773816Y-97414001D01*
X128605715Y-97483459D01*
X128476991Y-97611959D01*
X128407240Y-97779938D01*
X128407081Y-97961824D01*
X128476539Y-98129925D01*
X128507617Y-98161057D01*
X128377115Y-98214979D01*
X128248391Y-98343479D01*
X128178640Y-98511458D01*
X128178481Y-98693344D01*
X127648169Y-98693344D01*
X127711120Y-98541742D01*
X127711279Y-98359856D01*
X127641821Y-98191755D01*
X127513321Y-98063031D01*
X127345342Y-97993280D01*
X127163456Y-97993121D01*
X126995355Y-98062579D01*
X126866631Y-98191079D01*
X126796880Y-98359058D01*
X126796721Y-98540944D01*
X115966892Y-98540944D01*
X116108045Y-98482621D01*
X116236769Y-98354121D01*
X116306520Y-98186142D01*
X116306679Y-98004256D01*
X116237221Y-97836155D01*
X116108721Y-97707431D01*
X115940742Y-97637680D01*
X115758856Y-97637521D01*
X115590755Y-97706979D01*
X115462031Y-97835479D01*
X115392280Y-98003458D01*
X115392121Y-98185344D01*
X115239798Y-98185344D01*
X115239879Y-98093156D01*
X115170421Y-97925055D01*
X115041921Y-97796331D01*
X114873942Y-97726580D01*
X114692056Y-97726421D01*
X114523955Y-97795879D01*
X114395231Y-97924379D01*
X114325480Y-98092358D01*
X114325321Y-98274244D01*
X112166331Y-98274244D01*
X112166479Y-98105856D01*
X112113189Y-97976885D01*
X112224579Y-98088469D01*
X112392558Y-98158220D01*
X112574444Y-98158379D01*
X112742545Y-98088921D01*
X112871269Y-97960421D01*
X112941020Y-97792442D01*
X112941179Y-97610556D01*
X112871721Y-97442455D01*
X112743221Y-97313731D01*
X112575242Y-97243980D01*
X112393356Y-97243821D01*
X112225255Y-97313279D01*
X112096531Y-97441779D01*
X112026780Y-97609758D01*
X112026621Y-97791644D01*
X112079911Y-97920615D01*
X111968521Y-97809031D01*
X111800542Y-97739280D01*
X111618656Y-97739121D01*
X111450555Y-97808579D01*
X111321831Y-97937079D01*
X111252080Y-98105058D01*
X111251921Y-98286944D01*
X109322920Y-98286944D01*
X109345983Y-98171000D01*
X109262844Y-97753033D01*
X109026085Y-97398698D01*
X108671750Y-97161939D01*
X108253783Y-97078800D01*
X107900217Y-97078800D01*
X107482250Y-97161939D01*
X107127915Y-97398698D01*
X106891156Y-97753033D01*
X106808017Y-98171000D01*
X99109600Y-98171000D01*
X99109600Y-95631000D01*
X106808017Y-95631000D01*
X106891156Y-96048967D01*
X107127915Y-96403302D01*
X107482250Y-96640061D01*
X107900217Y-96723200D01*
X108253783Y-96723200D01*
X108334903Y-96707064D01*
X135442881Y-96707064D01*
X135512339Y-96875165D01*
X135640839Y-97003889D01*
X135808818Y-97073640D01*
X135990704Y-97073799D01*
X136158805Y-97004341D01*
X136287529Y-96875841D01*
X136357280Y-96707862D01*
X136357439Y-96525976D01*
X136287981Y-96357875D01*
X136277463Y-96347339D01*
X136300584Y-96347359D01*
X136468685Y-96277901D01*
X136597409Y-96149401D01*
X136667160Y-95981422D01*
X136667244Y-95885000D01*
X149099017Y-95885000D01*
X149182156Y-96302967D01*
X149418915Y-96657302D01*
X149773250Y-96894061D01*
X150191217Y-96977200D01*
X150544783Y-96977200D01*
X150962750Y-96894061D01*
X151317085Y-96657302D01*
X151553844Y-96302967D01*
X151636983Y-95885000D01*
X151553844Y-95467033D01*
X151317085Y-95112698D01*
X150962750Y-94875939D01*
X150544783Y-94792800D01*
X150191217Y-94792800D01*
X149773250Y-94875939D01*
X149418915Y-95112698D01*
X149182156Y-95467033D01*
X149099017Y-95885000D01*
X136667244Y-95885000D01*
X136667319Y-95799536D01*
X136597861Y-95631435D01*
X136469361Y-95502711D01*
X136301382Y-95432960D01*
X136119496Y-95432801D01*
X135951395Y-95502259D01*
X135822671Y-95630759D01*
X135752920Y-95798738D01*
X135752761Y-95980624D01*
X135822219Y-96148725D01*
X135832737Y-96159261D01*
X135809616Y-96159241D01*
X135641515Y-96228699D01*
X135512791Y-96357199D01*
X135443040Y-96525178D01*
X135442881Y-96707064D01*
X108334903Y-96707064D01*
X108671750Y-96640061D01*
X109026085Y-96403302D01*
X109260988Y-96051744D01*
X122224721Y-96051744D01*
X122294179Y-96219845D01*
X122422679Y-96348569D01*
X122590658Y-96418320D01*
X122772544Y-96418479D01*
X122940645Y-96349021D01*
X123069369Y-96220521D01*
X123139120Y-96052542D01*
X123139279Y-95870656D01*
X123069821Y-95702555D01*
X122941321Y-95573831D01*
X122773342Y-95504080D01*
X122591456Y-95503921D01*
X122423355Y-95573379D01*
X122294631Y-95701879D01*
X122224880Y-95869858D01*
X122224721Y-96051744D01*
X109260988Y-96051744D01*
X109262844Y-96048967D01*
X109345983Y-95631000D01*
X109262844Y-95213033D01*
X109026085Y-94858698D01*
X108834888Y-94730944D01*
X123672521Y-94730944D01*
X123741979Y-94899045D01*
X123870479Y-95027769D01*
X124038458Y-95097520D01*
X124220344Y-95097679D01*
X124388445Y-95028221D01*
X124517169Y-94899721D01*
X124586920Y-94731742D01*
X124587079Y-94549856D01*
X124517621Y-94381755D01*
X124389121Y-94253031D01*
X124221142Y-94183280D01*
X124039256Y-94183121D01*
X123871155Y-94252579D01*
X123742431Y-94381079D01*
X123672680Y-94549058D01*
X123672521Y-94730944D01*
X108834888Y-94730944D01*
X108671750Y-94621939D01*
X108253783Y-94538800D01*
X107900217Y-94538800D01*
X107482250Y-94621939D01*
X107127915Y-94858698D01*
X106891156Y-95213033D01*
X106808017Y-95631000D01*
X99109600Y-95631000D01*
X99109600Y-93091000D01*
X106808017Y-93091000D01*
X106891156Y-93508967D01*
X107127915Y-93863302D01*
X107482250Y-94100061D01*
X107900217Y-94183200D01*
X108253783Y-94183200D01*
X108671750Y-94100061D01*
X109026085Y-93863302D01*
X109179524Y-93633664D01*
X124769801Y-93633664D01*
X124839259Y-93801765D01*
X124967759Y-93930489D01*
X125135738Y-94000240D01*
X125317624Y-94000399D01*
X125485725Y-93930941D01*
X125614449Y-93802441D01*
X125684200Y-93634462D01*
X125684298Y-93521904D01*
X127482521Y-93521904D01*
X127551979Y-93690005D01*
X127680479Y-93818729D01*
X127689508Y-93822478D01*
X127619840Y-93990258D01*
X127619681Y-94172144D01*
X127689139Y-94340245D01*
X127817639Y-94468969D01*
X127985618Y-94538720D01*
X128167504Y-94538879D01*
X128335605Y-94469421D01*
X128464329Y-94340921D01*
X128534080Y-94172942D01*
X128534239Y-93991056D01*
X128464781Y-93822955D01*
X128336281Y-93694231D01*
X128327252Y-93690482D01*
X128396920Y-93522702D01*
X128397075Y-93345000D01*
X149099017Y-93345000D01*
X149182156Y-93762967D01*
X149418915Y-94117302D01*
X149773250Y-94354061D01*
X150191217Y-94437200D01*
X150544783Y-94437200D01*
X150962750Y-94354061D01*
X151317085Y-94117302D01*
X151553844Y-93762967D01*
X151636983Y-93345000D01*
X151553844Y-92927033D01*
X151317085Y-92572698D01*
X150962750Y-92335939D01*
X150544783Y-92252800D01*
X150191217Y-92252800D01*
X149773250Y-92335939D01*
X149418915Y-92572698D01*
X149182156Y-92927033D01*
X149099017Y-93345000D01*
X128397075Y-93345000D01*
X128397079Y-93340816D01*
X128327621Y-93172715D01*
X128199121Y-93043991D01*
X128031142Y-92974240D01*
X127849256Y-92974081D01*
X127681155Y-93043539D01*
X127552431Y-93172039D01*
X127482680Y-93340018D01*
X127482521Y-93521904D01*
X125684298Y-93521904D01*
X125684359Y-93452576D01*
X125614901Y-93284475D01*
X125486401Y-93155751D01*
X125318422Y-93086000D01*
X125136536Y-93085841D01*
X124968435Y-93155299D01*
X124839711Y-93283799D01*
X124769960Y-93451778D01*
X124769801Y-93633664D01*
X109179524Y-93633664D01*
X109262844Y-93508967D01*
X109345983Y-93091000D01*
X109262844Y-92673033D01*
X109124018Y-92465264D01*
X116707841Y-92465264D01*
X116777299Y-92633365D01*
X116905799Y-92762089D01*
X117073778Y-92831840D01*
X117255664Y-92831999D01*
X117423765Y-92762541D01*
X117552489Y-92634041D01*
X117578273Y-92571944D01*
X126110921Y-92571944D01*
X126180379Y-92740045D01*
X126308879Y-92868769D01*
X126476858Y-92938520D01*
X126658744Y-92938679D01*
X126826845Y-92869221D01*
X126955569Y-92740721D01*
X127025320Y-92572742D01*
X127025479Y-92390856D01*
X126956021Y-92222755D01*
X126827521Y-92094031D01*
X126659542Y-92024280D01*
X126477656Y-92024121D01*
X126309555Y-92093579D01*
X126180831Y-92222079D01*
X126111080Y-92390058D01*
X126110921Y-92571944D01*
X117578273Y-92571944D01*
X117622240Y-92466062D01*
X117622399Y-92284176D01*
X117552941Y-92116075D01*
X117424441Y-91987351D01*
X117256462Y-91917600D01*
X117074576Y-91917441D01*
X116906475Y-91986899D01*
X116777751Y-92115399D01*
X116708000Y-92283378D01*
X116707841Y-92465264D01*
X109124018Y-92465264D01*
X109026085Y-92318698D01*
X108671750Y-92081939D01*
X108253783Y-91998800D01*
X107900217Y-91998800D01*
X107482250Y-92081939D01*
X107127915Y-92318698D01*
X106891156Y-92673033D01*
X106808017Y-93091000D01*
X99109600Y-93091000D01*
X99109600Y-90551000D01*
X106808017Y-90551000D01*
X106891156Y-90968967D01*
X107127915Y-91323302D01*
X107482250Y-91560061D01*
X107900217Y-91643200D01*
X108253783Y-91643200D01*
X108671750Y-91560061D01*
X109026085Y-91323302D01*
X109262844Y-90968967D01*
X109345983Y-90551000D01*
X109325596Y-90448504D01*
X126502081Y-90448504D01*
X126571539Y-90616605D01*
X126700039Y-90745329D01*
X126868018Y-90815080D01*
X127049904Y-90815239D01*
X127074684Y-90805000D01*
X149099017Y-90805000D01*
X149182156Y-91222967D01*
X149418915Y-91577302D01*
X149773250Y-91814061D01*
X150191217Y-91897200D01*
X150544783Y-91897200D01*
X150962750Y-91814061D01*
X151317085Y-91577302D01*
X151553844Y-91222967D01*
X151636983Y-90805000D01*
X151553844Y-90387033D01*
X151317085Y-90032698D01*
X150962750Y-89795939D01*
X150544783Y-89712800D01*
X150191217Y-89712800D01*
X149773250Y-89795939D01*
X149418915Y-90032698D01*
X149182156Y-90387033D01*
X149099017Y-90805000D01*
X127074684Y-90805000D01*
X127218005Y-90745781D01*
X127346729Y-90617281D01*
X127416480Y-90449302D01*
X127416639Y-90267416D01*
X127347181Y-90099315D01*
X127218681Y-89970591D01*
X127050702Y-89900840D01*
X126868816Y-89900681D01*
X126700715Y-89970139D01*
X126571991Y-90098639D01*
X126502240Y-90266618D01*
X126502081Y-90448504D01*
X109325596Y-90448504D01*
X109262844Y-90133033D01*
X109100257Y-89889704D01*
X129296081Y-89889704D01*
X129365539Y-90057805D01*
X129494039Y-90186529D01*
X129662018Y-90256280D01*
X129843904Y-90256439D01*
X130012005Y-90186981D01*
X130140729Y-90058481D01*
X130210480Y-89890502D01*
X130210639Y-89708616D01*
X130141181Y-89540515D01*
X130012681Y-89411791D01*
X129844702Y-89342040D01*
X129662816Y-89341881D01*
X129494715Y-89411339D01*
X129365991Y-89539839D01*
X129296240Y-89707818D01*
X129296081Y-89889704D01*
X109100257Y-89889704D01*
X109026085Y-89778698D01*
X108671750Y-89541939D01*
X108253783Y-89458800D01*
X107900217Y-89458800D01*
X107482250Y-89541939D01*
X107127915Y-89778698D01*
X106891156Y-90133033D01*
X106808017Y-90551000D01*
X99109600Y-90551000D01*
X99109600Y-88011000D01*
X106808017Y-88011000D01*
X106891156Y-88428967D01*
X107127915Y-88783302D01*
X107482250Y-89020061D01*
X107900217Y-89103200D01*
X108253783Y-89103200D01*
X108671750Y-89020061D01*
X109026085Y-88783302D01*
X109262844Y-88428967D01*
X109295459Y-88265000D01*
X149099017Y-88265000D01*
X149182156Y-88682967D01*
X149418915Y-89037302D01*
X149773250Y-89274061D01*
X150191217Y-89357200D01*
X150544783Y-89357200D01*
X150962750Y-89274061D01*
X151317085Y-89037302D01*
X151553844Y-88682967D01*
X151636983Y-88265000D01*
X151553844Y-87847033D01*
X151317085Y-87492698D01*
X150962750Y-87255939D01*
X150544783Y-87172800D01*
X150191217Y-87172800D01*
X149773250Y-87255939D01*
X149418915Y-87492698D01*
X149182156Y-87847033D01*
X149099017Y-88265000D01*
X109295459Y-88265000D01*
X109345983Y-88011000D01*
X109262844Y-87593033D01*
X109026085Y-87238698D01*
X108671750Y-87001939D01*
X108581284Y-86983944D01*
X139039521Y-86983944D01*
X139108979Y-87152045D01*
X139237479Y-87280769D01*
X139405458Y-87350520D01*
X139587344Y-87350679D01*
X139755445Y-87281221D01*
X139884169Y-87152721D01*
X139953920Y-86984742D01*
X139954079Y-86802856D01*
X139884621Y-86634755D01*
X139756121Y-86506031D01*
X139588142Y-86436280D01*
X139406256Y-86436121D01*
X139238155Y-86505579D01*
X139109431Y-86634079D01*
X139039680Y-86802058D01*
X139039521Y-86983944D01*
X108581284Y-86983944D01*
X108253783Y-86918800D01*
X107900217Y-86918800D01*
X107482250Y-87001939D01*
X107127915Y-87238698D01*
X106891156Y-87593033D01*
X106808017Y-88011000D01*
X99109600Y-88011000D01*
X99109600Y-85471000D01*
X106808017Y-85471000D01*
X106891156Y-85888967D01*
X107127915Y-86243302D01*
X107482250Y-86480061D01*
X107900217Y-86563200D01*
X108253783Y-86563200D01*
X108671750Y-86480061D01*
X109026085Y-86243302D01*
X109179524Y-86013664D01*
X124282121Y-86013664D01*
X124351579Y-86181765D01*
X124480079Y-86310489D01*
X124648058Y-86380240D01*
X124829944Y-86380399D01*
X124998045Y-86310941D01*
X125126769Y-86182441D01*
X125196520Y-86014462D01*
X125196679Y-85832576D01*
X125152230Y-85725000D01*
X149099017Y-85725000D01*
X149182156Y-86142967D01*
X149418915Y-86497302D01*
X149773250Y-86734061D01*
X150191217Y-86817200D01*
X150544783Y-86817200D01*
X150962750Y-86734061D01*
X151317085Y-86497302D01*
X151553844Y-86142967D01*
X151636983Y-85725000D01*
X151553844Y-85307033D01*
X151317085Y-84952698D01*
X150962750Y-84715939D01*
X150544783Y-84632800D01*
X150191217Y-84632800D01*
X149773250Y-84715939D01*
X149418915Y-84952698D01*
X149182156Y-85307033D01*
X149099017Y-85725000D01*
X125152230Y-85725000D01*
X125127221Y-85664475D01*
X124998721Y-85535751D01*
X124830742Y-85466000D01*
X124648856Y-85465841D01*
X124480755Y-85535299D01*
X124352031Y-85663799D01*
X124282280Y-85831778D01*
X124282121Y-86013664D01*
X109179524Y-86013664D01*
X109262844Y-85888967D01*
X109345983Y-85471000D01*
X109262844Y-85053033D01*
X109026085Y-84698698D01*
X108671750Y-84461939D01*
X108253783Y-84378800D01*
X107900217Y-84378800D01*
X107482250Y-84461939D01*
X107127915Y-84698698D01*
X106891156Y-85053033D01*
X106808017Y-85471000D01*
X99109600Y-85471000D01*
X99109600Y-82931000D01*
X106808017Y-82931000D01*
X106891156Y-83348967D01*
X107127915Y-83703302D01*
X107482250Y-83940061D01*
X107900217Y-84023200D01*
X108253783Y-84023200D01*
X108309365Y-84012144D01*
X112801321Y-84012144D01*
X112870779Y-84180245D01*
X112999279Y-84308969D01*
X113167258Y-84378720D01*
X113349144Y-84378879D01*
X113517245Y-84309421D01*
X113611485Y-84215344D01*
X133095921Y-84215344D01*
X133165379Y-84383445D01*
X133293879Y-84512169D01*
X133461858Y-84581920D01*
X133643744Y-84582079D01*
X133811845Y-84512621D01*
X133940569Y-84384121D01*
X134010320Y-84216142D01*
X134010479Y-84034256D01*
X133941021Y-83866155D01*
X133812521Y-83737431D01*
X133644542Y-83667680D01*
X133462656Y-83667521D01*
X133294555Y-83736979D01*
X133165831Y-83865479D01*
X133096080Y-84033458D01*
X133095921Y-84215344D01*
X113611485Y-84215344D01*
X113645969Y-84180921D01*
X113715720Y-84012942D01*
X113715879Y-83831056D01*
X113646421Y-83662955D01*
X113543123Y-83559476D01*
X125907672Y-83559476D01*
X126019577Y-83830305D01*
X126226605Y-84037695D01*
X126497238Y-84150072D01*
X126790276Y-84150328D01*
X127061105Y-84038423D01*
X127268495Y-83831395D01*
X127380872Y-83560762D01*
X127381128Y-83267724D01*
X127346947Y-83185000D01*
X149099017Y-83185000D01*
X149182156Y-83602967D01*
X149418915Y-83957302D01*
X149773250Y-84194061D01*
X150191217Y-84277200D01*
X150544783Y-84277200D01*
X150962750Y-84194061D01*
X151317085Y-83957302D01*
X151553844Y-83602967D01*
X151636983Y-83185000D01*
X151553844Y-82767033D01*
X151317085Y-82412698D01*
X150962750Y-82175939D01*
X150544783Y-82092800D01*
X150191217Y-82092800D01*
X149773250Y-82175939D01*
X149418915Y-82412698D01*
X149182156Y-82767033D01*
X149099017Y-83185000D01*
X127346947Y-83185000D01*
X127269223Y-82996895D01*
X127062195Y-82789505D01*
X126791562Y-82677128D01*
X126498524Y-82676872D01*
X126227695Y-82788777D01*
X126020305Y-82995805D01*
X125907928Y-83266438D01*
X125907672Y-83559476D01*
X113543123Y-83559476D01*
X113517921Y-83534231D01*
X113349942Y-83464480D01*
X113168056Y-83464321D01*
X112999955Y-83533779D01*
X112871231Y-83662279D01*
X112801480Y-83830258D01*
X112801321Y-84012144D01*
X108309365Y-84012144D01*
X108671750Y-83940061D01*
X109026085Y-83703302D01*
X109262844Y-83348967D01*
X109345983Y-82931000D01*
X109262844Y-82513033D01*
X109026085Y-82158698D01*
X108671750Y-81921939D01*
X108253783Y-81838800D01*
X107900217Y-81838800D01*
X107482250Y-81921939D01*
X107127915Y-82158698D01*
X106891156Y-82513033D01*
X106808017Y-82931000D01*
X99109600Y-82931000D01*
X99109600Y-81599144D01*
X125323521Y-81599144D01*
X125392979Y-81767245D01*
X125521479Y-81895969D01*
X125689458Y-81965720D01*
X125871344Y-81965879D01*
X126039445Y-81896421D01*
X126120963Y-81815044D01*
X140627021Y-81815044D01*
X140696479Y-81983145D01*
X140824979Y-82111869D01*
X140992958Y-82181620D01*
X141174844Y-82181779D01*
X141342945Y-82112321D01*
X141471669Y-81983821D01*
X141541420Y-81815842D01*
X141541579Y-81633956D01*
X141472121Y-81465855D01*
X141343621Y-81337131D01*
X141175642Y-81267380D01*
X140993756Y-81267221D01*
X140825655Y-81336679D01*
X140696931Y-81465179D01*
X140627180Y-81633158D01*
X140627021Y-81815044D01*
X126120963Y-81815044D01*
X126168169Y-81767921D01*
X126237920Y-81599942D01*
X126238079Y-81418056D01*
X126168621Y-81249955D01*
X126040121Y-81121231D01*
X125990812Y-81100756D01*
X137947272Y-81100756D01*
X138059177Y-81371585D01*
X138266205Y-81578975D01*
X138536838Y-81691352D01*
X138829876Y-81691608D01*
X139100705Y-81579703D01*
X139308095Y-81372675D01*
X139420472Y-81102042D01*
X139420728Y-80809004D01*
X139352963Y-80645000D01*
X149099017Y-80645000D01*
X149182156Y-81062967D01*
X149418915Y-81417302D01*
X149773250Y-81654061D01*
X150191217Y-81737200D01*
X150544783Y-81737200D01*
X150962750Y-81654061D01*
X151317085Y-81417302D01*
X151553844Y-81062967D01*
X151636983Y-80645000D01*
X151553844Y-80227033D01*
X151317085Y-79872698D01*
X150962750Y-79635939D01*
X150544783Y-79552800D01*
X150191217Y-79552800D01*
X149773250Y-79635939D01*
X149418915Y-79872698D01*
X149182156Y-80227033D01*
X149099017Y-80645000D01*
X139352963Y-80645000D01*
X139308823Y-80538175D01*
X139101795Y-80330785D01*
X138831162Y-80218408D01*
X138538124Y-80218152D01*
X138267295Y-80330057D01*
X138059905Y-80537085D01*
X137947528Y-80807718D01*
X137947272Y-81100756D01*
X125990812Y-81100756D01*
X125872142Y-81051480D01*
X125690256Y-81051321D01*
X125522155Y-81120779D01*
X125393431Y-81249279D01*
X125323680Y-81417258D01*
X125323521Y-81599144D01*
X99109600Y-81599144D01*
X99109600Y-80391000D01*
X106808017Y-80391000D01*
X106891156Y-80808967D01*
X107127915Y-81163302D01*
X107482250Y-81400061D01*
X107900217Y-81483200D01*
X108253783Y-81483200D01*
X108671750Y-81400061D01*
X109026085Y-81163302D01*
X109262844Y-80808967D01*
X109345983Y-80391000D01*
X109308418Y-80202144D01*
X115341321Y-80202144D01*
X115410779Y-80370245D01*
X115539279Y-80498969D01*
X115707258Y-80568720D01*
X115889144Y-80568879D01*
X116057245Y-80499421D01*
X116185969Y-80370921D01*
X116255720Y-80202942D01*
X116255879Y-80021056D01*
X116204763Y-79897344D01*
X117855921Y-79897344D01*
X117925379Y-80065445D01*
X118053879Y-80194169D01*
X118221858Y-80263920D01*
X118403744Y-80264079D01*
X118571845Y-80194621D01*
X118700569Y-80066121D01*
X118770320Y-79898142D01*
X118770479Y-79716256D01*
X118701021Y-79548155D01*
X118572521Y-79419431D01*
X118404542Y-79349680D01*
X118222656Y-79349521D01*
X118054555Y-79418979D01*
X117925831Y-79547479D01*
X117856080Y-79715458D01*
X117855921Y-79897344D01*
X116204763Y-79897344D01*
X116186421Y-79852955D01*
X116057921Y-79724231D01*
X115889942Y-79654480D01*
X115708056Y-79654321D01*
X115539955Y-79723779D01*
X115411231Y-79852279D01*
X115341480Y-80020258D01*
X115341321Y-80202144D01*
X109308418Y-80202144D01*
X109262844Y-79973033D01*
X109026085Y-79618698D01*
X108671750Y-79381939D01*
X108253783Y-79298800D01*
X107900217Y-79298800D01*
X107482250Y-79381939D01*
X107127915Y-79618698D01*
X106891156Y-79973033D01*
X106808017Y-80391000D01*
X99109600Y-80391000D01*
X99109600Y-77851000D01*
X106808017Y-77851000D01*
X106891156Y-78268967D01*
X107127915Y-78623302D01*
X107482250Y-78860061D01*
X107900217Y-78943200D01*
X108253783Y-78943200D01*
X108671750Y-78860061D01*
X109026085Y-78623302D01*
X109262844Y-78268967D01*
X109302710Y-78068544D01*
X122478721Y-78068544D01*
X122548179Y-78236645D01*
X122676679Y-78365369D01*
X122814397Y-78422554D01*
X122677355Y-78479179D01*
X122548631Y-78607679D01*
X122478880Y-78775658D01*
X122478721Y-78957544D01*
X122548179Y-79125645D01*
X122676679Y-79254369D01*
X122844658Y-79324120D01*
X123026544Y-79324279D01*
X123194645Y-79254821D01*
X123323369Y-79126321D01*
X123393120Y-78958342D01*
X123393279Y-78776456D01*
X123323821Y-78608355D01*
X123195321Y-78479631D01*
X123057603Y-78422446D01*
X123194645Y-78365821D01*
X123323369Y-78237321D01*
X123393120Y-78069342D01*
X123393120Y-78068544D01*
X123494721Y-78068544D01*
X123564179Y-78236645D01*
X123692679Y-78365369D01*
X123830397Y-78422554D01*
X123693355Y-78479179D01*
X123564631Y-78607679D01*
X123494880Y-78775658D01*
X123494721Y-78957544D01*
X123564179Y-79125645D01*
X123692679Y-79254369D01*
X123860658Y-79324120D01*
X124042544Y-79324279D01*
X124210645Y-79254821D01*
X124339369Y-79126321D01*
X124409120Y-78958342D01*
X124409279Y-78776456D01*
X124339821Y-78608355D01*
X124211321Y-78479631D01*
X124073603Y-78422446D01*
X124210645Y-78365821D01*
X124339369Y-78237321D01*
X124409120Y-78069342D01*
X124409120Y-78068544D01*
X124510721Y-78068544D01*
X124580179Y-78236645D01*
X124708679Y-78365369D01*
X124846397Y-78422554D01*
X124709355Y-78479179D01*
X124580631Y-78607679D01*
X124510880Y-78775658D01*
X124510721Y-78957544D01*
X124580179Y-79125645D01*
X124708679Y-79254369D01*
X124876658Y-79324120D01*
X125058544Y-79324279D01*
X125226645Y-79254821D01*
X125355369Y-79126321D01*
X125425120Y-78958342D01*
X125425279Y-78776456D01*
X125355821Y-78608355D01*
X125227321Y-78479631D01*
X125089603Y-78422446D01*
X125226645Y-78365821D01*
X125355369Y-78237321D01*
X125410313Y-78105000D01*
X149099017Y-78105000D01*
X149182156Y-78522967D01*
X149418915Y-78877302D01*
X149773250Y-79114061D01*
X150191217Y-79197200D01*
X150544783Y-79197200D01*
X150962750Y-79114061D01*
X151317085Y-78877302D01*
X151553844Y-78522967D01*
X151636983Y-78105000D01*
X151553844Y-77687033D01*
X151317085Y-77332698D01*
X150962750Y-77095939D01*
X150544783Y-77012800D01*
X150191217Y-77012800D01*
X149773250Y-77095939D01*
X149418915Y-77332698D01*
X149182156Y-77687033D01*
X149099017Y-78105000D01*
X125410313Y-78105000D01*
X125425120Y-78069342D01*
X125425279Y-77887456D01*
X125355821Y-77719355D01*
X125227321Y-77590631D01*
X125059342Y-77520880D01*
X124877456Y-77520721D01*
X124709355Y-77590179D01*
X124580631Y-77718679D01*
X124510880Y-77886658D01*
X124510721Y-78068544D01*
X124409120Y-78068544D01*
X124409279Y-77887456D01*
X124339821Y-77719355D01*
X124211321Y-77590631D01*
X124043342Y-77520880D01*
X123861456Y-77520721D01*
X123693355Y-77590179D01*
X123564631Y-77718679D01*
X123494880Y-77886658D01*
X123494721Y-78068544D01*
X123393120Y-78068544D01*
X123393279Y-77887456D01*
X123323821Y-77719355D01*
X123195321Y-77590631D01*
X123027342Y-77520880D01*
X122845456Y-77520721D01*
X122677355Y-77590179D01*
X122548631Y-77718679D01*
X122478880Y-77886658D01*
X122478721Y-78068544D01*
X109302710Y-78068544D01*
X109345983Y-77851000D01*
X109262844Y-77433033D01*
X109026085Y-77078698D01*
X108986943Y-77052544D01*
X122478721Y-77052544D01*
X122548179Y-77220645D01*
X122676679Y-77349369D01*
X122844658Y-77419120D01*
X123026544Y-77419279D01*
X123194645Y-77349821D01*
X123323369Y-77221321D01*
X123393120Y-77053342D01*
X123393120Y-77052544D01*
X123494721Y-77052544D01*
X123564179Y-77220645D01*
X123692679Y-77349369D01*
X123860658Y-77419120D01*
X124042544Y-77419279D01*
X124210645Y-77349821D01*
X124339369Y-77221321D01*
X124409120Y-77053342D01*
X124409120Y-77052544D01*
X124510721Y-77052544D01*
X124580179Y-77220645D01*
X124708679Y-77349369D01*
X124876658Y-77419120D01*
X125058544Y-77419279D01*
X125226645Y-77349821D01*
X125355369Y-77221321D01*
X125425120Y-77053342D01*
X125425279Y-76871456D01*
X125355821Y-76703355D01*
X125227321Y-76574631D01*
X125059342Y-76504880D01*
X124877456Y-76504721D01*
X124709355Y-76574179D01*
X124580631Y-76702679D01*
X124510880Y-76870658D01*
X124510721Y-77052544D01*
X124409120Y-77052544D01*
X124409279Y-76871456D01*
X124339821Y-76703355D01*
X124211321Y-76574631D01*
X124043342Y-76504880D01*
X123861456Y-76504721D01*
X123693355Y-76574179D01*
X123564631Y-76702679D01*
X123494880Y-76870658D01*
X123494721Y-77052544D01*
X123393120Y-77052544D01*
X123393279Y-76871456D01*
X123323821Y-76703355D01*
X123195321Y-76574631D01*
X123027342Y-76504880D01*
X122845456Y-76504721D01*
X122677355Y-76574179D01*
X122548631Y-76702679D01*
X122478880Y-76870658D01*
X122478721Y-77052544D01*
X108986943Y-77052544D01*
X108671750Y-76841939D01*
X108253783Y-76758800D01*
X107900217Y-76758800D01*
X107482250Y-76841939D01*
X107127915Y-77078698D01*
X106891156Y-77433033D01*
X106808017Y-77851000D01*
X99109600Y-77851000D01*
X99109600Y-75311000D01*
X106808017Y-75311000D01*
X106891156Y-75728967D01*
X107127915Y-76083302D01*
X107482250Y-76320061D01*
X107900217Y-76403200D01*
X108253783Y-76403200D01*
X108671750Y-76320061D01*
X109026085Y-76083302D01*
X109262844Y-75728967D01*
X109336056Y-75360904D01*
X115869641Y-75360904D01*
X115939099Y-75529005D01*
X116067599Y-75657729D01*
X116235578Y-75727480D01*
X116417464Y-75727639D01*
X116585565Y-75658181D01*
X116678908Y-75565000D01*
X149099017Y-75565000D01*
X149182156Y-75982967D01*
X149418915Y-76337302D01*
X149773250Y-76574061D01*
X150191217Y-76657200D01*
X150544783Y-76657200D01*
X150962750Y-76574061D01*
X151317085Y-76337302D01*
X151553844Y-75982967D01*
X151636983Y-75565000D01*
X151553844Y-75147033D01*
X151317085Y-74792698D01*
X150962750Y-74555939D01*
X150544783Y-74472800D01*
X150191217Y-74472800D01*
X149773250Y-74555939D01*
X149418915Y-74792698D01*
X149182156Y-75147033D01*
X149099017Y-75565000D01*
X116678908Y-75565000D01*
X116714289Y-75529681D01*
X116784040Y-75361702D01*
X116784199Y-75179816D01*
X116714741Y-75011715D01*
X116586241Y-74882991D01*
X116418262Y-74813240D01*
X116236376Y-74813081D01*
X116068275Y-74882539D01*
X115939551Y-75011039D01*
X115869800Y-75179018D01*
X115869641Y-75360904D01*
X109336056Y-75360904D01*
X109345983Y-75311000D01*
X109262844Y-74893033D01*
X109026085Y-74538698D01*
X108671750Y-74301939D01*
X108253783Y-74218800D01*
X107900217Y-74218800D01*
X107482250Y-74301939D01*
X107127915Y-74538698D01*
X106891156Y-74893033D01*
X106808017Y-75311000D01*
X99109600Y-75311000D01*
X99109600Y-71482135D01*
X100406084Y-71482135D01*
X100683885Y-72154465D01*
X101197829Y-72669307D01*
X101869673Y-72948282D01*
X102597135Y-72948916D01*
X103027724Y-72771000D01*
X106808017Y-72771000D01*
X106891156Y-73188967D01*
X107127915Y-73543302D01*
X107482250Y-73780061D01*
X107900217Y-73863200D01*
X108253783Y-73863200D01*
X108671750Y-73780061D01*
X109026085Y-73543302D01*
X109044116Y-73516316D01*
X120578752Y-73516316D01*
X120690657Y-73787145D01*
X120897685Y-73994535D01*
X121168318Y-74106912D01*
X121213089Y-74106951D01*
X121183480Y-74178258D01*
X121183321Y-74360144D01*
X121248458Y-74517788D01*
X121127955Y-74567579D01*
X120999231Y-74696079D01*
X120929480Y-74864058D01*
X120929321Y-75045944D01*
X120998779Y-75214045D01*
X121127279Y-75342769D01*
X121295258Y-75412520D01*
X121477144Y-75412679D01*
X121645245Y-75343221D01*
X121773969Y-75214721D01*
X121807136Y-75134844D01*
X143484521Y-75134844D01*
X143553979Y-75302945D01*
X143682479Y-75431669D01*
X143850458Y-75501420D01*
X144032344Y-75501579D01*
X144200445Y-75432121D01*
X144329169Y-75303621D01*
X144398920Y-75135642D01*
X144399079Y-74953756D01*
X144329621Y-74785655D01*
X144201121Y-74656931D01*
X144033142Y-74587180D01*
X143851256Y-74587021D01*
X143683155Y-74656479D01*
X143554431Y-74784979D01*
X143484680Y-74952958D01*
X143484521Y-75134844D01*
X121807136Y-75134844D01*
X121843720Y-75046742D01*
X121843879Y-74864856D01*
X121778742Y-74707212D01*
X121899245Y-74657421D01*
X121993485Y-74563344D01*
X129448481Y-74563344D01*
X129517939Y-74731445D01*
X129646439Y-74860169D01*
X129814418Y-74929920D01*
X129996304Y-74930079D01*
X130164405Y-74860621D01*
X130293129Y-74732121D01*
X130362880Y-74564142D01*
X130363039Y-74382256D01*
X130293581Y-74214155D01*
X130165081Y-74085431D01*
X129997102Y-74015680D01*
X129815216Y-74015521D01*
X129647115Y-74084979D01*
X129518391Y-74213479D01*
X129448640Y-74381458D01*
X129448481Y-74563344D01*
X121993485Y-74563344D01*
X122027969Y-74528921D01*
X122097720Y-74360942D01*
X122097879Y-74179056D01*
X122028421Y-74010955D01*
X121899921Y-73882231D01*
X121861427Y-73866247D01*
X121939575Y-73788235D01*
X122051952Y-73517602D01*
X122052208Y-73224564D01*
X121956559Y-72993076D01*
X139217272Y-72993076D01*
X139329177Y-73263905D01*
X139536205Y-73471295D01*
X139806838Y-73583672D01*
X140099876Y-73583928D01*
X140370705Y-73472023D01*
X140578095Y-73264995D01*
X140677749Y-73025000D01*
X149099017Y-73025000D01*
X149182156Y-73442967D01*
X149418915Y-73797302D01*
X149773250Y-74034061D01*
X150191217Y-74117200D01*
X150544783Y-74117200D01*
X150962750Y-74034061D01*
X151317085Y-73797302D01*
X151553844Y-73442967D01*
X151636983Y-73025000D01*
X151553844Y-72607033D01*
X151317085Y-72252698D01*
X150962750Y-72015939D01*
X150544783Y-71932800D01*
X150191217Y-71932800D01*
X149773250Y-72015939D01*
X149418915Y-72252698D01*
X149182156Y-72607033D01*
X149099017Y-73025000D01*
X140677749Y-73025000D01*
X140690472Y-72994362D01*
X140690728Y-72701324D01*
X140578823Y-72430495D01*
X140371795Y-72223105D01*
X140101162Y-72110728D01*
X139808124Y-72110472D01*
X139537295Y-72222377D01*
X139329905Y-72429405D01*
X139217528Y-72700038D01*
X139217272Y-72993076D01*
X121956559Y-72993076D01*
X121940303Y-72953735D01*
X121733275Y-72746345D01*
X121462642Y-72633968D01*
X121169604Y-72633712D01*
X120898775Y-72745617D01*
X120691385Y-72952645D01*
X120579008Y-73223278D01*
X120578752Y-73516316D01*
X109044116Y-73516316D01*
X109262844Y-73188967D01*
X109345983Y-72771000D01*
X109262844Y-72353033D01*
X109171172Y-72215836D01*
X122432952Y-72215836D01*
X122544857Y-72486665D01*
X122751885Y-72694055D01*
X123022518Y-72806432D01*
X123315556Y-72806688D01*
X123586385Y-72694783D01*
X123793775Y-72487755D01*
X123906152Y-72217122D01*
X123906408Y-71924084D01*
X123869532Y-71834836D01*
X133034912Y-71834836D01*
X133146817Y-72105665D01*
X133353845Y-72313055D01*
X133624478Y-72425432D01*
X133917516Y-72425688D01*
X134188345Y-72313783D01*
X134395735Y-72106755D01*
X134508112Y-71836122D01*
X134508368Y-71543084D01*
X134498779Y-71519876D01*
X139369672Y-71519876D01*
X139481577Y-71790705D01*
X139688605Y-71998095D01*
X139959238Y-72110472D01*
X140252276Y-72110728D01*
X140523105Y-71998823D01*
X140730495Y-71791795D01*
X140842872Y-71521162D01*
X140843128Y-71228124D01*
X140731223Y-70957295D01*
X140524195Y-70749905D01*
X140253562Y-70637528D01*
X139960524Y-70637272D01*
X139689695Y-70749177D01*
X139482305Y-70956205D01*
X139369928Y-71226838D01*
X139369672Y-71519876D01*
X134498779Y-71519876D01*
X134396463Y-71272255D01*
X134189435Y-71064865D01*
X133918802Y-70952488D01*
X133625764Y-70952232D01*
X133354935Y-71064137D01*
X133147545Y-71271165D01*
X133035168Y-71541798D01*
X133034912Y-71834836D01*
X123869532Y-71834836D01*
X123794503Y-71653255D01*
X123587475Y-71445865D01*
X123316842Y-71333488D01*
X123023804Y-71333232D01*
X122752975Y-71445137D01*
X122545585Y-71652165D01*
X122433208Y-71922798D01*
X122432952Y-72215836D01*
X109171172Y-72215836D01*
X109026085Y-71998698D01*
X108671750Y-71761939D01*
X108253783Y-71678800D01*
X107900217Y-71678800D01*
X107482250Y-71761939D01*
X107127915Y-71998698D01*
X106891156Y-72353033D01*
X106808017Y-72771000D01*
X103027724Y-72771000D01*
X103269465Y-72671115D01*
X103784307Y-72157171D01*
X104063282Y-71485327D01*
X104063916Y-70757865D01*
X103980032Y-70554850D01*
X106476800Y-70554850D01*
X106476800Y-71210804D01*
X106565739Y-71425522D01*
X106730077Y-71589861D01*
X106944795Y-71678800D01*
X107753150Y-71678800D01*
X107899200Y-71532750D01*
X107899200Y-70408800D01*
X108254800Y-70408800D01*
X108254800Y-71532750D01*
X108400850Y-71678800D01*
X109209205Y-71678800D01*
X109423923Y-71589861D01*
X109588261Y-71425522D01*
X109677200Y-71210804D01*
X109677200Y-71011876D01*
X117525672Y-71011876D01*
X117637577Y-71282705D01*
X117844605Y-71490095D01*
X118115238Y-71602472D01*
X118408276Y-71602728D01*
X118679105Y-71490823D01*
X118886495Y-71283795D01*
X118998872Y-71013162D01*
X118999128Y-70720124D01*
X118888786Y-70453076D01*
X129108072Y-70453076D01*
X129219977Y-70723905D01*
X129427005Y-70931295D01*
X129697638Y-71043672D01*
X129990676Y-71043928D01*
X130261505Y-70932023D01*
X130468895Y-70724995D01*
X130568549Y-70485000D01*
X149099017Y-70485000D01*
X149182156Y-70902967D01*
X149418915Y-71257302D01*
X149773250Y-71494061D01*
X150191217Y-71577200D01*
X150544783Y-71577200D01*
X150962750Y-71494061D01*
X150980598Y-71482135D01*
X154381084Y-71482135D01*
X154658885Y-72154465D01*
X155172829Y-72669307D01*
X155844673Y-72948282D01*
X156572135Y-72948916D01*
X157244465Y-72671115D01*
X157759307Y-72157171D01*
X158038282Y-71485327D01*
X158038916Y-70757865D01*
X157761115Y-70085535D01*
X157247171Y-69570693D01*
X156575327Y-69291718D01*
X155847865Y-69291084D01*
X155175535Y-69568885D01*
X154660693Y-70082829D01*
X154381718Y-70754673D01*
X154381084Y-71482135D01*
X150980598Y-71482135D01*
X151317085Y-71257302D01*
X151553844Y-70902967D01*
X151636983Y-70485000D01*
X151553844Y-70067033D01*
X151317085Y-69712698D01*
X150962750Y-69475939D01*
X150544783Y-69392800D01*
X150191217Y-69392800D01*
X149773250Y-69475939D01*
X149418915Y-69712698D01*
X149182156Y-70067033D01*
X149099017Y-70485000D01*
X130568549Y-70485000D01*
X130581272Y-70454362D01*
X130581528Y-70161324D01*
X130469623Y-69890495D01*
X130262595Y-69683105D01*
X129991962Y-69570728D01*
X129698924Y-69570472D01*
X129428095Y-69682377D01*
X129220705Y-69889405D01*
X129108328Y-70160038D01*
X129108072Y-70453076D01*
X118888786Y-70453076D01*
X118887223Y-70449295D01*
X118680195Y-70241905D01*
X118409562Y-70129528D01*
X118116524Y-70129272D01*
X117845695Y-70241177D01*
X117638305Y-70448205D01*
X117525928Y-70718838D01*
X117525672Y-71011876D01*
X109677200Y-71011876D01*
X109677200Y-70554850D01*
X109531150Y-70408800D01*
X108254800Y-70408800D01*
X107899200Y-70408800D01*
X106622850Y-70408800D01*
X106476800Y-70554850D01*
X103980032Y-70554850D01*
X103786115Y-70085535D01*
X103272171Y-69570693D01*
X102600327Y-69291718D01*
X101872865Y-69291084D01*
X101200535Y-69568885D01*
X100685693Y-70082829D01*
X100406718Y-70754673D01*
X100406084Y-71482135D01*
X99109600Y-71482135D01*
X99109600Y-69251196D01*
X106476800Y-69251196D01*
X106476800Y-69907150D01*
X106622850Y-70053200D01*
X107899200Y-70053200D01*
X107899200Y-68929250D01*
X108254800Y-68929250D01*
X108254800Y-70053200D01*
X109531150Y-70053200D01*
X109677200Y-69907150D01*
X109677200Y-69251196D01*
X109588261Y-69036478D01*
X109423923Y-68872139D01*
X109209205Y-68783200D01*
X108400850Y-68783200D01*
X108254800Y-68929250D01*
X107899200Y-68929250D01*
X107753150Y-68783200D01*
X106944795Y-68783200D01*
X106730077Y-68872139D01*
X106565739Y-69036478D01*
X106476800Y-69251196D01*
X99109600Y-69251196D01*
X99109600Y-67895217D01*
X110921800Y-67895217D01*
X110921800Y-68248783D01*
X111004939Y-68666750D01*
X111241698Y-69021085D01*
X111596033Y-69257844D01*
X112014000Y-69340983D01*
X112431967Y-69257844D01*
X112786302Y-69021085D01*
X113023061Y-68666750D01*
X113106200Y-68248783D01*
X113106200Y-67895217D01*
X113461800Y-67895217D01*
X113461800Y-68248783D01*
X113544939Y-68666750D01*
X113781698Y-69021085D01*
X114136033Y-69257844D01*
X114554000Y-69340983D01*
X114971967Y-69257844D01*
X115326302Y-69021085D01*
X115563061Y-68666750D01*
X115616946Y-68395850D01*
X115646200Y-68395850D01*
X115646200Y-69204205D01*
X115735139Y-69418923D01*
X115899478Y-69583261D01*
X116114196Y-69672200D01*
X116770150Y-69672200D01*
X116916200Y-69526150D01*
X116916200Y-68249800D01*
X117271800Y-68249800D01*
X117271800Y-69526150D01*
X117417850Y-69672200D01*
X118073804Y-69672200D01*
X118288522Y-69583261D01*
X118452861Y-69418923D01*
X118531387Y-69229344D01*
X132968921Y-69229344D01*
X133038379Y-69397445D01*
X133166879Y-69526169D01*
X133334858Y-69595920D01*
X133516744Y-69596079D01*
X133684845Y-69526621D01*
X133813569Y-69398121D01*
X133883320Y-69230142D01*
X133883479Y-69048256D01*
X133814021Y-68880155D01*
X133685521Y-68751431D01*
X133517542Y-68681680D01*
X133335656Y-68681521D01*
X133167555Y-68750979D01*
X133038831Y-68879479D01*
X132969080Y-69047458D01*
X132968921Y-69229344D01*
X118531387Y-69229344D01*
X118541800Y-69204205D01*
X118541800Y-68395850D01*
X118395750Y-68249800D01*
X117271800Y-68249800D01*
X116916200Y-68249800D01*
X115792250Y-68249800D01*
X115646200Y-68395850D01*
X115616946Y-68395850D01*
X115646200Y-68248783D01*
X115646200Y-67986143D01*
X119801022Y-67986143D01*
X119957287Y-68364334D01*
X120246384Y-68653936D01*
X120624301Y-68810861D01*
X121033503Y-68811218D01*
X121411694Y-68654953D01*
X121701296Y-68365856D01*
X121858221Y-67987939D01*
X121858222Y-67986143D01*
X126401022Y-67986143D01*
X126557287Y-68364334D01*
X126846384Y-68653936D01*
X127224301Y-68810861D01*
X127633503Y-68811218D01*
X128011694Y-68654953D01*
X128301296Y-68365856D01*
X128458221Y-67987939D01*
X128458268Y-67933944D01*
X130352721Y-67933944D01*
X130422179Y-68102045D01*
X130550679Y-68230769D01*
X130718658Y-68300520D01*
X130900544Y-68300679D01*
X131068645Y-68231221D01*
X131197369Y-68102721D01*
X131267120Y-67934742D01*
X131267279Y-67752856D01*
X131197821Y-67584755D01*
X131069321Y-67456031D01*
X130901342Y-67386280D01*
X130719456Y-67386121D01*
X130551355Y-67455579D01*
X130422631Y-67584079D01*
X130352880Y-67752058D01*
X130352721Y-67933944D01*
X128458268Y-67933944D01*
X128458578Y-67578737D01*
X128302313Y-67200546D01*
X128259442Y-67157600D01*
X137866722Y-67157600D01*
X137866722Y-69189600D01*
X137882662Y-69274314D01*
X137932728Y-69352118D01*
X138009120Y-69404315D01*
X138099800Y-69422678D01*
X140131800Y-69422678D01*
X140216514Y-69406738D01*
X140294318Y-69356672D01*
X140346515Y-69280280D01*
X140364878Y-69189600D01*
X140364878Y-68149217D01*
X140411200Y-68149217D01*
X140411200Y-68197983D01*
X140505940Y-68674271D01*
X140775735Y-69078048D01*
X141179512Y-69347843D01*
X141655800Y-69442583D01*
X142132088Y-69347843D01*
X142535865Y-69078048D01*
X142805660Y-68674271D01*
X142900400Y-68197983D01*
X142900400Y-68149217D01*
X142805660Y-67672929D01*
X142535865Y-67269152D01*
X142132088Y-66999357D01*
X141655800Y-66904617D01*
X141179512Y-66999357D01*
X140775735Y-67269152D01*
X140505940Y-67672929D01*
X140411200Y-68149217D01*
X140364878Y-68149217D01*
X140364878Y-67157600D01*
X140348938Y-67072886D01*
X140298872Y-66995082D01*
X140222480Y-66942885D01*
X140131800Y-66924522D01*
X138099800Y-66924522D01*
X138015086Y-66940462D01*
X137937282Y-66990528D01*
X137885085Y-67066920D01*
X137866722Y-67157600D01*
X128259442Y-67157600D01*
X128013216Y-66910944D01*
X127635299Y-66754019D01*
X127226097Y-66753662D01*
X126847906Y-66909927D01*
X126558304Y-67199024D01*
X126401379Y-67576941D01*
X126401022Y-67986143D01*
X121858222Y-67986143D01*
X121858578Y-67578737D01*
X121702313Y-67200546D01*
X121413216Y-66910944D01*
X121035299Y-66754019D01*
X120626097Y-66753662D01*
X120247906Y-66909927D01*
X119958304Y-67199024D01*
X119801379Y-67576941D01*
X119801022Y-67986143D01*
X115646200Y-67986143D01*
X115646200Y-67895217D01*
X115563061Y-67477250D01*
X115326302Y-67122915D01*
X115052244Y-66939795D01*
X115646200Y-66939795D01*
X115646200Y-67748150D01*
X115792250Y-67894200D01*
X116916200Y-67894200D01*
X116916200Y-66617850D01*
X117271800Y-66617850D01*
X117271800Y-67894200D01*
X118395750Y-67894200D01*
X118541800Y-67748150D01*
X118541800Y-66939795D01*
X118452861Y-66725077D01*
X118288522Y-66560739D01*
X118073804Y-66471800D01*
X117417850Y-66471800D01*
X117271800Y-66617850D01*
X116916200Y-66617850D01*
X116770150Y-66471800D01*
X116114196Y-66471800D01*
X115899478Y-66560739D01*
X115735139Y-66725077D01*
X115646200Y-66939795D01*
X115052244Y-66939795D01*
X114971967Y-66886156D01*
X114554000Y-66803017D01*
X114136033Y-66886156D01*
X113781698Y-67122915D01*
X113544939Y-67477250D01*
X113461800Y-67895217D01*
X113106200Y-67895217D01*
X113023061Y-67477250D01*
X112786302Y-67122915D01*
X112431967Y-66886156D01*
X112014000Y-66803017D01*
X111596033Y-66886156D01*
X111241698Y-67122915D01*
X111004939Y-67477250D01*
X110921800Y-67895217D01*
X99109600Y-67895217D01*
X99109600Y-66343600D01*
X159716400Y-66343600D01*
X159716400Y-120219400D01*
M02*
