M48
;DRILL file {KiCad 4.0.5} date Tuesday, June 20, 2017 'PMt' 07:53:26 PM
;FORMAT={-:-/ absolute / metric / decimal}
FMAT,2
METRIC,TZ
T1C0.254
T2C0.813
T3C1.016
T4C1.200
T5C3.200
%
G90
G05
M71
T1
X111.709Y-98.196
X112.484Y-97.701
X112.928Y-111.442
X113.259Y-83.922
X114.783Y-98.184
X115.799Y-80.112
X115.849Y-98.095
X116.327Y-75.27
X116.789Y-107.569
X117.119Y-115.786
X117.165Y-92.375
X117.17Y-101.798
X117.259Y-106.324
X117.861Y-107.193
X118.303Y-102.118
X118.313Y-79.807
X118.425Y-107.589
X118.755Y-104.125
X119.771Y-103.581
X120.406Y-111.11
X120.853Y-95.745
X121.387Y-74.955
X121.641Y-74.27
X121.788Y-107.706
X122.189Y-103.993
X122.682Y-95.961
X122.89Y-103.251
X122.936Y-76.962
X122.936Y-77.978
X122.936Y-78.867
X123.134Y-100.244
X123.311Y-107.537
X123.33Y-106.87
X123.38Y-106.21
X123.429Y-102.702
X123.952Y-76.962
X123.952Y-77.978
X123.952Y-78.867
X124.13Y-94.64
X124.739Y-85.923
X124.968Y-76.962
X124.968Y-77.978
X124.968Y-78.867
X125.227Y-93.543
X125.374Y-106.108
X125.781Y-81.509
X126.121Y-102.428
X126.568Y-92.481
X126.919Y-112.939
X126.959Y-90.358
X127.254Y-98.45
X127.488Y-111.333
X127.94Y-93.431
X128.077Y-94.082
X128.636Y-98.603
X128.689Y-100.901
X128.864Y-97.871
X128.905Y-101.473
X128.93Y-102.184
X129.753Y-89.799
X129.906Y-74.473
X130.81Y-67.843
X131.308Y-107.554
X132.832Y-107.168
X133.421Y-98.903
X133.426Y-69.139
X133.553Y-84.125
X133.772Y-98.298
X134.95Y-113.858
X135.585Y-67.869
X135.9Y-96.617
X136.21Y-95.89
X137.744Y-100.528
X138.11Y-101.422
X138.75Y-102.179
X139.365Y-102.931
X139.497Y-86.893
X141.084Y-81.724
X143.942Y-75.044
X145.613Y-112.989
X145.618Y-100.868
X145.74Y-106.589
X145.776Y-108.692
X145.776Y-110.846
T2
X118.262Y-70.866
X121.315Y-73.37
X123.17Y-72.07
X126.644Y-83.414
X129.845Y-70.307
X133.772Y-71.689
X138.684Y-80.955
X139.954Y-72.847
X140.106Y-71.374
X140.665Y-76.454
T3
X108.077Y-70.231
X108.077Y-72.771
X108.077Y-75.311
X108.077Y-77.851
X108.077Y-80.391
X108.077Y-82.931
X108.077Y-85.471
X108.077Y-88.011
X108.077Y-90.551
X108.077Y-93.091
X108.077Y-95.631
X108.077Y-98.171
X108.128Y-103.2
X108.128Y-105.74
X108.128Y-108.28
X108.128Y-110.82
X108.585Y-118.415
X111.125Y-118.415
X112.014Y-68.072
X113.665Y-118.415
X114.554Y-68.072
X116.205Y-118.415
X117.094Y-68.072
X120.117Y-118.415
X122.657Y-118.415
X125.197Y-118.415
X127.737Y-118.415
X130.277Y-118.415
X132.817Y-118.415
X136.576Y-118.415
X139.116Y-68.174
X139.116Y-118.415
X141.656Y-68.174
X141.656Y-118.415
X144.196Y-118.415
X146.736Y-118.415
X149.276Y-118.415
X150.368Y-70.485
X150.368Y-73.025
X150.368Y-75.565
X150.368Y-78.105
X150.368Y-80.645
X150.368Y-83.185
X150.368Y-85.725
X150.368Y-88.265
X150.368Y-90.805
X150.368Y-93.345
X150.368Y-95.885
X150.368Y-98.425
X150.368Y-102.083
X150.368Y-104.623
X150.368Y-107.163
X150.368Y-109.703
T4
X120.83Y-67.782
X127.43Y-67.782
T5
X102.235Y-71.12
X102.235Y-115.57
X156.21Y-71.12
X156.21Y-115.57
T0
M30
