G04 #@! TF.FileFunction,Legend,Bot*
%FSLAX46Y46*%
G04 Gerber Fmt 4.6, Leading zero omitted, Abs format (unit mm)*
G04 Created by KiCad (PCBNEW 4.0.5) date Tuesday, June 20, 2017 'PMt' 03:43:36 PM*
%MOMM*%
%LPD*%
G01*
G04 APERTURE LIST*
%ADD10C,0.100000*%
%ADD11C,0.150000*%
%ADD12C,0.300000*%
%ADD13C,3.327000*%
%ADD14R,1.377000X1.127000*%
%ADD15R,1.127000X1.377000*%
%ADD16R,1.854200X2.159000*%
%ADD17O,1.854200X2.159000*%
%ADD18R,2.159000X1.854200*%
%ADD19O,2.159000X1.854200*%
%ADD20C,1.727000*%
%ADD21R,2.159000X2.159000*%
%ADD22O,2.159000X2.159000*%
%ADD23R,1.427000X0.827000*%
%ADD24R,0.827000X1.427000*%
G04 APERTURE END LIST*
D10*
D11*
X144875095Y-70334667D02*
X144398904Y-70334667D01*
X144970333Y-70620381D02*
X144637000Y-69620381D01*
X144303666Y-70620381D01*
X143970333Y-69620381D02*
X143970333Y-70429905D01*
X143922714Y-70525143D01*
X143875095Y-70572762D01*
X143779857Y-70620381D01*
X143589380Y-70620381D01*
X143494142Y-70572762D01*
X143446523Y-70525143D01*
X143398904Y-70429905D01*
X143398904Y-69620381D01*
X143017952Y-69620381D02*
X142351285Y-70620381D01*
X142351285Y-69620381D02*
X143017952Y-70620381D01*
X145946524Y-72270381D02*
X145946524Y-71270381D01*
X145565571Y-71270381D01*
X145470333Y-71318000D01*
X145422714Y-71365619D01*
X145375095Y-71460857D01*
X145375095Y-71603714D01*
X145422714Y-71698952D01*
X145470333Y-71746571D01*
X145565571Y-71794190D01*
X145946524Y-71794190D01*
X144756048Y-71270381D02*
X144565571Y-71270381D01*
X144470333Y-71318000D01*
X144375095Y-71413238D01*
X144327476Y-71603714D01*
X144327476Y-71937048D01*
X144375095Y-72127524D01*
X144470333Y-72222762D01*
X144565571Y-72270381D01*
X144756048Y-72270381D01*
X144851286Y-72222762D01*
X144946524Y-72127524D01*
X144994143Y-71937048D01*
X144994143Y-71603714D01*
X144946524Y-71413238D01*
X144851286Y-71318000D01*
X144756048Y-71270381D01*
X143994143Y-71270381D02*
X143756048Y-72270381D01*
X143565571Y-71556095D01*
X143375095Y-72270381D01*
X143137000Y-71270381D01*
X142756048Y-71746571D02*
X142422714Y-71746571D01*
X142279857Y-72270381D02*
X142756048Y-72270381D01*
X142756048Y-71270381D01*
X142279857Y-71270381D01*
X141279857Y-72270381D02*
X141613191Y-71794190D01*
X141851286Y-72270381D02*
X141851286Y-71270381D01*
X141470333Y-71270381D01*
X141375095Y-71318000D01*
X141327476Y-71365619D01*
X141279857Y-71460857D01*
X141279857Y-71603714D01*
X141327476Y-71698952D01*
X141375095Y-71746571D01*
X141470333Y-71794190D01*
X141851286Y-71794190D01*
D12*
X142715142Y-91716714D02*
X142786571Y-91788143D01*
X143000857Y-91859571D01*
X143143714Y-91859571D01*
X143357999Y-91788143D01*
X143500857Y-91645286D01*
X143572285Y-91502429D01*
X143643714Y-91216714D01*
X143643714Y-91002429D01*
X143572285Y-90716714D01*
X143500857Y-90573857D01*
X143357999Y-90431000D01*
X143143714Y-90359571D01*
X143000857Y-90359571D01*
X142786571Y-90431000D01*
X142715142Y-90502429D01*
X141500857Y-91788143D02*
X141643714Y-91859571D01*
X141929428Y-91859571D01*
X142072285Y-91788143D01*
X142143714Y-91645286D01*
X142143714Y-91073857D01*
X142072285Y-90931000D01*
X141929428Y-90859571D01*
X141643714Y-90859571D01*
X141500857Y-90931000D01*
X141429428Y-91073857D01*
X141429428Y-91216714D01*
X142143714Y-91359571D01*
X140786571Y-90859571D02*
X140786571Y-91859571D01*
X140786571Y-91002429D02*
X140715143Y-90931000D01*
X140572285Y-90859571D01*
X140358000Y-90859571D01*
X140215143Y-90931000D01*
X140143714Y-91073857D01*
X140143714Y-91859571D01*
X139643714Y-90859571D02*
X139072285Y-90859571D01*
X139429428Y-90359571D02*
X139429428Y-91645286D01*
X139358000Y-91788143D01*
X139215142Y-91859571D01*
X139072285Y-91859571D01*
X138572285Y-91859571D02*
X138572285Y-90859571D01*
X138572285Y-91145286D02*
X138500857Y-91002429D01*
X138429428Y-90931000D01*
X138286571Y-90859571D01*
X138143714Y-90859571D01*
X137000857Y-91859571D02*
X137000857Y-91073857D01*
X137072286Y-90931000D01*
X137215143Y-90859571D01*
X137500857Y-90859571D01*
X137643714Y-90931000D01*
X137000857Y-91788143D02*
X137143714Y-91859571D01*
X137500857Y-91859571D01*
X137643714Y-91788143D01*
X137715143Y-91645286D01*
X137715143Y-91502429D01*
X137643714Y-91359571D01*
X137500857Y-91288143D01*
X137143714Y-91288143D01*
X137000857Y-91216714D01*
X136072285Y-91859571D02*
X136215143Y-91788143D01*
X136286571Y-91645286D01*
X136286571Y-90359571D01*
X133500857Y-91716714D02*
X133572286Y-91788143D01*
X133786572Y-91859571D01*
X133929429Y-91859571D01*
X134143714Y-91788143D01*
X134286572Y-91645286D01*
X134358000Y-91502429D01*
X134429429Y-91216714D01*
X134429429Y-91002429D01*
X134358000Y-90716714D01*
X134286572Y-90573857D01*
X134143714Y-90431000D01*
X133929429Y-90359571D01*
X133786572Y-90359571D01*
X133572286Y-90431000D01*
X133500857Y-90502429D01*
X132643714Y-91859571D02*
X132786572Y-91788143D01*
X132858000Y-91716714D01*
X132929429Y-91573857D01*
X132929429Y-91145286D01*
X132858000Y-91002429D01*
X132786572Y-90931000D01*
X132643714Y-90859571D01*
X132429429Y-90859571D01*
X132286572Y-90931000D01*
X132215143Y-91002429D01*
X132143714Y-91145286D01*
X132143714Y-91573857D01*
X132215143Y-91716714D01*
X132286572Y-91788143D01*
X132429429Y-91859571D01*
X132643714Y-91859571D01*
X131500857Y-91859571D02*
X131500857Y-90859571D01*
X131500857Y-91002429D02*
X131429429Y-90931000D01*
X131286571Y-90859571D01*
X131072286Y-90859571D01*
X130929429Y-90931000D01*
X130858000Y-91073857D01*
X130858000Y-91859571D01*
X130858000Y-91073857D02*
X130786571Y-90931000D01*
X130643714Y-90859571D01*
X130429429Y-90859571D01*
X130286571Y-90931000D01*
X130215143Y-91073857D01*
X130215143Y-91859571D01*
X129500857Y-91859571D02*
X129500857Y-90859571D01*
X129500857Y-91002429D02*
X129429429Y-90931000D01*
X129286571Y-90859571D01*
X129072286Y-90859571D01*
X128929429Y-90931000D01*
X128858000Y-91073857D01*
X128858000Y-91859571D01*
X128858000Y-91073857D02*
X128786571Y-90931000D01*
X128643714Y-90859571D01*
X128429429Y-90859571D01*
X128286571Y-90931000D01*
X128215143Y-91073857D01*
X128215143Y-91859571D01*
X126858000Y-91859571D02*
X126858000Y-91073857D01*
X126929429Y-90931000D01*
X127072286Y-90859571D01*
X127358000Y-90859571D01*
X127500857Y-90931000D01*
X126858000Y-91788143D02*
X127000857Y-91859571D01*
X127358000Y-91859571D01*
X127500857Y-91788143D01*
X127572286Y-91645286D01*
X127572286Y-91502429D01*
X127500857Y-91359571D01*
X127358000Y-91288143D01*
X127000857Y-91288143D01*
X126858000Y-91216714D01*
X126143714Y-90859571D02*
X126143714Y-91859571D01*
X126143714Y-91002429D02*
X126072286Y-90931000D01*
X125929428Y-90859571D01*
X125715143Y-90859571D01*
X125572286Y-90931000D01*
X125500857Y-91073857D01*
X125500857Y-91859571D01*
X124143714Y-91859571D02*
X124143714Y-90359571D01*
X124143714Y-91788143D02*
X124286571Y-91859571D01*
X124572285Y-91859571D01*
X124715143Y-91788143D01*
X124786571Y-91716714D01*
X124858000Y-91573857D01*
X124858000Y-91145286D01*
X124786571Y-91002429D01*
X124715143Y-90931000D01*
X124572285Y-90859571D01*
X124286571Y-90859571D01*
X124143714Y-90931000D01*
X139000857Y-93981000D02*
X138286571Y-93981000D01*
X139143714Y-94409571D02*
X138643714Y-92909571D01*
X138143714Y-94409571D01*
X137429428Y-94409571D02*
X137572286Y-94338143D01*
X137643714Y-94195286D01*
X137643714Y-92909571D01*
X136215143Y-94409571D02*
X136215143Y-93623857D01*
X136286572Y-93481000D01*
X136429429Y-93409571D01*
X136715143Y-93409571D01*
X136858000Y-93481000D01*
X136215143Y-94338143D02*
X136358000Y-94409571D01*
X136715143Y-94409571D01*
X136858000Y-94338143D01*
X136929429Y-94195286D01*
X136929429Y-94052429D01*
X136858000Y-93909571D01*
X136715143Y-93838143D01*
X136358000Y-93838143D01*
X136215143Y-93766714D01*
X135500857Y-93409571D02*
X135500857Y-94409571D01*
X135500857Y-93552429D02*
X135429429Y-93481000D01*
X135286571Y-93409571D01*
X135072286Y-93409571D01*
X134929429Y-93481000D01*
X134858000Y-93623857D01*
X134858000Y-94409571D01*
X132500857Y-93623857D02*
X133000857Y-93623857D01*
X133000857Y-94409571D02*
X133000857Y-92909571D01*
X132286571Y-92909571D01*
X131500857Y-94409571D02*
X131643715Y-94338143D01*
X131715143Y-94266714D01*
X131786572Y-94123857D01*
X131786572Y-93695286D01*
X131715143Y-93552429D01*
X131643715Y-93481000D01*
X131500857Y-93409571D01*
X131286572Y-93409571D01*
X131143715Y-93481000D01*
X131072286Y-93552429D01*
X131000857Y-93695286D01*
X131000857Y-94123857D01*
X131072286Y-94266714D01*
X131143715Y-94338143D01*
X131286572Y-94409571D01*
X131500857Y-94409571D01*
X130358000Y-94409571D02*
X130358000Y-93409571D01*
X130358000Y-93695286D02*
X130286572Y-93552429D01*
X130215143Y-93481000D01*
X130072286Y-93409571D01*
X129929429Y-93409571D01*
X128786572Y-94409571D02*
X128786572Y-92909571D01*
X128786572Y-94338143D02*
X128929429Y-94409571D01*
X129215143Y-94409571D01*
X129358001Y-94338143D01*
X129429429Y-94266714D01*
X129500858Y-94123857D01*
X129500858Y-93695286D01*
X129429429Y-93552429D01*
X129358001Y-93481000D01*
X129215143Y-93409571D01*
X128929429Y-93409571D01*
X128786572Y-93481000D01*
D11*
X137104381Y-113728667D02*
X136104381Y-113728667D01*
X136104381Y-114109620D01*
X136152000Y-114204858D01*
X136199619Y-114252477D01*
X136294857Y-114300096D01*
X136437714Y-114300096D01*
X136532952Y-114252477D01*
X136580571Y-114204858D01*
X136628190Y-114109620D01*
X136628190Y-113728667D01*
X136104381Y-114633429D02*
X137104381Y-114871524D01*
X136390095Y-115062001D01*
X137104381Y-115252477D01*
X136104381Y-115490572D01*
X137104381Y-116442953D02*
X136628190Y-116109619D01*
X137104381Y-115871524D02*
X136104381Y-115871524D01*
X136104381Y-116252477D01*
X136152000Y-116347715D01*
X136199619Y-116395334D01*
X136294857Y-116442953D01*
X136437714Y-116442953D01*
X136532952Y-116395334D01*
X136580571Y-116347715D01*
X136628190Y-116252477D01*
X136628190Y-115871524D01*
X139596762Y-111784095D02*
X139644381Y-111926952D01*
X139644381Y-112165048D01*
X139596762Y-112260286D01*
X139549143Y-112307905D01*
X139453905Y-112355524D01*
X139358667Y-112355524D01*
X139263429Y-112307905D01*
X139215810Y-112260286D01*
X139168190Y-112165048D01*
X139120571Y-111974571D01*
X139072952Y-111879333D01*
X139025333Y-111831714D01*
X138930095Y-111784095D01*
X138834857Y-111784095D01*
X138739619Y-111831714D01*
X138692000Y-111879333D01*
X138644381Y-111974571D01*
X138644381Y-112212667D01*
X138692000Y-112355524D01*
X138644381Y-112688857D02*
X139644381Y-112926952D01*
X138930095Y-113117429D01*
X139644381Y-113307905D01*
X138644381Y-113546000D01*
X139549143Y-114498381D02*
X139596762Y-114450762D01*
X139644381Y-114307905D01*
X139644381Y-114212667D01*
X139596762Y-114069809D01*
X139501524Y-113974571D01*
X139406286Y-113926952D01*
X139215810Y-113879333D01*
X139072952Y-113879333D01*
X138882476Y-113926952D01*
X138787238Y-113974571D01*
X138692000Y-114069809D01*
X138644381Y-114212667D01*
X138644381Y-114307905D01*
X138692000Y-114450762D01*
X138739619Y-114498381D01*
X139644381Y-115403143D02*
X139644381Y-114926952D01*
X138644381Y-114926952D01*
X139644381Y-115736476D02*
X138644381Y-115736476D01*
X139644381Y-116307905D02*
X139072952Y-115879333D01*
X138644381Y-116307905D02*
X139215810Y-115736476D01*
X147264381Y-112911143D02*
X146264381Y-112911143D01*
X147264381Y-113482572D01*
X146264381Y-113482572D01*
X147264381Y-114530191D02*
X146788190Y-114196857D01*
X147264381Y-113958762D02*
X146264381Y-113958762D01*
X146264381Y-114339715D01*
X146312000Y-114434953D01*
X146359619Y-114482572D01*
X146454857Y-114530191D01*
X146597714Y-114530191D01*
X146692952Y-114482572D01*
X146740571Y-114434953D01*
X146788190Y-114339715D01*
X146788190Y-113958762D01*
X147216762Y-114911143D02*
X147264381Y-115054000D01*
X147264381Y-115292096D01*
X147216762Y-115387334D01*
X147169143Y-115434953D01*
X147073905Y-115482572D01*
X146978667Y-115482572D01*
X146883429Y-115434953D01*
X146835810Y-115387334D01*
X146788190Y-115292096D01*
X146740571Y-115101619D01*
X146692952Y-115006381D01*
X146645333Y-114958762D01*
X146550095Y-114911143D01*
X146454857Y-114911143D01*
X146359619Y-114958762D01*
X146312000Y-115006381D01*
X146264381Y-115101619D01*
X146264381Y-115339715D01*
X146312000Y-115482572D01*
X146264381Y-115768286D02*
X146264381Y-116339715D01*
X147264381Y-116054000D02*
X146264381Y-116054000D01*
X144676762Y-112180953D02*
X144724381Y-112323810D01*
X144724381Y-112561906D01*
X144676762Y-112657144D01*
X144629143Y-112704763D01*
X144533905Y-112752382D01*
X144438667Y-112752382D01*
X144343429Y-112704763D01*
X144295810Y-112657144D01*
X144248190Y-112561906D01*
X144200571Y-112371429D01*
X144152952Y-112276191D01*
X144105333Y-112228572D01*
X144010095Y-112180953D01*
X143914857Y-112180953D01*
X143819619Y-112228572D01*
X143772000Y-112276191D01*
X143724381Y-112371429D01*
X143724381Y-112609525D01*
X143772000Y-112752382D01*
X143724381Y-113085715D02*
X144724381Y-113323810D01*
X144010095Y-113514287D01*
X144724381Y-113704763D01*
X143724381Y-113942858D01*
X144724381Y-114323810D02*
X143724381Y-114323810D01*
X143724381Y-114561905D01*
X143772000Y-114704763D01*
X143867238Y-114800001D01*
X143962476Y-114847620D01*
X144152952Y-114895239D01*
X144295810Y-114895239D01*
X144486286Y-114847620D01*
X144581524Y-114800001D01*
X144676762Y-114704763D01*
X144724381Y-114561905D01*
X144724381Y-114323810D01*
X144724381Y-115323810D02*
X143724381Y-115323810D01*
X143724381Y-115990476D02*
X143724381Y-116180953D01*
X143772000Y-116276191D01*
X143867238Y-116371429D01*
X144057714Y-116419048D01*
X144391048Y-116419048D01*
X144581524Y-116371429D01*
X144676762Y-116276191D01*
X144724381Y-116180953D01*
X144724381Y-115990476D01*
X144676762Y-115895238D01*
X144581524Y-115800000D01*
X144391048Y-115752381D01*
X144057714Y-115752381D01*
X143867238Y-115800000D01*
X143772000Y-115895238D01*
X143724381Y-115990476D01*
X141232000Y-114300096D02*
X141184381Y-114204858D01*
X141184381Y-114062001D01*
X141232000Y-113919143D01*
X141327238Y-113823905D01*
X141422476Y-113776286D01*
X141612952Y-113728667D01*
X141755810Y-113728667D01*
X141946286Y-113776286D01*
X142041524Y-113823905D01*
X142136762Y-113919143D01*
X142184381Y-114062001D01*
X142184381Y-114157239D01*
X142136762Y-114300096D01*
X142089143Y-114347715D01*
X141755810Y-114347715D01*
X141755810Y-114157239D01*
X142184381Y-114776286D02*
X141184381Y-114776286D01*
X142184381Y-115347715D01*
X141184381Y-115347715D01*
X142184381Y-115823905D02*
X141184381Y-115823905D01*
X141184381Y-116062000D01*
X141232000Y-116204858D01*
X141327238Y-116300096D01*
X141422476Y-116347715D01*
X141612952Y-116395334D01*
X141755810Y-116395334D01*
X141946286Y-116347715D01*
X142041524Y-116300096D01*
X142136762Y-116204858D01*
X142184381Y-116062000D01*
X142184381Y-115823905D01*
X148145143Y-110148667D02*
X147668952Y-110148667D01*
X148240381Y-110434381D02*
X147907048Y-109434381D01*
X147573714Y-110434381D01*
X147240381Y-110434381D02*
X147240381Y-109434381D01*
X147002286Y-109434381D01*
X146859428Y-109482000D01*
X146764190Y-109577238D01*
X146716571Y-109672476D01*
X146668952Y-109862952D01*
X146668952Y-110005810D01*
X146716571Y-110196286D01*
X146764190Y-110291524D01*
X146859428Y-110386762D01*
X147002286Y-110434381D01*
X147240381Y-110434381D01*
X145668952Y-110339143D02*
X145716571Y-110386762D01*
X145859428Y-110434381D01*
X145954666Y-110434381D01*
X146097524Y-110386762D01*
X146192762Y-110291524D01*
X146240381Y-110196286D01*
X146288000Y-110005810D01*
X146288000Y-109862952D01*
X146240381Y-109672476D01*
X146192762Y-109577238D01*
X146097524Y-109482000D01*
X145954666Y-109434381D01*
X145859428Y-109434381D01*
X145716571Y-109482000D01*
X145668952Y-109529619D01*
X145478476Y-110529619D02*
X144716571Y-110529619D01*
X144478476Y-110434381D02*
X144478476Y-109434381D01*
X144002286Y-110434381D02*
X144002286Y-109434381D01*
X143430857Y-110434381D01*
X143430857Y-109434381D01*
X142430857Y-110434381D02*
X143002286Y-110434381D01*
X142716572Y-110434381D02*
X142716572Y-109434381D01*
X142811810Y-109577238D01*
X142907048Y-109672476D01*
X143002286Y-109720095D01*
X148145143Y-107354667D02*
X147668952Y-107354667D01*
X148240381Y-107640381D02*
X147907048Y-106640381D01*
X147573714Y-107640381D01*
X147240381Y-107640381D02*
X147240381Y-106640381D01*
X147002286Y-106640381D01*
X146859428Y-106688000D01*
X146764190Y-106783238D01*
X146716571Y-106878476D01*
X146668952Y-107068952D01*
X146668952Y-107211810D01*
X146716571Y-107402286D01*
X146764190Y-107497524D01*
X146859428Y-107592762D01*
X147002286Y-107640381D01*
X147240381Y-107640381D01*
X145668952Y-107545143D02*
X145716571Y-107592762D01*
X145859428Y-107640381D01*
X145954666Y-107640381D01*
X146097524Y-107592762D01*
X146192762Y-107497524D01*
X146240381Y-107402286D01*
X146288000Y-107211810D01*
X146288000Y-107068952D01*
X146240381Y-106878476D01*
X146192762Y-106783238D01*
X146097524Y-106688000D01*
X145954666Y-106640381D01*
X145859428Y-106640381D01*
X145716571Y-106688000D01*
X145668952Y-106735619D01*
X145478476Y-107735619D02*
X144716571Y-107735619D01*
X144478476Y-107640381D02*
X144478476Y-106640381D01*
X144002286Y-107640381D02*
X144002286Y-106640381D01*
X143430857Y-107640381D01*
X143430857Y-106640381D01*
X142811810Y-107068952D02*
X142907048Y-107021333D01*
X142954667Y-106973714D01*
X143002286Y-106878476D01*
X143002286Y-106830857D01*
X142954667Y-106735619D01*
X142907048Y-106688000D01*
X142811810Y-106640381D01*
X142621333Y-106640381D01*
X142526095Y-106688000D01*
X142478476Y-106735619D01*
X142430857Y-106830857D01*
X142430857Y-106878476D01*
X142478476Y-106973714D01*
X142526095Y-107021333D01*
X142621333Y-107068952D01*
X142811810Y-107068952D01*
X142907048Y-107116571D01*
X142954667Y-107164190D01*
X143002286Y-107259429D01*
X143002286Y-107449905D01*
X142954667Y-107545143D01*
X142907048Y-107592762D01*
X142811810Y-107640381D01*
X142621333Y-107640381D01*
X142526095Y-107592762D01*
X142478476Y-107545143D01*
X142430857Y-107449905D01*
X142430857Y-107259429D01*
X142478476Y-107164190D01*
X142526095Y-107116571D01*
X142621333Y-107068952D01*
X148145143Y-104814667D02*
X147668952Y-104814667D01*
X148240381Y-105100381D02*
X147907048Y-104100381D01*
X147573714Y-105100381D01*
X147240381Y-105100381D02*
X147240381Y-104100381D01*
X147002286Y-104100381D01*
X146859428Y-104148000D01*
X146764190Y-104243238D01*
X146716571Y-104338476D01*
X146668952Y-104528952D01*
X146668952Y-104671810D01*
X146716571Y-104862286D01*
X146764190Y-104957524D01*
X146859428Y-105052762D01*
X147002286Y-105100381D01*
X147240381Y-105100381D01*
X145668952Y-105005143D02*
X145716571Y-105052762D01*
X145859428Y-105100381D01*
X145954666Y-105100381D01*
X146097524Y-105052762D01*
X146192762Y-104957524D01*
X146240381Y-104862286D01*
X146288000Y-104671810D01*
X146288000Y-104528952D01*
X146240381Y-104338476D01*
X146192762Y-104243238D01*
X146097524Y-104148000D01*
X145954666Y-104100381D01*
X145859428Y-104100381D01*
X145716571Y-104148000D01*
X145668952Y-104195619D01*
X145478476Y-105195619D02*
X144716571Y-105195619D01*
X144478476Y-105100381D02*
X144478476Y-104100381D01*
X144002286Y-105100381D02*
X144002286Y-104100381D01*
X143430857Y-105100381D01*
X143430857Y-104100381D01*
X142907048Y-105100381D02*
X142716572Y-105100381D01*
X142621333Y-105052762D01*
X142573714Y-105005143D01*
X142478476Y-104862286D01*
X142430857Y-104671810D01*
X142430857Y-104290857D01*
X142478476Y-104195619D01*
X142526095Y-104148000D01*
X142621333Y-104100381D01*
X142811810Y-104100381D01*
X142907048Y-104148000D01*
X142954667Y-104195619D01*
X143002286Y-104290857D01*
X143002286Y-104528952D01*
X142954667Y-104624190D01*
X142907048Y-104671810D01*
X142811810Y-104719429D01*
X142621333Y-104719429D01*
X142526095Y-104671810D01*
X142478476Y-104624190D01*
X142430857Y-104528952D01*
X147573904Y-101608000D02*
X147669142Y-101560381D01*
X147811999Y-101560381D01*
X147954857Y-101608000D01*
X148050095Y-101703238D01*
X148097714Y-101798476D01*
X148145333Y-101988952D01*
X148145333Y-102131810D01*
X148097714Y-102322286D01*
X148050095Y-102417524D01*
X147954857Y-102512762D01*
X147811999Y-102560381D01*
X147716761Y-102560381D01*
X147573904Y-102512762D01*
X147526285Y-102465143D01*
X147526285Y-102131810D01*
X147716761Y-102131810D01*
X147097714Y-102560381D02*
X147097714Y-101560381D01*
X146526285Y-102560381D01*
X146526285Y-101560381D01*
X146050095Y-102560381D02*
X146050095Y-101560381D01*
X145812000Y-101560381D01*
X145669142Y-101608000D01*
X145573904Y-101703238D01*
X145526285Y-101798476D01*
X145478666Y-101988952D01*
X145478666Y-102131810D01*
X145526285Y-102322286D01*
X145573904Y-102417524D01*
X145669142Y-102512762D01*
X145812000Y-102560381D01*
X146050095Y-102560381D01*
X128214381Y-113236572D02*
X127214381Y-113236572D01*
X127928667Y-113569906D01*
X127214381Y-113903239D01*
X128214381Y-113903239D01*
X127214381Y-114569905D02*
X127214381Y-114760382D01*
X127262000Y-114855620D01*
X127357238Y-114950858D01*
X127547714Y-114998477D01*
X127881048Y-114998477D01*
X128071524Y-114950858D01*
X128166762Y-114855620D01*
X128214381Y-114760382D01*
X128214381Y-114569905D01*
X128166762Y-114474667D01*
X128071524Y-114379429D01*
X127881048Y-114331810D01*
X127547714Y-114331810D01*
X127357238Y-114379429D01*
X127262000Y-114474667D01*
X127214381Y-114569905D01*
X128166762Y-115379429D02*
X128214381Y-115522286D01*
X128214381Y-115760382D01*
X128166762Y-115855620D01*
X128119143Y-115903239D01*
X128023905Y-115950858D01*
X127928667Y-115950858D01*
X127833429Y-115903239D01*
X127785810Y-115855620D01*
X127738190Y-115760382D01*
X127690571Y-115569905D01*
X127642952Y-115474667D01*
X127595333Y-115427048D01*
X127500095Y-115379429D01*
X127404857Y-115379429D01*
X127309619Y-115427048D01*
X127262000Y-115474667D01*
X127214381Y-115569905D01*
X127214381Y-115808001D01*
X127262000Y-115950858D01*
X128214381Y-116379429D02*
X127214381Y-116379429D01*
X125674381Y-113236572D02*
X124674381Y-113236572D01*
X125388667Y-113569906D01*
X124674381Y-113903239D01*
X125674381Y-113903239D01*
X125674381Y-114379429D02*
X124674381Y-114379429D01*
X125626762Y-114808000D02*
X125674381Y-114950857D01*
X125674381Y-115188953D01*
X125626762Y-115284191D01*
X125579143Y-115331810D01*
X125483905Y-115379429D01*
X125388667Y-115379429D01*
X125293429Y-115331810D01*
X125245810Y-115284191D01*
X125198190Y-115188953D01*
X125150571Y-114998476D01*
X125102952Y-114903238D01*
X125055333Y-114855619D01*
X124960095Y-114808000D01*
X124864857Y-114808000D01*
X124769619Y-114855619D01*
X124722000Y-114903238D01*
X124674381Y-114998476D01*
X124674381Y-115236572D01*
X124722000Y-115379429D01*
X124674381Y-115998476D02*
X124674381Y-116188953D01*
X124722000Y-116284191D01*
X124817238Y-116379429D01*
X125007714Y-116427048D01*
X125341048Y-116427048D01*
X125531524Y-116379429D01*
X125626762Y-116284191D01*
X125674381Y-116188953D01*
X125674381Y-115998476D01*
X125626762Y-115903238D01*
X125531524Y-115808000D01*
X125341048Y-115760381D01*
X125007714Y-115760381D01*
X124817238Y-115808000D01*
X124722000Y-115903238D01*
X124674381Y-115998476D01*
X120594381Y-113823905D02*
X119594381Y-113823905D01*
X120594381Y-114395334D01*
X119594381Y-114395334D01*
X120546762Y-114823905D02*
X120594381Y-114966762D01*
X120594381Y-115204858D01*
X120546762Y-115300096D01*
X120499143Y-115347715D01*
X120403905Y-115395334D01*
X120308667Y-115395334D01*
X120213429Y-115347715D01*
X120165810Y-115300096D01*
X120118190Y-115204858D01*
X120070571Y-115014381D01*
X120022952Y-114919143D01*
X119975333Y-114871524D01*
X119880095Y-114823905D01*
X119784857Y-114823905D01*
X119689619Y-114871524D01*
X119642000Y-114919143D01*
X119594381Y-115014381D01*
X119594381Y-115252477D01*
X119642000Y-115395334D01*
X120546762Y-115776286D02*
X120594381Y-115919143D01*
X120594381Y-116157239D01*
X120546762Y-116252477D01*
X120499143Y-116300096D01*
X120403905Y-116347715D01*
X120308667Y-116347715D01*
X120213429Y-116300096D01*
X120165810Y-116252477D01*
X120118190Y-116157239D01*
X120070571Y-115966762D01*
X120022952Y-115871524D01*
X119975333Y-115823905D01*
X119880095Y-115776286D01*
X119784857Y-115776286D01*
X119689619Y-115823905D01*
X119642000Y-115871524D01*
X119594381Y-115966762D01*
X119594381Y-116204858D01*
X119642000Y-116347715D01*
X123340762Y-113776286D02*
X123388381Y-113919143D01*
X123388381Y-114157239D01*
X123340762Y-114252477D01*
X123293143Y-114300096D01*
X123197905Y-114347715D01*
X123102667Y-114347715D01*
X123007429Y-114300096D01*
X122959810Y-114252477D01*
X122912190Y-114157239D01*
X122864571Y-113966762D01*
X122816952Y-113871524D01*
X122769333Y-113823905D01*
X122674095Y-113776286D01*
X122578857Y-113776286D01*
X122483619Y-113823905D01*
X122436000Y-113871524D01*
X122388381Y-113966762D01*
X122388381Y-114204858D01*
X122436000Y-114347715D01*
X123293143Y-115347715D02*
X123340762Y-115300096D01*
X123388381Y-115157239D01*
X123388381Y-115062001D01*
X123340762Y-114919143D01*
X123245524Y-114823905D01*
X123150286Y-114776286D01*
X122959810Y-114728667D01*
X122816952Y-114728667D01*
X122626476Y-114776286D01*
X122531238Y-114823905D01*
X122436000Y-114919143D01*
X122388381Y-115062001D01*
X122388381Y-115157239D01*
X122436000Y-115300096D01*
X122483619Y-115347715D01*
X123388381Y-115776286D02*
X122388381Y-115776286D01*
X123388381Y-116347715D02*
X122816952Y-115919143D01*
X122388381Y-116347715D02*
X122959810Y-115776286D01*
X132342000Y-114300096D02*
X132294381Y-114204858D01*
X132294381Y-114062001D01*
X132342000Y-113919143D01*
X132437238Y-113823905D01*
X132532476Y-113776286D01*
X132722952Y-113728667D01*
X132865810Y-113728667D01*
X133056286Y-113776286D01*
X133151524Y-113823905D01*
X133246762Y-113919143D01*
X133294381Y-114062001D01*
X133294381Y-114157239D01*
X133246762Y-114300096D01*
X133199143Y-114347715D01*
X132865810Y-114347715D01*
X132865810Y-114157239D01*
X133294381Y-114776286D02*
X132294381Y-114776286D01*
X133294381Y-115347715D01*
X132294381Y-115347715D01*
X133294381Y-115823905D02*
X132294381Y-115823905D01*
X132294381Y-116062000D01*
X132342000Y-116204858D01*
X132437238Y-116300096D01*
X132532476Y-116347715D01*
X132722952Y-116395334D01*
X132865810Y-116395334D01*
X133056286Y-116347715D01*
X133151524Y-116300096D01*
X133246762Y-116204858D01*
X133294381Y-116062000D01*
X133294381Y-115823905D01*
X130754381Y-113728667D02*
X129754381Y-113728667D01*
X129754381Y-114109620D01*
X129802000Y-114204858D01*
X129849619Y-114252477D01*
X129944857Y-114300096D01*
X130087714Y-114300096D01*
X130182952Y-114252477D01*
X130230571Y-114204858D01*
X130278190Y-114109620D01*
X130278190Y-113728667D01*
X129754381Y-114633429D02*
X130754381Y-114871524D01*
X130040095Y-115062001D01*
X130754381Y-115252477D01*
X129754381Y-115490572D01*
X130754381Y-116442953D02*
X130278190Y-116109619D01*
X130754381Y-115871524D02*
X129754381Y-115871524D01*
X129754381Y-116252477D01*
X129802000Y-116347715D01*
X129849619Y-116395334D01*
X129944857Y-116442953D01*
X130087714Y-116442953D01*
X130182952Y-116395334D01*
X130230571Y-116347715D01*
X130278190Y-116252477D01*
X130278190Y-115871524D01*
X146367333Y-68778381D02*
X146367333Y-67778381D01*
X145986380Y-67778381D01*
X145891142Y-67826000D01*
X145843523Y-67873619D01*
X145795904Y-67968857D01*
X145795904Y-68111714D01*
X145843523Y-68206952D01*
X145891142Y-68254571D01*
X145986380Y-68302190D01*
X146367333Y-68302190D01*
X145462571Y-67778381D02*
X145224476Y-68778381D01*
X145033999Y-68064095D01*
X144843523Y-68778381D01*
X144605428Y-67778381D01*
X143653047Y-68778381D02*
X143986381Y-68302190D01*
X144224476Y-68778381D02*
X144224476Y-67778381D01*
X143843523Y-67778381D01*
X143748285Y-67826000D01*
X143700666Y-67873619D01*
X143653047Y-67968857D01*
X143653047Y-68111714D01*
X143700666Y-68206952D01*
X143748285Y-68254571D01*
X143843523Y-68302190D01*
X144224476Y-68302190D01*
X135128096Y-70096000D02*
X135032858Y-70143619D01*
X134890001Y-70143619D01*
X134747143Y-70096000D01*
X134651905Y-70000762D01*
X134604286Y-69905524D01*
X134556667Y-69715048D01*
X134556667Y-69572190D01*
X134604286Y-69381714D01*
X134651905Y-69286476D01*
X134747143Y-69191238D01*
X134890001Y-69143619D01*
X134985239Y-69143619D01*
X135128096Y-69191238D01*
X135175715Y-69238857D01*
X135175715Y-69572190D01*
X134985239Y-69572190D01*
X135604286Y-69143619D02*
X135604286Y-70143619D01*
X136175715Y-69143619D01*
X136175715Y-70143619D01*
X136651905Y-69143619D02*
X136651905Y-70143619D01*
X136890000Y-70143619D01*
X137032858Y-70096000D01*
X137128096Y-70000762D01*
X137175715Y-69905524D01*
X137223334Y-69715048D01*
X137223334Y-69572190D01*
X137175715Y-69381714D01*
X137128096Y-69286476D01*
X137032858Y-69191238D01*
X136890000Y-69143619D01*
X136651905Y-69143619D01*
X114482571Y-70532858D02*
X114530190Y-70675715D01*
X114577810Y-70723334D01*
X114673048Y-70770953D01*
X114815905Y-70770953D01*
X114911143Y-70723334D01*
X114958762Y-70675715D01*
X115006381Y-70580477D01*
X115006381Y-70199524D01*
X114006381Y-70199524D01*
X114006381Y-70532858D01*
X114054000Y-70628096D01*
X114101619Y-70675715D01*
X114196857Y-70723334D01*
X114292095Y-70723334D01*
X114387333Y-70675715D01*
X114434952Y-70628096D01*
X114482571Y-70532858D01*
X114482571Y-70199524D01*
X114006381Y-71390000D02*
X114006381Y-71580477D01*
X114054000Y-71675715D01*
X114149238Y-71770953D01*
X114339714Y-71818572D01*
X114673048Y-71818572D01*
X114863524Y-71770953D01*
X114958762Y-71675715D01*
X115006381Y-71580477D01*
X115006381Y-71390000D01*
X114958762Y-71294762D01*
X114863524Y-71199524D01*
X114673048Y-71151905D01*
X114339714Y-71151905D01*
X114149238Y-71199524D01*
X114054000Y-71294762D01*
X114006381Y-71390000D01*
X114006381Y-72437619D02*
X114006381Y-72628096D01*
X114054000Y-72723334D01*
X114149238Y-72818572D01*
X114339714Y-72866191D01*
X114673048Y-72866191D01*
X114863524Y-72818572D01*
X114958762Y-72723334D01*
X115006381Y-72628096D01*
X115006381Y-72437619D01*
X114958762Y-72342381D01*
X114863524Y-72247143D01*
X114673048Y-72199524D01*
X114339714Y-72199524D01*
X114149238Y-72247143D01*
X114054000Y-72342381D01*
X114006381Y-72437619D01*
X114006381Y-73151905D02*
X114006381Y-73723334D01*
X115006381Y-73437619D02*
X114006381Y-73437619D01*
X115006381Y-74056667D02*
X114006381Y-74056667D01*
X114006381Y-74437620D01*
X114054000Y-74532858D01*
X114101619Y-74580477D01*
X114196857Y-74628096D01*
X114339714Y-74628096D01*
X114434952Y-74580477D01*
X114482571Y-74532858D01*
X114530190Y-74437620D01*
X114530190Y-74056667D01*
X117546381Y-70294667D02*
X116546381Y-70294667D01*
X116546381Y-70675620D01*
X116594000Y-70770858D01*
X116641619Y-70818477D01*
X116736857Y-70866096D01*
X116879714Y-70866096D01*
X116974952Y-70818477D01*
X117022571Y-70770858D01*
X117070190Y-70675620D01*
X117070190Y-70294667D01*
X116546381Y-71199429D02*
X117546381Y-71437524D01*
X116832095Y-71628001D01*
X117546381Y-71818477D01*
X116546381Y-72056572D01*
X117546381Y-73008953D02*
X117070190Y-72675619D01*
X117546381Y-72437524D02*
X116546381Y-72437524D01*
X116546381Y-72818477D01*
X116594000Y-72913715D01*
X116641619Y-72961334D01*
X116736857Y-73008953D01*
X116879714Y-73008953D01*
X116974952Y-72961334D01*
X117022571Y-72913715D01*
X117070190Y-72818477D01*
X117070190Y-72437524D01*
X111514000Y-70866096D02*
X111466381Y-70770858D01*
X111466381Y-70628001D01*
X111514000Y-70485143D01*
X111609238Y-70389905D01*
X111704476Y-70342286D01*
X111894952Y-70294667D01*
X112037810Y-70294667D01*
X112228286Y-70342286D01*
X112323524Y-70389905D01*
X112418762Y-70485143D01*
X112466381Y-70628001D01*
X112466381Y-70723239D01*
X112418762Y-70866096D01*
X112371143Y-70913715D01*
X112037810Y-70913715D01*
X112037810Y-70723239D01*
X112466381Y-71342286D02*
X111466381Y-71342286D01*
X112466381Y-71913715D01*
X111466381Y-71913715D01*
X112466381Y-72389905D02*
X111466381Y-72389905D01*
X111466381Y-72628000D01*
X111514000Y-72770858D01*
X111609238Y-72866096D01*
X111704476Y-72913715D01*
X111894952Y-72961334D01*
X112037810Y-72961334D01*
X112228286Y-72913715D01*
X112323524Y-72866096D01*
X112418762Y-72770858D01*
X112466381Y-72628000D01*
X112466381Y-72389905D01*
X116736762Y-113847714D02*
X116784381Y-113990571D01*
X116784381Y-114228667D01*
X116736762Y-114323905D01*
X116689143Y-114371524D01*
X116593905Y-114419143D01*
X116498667Y-114419143D01*
X116403429Y-114371524D01*
X116355810Y-114323905D01*
X116308190Y-114228667D01*
X116260571Y-114038190D01*
X116212952Y-113942952D01*
X116165333Y-113895333D01*
X116070095Y-113847714D01*
X115974857Y-113847714D01*
X115879619Y-113895333D01*
X115832000Y-113942952D01*
X115784381Y-114038190D01*
X115784381Y-114276286D01*
X115832000Y-114419143D01*
X116784381Y-114847714D02*
X115784381Y-114847714D01*
X115784381Y-115085809D01*
X115832000Y-115228667D01*
X115927238Y-115323905D01*
X116022476Y-115371524D01*
X116212952Y-115419143D01*
X116355810Y-115419143D01*
X116546286Y-115371524D01*
X116641524Y-115323905D01*
X116736762Y-115228667D01*
X116784381Y-115085809D01*
X116784381Y-114847714D01*
X116498667Y-115800095D02*
X116498667Y-116276286D01*
X116784381Y-115704857D02*
X115784381Y-116038190D01*
X116784381Y-116371524D01*
X114196762Y-113871524D02*
X114244381Y-114014381D01*
X114244381Y-114252477D01*
X114196762Y-114347715D01*
X114149143Y-114395334D01*
X114053905Y-114442953D01*
X113958667Y-114442953D01*
X113863429Y-114395334D01*
X113815810Y-114347715D01*
X113768190Y-114252477D01*
X113720571Y-114062000D01*
X113672952Y-113966762D01*
X113625333Y-113919143D01*
X113530095Y-113871524D01*
X113434857Y-113871524D01*
X113339619Y-113919143D01*
X113292000Y-113966762D01*
X113244381Y-114062000D01*
X113244381Y-114300096D01*
X113292000Y-114442953D01*
X114149143Y-115442953D02*
X114196762Y-115395334D01*
X114244381Y-115252477D01*
X114244381Y-115157239D01*
X114196762Y-115014381D01*
X114101524Y-114919143D01*
X114006286Y-114871524D01*
X113815810Y-114823905D01*
X113672952Y-114823905D01*
X113482476Y-114871524D01*
X113387238Y-114919143D01*
X113292000Y-115014381D01*
X113244381Y-115157239D01*
X113244381Y-115252477D01*
X113292000Y-115395334D01*
X113339619Y-115442953D01*
X114244381Y-116347715D02*
X114244381Y-115871524D01*
X113244381Y-115871524D01*
X111704381Y-113728667D02*
X110704381Y-113728667D01*
X110704381Y-114109620D01*
X110752000Y-114204858D01*
X110799619Y-114252477D01*
X110894857Y-114300096D01*
X111037714Y-114300096D01*
X111132952Y-114252477D01*
X111180571Y-114204858D01*
X111228190Y-114109620D01*
X111228190Y-113728667D01*
X110704381Y-114633429D02*
X111704381Y-114871524D01*
X110990095Y-115062001D01*
X111704381Y-115252477D01*
X110704381Y-115490572D01*
X111704381Y-116442953D02*
X111228190Y-116109619D01*
X111704381Y-115871524D02*
X110704381Y-115871524D01*
X110704381Y-116252477D01*
X110752000Y-116347715D01*
X110799619Y-116395334D01*
X110894857Y-116442953D01*
X111037714Y-116442953D01*
X111132952Y-116395334D01*
X111180571Y-116347715D01*
X111228190Y-116252477D01*
X111228190Y-115871524D01*
X108212000Y-114300096D02*
X108164381Y-114204858D01*
X108164381Y-114062001D01*
X108212000Y-113919143D01*
X108307238Y-113823905D01*
X108402476Y-113776286D01*
X108592952Y-113728667D01*
X108735810Y-113728667D01*
X108926286Y-113776286D01*
X109021524Y-113823905D01*
X109116762Y-113919143D01*
X109164381Y-114062001D01*
X109164381Y-114157239D01*
X109116762Y-114300096D01*
X109069143Y-114347715D01*
X108735810Y-114347715D01*
X108735810Y-114157239D01*
X109164381Y-114776286D02*
X108164381Y-114776286D01*
X109164381Y-115347715D01*
X108164381Y-115347715D01*
X109164381Y-115823905D02*
X108164381Y-115823905D01*
X108164381Y-116062000D01*
X108212000Y-116204858D01*
X108307238Y-116300096D01*
X108402476Y-116347715D01*
X108592952Y-116395334D01*
X108735810Y-116395334D01*
X108926286Y-116347715D01*
X109021524Y-116300096D01*
X109116762Y-116204858D01*
X109164381Y-116062000D01*
X109164381Y-115823905D01*
X129642046Y-104847553D02*
X130349153Y-104140446D01*
X131551234Y-105342527D02*
X130844127Y-106049634D01*
X125942914Y-110849247D02*
X125235807Y-111556354D01*
X124033726Y-110354273D02*
X124740833Y-109647166D01*
X119363327Y-93289566D02*
X120070434Y-93996673D01*
X118868353Y-95198754D02*
X118161246Y-94491647D01*
X121087326Y-109053793D02*
X121794433Y-108346686D01*
X122996514Y-109548767D02*
X122289407Y-110255874D01*
X118235567Y-108834366D02*
X118942674Y-109541473D01*
X117740593Y-110743554D02*
X117033486Y-110036447D01*
X121997633Y-98632834D02*
X121290526Y-97925727D01*
X122492607Y-96723646D02*
X123199714Y-97430753D01*
X120823166Y-102023073D02*
X121530273Y-101315966D01*
X122732354Y-102518047D02*
X122025247Y-103225154D01*
X137453000Y-73103360D02*
X137453000Y-72103360D01*
X139153000Y-72103360D02*
X139153000Y-73103360D01*
X136075800Y-86145000D02*
X137075800Y-86145000D01*
X137075800Y-87845000D02*
X136075800Y-87845000D01*
X119421086Y-100600673D02*
X120128193Y-99893566D01*
X121330274Y-101095647D02*
X120623167Y-101802754D01*
X120351520Y-80427120D02*
X120351520Y-79227120D01*
X118601520Y-79227120D02*
X118601520Y-80427120D01*
X118085840Y-80442360D02*
X118085840Y-79242360D01*
X116335840Y-79242360D02*
X116335840Y-80442360D01*
X133848400Y-66968400D02*
X132648400Y-66968400D01*
X132648400Y-68718400D02*
X133848400Y-68718400D01*
X144099840Y-105688160D02*
X142899840Y-105688160D01*
X142899840Y-107438160D02*
X144099840Y-107438160D01*
X144099840Y-107811600D02*
X142899840Y-107811600D01*
X142899840Y-109561600D02*
X144099840Y-109561600D01*
X144130320Y-109965520D02*
X142930320Y-109965520D01*
X142930320Y-111715520D02*
X144130320Y-111715520D01*
X144130320Y-112114360D02*
X142930320Y-112114360D01*
X142930320Y-113864360D02*
X144130320Y-113864360D01*
X141751760Y-102510560D02*
X142951760Y-102510560D01*
X142951760Y-100760560D02*
X141751760Y-100760560D01*
X141736520Y-100387120D02*
X142936520Y-100387120D01*
X142936520Y-98637120D02*
X141736520Y-98637120D01*
X117450046Y-99523713D02*
X118157153Y-98816606D01*
X119359234Y-100018687D02*
X118652127Y-100725794D01*
X142406400Y-77187500D02*
X142406400Y-78387500D01*
X144156400Y-78387500D02*
X144156400Y-77187500D01*
X130268864Y-103286293D02*
X130336207Y-103286293D01*
X130470894Y-103218949D01*
X130538238Y-103151606D01*
X130605582Y-103016918D01*
X130605582Y-102882231D01*
X130571910Y-102781216D01*
X130470895Y-102612857D01*
X130369879Y-102511842D01*
X130201521Y-102410826D01*
X130100505Y-102377155D01*
X129965818Y-102377155D01*
X129831131Y-102444499D01*
X129763787Y-102511842D01*
X129696444Y-102646529D01*
X129696444Y-102713873D01*
X129662772Y-104027071D02*
X130066834Y-103623010D01*
X129864803Y-103825040D02*
X129157697Y-103117933D01*
X129326055Y-103151605D01*
X129460742Y-103151605D01*
X129561757Y-103117933D01*
X128517933Y-103757697D02*
X128450589Y-103825041D01*
X128416917Y-103926056D01*
X128416917Y-103993399D01*
X128450589Y-104094414D01*
X128551604Y-104262773D01*
X128719964Y-104431132D01*
X128888322Y-104532147D01*
X128989337Y-104565819D01*
X129056681Y-104565819D01*
X129157696Y-104532147D01*
X129225040Y-104464803D01*
X129258712Y-104363788D01*
X129258712Y-104296445D01*
X129225040Y-104195430D01*
X129124025Y-104027071D01*
X128955666Y-103858712D01*
X128787307Y-103757697D01*
X128686292Y-103724025D01*
X128618948Y-103724025D01*
X128517933Y-103757697D01*
X128315902Y-105373941D02*
X128719964Y-104969880D01*
X128517933Y-105171910D02*
X127810826Y-104464803D01*
X127979185Y-104498475D01*
X128113872Y-104498475D01*
X128214887Y-104464803D01*
X128001027Y-110487345D02*
X128001027Y-110554688D01*
X128068371Y-110689375D01*
X128135714Y-110756719D01*
X128270402Y-110824063D01*
X128405089Y-110824063D01*
X128506104Y-110790391D01*
X128674463Y-110689376D01*
X128775478Y-110588360D01*
X128876494Y-110420002D01*
X128910165Y-110318986D01*
X128910165Y-110184299D01*
X128842821Y-110049612D01*
X128775478Y-109982268D01*
X128640791Y-109914925D01*
X128573447Y-109914925D01*
X127260249Y-109881253D02*
X127664310Y-110285315D01*
X127462280Y-110083284D02*
X128169387Y-109376178D01*
X128135715Y-109544536D01*
X128135715Y-109679223D01*
X128169387Y-109780238D01*
X127529623Y-108736414D02*
X127462279Y-108669070D01*
X127361264Y-108635398D01*
X127293921Y-108635398D01*
X127192906Y-108669070D01*
X127024547Y-108770085D01*
X126856188Y-108938445D01*
X126755173Y-109106803D01*
X126721501Y-109207818D01*
X126721501Y-109275162D01*
X126755173Y-109376177D01*
X126822517Y-109443521D01*
X126923532Y-109477193D01*
X126990875Y-109477193D01*
X127091890Y-109443521D01*
X127260249Y-109342506D01*
X127428608Y-109174147D01*
X127529623Y-109005788D01*
X127563295Y-108904773D01*
X127563295Y-108837429D01*
X127529623Y-108736414D01*
X126957204Y-108298681D02*
X126957204Y-108231338D01*
X126923532Y-108130323D01*
X126755173Y-107961963D01*
X126654157Y-107928292D01*
X126586814Y-107928292D01*
X126485799Y-107961963D01*
X126418455Y-108029307D01*
X126351112Y-108163994D01*
X126351112Y-108972116D01*
X125913379Y-108534383D01*
X120839981Y-94174432D02*
X120839981Y-94241775D01*
X120907325Y-94376462D01*
X120974668Y-94443806D01*
X121109356Y-94511150D01*
X121244043Y-94511150D01*
X121345058Y-94477478D01*
X121513417Y-94376463D01*
X121614432Y-94275447D01*
X121715448Y-94107089D01*
X121749119Y-94006073D01*
X121749119Y-93871386D01*
X121681775Y-93736699D01*
X121614432Y-93669355D01*
X121479745Y-93602012D01*
X121412401Y-93602012D01*
X120099203Y-93568340D02*
X120503264Y-93972402D01*
X120301234Y-93770371D02*
X121008341Y-93063265D01*
X120974669Y-93231623D01*
X120974669Y-93366310D01*
X121008341Y-93467325D01*
X120368577Y-92423501D02*
X120301233Y-92356157D01*
X120200218Y-92322485D01*
X120132875Y-92322485D01*
X120031860Y-92356157D01*
X119863501Y-92457172D01*
X119695142Y-92625532D01*
X119594127Y-92793890D01*
X119560455Y-92894905D01*
X119560455Y-92962249D01*
X119594127Y-93063264D01*
X119661471Y-93130608D01*
X119762486Y-93164280D01*
X119829829Y-93164280D01*
X119930844Y-93130608D01*
X120099203Y-93029593D01*
X120267562Y-92861234D01*
X120368577Y-92692875D01*
X120402249Y-92591860D01*
X120402249Y-92524516D01*
X120368577Y-92423501D01*
X119897173Y-91952096D02*
X119459440Y-91514363D01*
X119425769Y-92019440D01*
X119324753Y-91918424D01*
X119223738Y-91884752D01*
X119156394Y-91884752D01*
X119055378Y-91918425D01*
X118887020Y-92086783D01*
X118853348Y-92187798D01*
X118853348Y-92255142D01*
X118887020Y-92356157D01*
X119089051Y-92558188D01*
X119190066Y-92591860D01*
X119257409Y-92591860D01*
X120121947Y-108084504D02*
X120121947Y-108151847D01*
X120189291Y-108286534D01*
X120256634Y-108353878D01*
X120391322Y-108421222D01*
X120526009Y-108421222D01*
X120627024Y-108387550D01*
X120795383Y-108286535D01*
X120896398Y-108185519D01*
X120997414Y-108017161D01*
X121031085Y-107916145D01*
X121031085Y-107781458D01*
X120963741Y-107646771D01*
X120896398Y-107579427D01*
X120761711Y-107512084D01*
X120694367Y-107512084D01*
X119381169Y-107478412D02*
X119785230Y-107882474D01*
X119583200Y-107680443D02*
X120290307Y-106973337D01*
X120256635Y-107141695D01*
X120256635Y-107276382D01*
X120290307Y-107377397D01*
X119650543Y-106333573D02*
X119583199Y-106266229D01*
X119482184Y-106232557D01*
X119414841Y-106232557D01*
X119313826Y-106266229D01*
X119145467Y-106367244D01*
X118977108Y-106535604D01*
X118876093Y-106703962D01*
X118842421Y-106804977D01*
X118842421Y-106872321D01*
X118876093Y-106973336D01*
X118943437Y-107040680D01*
X119044452Y-107074352D01*
X119111795Y-107074352D01*
X119212810Y-107040680D01*
X119381169Y-106939665D01*
X119549528Y-106771306D01*
X119650543Y-106602947D01*
X119684215Y-106501932D01*
X119684215Y-106434588D01*
X119650543Y-106333573D01*
X118573047Y-105727481D02*
X118101642Y-106198886D01*
X119010780Y-105626466D02*
X118674062Y-106299902D01*
X118236329Y-105862168D01*
X117272067Y-112300904D02*
X117272067Y-112368247D01*
X117339411Y-112502934D01*
X117406754Y-112570278D01*
X117541442Y-112637622D01*
X117676129Y-112637622D01*
X117777144Y-112603950D01*
X117945503Y-112502935D01*
X118046518Y-112401919D01*
X118147534Y-112233561D01*
X118181205Y-112132545D01*
X118181205Y-111997858D01*
X118113861Y-111863171D01*
X118046518Y-111795827D01*
X117911831Y-111728484D01*
X117844487Y-111728484D01*
X116531289Y-111694812D02*
X116935350Y-112098874D01*
X116733320Y-111896843D02*
X117440427Y-111189737D01*
X117406755Y-111358095D01*
X117406755Y-111492782D01*
X117440427Y-111593797D01*
X116800663Y-110549973D02*
X116733319Y-110482629D01*
X116632304Y-110448957D01*
X116564961Y-110448957D01*
X116463946Y-110482629D01*
X116295587Y-110583644D01*
X116127228Y-110752004D01*
X116026213Y-110920362D01*
X115992541Y-111021377D01*
X115992541Y-111088721D01*
X116026213Y-111189736D01*
X116093557Y-111257080D01*
X116194572Y-111290752D01*
X116261915Y-111290752D01*
X116362930Y-111257080D01*
X116531289Y-111156065D01*
X116699648Y-110987706D01*
X116800663Y-110819347D01*
X116834335Y-110718332D01*
X116834335Y-110650988D01*
X116800663Y-110549973D01*
X115925197Y-109674507D02*
X116261915Y-110011225D01*
X115958870Y-110381614D01*
X115958870Y-110314270D01*
X115925198Y-110213255D01*
X115756839Y-110044896D01*
X115655824Y-110011224D01*
X115588480Y-110011224D01*
X115487464Y-110044897D01*
X115319106Y-110213255D01*
X115285434Y-110314270D01*
X115285434Y-110381614D01*
X115319106Y-110482629D01*
X115487465Y-110650988D01*
X115588480Y-110684660D01*
X115655824Y-110684660D01*
X124005182Y-97644433D02*
X124005182Y-97711776D01*
X124072526Y-97846463D01*
X124139869Y-97913807D01*
X124274557Y-97981151D01*
X124409244Y-97981151D01*
X124510259Y-97947479D01*
X124678618Y-97846464D01*
X124779633Y-97745448D01*
X124880649Y-97577090D01*
X124914320Y-97476074D01*
X124914320Y-97341387D01*
X124846976Y-97206700D01*
X124779633Y-97139356D01*
X124644946Y-97072013D01*
X124577602Y-97072013D01*
X123264404Y-97038341D02*
X123668465Y-97442403D01*
X123466435Y-97240372D02*
X124173542Y-96533266D01*
X124139870Y-96701624D01*
X124139870Y-96836311D01*
X124173542Y-96937326D01*
X123533778Y-95893502D02*
X123466434Y-95826158D01*
X123365419Y-95792486D01*
X123298076Y-95792486D01*
X123197061Y-95826158D01*
X123028702Y-95927173D01*
X122860343Y-96095533D01*
X122759328Y-96263891D01*
X122725656Y-96364906D01*
X122725656Y-96432250D01*
X122759328Y-96533265D01*
X122826672Y-96600609D01*
X122927687Y-96634281D01*
X122995030Y-96634281D01*
X123096045Y-96600609D01*
X123264404Y-96499594D01*
X123432763Y-96331235D01*
X123533778Y-96162876D01*
X123567450Y-96061861D01*
X123567450Y-95994517D01*
X123533778Y-95893502D01*
X122691984Y-95051708D02*
X122826672Y-95186395D01*
X122860343Y-95287411D01*
X122860343Y-95354754D01*
X122826672Y-95523113D01*
X122725657Y-95691471D01*
X122456282Y-95960846D01*
X122355267Y-95994517D01*
X122287923Y-95994517D01*
X122186908Y-95960846D01*
X122052221Y-95826158D01*
X122018549Y-95725143D01*
X122018549Y-95657799D01*
X122052221Y-95556784D01*
X122220579Y-95388426D01*
X122321595Y-95354753D01*
X122388939Y-95354753D01*
X122489954Y-95388425D01*
X122624641Y-95523113D01*
X122658313Y-95624128D01*
X122658313Y-95691471D01*
X122624641Y-95792487D01*
X124706264Y-103509813D02*
X124773607Y-103509813D01*
X124908294Y-103442469D01*
X124975638Y-103375126D01*
X125042982Y-103240438D01*
X125042982Y-103105751D01*
X125009310Y-103004736D01*
X124908295Y-102836377D01*
X124807279Y-102735362D01*
X124638921Y-102634346D01*
X124537905Y-102600675D01*
X124403218Y-102600675D01*
X124268531Y-102668019D01*
X124201187Y-102735362D01*
X124133844Y-102870049D01*
X124133844Y-102937393D01*
X124100172Y-104250591D02*
X124504234Y-103846530D01*
X124302203Y-104048560D02*
X123595097Y-103341453D01*
X123763455Y-103375125D01*
X123898142Y-103375125D01*
X123999157Y-103341453D01*
X122955333Y-103981217D02*
X122887989Y-104048561D01*
X122854317Y-104149576D01*
X122854317Y-104216919D01*
X122887989Y-104317934D01*
X122989004Y-104486293D01*
X123157364Y-104654652D01*
X123325722Y-104755667D01*
X123426737Y-104789339D01*
X123494081Y-104789339D01*
X123595096Y-104755667D01*
X123662440Y-104688323D01*
X123696112Y-104587308D01*
X123696112Y-104519965D01*
X123662440Y-104418950D01*
X123561425Y-104250591D01*
X123393066Y-104082232D01*
X123224707Y-103981217D01*
X123123692Y-103947545D01*
X123056348Y-103947545D01*
X122955333Y-103981217D01*
X122618615Y-104924025D02*
X122652287Y-104823010D01*
X122652287Y-104755667D01*
X122618615Y-104654652D01*
X122584944Y-104620980D01*
X122483928Y-104587308D01*
X122416585Y-104587308D01*
X122315570Y-104620980D01*
X122180882Y-104755667D01*
X122147211Y-104856683D01*
X122147211Y-104924026D01*
X122180882Y-105025041D01*
X122214554Y-105058713D01*
X122315569Y-105092385D01*
X122382913Y-105092385D01*
X122483928Y-105058713D01*
X122618615Y-104924025D01*
X122719630Y-104890354D01*
X122786974Y-104890354D01*
X122887990Y-104924026D01*
X123022677Y-105058713D01*
X123056348Y-105159728D01*
X123056348Y-105227072D01*
X123022677Y-105328087D01*
X122887989Y-105462774D01*
X122786974Y-105496446D01*
X122719630Y-105496446D01*
X122618615Y-105462774D01*
X122483928Y-105328087D01*
X122450256Y-105227072D01*
X122450256Y-105159728D01*
X122483928Y-105058713D01*
X136760223Y-71413193D02*
X136807842Y-71365574D01*
X136855461Y-71222717D01*
X136855461Y-71127479D01*
X136807842Y-70984621D01*
X136712604Y-70889383D01*
X136617366Y-70841764D01*
X136426890Y-70794145D01*
X136284032Y-70794145D01*
X136093556Y-70841764D01*
X135998318Y-70889383D01*
X135903080Y-70984621D01*
X135855461Y-71127479D01*
X135855461Y-71222717D01*
X135903080Y-71365574D01*
X135950699Y-71413193D01*
X135950699Y-71794145D02*
X135903080Y-71841764D01*
X135855461Y-71937002D01*
X135855461Y-72175098D01*
X135903080Y-72270336D01*
X135950699Y-72317955D01*
X136045937Y-72365574D01*
X136141175Y-72365574D01*
X136284032Y-72317955D01*
X136855461Y-71746526D01*
X136855461Y-72365574D01*
X135855461Y-72984621D02*
X135855461Y-73079860D01*
X135903080Y-73175098D01*
X135950699Y-73222717D01*
X136045937Y-73270336D01*
X136236413Y-73317955D01*
X136474509Y-73317955D01*
X136664985Y-73270336D01*
X136760223Y-73222717D01*
X136807842Y-73175098D01*
X136855461Y-73079860D01*
X136855461Y-72984621D01*
X136807842Y-72889383D01*
X136760223Y-72841764D01*
X136664985Y-72794145D01*
X136474509Y-72746526D01*
X136236413Y-72746526D01*
X136045937Y-72794145D01*
X135950699Y-72841764D01*
X135903080Y-72889383D01*
X135855461Y-72984621D01*
X136855461Y-74270336D02*
X136855461Y-73698907D01*
X136855461Y-73984621D02*
X135855461Y-73984621D01*
X135998318Y-73889383D01*
X136093556Y-73794145D01*
X136141175Y-73698907D01*
X137694847Y-85252143D02*
X137742466Y-85299762D01*
X137885323Y-85347381D01*
X137980561Y-85347381D01*
X138123419Y-85299762D01*
X138218657Y-85204524D01*
X138266276Y-85109286D01*
X138313895Y-84918810D01*
X138313895Y-84775952D01*
X138266276Y-84585476D01*
X138218657Y-84490238D01*
X138123419Y-84395000D01*
X137980561Y-84347381D01*
X137885323Y-84347381D01*
X137742466Y-84395000D01*
X137694847Y-84442619D01*
X137361514Y-84347381D02*
X136742466Y-84347381D01*
X137075800Y-84728333D01*
X136932942Y-84728333D01*
X136837704Y-84775952D01*
X136790085Y-84823571D01*
X136742466Y-84918810D01*
X136742466Y-85156905D01*
X136790085Y-85252143D01*
X136837704Y-85299762D01*
X136932942Y-85347381D01*
X137218657Y-85347381D01*
X137313895Y-85299762D01*
X137361514Y-85252143D01*
X136123419Y-84347381D02*
X136028180Y-84347381D01*
X135932942Y-84395000D01*
X135885323Y-84442619D01*
X135837704Y-84537857D01*
X135790085Y-84728333D01*
X135790085Y-84966429D01*
X135837704Y-85156905D01*
X135885323Y-85252143D01*
X135932942Y-85299762D01*
X136028180Y-85347381D01*
X136123419Y-85347381D01*
X136218657Y-85299762D01*
X136266276Y-85252143D01*
X136313895Y-85156905D01*
X136361514Y-84966429D01*
X136361514Y-84728333D01*
X136313895Y-84537857D01*
X136266276Y-84442619D01*
X136218657Y-84395000D01*
X136123419Y-84347381D01*
X134837704Y-85347381D02*
X135409133Y-85347381D01*
X135123419Y-85347381D02*
X135123419Y-84347381D01*
X135218657Y-84490238D01*
X135313895Y-84585476D01*
X135409133Y-84633095D01*
X118459167Y-103384116D02*
X118795885Y-103047398D01*
X118088778Y-102340291D01*
X117853076Y-103990208D02*
X118257137Y-103586146D01*
X118055107Y-103788177D02*
X117348000Y-103081070D01*
X117516359Y-103114742D01*
X117651045Y-103114742D01*
X117752061Y-103081070D01*
X116708237Y-103720833D02*
X116640893Y-103788177D01*
X116607221Y-103889192D01*
X116607221Y-103956536D01*
X116640893Y-104057551D01*
X116741908Y-104225910D01*
X116910267Y-104394269D01*
X117078626Y-104495284D01*
X117179641Y-104528956D01*
X117246984Y-104528956D01*
X117347999Y-104495284D01*
X117415343Y-104427940D01*
X117449015Y-104326925D01*
X117449015Y-104259581D01*
X117415343Y-104158566D01*
X117314328Y-103990208D01*
X117145969Y-103821848D01*
X116977610Y-103720833D01*
X116876595Y-103687161D01*
X116809252Y-103687161D01*
X116708237Y-103720833D01*
X116506206Y-105337078D02*
X116910267Y-104933016D01*
X116708237Y-105135047D02*
X116001130Y-104427940D01*
X116169488Y-104461612D01*
X116304175Y-104461612D01*
X116405190Y-104427940D01*
X119928901Y-82530773D02*
X119452710Y-82197439D01*
X119928901Y-81959344D02*
X118928901Y-81959344D01*
X118928901Y-82340297D01*
X118976520Y-82435535D01*
X119024139Y-82483154D01*
X119119377Y-82530773D01*
X119262234Y-82530773D01*
X119357472Y-82483154D01*
X119405091Y-82435535D01*
X119452710Y-82340297D01*
X119452710Y-81959344D01*
X119024139Y-82911725D02*
X118976520Y-82959344D01*
X118928901Y-83054582D01*
X118928901Y-83292678D01*
X118976520Y-83387916D01*
X119024139Y-83435535D01*
X119119377Y-83483154D01*
X119214615Y-83483154D01*
X119357472Y-83435535D01*
X119928901Y-82864106D01*
X119928901Y-83483154D01*
X118928901Y-84102201D02*
X118928901Y-84197440D01*
X118976520Y-84292678D01*
X119024139Y-84340297D01*
X119119377Y-84387916D01*
X119309853Y-84435535D01*
X119547949Y-84435535D01*
X119738425Y-84387916D01*
X119833663Y-84340297D01*
X119881282Y-84292678D01*
X119928901Y-84197440D01*
X119928901Y-84102201D01*
X119881282Y-84006963D01*
X119833663Y-83959344D01*
X119738425Y-83911725D01*
X119547949Y-83864106D01*
X119309853Y-83864106D01*
X119119377Y-83911725D01*
X119024139Y-83959344D01*
X118976520Y-84006963D01*
X118928901Y-84102201D01*
X118928901Y-85340297D02*
X118928901Y-84864106D01*
X119405091Y-84816487D01*
X119357472Y-84864106D01*
X119309853Y-84959344D01*
X119309853Y-85197440D01*
X119357472Y-85292678D01*
X119405091Y-85340297D01*
X119500330Y-85387916D01*
X119738425Y-85387916D01*
X119833663Y-85340297D01*
X119881282Y-85292678D01*
X119928901Y-85197440D01*
X119928901Y-84959344D01*
X119881282Y-84864106D01*
X119833663Y-84816487D01*
X117675921Y-82749213D02*
X117199730Y-82415879D01*
X117675921Y-82177784D02*
X116675921Y-82177784D01*
X116675921Y-82558737D01*
X116723540Y-82653975D01*
X116771159Y-82701594D01*
X116866397Y-82749213D01*
X117009254Y-82749213D01*
X117104492Y-82701594D01*
X117152111Y-82653975D01*
X117199730Y-82558737D01*
X117199730Y-82177784D01*
X116771159Y-83130165D02*
X116723540Y-83177784D01*
X116675921Y-83273022D01*
X116675921Y-83511118D01*
X116723540Y-83606356D01*
X116771159Y-83653975D01*
X116866397Y-83701594D01*
X116961635Y-83701594D01*
X117104492Y-83653975D01*
X117675921Y-83082546D01*
X117675921Y-83701594D01*
X116675921Y-84320641D02*
X116675921Y-84415880D01*
X116723540Y-84511118D01*
X116771159Y-84558737D01*
X116866397Y-84606356D01*
X117056873Y-84653975D01*
X117294969Y-84653975D01*
X117485445Y-84606356D01*
X117580683Y-84558737D01*
X117628302Y-84511118D01*
X117675921Y-84415880D01*
X117675921Y-84320641D01*
X117628302Y-84225403D01*
X117580683Y-84177784D01*
X117485445Y-84130165D01*
X117294969Y-84082546D01*
X117056873Y-84082546D01*
X116866397Y-84130165D01*
X116771159Y-84177784D01*
X116723540Y-84225403D01*
X116675921Y-84320641D01*
X116675921Y-85511118D02*
X116675921Y-85320641D01*
X116723540Y-85225403D01*
X116771159Y-85177784D01*
X116914016Y-85082546D01*
X117104492Y-85034927D01*
X117485445Y-85034927D01*
X117580683Y-85082546D01*
X117628302Y-85130165D01*
X117675921Y-85225403D01*
X117675921Y-85415880D01*
X117628302Y-85511118D01*
X117580683Y-85558737D01*
X117485445Y-85606356D01*
X117247350Y-85606356D01*
X117152111Y-85558737D01*
X117104492Y-85511118D01*
X117056873Y-85415880D01*
X117056873Y-85225403D01*
X117104492Y-85130165D01*
X117152111Y-85082546D01*
X117247350Y-85034927D01*
X134469047Y-70520821D02*
X134802381Y-70044630D01*
X135040476Y-70520821D02*
X135040476Y-69520821D01*
X134659523Y-69520821D01*
X134564285Y-69568440D01*
X134516666Y-69616059D01*
X134469047Y-69711297D01*
X134469047Y-69854154D01*
X134516666Y-69949392D01*
X134564285Y-69997011D01*
X134659523Y-70044630D01*
X135040476Y-70044630D01*
X134088095Y-69616059D02*
X134040476Y-69568440D01*
X133945238Y-69520821D01*
X133707142Y-69520821D01*
X133611904Y-69568440D01*
X133564285Y-69616059D01*
X133516666Y-69711297D01*
X133516666Y-69806535D01*
X133564285Y-69949392D01*
X134135714Y-70520821D01*
X133516666Y-70520821D01*
X132897619Y-69520821D02*
X132802380Y-69520821D01*
X132707142Y-69568440D01*
X132659523Y-69616059D01*
X132611904Y-69711297D01*
X132564285Y-69901773D01*
X132564285Y-70139869D01*
X132611904Y-70330345D01*
X132659523Y-70425583D01*
X132707142Y-70473202D01*
X132802380Y-70520821D01*
X132897619Y-70520821D01*
X132992857Y-70473202D01*
X133040476Y-70425583D01*
X133088095Y-70330345D01*
X133135714Y-70139869D01*
X133135714Y-69901773D01*
X133088095Y-69711297D01*
X133040476Y-69616059D01*
X132992857Y-69568440D01*
X132897619Y-69520821D01*
X132230952Y-69520821D02*
X131564285Y-69520821D01*
X131992857Y-70520821D01*
X140717447Y-107020621D02*
X141050781Y-106544430D01*
X141288876Y-107020621D02*
X141288876Y-106020621D01*
X140907923Y-106020621D01*
X140812685Y-106068240D01*
X140765066Y-106115859D01*
X140717447Y-106211097D01*
X140717447Y-106353954D01*
X140765066Y-106449192D01*
X140812685Y-106496811D01*
X140907923Y-106544430D01*
X141288876Y-106544430D01*
X140384114Y-106020621D02*
X139765066Y-106020621D01*
X140098400Y-106401573D01*
X139955542Y-106401573D01*
X139860304Y-106449192D01*
X139812685Y-106496811D01*
X139765066Y-106592050D01*
X139765066Y-106830145D01*
X139812685Y-106925383D01*
X139860304Y-106973002D01*
X139955542Y-107020621D01*
X140241257Y-107020621D01*
X140336495Y-106973002D01*
X140384114Y-106925383D01*
X139146019Y-106020621D02*
X139050780Y-106020621D01*
X138955542Y-106068240D01*
X138907923Y-106115859D01*
X138860304Y-106211097D01*
X138812685Y-106401573D01*
X138812685Y-106639669D01*
X138860304Y-106830145D01*
X138907923Y-106925383D01*
X138955542Y-106973002D01*
X139050780Y-107020621D01*
X139146019Y-107020621D01*
X139241257Y-106973002D01*
X139288876Y-106925383D01*
X139336495Y-106830145D01*
X139384114Y-106639669D01*
X139384114Y-106401573D01*
X139336495Y-106211097D01*
X139288876Y-106115859D01*
X139241257Y-106068240D01*
X139146019Y-106020621D01*
X138431733Y-106115859D02*
X138384114Y-106068240D01*
X138288876Y-106020621D01*
X138050780Y-106020621D01*
X137955542Y-106068240D01*
X137907923Y-106115859D01*
X137860304Y-106211097D01*
X137860304Y-106306335D01*
X137907923Y-106449192D01*
X138479352Y-107020621D01*
X137860304Y-107020621D01*
X140793647Y-109189781D02*
X141126981Y-108713590D01*
X141365076Y-109189781D02*
X141365076Y-108189781D01*
X140984123Y-108189781D01*
X140888885Y-108237400D01*
X140841266Y-108285019D01*
X140793647Y-108380257D01*
X140793647Y-108523114D01*
X140841266Y-108618352D01*
X140888885Y-108665971D01*
X140984123Y-108713590D01*
X141365076Y-108713590D01*
X140460314Y-108189781D02*
X139841266Y-108189781D01*
X140174600Y-108570733D01*
X140031742Y-108570733D01*
X139936504Y-108618352D01*
X139888885Y-108665971D01*
X139841266Y-108761210D01*
X139841266Y-108999305D01*
X139888885Y-109094543D01*
X139936504Y-109142162D01*
X140031742Y-109189781D01*
X140317457Y-109189781D01*
X140412695Y-109142162D01*
X140460314Y-109094543D01*
X139222219Y-108189781D02*
X139126980Y-108189781D01*
X139031742Y-108237400D01*
X138984123Y-108285019D01*
X138936504Y-108380257D01*
X138888885Y-108570733D01*
X138888885Y-108808829D01*
X138936504Y-108999305D01*
X138984123Y-109094543D01*
X139031742Y-109142162D01*
X139126980Y-109189781D01*
X139222219Y-109189781D01*
X139317457Y-109142162D01*
X139365076Y-109094543D01*
X139412695Y-108999305D01*
X139460314Y-108808829D01*
X139460314Y-108570733D01*
X139412695Y-108380257D01*
X139365076Y-108285019D01*
X139317457Y-108237400D01*
X139222219Y-108189781D01*
X138555552Y-108189781D02*
X137936504Y-108189781D01*
X138269838Y-108570733D01*
X138126980Y-108570733D01*
X138031742Y-108618352D01*
X137984123Y-108665971D01*
X137936504Y-108761210D01*
X137936504Y-108999305D01*
X137984123Y-109094543D01*
X138031742Y-109142162D01*
X138126980Y-109189781D01*
X138412695Y-109189781D01*
X138507933Y-109142162D01*
X138555552Y-109094543D01*
X140905407Y-111348781D02*
X141238741Y-110872590D01*
X141476836Y-111348781D02*
X141476836Y-110348781D01*
X141095883Y-110348781D01*
X141000645Y-110396400D01*
X140953026Y-110444019D01*
X140905407Y-110539257D01*
X140905407Y-110682114D01*
X140953026Y-110777352D01*
X141000645Y-110824971D01*
X141095883Y-110872590D01*
X141476836Y-110872590D01*
X140572074Y-110348781D02*
X139953026Y-110348781D01*
X140286360Y-110729733D01*
X140143502Y-110729733D01*
X140048264Y-110777352D01*
X140000645Y-110824971D01*
X139953026Y-110920210D01*
X139953026Y-111158305D01*
X140000645Y-111253543D01*
X140048264Y-111301162D01*
X140143502Y-111348781D01*
X140429217Y-111348781D01*
X140524455Y-111301162D01*
X140572074Y-111253543D01*
X139333979Y-110348781D02*
X139238740Y-110348781D01*
X139143502Y-110396400D01*
X139095883Y-110444019D01*
X139048264Y-110539257D01*
X139000645Y-110729733D01*
X139000645Y-110967829D01*
X139048264Y-111158305D01*
X139095883Y-111253543D01*
X139143502Y-111301162D01*
X139238740Y-111348781D01*
X139333979Y-111348781D01*
X139429217Y-111301162D01*
X139476836Y-111253543D01*
X139524455Y-111158305D01*
X139572074Y-110967829D01*
X139572074Y-110729733D01*
X139524455Y-110539257D01*
X139476836Y-110444019D01*
X139429217Y-110396400D01*
X139333979Y-110348781D01*
X138143502Y-110682114D02*
X138143502Y-111348781D01*
X138381598Y-110301162D02*
X138619693Y-111015448D01*
X138000645Y-111015448D01*
X140874927Y-113497621D02*
X141208261Y-113021430D01*
X141446356Y-113497621D02*
X141446356Y-112497621D01*
X141065403Y-112497621D01*
X140970165Y-112545240D01*
X140922546Y-112592859D01*
X140874927Y-112688097D01*
X140874927Y-112830954D01*
X140922546Y-112926192D01*
X140970165Y-112973811D01*
X141065403Y-113021430D01*
X141446356Y-113021430D01*
X140541594Y-112497621D02*
X139922546Y-112497621D01*
X140255880Y-112878573D01*
X140113022Y-112878573D01*
X140017784Y-112926192D01*
X139970165Y-112973811D01*
X139922546Y-113069050D01*
X139922546Y-113307145D01*
X139970165Y-113402383D01*
X140017784Y-113450002D01*
X140113022Y-113497621D01*
X140398737Y-113497621D01*
X140493975Y-113450002D01*
X140541594Y-113402383D01*
X139303499Y-112497621D02*
X139208260Y-112497621D01*
X139113022Y-112545240D01*
X139065403Y-112592859D01*
X139017784Y-112688097D01*
X138970165Y-112878573D01*
X138970165Y-113116669D01*
X139017784Y-113307145D01*
X139065403Y-113402383D01*
X139113022Y-113450002D01*
X139208260Y-113497621D01*
X139303499Y-113497621D01*
X139398737Y-113450002D01*
X139446356Y-113402383D01*
X139493975Y-113307145D01*
X139541594Y-113116669D01*
X139541594Y-112878573D01*
X139493975Y-112688097D01*
X139446356Y-112592859D01*
X139398737Y-112545240D01*
X139303499Y-112497621D01*
X138065403Y-112497621D02*
X138541594Y-112497621D01*
X138589213Y-112973811D01*
X138541594Y-112926192D01*
X138446356Y-112878573D01*
X138208260Y-112878573D01*
X138113022Y-112926192D01*
X138065403Y-112973811D01*
X138017784Y-113069050D01*
X138017784Y-113307145D01*
X138065403Y-113402383D01*
X138113022Y-113450002D01*
X138208260Y-113497621D01*
X138446356Y-113497621D01*
X138541594Y-113450002D01*
X138589213Y-113402383D01*
X143379367Y-104084381D02*
X143712701Y-103608190D01*
X143950796Y-104084381D02*
X143950796Y-103084381D01*
X143569843Y-103084381D01*
X143474605Y-103132000D01*
X143426986Y-103179619D01*
X143379367Y-103274857D01*
X143379367Y-103417714D01*
X143426986Y-103512952D01*
X143474605Y-103560571D01*
X143569843Y-103608190D01*
X143950796Y-103608190D01*
X143046034Y-103084381D02*
X142426986Y-103084381D01*
X142760320Y-103465333D01*
X142617462Y-103465333D01*
X142522224Y-103512952D01*
X142474605Y-103560571D01*
X142426986Y-103655810D01*
X142426986Y-103893905D01*
X142474605Y-103989143D01*
X142522224Y-104036762D01*
X142617462Y-104084381D01*
X142903177Y-104084381D01*
X142998415Y-104036762D01*
X143046034Y-103989143D01*
X141807939Y-103084381D02*
X141712700Y-103084381D01*
X141617462Y-103132000D01*
X141569843Y-103179619D01*
X141522224Y-103274857D01*
X141474605Y-103465333D01*
X141474605Y-103703429D01*
X141522224Y-103893905D01*
X141569843Y-103989143D01*
X141617462Y-104036762D01*
X141712700Y-104084381D01*
X141807939Y-104084381D01*
X141903177Y-104036762D01*
X141950796Y-103989143D01*
X141998415Y-103893905D01*
X142046034Y-103703429D01*
X142046034Y-103465333D01*
X141998415Y-103274857D01*
X141950796Y-103179619D01*
X141903177Y-103132000D01*
X141807939Y-103084381D01*
X140617462Y-103084381D02*
X140807939Y-103084381D01*
X140903177Y-103132000D01*
X140950796Y-103179619D01*
X141046034Y-103322476D01*
X141093653Y-103512952D01*
X141093653Y-103893905D01*
X141046034Y-103989143D01*
X140998415Y-104036762D01*
X140903177Y-104084381D01*
X140712700Y-104084381D01*
X140617462Y-104036762D01*
X140569843Y-103989143D01*
X140522224Y-103893905D01*
X140522224Y-103655810D01*
X140569843Y-103560571D01*
X140617462Y-103512952D01*
X140712700Y-103465333D01*
X140903177Y-103465333D01*
X140998415Y-103512952D01*
X141046034Y-103560571D01*
X141093653Y-103655810D01*
X143379367Y-98130621D02*
X143712701Y-97654430D01*
X143950796Y-98130621D02*
X143950796Y-97130621D01*
X143569843Y-97130621D01*
X143474605Y-97178240D01*
X143426986Y-97225859D01*
X143379367Y-97321097D01*
X143379367Y-97463954D01*
X143426986Y-97559192D01*
X143474605Y-97606811D01*
X143569843Y-97654430D01*
X143950796Y-97654430D01*
X143046034Y-97130621D02*
X142426986Y-97130621D01*
X142760320Y-97511573D01*
X142617462Y-97511573D01*
X142522224Y-97559192D01*
X142474605Y-97606811D01*
X142426986Y-97702050D01*
X142426986Y-97940145D01*
X142474605Y-98035383D01*
X142522224Y-98083002D01*
X142617462Y-98130621D01*
X142903177Y-98130621D01*
X142998415Y-98083002D01*
X143046034Y-98035383D01*
X141807939Y-97130621D02*
X141712700Y-97130621D01*
X141617462Y-97178240D01*
X141569843Y-97225859D01*
X141522224Y-97321097D01*
X141474605Y-97511573D01*
X141474605Y-97749669D01*
X141522224Y-97940145D01*
X141569843Y-98035383D01*
X141617462Y-98083002D01*
X141712700Y-98130621D01*
X141807939Y-98130621D01*
X141903177Y-98083002D01*
X141950796Y-98035383D01*
X141998415Y-97940145D01*
X142046034Y-97749669D01*
X142046034Y-97511573D01*
X141998415Y-97321097D01*
X141950796Y-97225859D01*
X141903177Y-97178240D01*
X141807939Y-97130621D01*
X141141272Y-97130621D02*
X140474605Y-97130621D01*
X140903177Y-98130621D01*
X118352873Y-98029099D02*
X118420216Y-98029099D01*
X118554903Y-97961755D01*
X118622247Y-97894412D01*
X118689591Y-97759724D01*
X118689591Y-97625037D01*
X118655919Y-97524022D01*
X118554904Y-97355663D01*
X118453888Y-97254648D01*
X118285530Y-97153632D01*
X118184514Y-97119961D01*
X118049827Y-97119961D01*
X117915140Y-97187305D01*
X117847796Y-97254648D01*
X117780453Y-97389335D01*
X117780453Y-97456679D01*
X117746781Y-98769877D02*
X118150843Y-98365816D01*
X117948812Y-98567846D02*
X117241706Y-97860739D01*
X117410064Y-97894411D01*
X117544751Y-97894411D01*
X117645766Y-97860739D01*
X116601942Y-98500503D02*
X116534598Y-98567847D01*
X116500926Y-98668862D01*
X116500926Y-98736205D01*
X116534598Y-98837220D01*
X116635613Y-99005579D01*
X116803973Y-99173938D01*
X116972331Y-99274953D01*
X117073346Y-99308625D01*
X117140690Y-99308625D01*
X117241705Y-99274953D01*
X117309049Y-99207609D01*
X117342721Y-99106594D01*
X117342721Y-99039251D01*
X117309049Y-98938236D01*
X117208034Y-98769877D01*
X117039675Y-98601518D01*
X116871316Y-98500503D01*
X116770301Y-98466831D01*
X116702957Y-98466831D01*
X116601942Y-98500503D01*
X116130537Y-98971907D02*
X115659133Y-99443312D01*
X116669286Y-99847373D01*
X145833781Y-76668453D02*
X145357590Y-76335119D01*
X145833781Y-76097024D02*
X144833781Y-76097024D01*
X144833781Y-76477977D01*
X144881400Y-76573215D01*
X144929019Y-76620834D01*
X145024257Y-76668453D01*
X145167114Y-76668453D01*
X145262352Y-76620834D01*
X145309971Y-76573215D01*
X145357590Y-76477977D01*
X145357590Y-76097024D01*
X145833781Y-77620834D02*
X145833781Y-77049405D01*
X145833781Y-77335119D02*
X144833781Y-77335119D01*
X144976638Y-77239881D01*
X145071876Y-77144643D01*
X145119495Y-77049405D01*
X144833781Y-78239881D02*
X144833781Y-78335120D01*
X144881400Y-78430358D01*
X144929019Y-78477977D01*
X145024257Y-78525596D01*
X145214733Y-78573215D01*
X145452829Y-78573215D01*
X145643305Y-78525596D01*
X145738543Y-78477977D01*
X145786162Y-78430358D01*
X145833781Y-78335120D01*
X145833781Y-78239881D01*
X145786162Y-78144643D01*
X145738543Y-78097024D01*
X145643305Y-78049405D01*
X145452829Y-78001786D01*
X145214733Y-78001786D01*
X145024257Y-78049405D01*
X144929019Y-78097024D01*
X144881400Y-78144643D01*
X144833781Y-78239881D01*
X145833781Y-79525596D02*
X145833781Y-78954167D01*
X145833781Y-79239881D02*
X144833781Y-79239881D01*
X144976638Y-79144643D01*
X145071876Y-79049405D01*
X145119495Y-78954167D01*
%LPC*%
D13*
X156210000Y-71120000D03*
D10*
G36*
X131215359Y-103502635D02*
X132189045Y-104476321D01*
X131392135Y-105273231D01*
X130418449Y-104299545D01*
X131215359Y-103502635D01*
X131215359Y-103502635D01*
G37*
G36*
X129801145Y-104916849D02*
X130774831Y-105890535D01*
X129977921Y-106687445D01*
X129004235Y-105713759D01*
X129801145Y-104916849D01*
X129801145Y-104916849D01*
G37*
G36*
X124369601Y-112194165D02*
X123395915Y-111220479D01*
X124192825Y-110423569D01*
X125166511Y-111397255D01*
X124369601Y-112194165D01*
X124369601Y-112194165D01*
G37*
G36*
X125783815Y-110779951D02*
X124810129Y-109806265D01*
X125607039Y-109009355D01*
X126580725Y-109983041D01*
X125783815Y-110779951D01*
X125783815Y-110779951D01*
G37*
G36*
X120708245Y-94862879D02*
X119734559Y-95836565D01*
X118937649Y-95039655D01*
X119911335Y-94065969D01*
X120708245Y-94862879D01*
X120708245Y-94862879D01*
G37*
G36*
X119294031Y-93448665D02*
X118320345Y-94422351D01*
X117523435Y-93625441D01*
X118497121Y-92651755D01*
X119294031Y-93448665D01*
X119294031Y-93448665D01*
G37*
G36*
X122660639Y-107708875D02*
X123634325Y-108682561D01*
X122837415Y-109479471D01*
X121863729Y-108505785D01*
X122660639Y-107708875D01*
X122660639Y-107708875D01*
G37*
G36*
X121246425Y-109123089D02*
X122220111Y-110096775D01*
X121423201Y-110893685D01*
X120449515Y-109919999D01*
X121246425Y-109123089D01*
X121246425Y-109123089D01*
G37*
G36*
X119580485Y-110407679D02*
X118606799Y-111381365D01*
X117809889Y-110584455D01*
X118783575Y-109610769D01*
X119580485Y-110407679D01*
X119580485Y-110407679D01*
G37*
G36*
X118166271Y-108993465D02*
X117192585Y-109967151D01*
X116395675Y-109170241D01*
X117369361Y-108196555D01*
X118166271Y-108993465D01*
X118166271Y-108993465D01*
G37*
G36*
X120652715Y-97059521D02*
X121626401Y-96085835D01*
X122423311Y-96882745D01*
X121449625Y-97856431D01*
X120652715Y-97059521D01*
X120652715Y-97059521D01*
G37*
G36*
X122066929Y-98473735D02*
X123040615Y-97500049D01*
X123837525Y-98296959D01*
X122863839Y-99270645D01*
X122066929Y-98473735D01*
X122066929Y-98473735D01*
G37*
G36*
X122396479Y-100678155D02*
X123370165Y-101651841D01*
X122573255Y-102448751D01*
X121599569Y-101475065D01*
X122396479Y-100678155D01*
X122396479Y-100678155D01*
G37*
G36*
X120982265Y-102092369D02*
X121955951Y-103066055D01*
X121159041Y-103862965D01*
X120185355Y-102889279D01*
X120982265Y-102092369D01*
X120982265Y-102092369D01*
G37*
D14*
X138303000Y-71603360D03*
X138303000Y-73603360D03*
D15*
X137575800Y-86995000D03*
X135575800Y-86995000D03*
D10*
G36*
X120994399Y-99255755D02*
X121968085Y-100229441D01*
X121171175Y-101026351D01*
X120197489Y-100052665D01*
X120994399Y-99255755D01*
X120994399Y-99255755D01*
G37*
G36*
X119580185Y-100669969D02*
X120553871Y-101643655D01*
X119756961Y-102440565D01*
X118783275Y-101466879D01*
X119580185Y-100669969D01*
X119580185Y-100669969D01*
G37*
D16*
X108585000Y-118414800D03*
D17*
X111125000Y-118414800D03*
X113665000Y-118414800D03*
X116205000Y-118414800D03*
D18*
X150368000Y-98425000D03*
D19*
X150368000Y-95885000D03*
X150368000Y-93345000D03*
X150368000Y-90805000D03*
X150368000Y-88265000D03*
X150368000Y-85725000D03*
X150368000Y-83185000D03*
X150368000Y-80645000D03*
X150368000Y-78105000D03*
X150368000Y-75565000D03*
X150368000Y-73025000D03*
X150368000Y-70485000D03*
D18*
X108077000Y-70231000D03*
D19*
X108077000Y-72771000D03*
X108077000Y-75311000D03*
X108077000Y-77851000D03*
X108077000Y-80391000D03*
X108077000Y-82931000D03*
X108077000Y-85471000D03*
X108077000Y-88011000D03*
X108077000Y-90551000D03*
X108077000Y-93091000D03*
X108077000Y-95631000D03*
X108077000Y-98171000D03*
D18*
X108127800Y-110820200D03*
D19*
X108127800Y-108280200D03*
X108127800Y-105740200D03*
X108127800Y-103200200D03*
D16*
X132816600Y-118414800D03*
D17*
X130276600Y-118414800D03*
X127736600Y-118414800D03*
X125196600Y-118414800D03*
X122656600Y-118414800D03*
X120116600Y-118414800D03*
D18*
X150368000Y-109702600D03*
D19*
X150368000Y-107162600D03*
X150368000Y-104622600D03*
X150368000Y-102082600D03*
D20*
X127429800Y-67782440D03*
X120829800Y-67782440D03*
D21*
X139115800Y-68173600D03*
D22*
X141655800Y-68173600D03*
D16*
X136575800Y-118414800D03*
D17*
X139115800Y-118414800D03*
X141655800Y-118414800D03*
X144195800Y-118414800D03*
X146735800Y-118414800D03*
X149275800Y-118414800D03*
D16*
X117094000Y-68072000D03*
D17*
X114554000Y-68072000D03*
X112014000Y-68072000D03*
D23*
X119476520Y-78877120D03*
X119476520Y-80777120D03*
X117210840Y-78892360D03*
X117210840Y-80792360D03*
D24*
X132298400Y-67843400D03*
X134198400Y-67843400D03*
X142549840Y-106563160D03*
X144449840Y-106563160D03*
X142549840Y-108686600D03*
X144449840Y-108686600D03*
X142580320Y-110840520D03*
X144480320Y-110840520D03*
X142580320Y-112989360D03*
X144480320Y-112989360D03*
X143301760Y-101635560D03*
X141401760Y-101635560D03*
X143286520Y-99512120D03*
X141386520Y-99512120D03*
D10*
G36*
X119023359Y-98178795D02*
X119997045Y-99152481D01*
X119200135Y-99949391D01*
X118226449Y-98975705D01*
X119023359Y-98178795D01*
X119023359Y-98178795D01*
G37*
G36*
X117609145Y-99593009D02*
X118582831Y-100566695D01*
X117785921Y-101363605D01*
X116812235Y-100389919D01*
X117609145Y-99593009D01*
X117609145Y-99593009D01*
G37*
D23*
X143281400Y-78737500D03*
X143281400Y-76837500D03*
D13*
X156210000Y-115570000D03*
X102235000Y-115570000D03*
X102235000Y-71120000D03*
M02*
