G04 #@! TF.FileFunction,Copper,L1,Top,Signal*
%FSLAX46Y46*%
G04 Gerber Fmt 4.6, Leading zero omitted, Abs format (unit mm)*
G04 Created by KiCad (PCBNEW 4.0.5) date Tuesday, June 20, 2017 'PMt' 07:53:22 PM*
%MOMM*%
%LPD*%
G01*
G04 APERTURE LIST*
%ADD10C,0.100000*%
%ADD11C,0.457200*%
%ADD12R,1.000000X1.250000*%
%ADD13R,1.250000X1.000000*%
%ADD14R,0.900000X0.800000*%
%ADD15R,1.198880X1.198880*%
%ADD16R,1.727200X2.032000*%
%ADD17O,1.727200X2.032000*%
%ADD18R,2.032000X1.727200*%
%ADD19O,2.032000X1.727200*%
%ADD20R,0.400000X1.350000*%
%ADD21R,1.600000X1.400000*%
%ADD22R,1.900000X1.900000*%
%ADD23C,1.600000*%
%ADD24R,2.032000X2.032000*%
%ADD25O,2.032000X2.032000*%
%ADD26R,1.550000X0.600000*%
%ADD27R,1.800000X1.200000*%
%ADD28R,1.300000X0.700000*%
%ADD29R,1.100000X0.200000*%
%ADD30R,0.700000X0.700000*%
%ADD31C,1.500000*%
%ADD32R,0.700000X0.250000*%
%ADD33R,0.250000X0.700000*%
%ADD34R,1.725000X1.725000*%
%ADD35C,1.016000*%
%ADD36C,0.127000*%
%ADD37C,0.254000*%
%ADD38C,0.508000*%
G04 APERTURE END LIST*
D10*
G36*
X132123341Y-101976324D02*
X133608676Y-103461659D01*
X129648383Y-107421952D01*
X128163048Y-105936617D01*
X132123341Y-101976324D01*
X132123341Y-101976324D01*
G37*
G36*
X125266017Y-108833648D02*
X126751352Y-110318983D01*
X122791059Y-114279276D01*
X121305724Y-112793941D01*
X125266017Y-108833648D01*
X125266017Y-108833648D01*
G37*
D11*
X122936000Y-78867000D03*
X123952000Y-78867000D03*
X124968000Y-78867000D03*
X124968000Y-77978000D03*
X123952000Y-77978000D03*
X122936000Y-77978000D03*
X124968000Y-76962000D03*
X123952000Y-76962000D03*
D12*
X119516400Y-76469240D03*
X117516400Y-76469240D03*
X119496080Y-74305160D03*
X117496080Y-74305160D03*
D13*
X128036320Y-79914240D03*
X128036320Y-81914240D03*
D12*
X134864600Y-81183480D03*
X136864600Y-81183480D03*
D13*
X138988800Y-77069440D03*
X138988800Y-79069440D03*
D14*
X141711680Y-73917520D03*
X141711680Y-71817520D03*
X135636000Y-73744800D03*
X135636000Y-71644800D03*
D15*
X119430800Y-80850740D03*
X119430800Y-78752700D03*
X117124480Y-80845660D03*
X117124480Y-78747620D03*
X132199380Y-67843400D03*
X134297420Y-67843400D03*
D10*
G36*
X122049979Y-106839289D02*
X121873202Y-107016066D01*
X120953963Y-106096827D01*
X121130740Y-105920050D01*
X122049979Y-106839289D01*
X122049979Y-106839289D01*
G37*
G36*
X122403532Y-106485736D02*
X122226755Y-106662513D01*
X121307516Y-105743274D01*
X121484293Y-105566497D01*
X122403532Y-106485736D01*
X122403532Y-106485736D01*
G37*
G36*
X122757086Y-106132182D02*
X122580309Y-106308959D01*
X121661070Y-105389720D01*
X121837847Y-105212943D01*
X122757086Y-106132182D01*
X122757086Y-106132182D01*
G37*
G36*
X123110639Y-105778629D02*
X122933862Y-105955406D01*
X122014623Y-105036167D01*
X122191400Y-104859390D01*
X123110639Y-105778629D01*
X123110639Y-105778629D01*
G37*
G36*
X123464192Y-105425076D02*
X123287415Y-105601853D01*
X122368176Y-104682614D01*
X122544953Y-104505837D01*
X123464192Y-105425076D01*
X123464192Y-105425076D01*
G37*
G36*
X123817746Y-105071522D02*
X123640969Y-105248299D01*
X122721730Y-104329060D01*
X122898507Y-104152283D01*
X123817746Y-105071522D01*
X123817746Y-105071522D01*
G37*
G36*
X124171299Y-104717969D02*
X123994522Y-104894746D01*
X123075283Y-103975507D01*
X123252060Y-103798730D01*
X124171299Y-104717969D01*
X124171299Y-104717969D01*
G37*
G36*
X124524853Y-104364415D02*
X124348076Y-104541192D01*
X123428837Y-103621953D01*
X123605614Y-103445176D01*
X124524853Y-104364415D01*
X124524853Y-104364415D01*
G37*
G36*
X124878406Y-104010862D02*
X124701629Y-104187639D01*
X123782390Y-103268400D01*
X123959167Y-103091623D01*
X124878406Y-104010862D01*
X124878406Y-104010862D01*
G37*
G36*
X125231959Y-103657309D02*
X125055182Y-103834086D01*
X124135943Y-102914847D01*
X124312720Y-102738070D01*
X125231959Y-103657309D01*
X125231959Y-103657309D01*
G37*
G36*
X125585513Y-103303755D02*
X125408736Y-103480532D01*
X124489497Y-102561293D01*
X124666274Y-102384516D01*
X125585513Y-103303755D01*
X125585513Y-103303755D01*
G37*
G36*
X125939066Y-102950202D02*
X125762289Y-103126979D01*
X124843050Y-102207740D01*
X125019827Y-102030963D01*
X125939066Y-102950202D01*
X125939066Y-102950202D01*
G37*
G36*
X125762289Y-99768221D02*
X125939066Y-99944998D01*
X125019827Y-100864237D01*
X124843050Y-100687460D01*
X125762289Y-99768221D01*
X125762289Y-99768221D01*
G37*
G36*
X125408736Y-99414668D02*
X125585513Y-99591445D01*
X124666274Y-100510684D01*
X124489497Y-100333907D01*
X125408736Y-99414668D01*
X125408736Y-99414668D01*
G37*
G36*
X125055182Y-99061114D02*
X125231959Y-99237891D01*
X124312720Y-100157130D01*
X124135943Y-99980353D01*
X125055182Y-99061114D01*
X125055182Y-99061114D01*
G37*
G36*
X124701629Y-98707561D02*
X124878406Y-98884338D01*
X123959167Y-99803577D01*
X123782390Y-99626800D01*
X124701629Y-98707561D01*
X124701629Y-98707561D01*
G37*
G36*
X124348076Y-98354008D02*
X124524853Y-98530785D01*
X123605614Y-99450024D01*
X123428837Y-99273247D01*
X124348076Y-98354008D01*
X124348076Y-98354008D01*
G37*
G36*
X123994522Y-98000454D02*
X124171299Y-98177231D01*
X123252060Y-99096470D01*
X123075283Y-98919693D01*
X123994522Y-98000454D01*
X123994522Y-98000454D01*
G37*
G36*
X123640969Y-97646901D02*
X123817746Y-97823678D01*
X122898507Y-98742917D01*
X122721730Y-98566140D01*
X123640969Y-97646901D01*
X123640969Y-97646901D01*
G37*
G36*
X123287415Y-97293347D02*
X123464192Y-97470124D01*
X122544953Y-98389363D01*
X122368176Y-98212586D01*
X123287415Y-97293347D01*
X123287415Y-97293347D01*
G37*
G36*
X122933862Y-96939794D02*
X123110639Y-97116571D01*
X122191400Y-98035810D01*
X122014623Y-97859033D01*
X122933862Y-96939794D01*
X122933862Y-96939794D01*
G37*
G36*
X122580309Y-96586241D02*
X122757086Y-96763018D01*
X121837847Y-97682257D01*
X121661070Y-97505480D01*
X122580309Y-96586241D01*
X122580309Y-96586241D01*
G37*
G36*
X122226755Y-96232687D02*
X122403532Y-96409464D01*
X121484293Y-97328703D01*
X121307516Y-97151926D01*
X122226755Y-96232687D01*
X122226755Y-96232687D01*
G37*
G36*
X121873202Y-95879134D02*
X122049979Y-96055911D01*
X121130740Y-96975150D01*
X120953963Y-96798373D01*
X121873202Y-95879134D01*
X121873202Y-95879134D01*
G37*
G36*
X119787237Y-96798373D02*
X119610460Y-96975150D01*
X118691221Y-96055911D01*
X118867998Y-95879134D01*
X119787237Y-96798373D01*
X119787237Y-96798373D01*
G37*
G36*
X119433684Y-97151926D02*
X119256907Y-97328703D01*
X118337668Y-96409464D01*
X118514445Y-96232687D01*
X119433684Y-97151926D01*
X119433684Y-97151926D01*
G37*
G36*
X119080130Y-97505480D02*
X118903353Y-97682257D01*
X117984114Y-96763018D01*
X118160891Y-96586241D01*
X119080130Y-97505480D01*
X119080130Y-97505480D01*
G37*
G36*
X118726577Y-97859033D02*
X118549800Y-98035810D01*
X117630561Y-97116571D01*
X117807338Y-96939794D01*
X118726577Y-97859033D01*
X118726577Y-97859033D01*
G37*
G36*
X118373024Y-98212586D02*
X118196247Y-98389363D01*
X117277008Y-97470124D01*
X117453785Y-97293347D01*
X118373024Y-98212586D01*
X118373024Y-98212586D01*
G37*
G36*
X118019470Y-98566140D02*
X117842693Y-98742917D01*
X116923454Y-97823678D01*
X117100231Y-97646901D01*
X118019470Y-98566140D01*
X118019470Y-98566140D01*
G37*
G36*
X117665917Y-98919693D02*
X117489140Y-99096470D01*
X116569901Y-98177231D01*
X116746678Y-98000454D01*
X117665917Y-98919693D01*
X117665917Y-98919693D01*
G37*
G36*
X117312363Y-99273247D02*
X117135586Y-99450024D01*
X116216347Y-98530785D01*
X116393124Y-98354008D01*
X117312363Y-99273247D01*
X117312363Y-99273247D01*
G37*
G36*
X116958810Y-99626800D02*
X116782033Y-99803577D01*
X115862794Y-98884338D01*
X116039571Y-98707561D01*
X116958810Y-99626800D01*
X116958810Y-99626800D01*
G37*
G36*
X116605257Y-99980353D02*
X116428480Y-100157130D01*
X115509241Y-99237891D01*
X115686018Y-99061114D01*
X116605257Y-99980353D01*
X116605257Y-99980353D01*
G37*
G36*
X116251703Y-100333907D02*
X116074926Y-100510684D01*
X115155687Y-99591445D01*
X115332464Y-99414668D01*
X116251703Y-100333907D01*
X116251703Y-100333907D01*
G37*
G36*
X115898150Y-100687460D02*
X115721373Y-100864237D01*
X114802134Y-99944998D01*
X114978911Y-99768221D01*
X115898150Y-100687460D01*
X115898150Y-100687460D01*
G37*
G36*
X115721373Y-102030963D02*
X115898150Y-102207740D01*
X114978911Y-103126979D01*
X114802134Y-102950202D01*
X115721373Y-102030963D01*
X115721373Y-102030963D01*
G37*
G36*
X116074926Y-102384516D02*
X116251703Y-102561293D01*
X115332464Y-103480532D01*
X115155687Y-103303755D01*
X116074926Y-102384516D01*
X116074926Y-102384516D01*
G37*
G36*
X116428480Y-102738070D02*
X116605257Y-102914847D01*
X115686018Y-103834086D01*
X115509241Y-103657309D01*
X116428480Y-102738070D01*
X116428480Y-102738070D01*
G37*
G36*
X116782033Y-103091623D02*
X116958810Y-103268400D01*
X116039571Y-104187639D01*
X115862794Y-104010862D01*
X116782033Y-103091623D01*
X116782033Y-103091623D01*
G37*
G36*
X117135586Y-103445176D02*
X117312363Y-103621953D01*
X116393124Y-104541192D01*
X116216347Y-104364415D01*
X117135586Y-103445176D01*
X117135586Y-103445176D01*
G37*
G36*
X117489140Y-103798730D02*
X117665917Y-103975507D01*
X116746678Y-104894746D01*
X116569901Y-104717969D01*
X117489140Y-103798730D01*
X117489140Y-103798730D01*
G37*
G36*
X117842693Y-104152283D02*
X118019470Y-104329060D01*
X117100231Y-105248299D01*
X116923454Y-105071522D01*
X117842693Y-104152283D01*
X117842693Y-104152283D01*
G37*
G36*
X118196247Y-104505837D02*
X118373024Y-104682614D01*
X117453785Y-105601853D01*
X117277008Y-105425076D01*
X118196247Y-104505837D01*
X118196247Y-104505837D01*
G37*
G36*
X118549800Y-104859390D02*
X118726577Y-105036167D01*
X117807338Y-105955406D01*
X117630561Y-105778629D01*
X118549800Y-104859390D01*
X118549800Y-104859390D01*
G37*
G36*
X118903353Y-105212943D02*
X119080130Y-105389720D01*
X118160891Y-106308959D01*
X117984114Y-106132182D01*
X118903353Y-105212943D01*
X118903353Y-105212943D01*
G37*
G36*
X119256907Y-105566497D02*
X119433684Y-105743274D01*
X118514445Y-106662513D01*
X118337668Y-106485736D01*
X119256907Y-105566497D01*
X119256907Y-105566497D01*
G37*
G36*
X119610460Y-105920050D02*
X119787237Y-106096827D01*
X118867998Y-107016066D01*
X118691221Y-106839289D01*
X119610460Y-105920050D01*
X119610460Y-105920050D01*
G37*
D13*
X138297920Y-73583040D03*
X138297920Y-71583040D03*
D16*
X108585000Y-118414800D03*
D17*
X111125000Y-118414800D03*
X113665000Y-118414800D03*
X116205000Y-118414800D03*
D18*
X150368000Y-98425000D03*
D19*
X150368000Y-95885000D03*
X150368000Y-93345000D03*
X150368000Y-90805000D03*
X150368000Y-88265000D03*
X150368000Y-85725000D03*
X150368000Y-83185000D03*
X150368000Y-80645000D03*
X150368000Y-78105000D03*
X150368000Y-75565000D03*
X150368000Y-73025000D03*
X150368000Y-70485000D03*
D18*
X108077000Y-70231000D03*
D19*
X108077000Y-72771000D03*
X108077000Y-75311000D03*
X108077000Y-77851000D03*
X108077000Y-80391000D03*
X108077000Y-82931000D03*
X108077000Y-85471000D03*
X108077000Y-88011000D03*
X108077000Y-90551000D03*
X108077000Y-93091000D03*
X108077000Y-95631000D03*
X108077000Y-98171000D03*
D18*
X108127800Y-110820200D03*
D19*
X108127800Y-108280200D03*
X108127800Y-105740200D03*
X108127800Y-103200200D03*
D16*
X132816600Y-118414800D03*
D17*
X130276600Y-118414800D03*
X127736600Y-118414800D03*
X125196600Y-118414800D03*
X122656600Y-118414800D03*
X120116600Y-118414800D03*
D18*
X150368000Y-109702600D03*
D19*
X150368000Y-107162600D03*
X150368000Y-104622600D03*
X150368000Y-102082600D03*
D20*
X124129800Y-70457440D03*
X123479800Y-70457440D03*
X122829800Y-70457440D03*
X124779800Y-70457440D03*
X125429800Y-70457440D03*
D21*
X127329800Y-70232440D03*
X120929800Y-70232440D03*
D22*
X125329800Y-67782440D03*
X122929800Y-67782440D03*
D23*
X127429800Y-67782440D03*
X120829800Y-67782440D03*
D24*
X139115800Y-68173600D03*
D25*
X141655800Y-68173600D03*
D16*
X136575800Y-118414800D03*
D17*
X139115800Y-118414800D03*
X141655800Y-118414800D03*
X144195800Y-118414800D03*
X146735800Y-118414800D03*
X149275800Y-118414800D03*
D26*
X141231500Y-99419280D03*
X141231500Y-100419280D03*
X141231500Y-101419280D03*
X141231500Y-102419280D03*
D27*
X143756500Y-98119280D03*
X143756500Y-103719280D03*
D26*
X143924140Y-110857160D03*
X143924140Y-109857160D03*
X143924140Y-108857160D03*
X143924140Y-107857160D03*
D27*
X141399140Y-112157160D03*
X141399140Y-106557160D03*
D16*
X117094000Y-68072000D03*
D17*
X114554000Y-68072000D03*
X112014000Y-68072000D03*
D28*
X122519440Y-84673480D03*
X122519440Y-82773480D03*
X130246120Y-81681360D03*
X130246120Y-79781360D03*
X124724160Y-84678560D03*
X124724160Y-82778560D03*
X128381760Y-74330520D03*
X128381760Y-76230520D03*
X136545320Y-115758000D03*
X136545320Y-113858000D03*
D29*
X138275000Y-89368400D03*
X138275000Y-84418400D03*
X134775000Y-89368400D03*
X134775000Y-84418400D03*
D30*
X134775000Y-84668400D03*
X138275000Y-89118400D03*
X134775000Y-89118400D03*
X138275000Y-84668400D03*
D31*
X143982440Y-72659240D03*
D14*
X136839200Y-78915300D03*
X136839200Y-77015300D03*
X134839200Y-77965300D03*
D15*
X143217900Y-76674980D03*
X143217900Y-78773020D03*
D32*
X126339300Y-79816900D03*
X126339300Y-79316900D03*
X126339300Y-78816900D03*
X126339300Y-78316900D03*
X126339300Y-77816900D03*
X126339300Y-77316900D03*
X126339300Y-76816900D03*
X126339300Y-76316900D03*
D33*
X125689300Y-75666900D03*
X125189300Y-75666900D03*
X124689300Y-75666900D03*
X124189300Y-75666900D03*
X123689300Y-75666900D03*
X123189300Y-75666900D03*
X122689300Y-75666900D03*
X122189300Y-75666900D03*
D32*
X121539300Y-76316900D03*
X121539300Y-76816900D03*
X121539300Y-77316900D03*
X121539300Y-77816900D03*
X121539300Y-78316900D03*
X121539300Y-78816900D03*
X121539300Y-79316900D03*
X121539300Y-79816900D03*
D33*
X122189300Y-80466900D03*
X122689300Y-80466900D03*
X123189300Y-80466900D03*
X123689300Y-80466900D03*
X124189300Y-80466900D03*
X124689300Y-80466900D03*
X125189300Y-80466900D03*
X125689300Y-80466900D03*
D34*
X123076800Y-77204400D03*
X123076800Y-78929400D03*
X124801800Y-77204400D03*
X124801800Y-78929400D03*
D11*
X122936000Y-76962000D03*
X132831840Y-107167680D03*
X122890280Y-103251000D03*
X117165120Y-92374720D03*
X123134120Y-100243640D03*
X120406160Y-111109760D03*
X117861080Y-107193080D03*
X119771160Y-103581200D03*
X117170200Y-101798120D03*
X127487680Y-111333280D03*
X131307840Y-107553760D03*
X137744200Y-100528120D03*
X122682000Y-95961200D03*
X139496800Y-86893400D03*
X133426200Y-69138800D03*
D35*
X126644400Y-83413600D03*
X118262400Y-70866000D03*
X139954000Y-72847200D03*
X129844800Y-70307200D03*
X123169680Y-72069960D03*
D11*
X124739400Y-85923120D03*
X129905760Y-74472800D03*
X116326920Y-75270360D03*
D35*
X138684000Y-80954880D03*
D11*
X126918720Y-112938560D03*
X121787920Y-107706160D03*
X118424960Y-107589320D03*
X118303040Y-102118160D03*
X145618200Y-100868480D03*
X138109960Y-101422200D03*
X134950200Y-113858040D03*
X120853200Y-95745300D03*
X135585200Y-67868800D03*
D35*
X140665200Y-76454000D03*
D11*
X123428760Y-102702360D03*
D35*
X140106400Y-71374000D03*
X133771640Y-71688960D03*
X121315480Y-73370440D03*
D11*
X121386600Y-74955400D03*
X125780800Y-81508600D03*
X122189240Y-103992680D03*
X129753360Y-89799160D03*
X126959360Y-90357960D03*
X125227080Y-93543120D03*
X125374400Y-106108500D03*
X133553200Y-84124800D03*
X121640600Y-74269600D03*
X118313200Y-79806800D03*
X115798600Y-80111600D03*
X126121160Y-102428040D03*
X126568200Y-92481400D03*
X127254000Y-98450400D03*
X124129800Y-94640400D03*
X135900160Y-96616520D03*
X128076960Y-94081600D03*
X136210040Y-95890080D03*
X127939800Y-93431360D03*
X112928400Y-111442500D03*
X117119400Y-115785900D03*
X128864360Y-97871280D03*
X133771640Y-98298000D03*
X138750040Y-102179120D03*
X133421120Y-98902520D03*
X128635760Y-98602800D03*
X139364720Y-102930960D03*
X113258600Y-83921600D03*
X118755160Y-104124760D03*
X145740120Y-106588560D03*
X145775680Y-108691680D03*
X145775680Y-110845600D03*
X145613120Y-112989360D03*
X128930400Y-102184200D03*
X123310650Y-107537250D03*
X128905000Y-101473000D03*
X123329700Y-106870500D03*
X123380500Y-106210100D03*
X128689100Y-100901500D03*
X141084300Y-81724500D03*
X115849400Y-98094800D03*
X112483900Y-97701100D03*
X111709200Y-98196400D03*
X114782600Y-98183700D03*
X117259100Y-106324400D03*
X116789200Y-107569000D03*
X130810000Y-67843400D03*
X143941800Y-75044300D03*
D36*
X130885862Y-104699138D02*
X130885862Y-105221702D01*
X130885862Y-105221702D02*
X132831840Y-107167680D01*
X130885862Y-104699138D02*
X128383962Y-104699138D01*
X125109747Y-106540300D02*
X123269738Y-104700291D01*
X126542800Y-106540300D02*
X125109747Y-106540300D01*
X128383962Y-104699138D02*
X126542800Y-106540300D01*
D37*
X123976845Y-103993184D02*
X123967744Y-103993184D01*
X123967744Y-103993184D02*
X123225560Y-103251000D01*
X123225560Y-103251000D02*
X122890280Y-103251000D01*
D36*
X118885676Y-106114505D02*
X118885676Y-106168484D01*
D37*
X118885676Y-106168484D02*
X117861080Y-107193080D01*
D36*
X138853040Y-99419280D02*
X141231500Y-99419280D01*
X137744200Y-100528120D02*
X138853040Y-99419280D01*
D37*
X121855524Y-96780695D02*
X121862505Y-96780695D01*
X121862505Y-96780695D02*
X122682000Y-95961200D01*
X143217900Y-78773020D02*
X139285220Y-78773020D01*
X139285220Y-78773020D02*
X138988800Y-79069440D01*
D36*
X138275000Y-89118400D02*
X138275000Y-88115200D01*
X138275000Y-85671600D02*
X139496800Y-86893400D01*
X138275000Y-85671600D02*
X138275000Y-84668400D01*
X138275000Y-88115200D02*
X139496800Y-86893400D01*
X134297420Y-67843400D02*
X134297420Y-68267580D01*
X134297420Y-68267580D02*
X133426200Y-69138800D01*
D38*
X128036320Y-81914240D02*
X128036320Y-82021680D01*
X128036320Y-82021680D02*
X126644400Y-83413600D01*
X120929800Y-70232440D02*
X118895960Y-70232440D01*
X118895960Y-70232440D02*
X118262400Y-70866000D01*
D37*
X122689300Y-80466900D02*
X122689300Y-79316900D01*
X122689300Y-79316900D02*
X123076800Y-78929400D01*
X121539300Y-79816900D02*
X122189300Y-79816900D01*
X122189300Y-79816900D02*
X123076800Y-78929400D01*
X121539300Y-77816900D02*
X122464300Y-77816900D01*
X122464300Y-77816900D02*
X123076800Y-77204400D01*
X121539300Y-76316900D02*
X122189300Y-76316900D01*
X122189300Y-76316900D02*
X123076800Y-77204400D01*
X123076800Y-77204400D02*
X124801800Y-77204400D01*
X124801800Y-77204400D02*
X124801800Y-78929400D01*
X124801800Y-78929400D02*
X123076800Y-78929400D01*
X126339300Y-78316900D02*
X125414300Y-78316900D01*
X125414300Y-78316900D02*
X124801800Y-78929400D01*
D38*
X120929800Y-70232440D02*
X120929800Y-69782440D01*
X120929800Y-69782440D02*
X122929800Y-67782440D01*
X122929800Y-67782440D02*
X124879800Y-67782440D01*
X124879800Y-67782440D02*
X127424880Y-70327520D01*
X127424880Y-70327520D02*
X129844800Y-70307200D01*
X122829800Y-70457440D02*
X122829800Y-71730080D01*
X122829800Y-71730080D02*
X123169680Y-72069960D01*
D36*
X124724160Y-84678560D02*
X124724160Y-85907880D01*
X124724160Y-85907880D02*
X124739400Y-85923120D01*
X128381760Y-74330520D02*
X129763480Y-74330520D01*
X129763480Y-74330520D02*
X129905760Y-74472800D01*
D38*
X117496080Y-74305160D02*
X117292120Y-74305160D01*
X117292120Y-74305160D02*
X116326920Y-75270360D01*
X116326920Y-75279760D02*
X116326920Y-75270360D01*
X117496080Y-76448920D02*
X116326920Y-75279760D01*
X117496080Y-74305160D02*
X117496080Y-76448920D01*
X136864600Y-81183480D02*
X138455400Y-81183480D01*
X138988800Y-80650080D02*
X138684000Y-80954880D01*
X138988800Y-80650080D02*
X138988800Y-79069440D01*
X138455400Y-81183480D02*
X138684000Y-80954880D01*
X136839200Y-78915300D02*
X138834660Y-78915300D01*
X138834660Y-78915300D02*
X138988800Y-79069440D01*
X136839200Y-78915300D02*
X136839200Y-81158080D01*
X136839200Y-81158080D02*
X136864600Y-81183480D01*
D36*
X124028538Y-111556462D02*
X125536622Y-111556462D01*
X125536622Y-111556462D02*
X126918720Y-112938560D01*
X124028538Y-111556462D02*
X124028538Y-106166199D01*
X124028538Y-106166199D02*
X122916184Y-105053845D01*
D37*
X121501971Y-106468058D02*
X121501971Y-107420211D01*
X121501971Y-107420211D02*
X121787920Y-107706160D01*
X118424960Y-107589320D02*
X118516400Y-107497880D01*
X118516400Y-107497880D02*
X118516400Y-107190887D01*
X118516400Y-107190887D02*
X119239229Y-106468058D01*
D36*
X139115800Y-100416360D02*
X141228580Y-100416360D01*
X138109960Y-101422200D02*
X139115800Y-100416360D01*
X141228580Y-100416360D02*
X141231500Y-100419280D01*
X136545320Y-113858000D02*
X134950240Y-113858000D01*
X134950240Y-113858000D02*
X134950200Y-113858040D01*
D37*
X121501971Y-96427142D02*
X121501971Y-96394071D01*
X121501971Y-96394071D02*
X120853200Y-95745300D01*
D38*
X138988800Y-77069440D02*
X140009120Y-77069440D01*
X140009120Y-77069440D02*
X140665200Y-76454000D01*
X136839200Y-77015300D02*
X138934660Y-77015300D01*
X138934660Y-77015300D02*
X138988800Y-77069440D01*
D36*
X123428760Y-102702360D02*
X124330398Y-103603998D01*
X124330398Y-103603998D02*
X124330398Y-103639631D01*
D38*
X125429800Y-70457440D02*
X125429800Y-71617360D01*
X137022840Y-70297040D02*
X138297920Y-71572120D01*
X132801360Y-70297040D02*
X137022840Y-70297040D01*
X130789680Y-72308720D02*
X132801360Y-70297040D01*
X126121160Y-72308720D02*
X130789680Y-72308720D01*
X125429800Y-71617360D02*
X126121160Y-72308720D01*
X138297920Y-71572120D02*
X138297920Y-71583040D01*
X138297920Y-71583040D02*
X140105640Y-71374760D01*
X140105640Y-71374760D02*
X140106400Y-71374000D01*
X119496080Y-74305160D02*
X120380760Y-74305160D01*
X133815800Y-71644800D02*
X135636000Y-71644800D01*
X133771640Y-71688960D02*
X133815800Y-71644800D01*
X120380760Y-74305160D02*
X121315480Y-73370440D01*
X119516400Y-76469240D02*
X119516400Y-74325480D01*
X119516400Y-74325480D02*
X119496080Y-74305160D01*
D37*
X119516400Y-76469240D02*
X119867680Y-76469240D01*
X119867680Y-76469240D02*
X120715340Y-77316900D01*
X120715340Y-77316900D02*
X121539300Y-77316900D01*
D38*
X138297920Y-73583040D02*
X137316720Y-73583040D01*
X137316720Y-73583040D02*
X136789160Y-73055480D01*
X136789160Y-73055480D02*
X136789160Y-72024240D01*
X136789160Y-72024240D02*
X136409720Y-71644800D01*
X136409720Y-71644800D02*
X135636000Y-71644800D01*
D37*
X121386600Y-74955400D02*
X122098100Y-75666900D01*
X122098100Y-75666900D02*
X122189300Y-75666900D01*
X126441200Y-80848200D02*
X126441200Y-79918800D01*
X125780800Y-81508600D02*
X126441200Y-80848200D01*
X126441200Y-79918800D02*
X126339300Y-79816900D01*
X122189300Y-75666900D02*
X122148900Y-75666900D01*
X126339300Y-79816900D02*
X127938980Y-79816900D01*
X127938980Y-79816900D02*
X128036320Y-79914240D01*
D38*
X134864600Y-81183480D02*
X134864600Y-77990700D01*
X134864600Y-77990700D02*
X134839200Y-77965300D01*
D36*
X143982440Y-72659240D02*
X143982440Y-72837040D01*
X143982440Y-72837040D02*
X142901960Y-73917520D01*
X142901960Y-73917520D02*
X141711680Y-73917520D01*
D38*
X141711680Y-73917520D02*
X140666760Y-73917520D01*
X139395200Y-75189080D02*
X134802880Y-75189080D01*
X140666760Y-73917520D02*
X139395200Y-75189080D01*
X135636000Y-73744800D02*
X135636000Y-74355960D01*
X134294880Y-77420980D02*
X134839200Y-77965300D01*
X134294880Y-75697080D02*
X134294880Y-77420980D01*
X135636000Y-74355960D02*
X134802880Y-75189080D01*
X134802880Y-75189080D02*
X134294880Y-75697080D01*
D36*
X123073160Y-103753920D02*
X123623291Y-104304051D01*
X122946160Y-103753920D02*
X123073160Y-103753920D01*
X122428000Y-103753920D02*
X122946160Y-103753920D01*
X122189240Y-103992680D02*
X122428000Y-103753920D01*
X123623291Y-104304051D02*
X123623291Y-104346738D01*
X130434120Y-89118400D02*
X129753360Y-89799160D01*
X126959360Y-90357960D02*
X125227080Y-92090240D01*
X125227080Y-92090240D02*
X125227080Y-93543120D01*
X134775000Y-89118400D02*
X130434120Y-89118400D01*
X123623291Y-104329451D02*
X123623291Y-104346738D01*
X125374400Y-106108500D02*
X123663438Y-104346738D01*
X123663438Y-104346738D02*
X123623291Y-104346738D01*
X134775000Y-84668400D02*
X134775000Y-89118400D01*
X134096800Y-84668400D02*
X134775000Y-84668400D01*
X133553200Y-84124800D02*
X134096800Y-84668400D01*
X121539300Y-76816900D02*
X120936700Y-76816900D01*
X121310400Y-74269600D02*
X121640600Y-74269600D01*
X120675400Y-74904600D02*
X121310400Y-74269600D01*
X120675400Y-76555600D02*
X120675400Y-74904600D01*
X120936700Y-76816900D02*
X120675400Y-76555600D01*
D38*
X141655800Y-68173600D02*
X141655800Y-71761640D01*
X141655800Y-71761640D02*
X141711680Y-71817520D01*
D36*
X119430800Y-80850740D02*
X119357140Y-80850740D01*
X119357140Y-80850740D02*
X118313200Y-79806800D01*
X121539300Y-78816900D02*
X119495000Y-78816900D01*
X119495000Y-78816900D02*
X119430800Y-78752700D01*
X117124480Y-80845660D02*
X116532660Y-80845660D01*
X116532660Y-80845660D02*
X115798600Y-80111600D01*
X121539300Y-78316900D02*
X120861900Y-78316900D01*
X118173500Y-77698600D02*
X117124480Y-78747620D01*
X120421400Y-77698600D02*
X118173500Y-77698600D01*
X120523000Y-77800200D02*
X120421400Y-77698600D01*
X120523000Y-77978000D02*
X120523000Y-77800200D01*
X120861900Y-78316900D02*
X120523000Y-77978000D01*
X150368000Y-109702600D02*
X149656800Y-109702600D01*
X149656800Y-109702600D02*
X146182080Y-106227880D01*
X146182080Y-106227880D02*
X146182080Y-105724960D01*
X146182080Y-105724960D02*
X145623280Y-105166160D01*
X145623280Y-105166160D02*
X136403080Y-105166160D01*
X136403080Y-105166160D02*
X132044440Y-100807520D01*
X132044440Y-100807520D02*
X130926840Y-100807520D01*
X130926840Y-100807520D02*
X127909320Y-103825040D01*
X127909320Y-103825040D02*
X125930021Y-103825040D01*
X125930021Y-103825040D02*
X125037505Y-102932524D01*
X130246120Y-81681360D02*
X130246120Y-88498680D01*
X125970229Y-102578971D02*
X125391058Y-102578971D01*
X126121160Y-102428040D02*
X125970229Y-102578971D01*
X126568200Y-92176600D02*
X126568200Y-92481400D01*
X130246120Y-88498680D02*
X126568200Y-92176600D01*
X122519440Y-84673480D02*
X122516900Y-93411040D01*
X127254000Y-98450400D02*
X125413571Y-100316229D01*
X122516900Y-93411040D02*
X124129800Y-94640400D01*
X125413571Y-100316229D02*
X125391058Y-100316229D01*
X150368000Y-107162600D02*
X150053040Y-107162600D01*
X150053040Y-107162600D02*
X146852640Y-103962200D01*
X146852640Y-103962200D02*
X146852640Y-97119440D01*
X146852640Y-97119440D02*
X146349720Y-96616520D01*
X146349720Y-96616520D02*
X135900160Y-96616520D01*
X128076960Y-94081600D02*
X123623291Y-98535269D01*
X123623291Y-98535269D02*
X123623291Y-98548462D01*
X150368000Y-104622600D02*
X149550120Y-104622600D01*
X149550120Y-104622600D02*
X147411440Y-102483920D01*
X147411440Y-102483920D02*
X147411440Y-96672400D01*
X147411440Y-96672400D02*
X146629120Y-95890080D01*
X146629120Y-95890080D02*
X136210040Y-95890080D01*
X127939800Y-93431360D02*
X123269738Y-98101422D01*
X123269738Y-98101422D02*
X123269738Y-98194909D01*
X108077000Y-93091000D02*
X109575600Y-93091000D01*
X116706861Y-96723200D02*
X117825016Y-97841355D01*
X113207800Y-96723200D02*
X116706861Y-96723200D01*
X109575600Y-93091000D02*
X113207800Y-96723200D01*
X108127800Y-103200200D02*
X108127800Y-102831900D01*
X108127800Y-102831900D02*
X113753900Y-97205800D01*
X113753900Y-97205800D02*
X116482353Y-97205800D01*
X116482353Y-97205800D02*
X117471462Y-98194909D01*
X108127800Y-105740200D02*
X108127800Y-105371900D01*
X108127800Y-105371900D02*
X110477300Y-103022400D01*
X110477300Y-103022400D02*
X110477300Y-101168200D01*
X110477300Y-101168200D02*
X114020600Y-97624900D01*
X114020600Y-97624900D02*
X116194347Y-97624900D01*
X116194347Y-97624900D02*
X117117909Y-98548462D01*
X112928400Y-111442500D02*
X113118900Y-111252000D01*
X113118900Y-111252000D02*
X113118900Y-99580700D01*
X113118900Y-99580700D02*
X114007900Y-98691700D01*
X114007900Y-98691700D02*
X115139827Y-98691700D01*
X115139827Y-98691700D02*
X116057249Y-99609122D01*
X113665000Y-118414800D02*
X113665000Y-99631500D01*
X115016919Y-99275900D02*
X115703695Y-99962676D01*
X114020600Y-99275900D02*
X115016919Y-99275900D01*
X113665000Y-99631500D02*
X114020600Y-99275900D01*
X116205000Y-118414800D02*
X116205000Y-116814600D01*
X114223800Y-101442571D02*
X115350142Y-100316229D01*
X114223800Y-114833400D02*
X114223800Y-101442571D01*
X116205000Y-116814600D02*
X114223800Y-114833400D01*
X115350142Y-102578971D02*
X115226031Y-102578971D01*
X115226031Y-102578971D02*
X114477802Y-103327200D01*
X114477802Y-113144302D02*
X117119400Y-115785900D01*
X114477802Y-103327200D02*
X114477802Y-113144302D01*
X115350142Y-102578971D02*
X115317071Y-102578971D01*
X120116600Y-118414800D02*
X120116600Y-117221000D01*
X114757200Y-103879019D02*
X115703695Y-102932524D01*
X114757200Y-111861600D02*
X114757200Y-103879019D01*
X120116600Y-117221000D02*
X114757200Y-111861600D01*
X122656600Y-118414800D02*
X122301000Y-118414800D01*
X122301000Y-118414800D02*
X115366800Y-111480600D01*
X115366800Y-111480600D02*
X115366800Y-103976527D01*
X115366800Y-103976527D02*
X116057249Y-103286078D01*
X125196600Y-118414800D02*
X125082300Y-118414800D01*
X125082300Y-118414800D02*
X122948700Y-116281200D01*
X122948700Y-116281200D02*
X121119900Y-116281200D01*
X121119900Y-116281200D02*
X115824000Y-110985300D01*
X115824000Y-110985300D02*
X115824000Y-104226433D01*
X115824000Y-104226433D02*
X116410802Y-103639631D01*
X127736600Y-118414800D02*
X127736600Y-118237000D01*
X127736600Y-118237000D02*
X125780800Y-116281200D01*
X125780800Y-116281200D02*
X123825000Y-116281200D01*
X123825000Y-116281200D02*
X123215400Y-115671600D01*
X123215400Y-115671600D02*
X121424700Y-115671600D01*
X121424700Y-115671600D02*
X116179600Y-110426500D01*
X116179600Y-110426500D02*
X116179600Y-104577939D01*
X116179600Y-104577939D02*
X116764355Y-103993184D01*
X117117909Y-104346738D02*
X117117909Y-104324371D01*
X117117909Y-104324371D02*
X120258840Y-101132640D01*
X120258840Y-101132640D02*
X125404880Y-101132640D01*
X125404880Y-101132640D02*
X128717040Y-97871280D01*
X128717040Y-97871280D02*
X128864360Y-97871280D01*
X133771640Y-98298000D02*
X136743440Y-101269800D01*
X136743440Y-101269800D02*
X136743440Y-102036880D01*
X136743440Y-102036880D02*
X136885680Y-102179120D01*
X136885680Y-102179120D02*
X138750040Y-102179120D01*
X139451080Y-101478080D02*
X141172700Y-101478080D01*
X138750040Y-102179120D02*
X139451080Y-101478080D01*
X141172700Y-101478080D02*
X141231500Y-101419280D01*
X117471462Y-104700291D02*
X117471462Y-104499138D01*
X136779000Y-102930960D02*
X139364720Y-102930960D01*
X135910320Y-102062280D02*
X136779000Y-102930960D01*
X135910320Y-101391720D02*
X135910320Y-102062280D01*
X133421120Y-98902520D02*
X135910320Y-101391720D01*
X125785880Y-101452680D02*
X128635760Y-98602800D01*
X120517920Y-101452680D02*
X125785880Y-101452680D01*
X117471462Y-104499138D02*
X120517920Y-101452680D01*
X139842240Y-102453440D02*
X141197340Y-102453440D01*
X139364720Y-102930960D02*
X139842240Y-102453440D01*
X141197340Y-102453440D02*
X141231500Y-102419280D01*
X114554000Y-68072000D02*
X114554000Y-82626200D01*
X114554000Y-82626200D02*
X113258600Y-83921600D01*
X118755160Y-104124760D02*
X117826075Y-105053845D01*
X117826075Y-105053845D02*
X117825016Y-105053845D01*
X126339300Y-79316900D02*
X126880300Y-79316900D01*
X129357160Y-78892400D02*
X130246120Y-79781360D01*
X127304800Y-78892400D02*
X129357160Y-78892400D01*
X126880300Y-79316900D02*
X127304800Y-78892400D01*
X126339300Y-76316900D02*
X128295380Y-76316900D01*
X128295380Y-76316900D02*
X128381760Y-76230520D01*
X124689300Y-80466900D02*
X124689300Y-80893220D01*
X123510000Y-81782920D02*
X122519440Y-82773480D01*
X123799600Y-81782920D02*
X123510000Y-81782920D01*
X124689300Y-80893220D02*
X123799600Y-81782920D01*
X125689300Y-80466900D02*
X125689300Y-80929540D01*
X124724160Y-81894680D02*
X124724160Y-82778560D01*
X125689300Y-80929540D02*
X124724160Y-81894680D01*
X136575800Y-118414800D02*
X136575800Y-115788480D01*
X136575800Y-115788480D02*
X136545320Y-115758000D01*
X145324960Y-107857160D02*
X143924140Y-107857160D01*
X145526760Y-107655360D02*
X145324960Y-107857160D01*
X145526760Y-106801920D02*
X145526760Y-107655360D01*
X145740120Y-106588560D02*
X145526760Y-106801920D01*
X145610200Y-108857160D02*
X143924140Y-108857160D01*
X145775680Y-108691680D02*
X145610200Y-108857160D01*
X144787240Y-109857160D02*
X143924140Y-109857160D01*
X145775680Y-110845600D02*
X144787240Y-109857160D01*
X143924140Y-111300380D02*
X143924140Y-110857160D01*
X145613120Y-112989360D02*
X143924140Y-111300380D01*
X135674100Y-95440500D02*
X128930400Y-102184200D01*
X146418300Y-95440500D02*
X135674100Y-95440500D01*
X148513800Y-93345000D02*
X146418300Y-95440500D01*
X150368000Y-93345000D02*
X148513800Y-93345000D01*
X123310650Y-107537250D02*
X121855524Y-106120224D01*
X121855524Y-106120224D02*
X121855524Y-106114505D01*
X150368000Y-90805000D02*
X149834600Y-90805000D01*
X149834600Y-90805000D02*
X145694400Y-94945200D01*
X145694400Y-94945200D02*
X135432800Y-94945200D01*
X135432800Y-94945200D02*
X128905000Y-101473000D01*
X123329700Y-106870500D02*
X122232851Y-105760951D01*
X122232851Y-105760951D02*
X122209078Y-105760951D01*
X122562631Y-105407398D02*
X122577798Y-105407398D01*
X122577798Y-105407398D02*
X123380500Y-106210100D01*
X128689100Y-100901500D02*
X135102600Y-94488000D01*
X135102600Y-94488000D02*
X144145000Y-94488000D01*
X144145000Y-94488000D02*
X150368000Y-88265000D01*
X150368000Y-85725000D02*
X150154640Y-85725000D01*
X150154640Y-85725000D02*
X148097240Y-87782400D01*
X148097240Y-87782400D02*
X148097240Y-89458800D01*
X148097240Y-89458800D02*
X143449040Y-94107000D01*
X143449040Y-94107000D02*
X134569200Y-94107000D01*
X134569200Y-94107000D02*
X126710440Y-101965760D01*
X126710440Y-101965760D02*
X125674120Y-101965760D01*
X125674120Y-101965760D02*
X125374400Y-101752400D01*
X125374400Y-101752400D02*
X124327920Y-101752400D01*
X124327920Y-101752400D02*
X123891040Y-102092760D01*
X123891040Y-102092760D02*
X123891040Y-102493167D01*
X123891040Y-102493167D02*
X124683951Y-103286078D01*
X150368000Y-83185000D02*
X144640300Y-83185000D01*
X131566281Y-93433900D02*
X125037505Y-99962676D01*
X140487400Y-93433900D02*
X131566281Y-93433900D01*
X142544800Y-91376500D02*
X140487400Y-93433900D01*
X142544800Y-85280500D02*
X142544800Y-91376500D01*
X144640300Y-83185000D02*
X142544800Y-85280500D01*
X150368000Y-80645000D02*
X146126200Y-80645000D01*
X131532273Y-92760800D02*
X124683951Y-99609122D01*
X140081000Y-92760800D02*
X131532273Y-92760800D01*
X142163800Y-90678000D02*
X140081000Y-92760800D01*
X142163800Y-84607400D02*
X142163800Y-90678000D01*
X146126200Y-80645000D02*
X142163800Y-84607400D01*
X150368000Y-78105000D02*
X147434300Y-78105000D01*
X131485567Y-92100400D02*
X124330398Y-99255569D01*
X139839700Y-92100400D02*
X131485567Y-92100400D01*
X141795500Y-90144600D02*
X139839700Y-92100400D01*
X141795500Y-83696614D02*
X141795500Y-90144600D01*
X146726714Y-78765400D02*
X141795500Y-83696614D01*
X146773900Y-78765400D02*
X146726714Y-78765400D01*
X147434300Y-78105000D02*
X146773900Y-78765400D01*
X150368000Y-75565000D02*
X147269200Y-75565000D01*
X131400761Y-91478100D02*
X123976845Y-98902016D01*
X139420600Y-91478100D02*
X131400761Y-91478100D01*
X141325600Y-89573100D02*
X139420600Y-91478100D01*
X141325600Y-83807300D02*
X141325600Y-89573100D01*
X146227800Y-78905100D02*
X141325600Y-83807300D01*
X146227800Y-76606400D02*
X146227800Y-78905100D01*
X147269200Y-75565000D02*
X146227800Y-76606400D01*
X124135384Y-98902016D02*
X123976845Y-98902016D01*
X150368000Y-73025000D02*
X147256500Y-73025000D01*
X129863639Y-90893900D02*
X122916184Y-97841355D01*
X139420600Y-90893900D02*
X129863639Y-90893900D01*
X141046200Y-89268300D02*
X139420600Y-90893900D01*
X141046200Y-83477100D02*
X141046200Y-89268300D01*
X145402300Y-79121000D02*
X141046200Y-83477100D01*
X145402300Y-74879200D02*
X145402300Y-79121000D01*
X147256500Y-73025000D02*
X145402300Y-74879200D01*
X122916184Y-97841355D02*
X122960845Y-97841355D01*
X129639133Y-90411300D02*
X122562631Y-97487802D01*
X138798300Y-90411300D02*
X129639133Y-90411300D01*
X140131800Y-89077800D02*
X138798300Y-90411300D01*
X140131800Y-82677000D02*
X140131800Y-89077800D01*
X141084300Y-81724500D02*
X140131800Y-82677000D01*
X122562631Y-97487802D02*
X122577798Y-97487802D01*
X108077000Y-75311000D02*
X108889800Y-75311000D01*
X108889800Y-75311000D02*
X111252000Y-77673200D01*
X111252000Y-77673200D02*
X111252000Y-83477100D01*
X111252000Y-83477100D02*
X123215400Y-95440500D01*
X123215400Y-95440500D02*
X123215400Y-96127927D01*
X123215400Y-96127927D02*
X122209078Y-97134249D01*
X122209078Y-97134249D02*
X122258251Y-97134249D01*
X108077000Y-77851000D02*
X108216700Y-77851000D01*
X108216700Y-77851000D02*
X110794800Y-80429100D01*
X110794800Y-80429100D02*
X110794800Y-84429600D01*
X110794800Y-84429600D02*
X113004600Y-86639400D01*
X113004600Y-86639400D02*
X113004600Y-90192513D01*
X113004600Y-90192513D02*
X119239229Y-96427142D01*
X108077000Y-80391000D02*
X108318300Y-80391000D01*
X108318300Y-80391000D02*
X110337600Y-82410300D01*
X112433100Y-90328119D02*
X118885676Y-96780695D01*
X112433100Y-86944200D02*
X112433100Y-90328119D01*
X110337600Y-84848700D02*
X112433100Y-86944200D01*
X110337600Y-82410300D02*
X110337600Y-84848700D01*
X108077000Y-80391000D02*
X108216700Y-80391000D01*
X108077000Y-82931000D02*
X108077000Y-83197700D01*
X108077000Y-83197700D02*
X111899700Y-87020400D01*
X111899700Y-90501827D02*
X118532122Y-97134249D01*
X111899700Y-87020400D02*
X111899700Y-90501827D01*
X108077000Y-82931000D02*
X108077000Y-83210400D01*
X108077000Y-85471000D02*
X108483400Y-85471000D01*
X108483400Y-85471000D02*
X111023400Y-88011000D01*
X111023400Y-90332633D02*
X118178569Y-97487802D01*
X111023400Y-88011000D02*
X111023400Y-90332633D01*
X108216700Y-85610700D02*
X108077000Y-85471000D01*
X108077000Y-95631000D02*
X110413800Y-95631000D01*
X115849400Y-98094800D02*
X116656616Y-98902016D01*
X110413800Y-95631000D02*
X112483900Y-97701100D01*
X116656616Y-98902016D02*
X116764355Y-98902016D01*
X108077000Y-98171000D02*
X111683800Y-98171000D01*
X111683800Y-98171000D02*
X111709200Y-98196400D01*
X115554833Y-98399600D02*
X116410802Y-99255569D01*
X114998500Y-98399600D02*
X115554833Y-98399600D01*
X114782600Y-98183700D02*
X114998500Y-98399600D01*
X116410802Y-99151502D02*
X116410802Y-99255569D01*
X117259100Y-106324400D02*
X118176102Y-105407398D01*
X118176102Y-105407398D02*
X118178569Y-105407398D01*
X116789200Y-107569000D02*
X118532122Y-105826078D01*
X118532122Y-105826078D02*
X118532122Y-105760951D01*
X132199380Y-67843400D02*
X130810000Y-67843400D01*
D37*
X124129800Y-70457440D02*
X124129800Y-73055480D01*
X123189300Y-73995980D02*
X123189300Y-75666900D01*
X124129800Y-73055480D02*
X123189300Y-73995980D01*
X124779800Y-70457440D02*
X124779800Y-69509400D01*
X122689300Y-74307380D02*
X122689300Y-75666900D01*
X122265440Y-73883520D02*
X122689300Y-74307380D01*
X122265440Y-69636640D02*
X122265440Y-73883520D01*
X122610880Y-69291200D02*
X122265440Y-69636640D01*
X124561600Y-69291200D02*
X122610880Y-69291200D01*
X124779800Y-69509400D02*
X124561600Y-69291200D01*
D36*
X143217900Y-75768200D02*
X143217900Y-76674980D01*
X143941800Y-75044300D02*
X143217900Y-75768200D01*
M02*
